<?xml version="1.0" encoding="utf-8"?>
<!-- Generator: Adobe Illustrator 16.0.0, SVG Export Plug-In . SVG Version: 6.00 Build 0)  -->
<!DOCTYPE svg PUBLIC "-//W3C//DTD SVG 1.1//EN" "http://www.w3.org/Graphics/SVG/1.1/DTD/svg11.dtd">
<svg version="1.1" xmlns="http://www.w3.org/2000/svg" xmlns:xlink="http://www.w3.org/1999/xlink" x="0px" y="0px" width="608.5px"
	 height="403.976px" viewBox="0 0 608.5 403.976" enable-background="new 0 0 608.5 403.976" xml:space="preserve">
<g id="Layer_2">
	<rect x="-132.387" y="-53.627" fill="#DFDFDF" width="959.952" height="713.964"/>
</g>
<g id="Layer_1">
	<g>
		<path fill="none" stroke="#000000" stroke-width="2" stroke-miterlimit="10" d="M434.67,180.266c0,6.627-5.373,12-12,12H203.332
			c-6.628,0-12-5.373-12-12v-23.334c0-6.627,5.372-12,12-12H422.67c6.627,0,12,5.373,12,12V180.266z"/>
		<polygon points="304.187,181.114 304.187,156.084 321.812,168.599 		"/>
	</g>
	<g>
		<polygon points="525.953,58.212 514.533,50.27 519.753,37.392 505.829,36.048 505.521,22.094 491.862,25.195 488.068,11.732 
			475.346,17.596 469.223,5.009 457.583,12.802 449.72,1.218 439.226,10.495 429.953,0 420.678,10.495 410.183,1.219 
			402.316,12.803 390.678,5.011 384.557,17.597 371.838,11.731 368.046,25.193 354.391,22.09 354.082,36.043 340.156,37.388 
			345.374,50.267 333.953,58.212 345.373,66.156 340.153,79.033 354.077,80.377 354.385,94.331 368.044,91.23 359.486,124.771 
			386.719,99.744 390.684,111.416 402.322,103.624 410.187,115.208 420.681,105.93 429.953,116.425 439.228,105.93 449.724,115.207 
			457.59,103.623 469.229,111.415 475.348,98.828 488.068,104.693 491.86,91.232 505.515,94.335 505.825,80.381 519.751,79.037 
			514.532,66.158 		"/>
		<g>
			<defs>
				<polygon id="SVGID_1_" points="525.953,58.212 514.533,50.27 519.753,37.392 505.829,36.048 505.521,22.094 491.862,25.195 
					488.068,11.732 475.346,17.596 469.223,5.009 457.583,12.802 449.72,1.218 439.226,10.495 429.953,0 420.678,10.495 
					410.183,1.219 402.316,12.803 390.678,5.011 384.557,17.597 371.838,11.731 368.046,25.193 354.391,22.09 354.082,36.043 
					340.156,37.388 345.374,50.267 333.953,58.212 345.373,66.156 340.153,79.033 354.077,80.377 354.385,94.331 368.044,91.23 
					359.486,124.771 386.719,99.744 390.684,111.416 402.322,103.624 410.187,115.208 420.681,105.93 429.953,116.425 
					439.228,105.93 449.724,115.207 457.59,103.623 469.229,111.415 475.348,98.828 488.068,104.693 491.86,91.232 505.515,94.335 
					505.825,80.381 519.751,79.037 514.532,66.158 				"/>
			</defs>
			<clipPath id="SVGID_2_">
				<use xlink:href="#SVGID_1_"  overflow="visible"/>
			</clipPath>
			<g clip-path="url(#SVGID_2_)">
				<g>
					<path fill="#9EF7CD" d="M377.071,58.269c0.153-0.238,0.298-0.537,0.437-0.892c0.137-0.353,0.261-0.611,0.368-0.78
						c0.681-1.032,1.494-1.56,2.439-1.588c0.283-0.003,0.624,0.083,1.02,0.262c0.398,0.179,0.748,0.271,1.054,0.284
						c0.051,0.086,0.342,0.433,0.867,1.039c0.528,0.604,0.835,1.08,0.926,1.426c0.044,0.183,0.032,0.485-0.038,0.903
						c-0.069,0.42-0.058,0.753,0.036,1.006c-0.152,0.25-0.268,0.608-0.352,1.077c-0.082,0.469-0.184,0.807-0.305,1.014
						c-0.075,0.125-0.215,0.269-0.42,0.432c-0.203,0.164-0.337,0.289-0.4,0.374c-0.3,0.386-0.7,1.072-1.201,2.057
						c-0.143,0.06-0.301,0.231-0.479,0.512c-0.176,0.284-0.313,0.48-0.409,0.59c-0.082,0.087-0.271,0.237-0.561,0.453
						c-0.29,0.213-0.518,0.414-0.679,0.599c-0.164,0.186-0.236,0.381-0.225,0.59c0.011,0.205,0.418,0.647,1.222,1.326
						c0.153,0.129,0.365,0.34,0.636,0.63c0.271,0.292,0.473,0.496,0.604,0.608c0.154,0.149,0.418,0.304,0.795,0.466
						c0.376,0.163,0.625,0.281,0.751,0.358c0.186,0.104,0.523,0.359,1.009,0.76c0.488,0.402,0.8,0.687,0.94,0.856
						c0.116,0.135,0.263,0.351,0.438,0.646c0.178,0.297,0.287,0.517,0.327,0.663c0.099,0.404,0.051,0.905-0.146,1.503
						c-0.196,0.599-0.454,0.96-0.778,1.084c-0.049,0.046-0.123,0.064-0.219,0.061c-0.096-0.005-0.167-0.003-0.213,0.003
						c-0.046,0.007-0.118-0.006-0.219-0.039c-0.1-0.032-0.175-0.058-0.227-0.081c-0.05-0.021-0.13-0.05-0.24-0.091
						c-0.111-0.042-0.198-0.075-0.257-0.105c-0.104-0.042-0.293-0.113-0.573-0.214c-0.282-0.1-0.493-0.195-0.642-0.288
						c-0.166-0.09-0.36-0.264-0.592-0.524c-0.228-0.259-0.405-0.438-0.533-0.53c-0.174-0.147-0.453-0.308-0.842-0.488
						s-0.654-0.316-0.801-0.408c-0.147-0.092-0.512-0.378-1.096-0.862c-0.587-0.482-1.069-0.8-1.451-0.949
						c-0.184,0.179-0.334,0.405-0.455,0.679c-0.121,0.274-0.237,0.605-0.351,0.993c-0.112,0.386-0.222,0.682-0.322,0.888
						c-0.049,0.063-0.108,0.196-0.183,0.397c-0.075,0.199-0.137,0.332-0.184,0.397c-0.047,0.063-0.166,0.157-0.356,0.28
						c-0.189,0.123-0.325,0.228-0.41,0.317c-0.079,0.087-0.251,0.303-0.514,0.646c-0.263,0.343-0.512,0.635-0.751,0.88
						c-0.239,0.245-0.477,0.402-0.712,0.475c-0.398,0.137-0.798,0.163-1.198,0.08c-0.402-0.082-0.657-0.228-0.764-0.441
						c-0.085-0.177-0.047-0.534,0.109-1.07c0.158-0.534,0.237-0.927,0.238-1.174c-0.001-0.134-0.039-0.306-0.121-0.521
						c-0.078-0.219-0.126-0.383-0.143-0.494c-0.012-0.074,0.014-0.216,0.079-0.424c0.063-0.208,0.087-0.36,0.073-0.454
						c-0.065-0.579-0.075-1.081-0.023-1.504c0.004-0.096,0.029-0.248,0.074-0.454c0.045-0.205,0.072-0.346,0.079-0.423
						c-0.01-0.074-0.048-0.192-0.111-0.354c-0.062-0.162-0.092-0.291-0.083-0.386c-0.012-0.074,0.015-0.179,0.079-0.311
						c0.067-0.134,0.105-0.23,0.115-0.288c0.007-0.211-0.016-0.548-0.066-1.015c-0.051-0.469-0.073-0.816-0.07-1.044
						c0.02-0.25,0.069-0.841,0.148-1.774c0.08-0.932,0.101-1.585,0.062-1.959c-0.016-0.111-0.067-0.369-0.158-0.774
						c-0.086-0.403-0.111-0.675-0.078-0.813c0.007-0.095,0.045-0.243,0.119-0.445s0.114-0.348,0.12-0.444
						c0.004-0.096-0.006-0.256-0.029-0.481c-0.025-0.224-0.023-0.385,0.001-0.483c0.013-0.156,0.079-0.372,0.198-0.656
						c0.12-0.283,0.178-0.492,0.178-0.625c-0.003-0.397-0.048-0.766-0.137-1.103c-0.088-0.338-0.134-0.71-0.138-1.118
						c-0.003-0.407,0.082-0.739,0.25-0.992c0.88-0.584,1.703-0.806,2.466-0.652c1.15,0.208,1.958,1.35,2.42,3.426
						C376.726,58.687,376.918,58.511,377.071,58.269z M380.739,64.157c0.15-0.26,0.292-0.552,0.424-0.875s0.241-0.593,0.323-0.803
						c0.083-0.212,0.188-0.526,0.315-0.944c0.126-0.416,0.226-0.716,0.294-0.896c0.167-0.52,0.295-1.06,0.383-1.624
						c0.087-0.565,0.06-1.147-0.074-1.754c-0.142-0.605-0.442-1.007-0.909-1.203c-0.612-0.174-1.143-0.133-1.589,0.123
						c-0.446,0.256-0.803,0.633-1.071,1.127c-0.072,0.144-0.125,0.385-0.162,0.722c-0.034,0.337-0.069,0.584-0.102,0.741
						c-0.034,0.158-0.119,0.355-0.256,0.594c-0.134,0.237-0.213,0.416-0.233,0.532c-0.018,0.137-0.007,0.39,0.029,0.765
						c0.037,0.374,0.042,0.658,0.013,0.852c-0.019,0.116-0.089,0.294-0.204,0.53c-0.117,0.236-0.186,0.421-0.203,0.557
						c-0.006,0.077,0.012,0.198,0.054,0.36c0.046,0.167,0.064,0.296,0.059,0.392c0.002,0.132-0.035,0.308-0.105,0.528
						c-0.072,0.22-0.112,0.369-0.119,0.445c-0.004,0.229,0.008,0.469,0.036,0.721c0.028,0.251,0.063,0.525,0.108,0.824l0.104,0.696
						c0.784-0.079,1.585-0.636,2.4-1.667C380.426,64.663,380.588,64.417,380.739,64.157z"/>
					<path fill="#9EF7CD" d="M401.954,63.426c0.118,0.288,0.196,0.523,0.233,0.708c0.034,0.184,0.017,0.401-0.06,0.65
						c-0.077,0.248-0.156,0.45-0.24,0.604c-0.079,0.154-0.179,0.346-0.297,0.571s-0.203,0.409-0.259,0.55
						c-0.118,0.36-0.28,0.921-0.491,1.684c-0.208,0.762-0.389,1.334-0.539,1.716c-0.158,0.1-0.298,0.243-0.42,0.434
						c0.033,0.488-0.178,1.122-0.643,1.902c-0.462,0.781-0.692,1.429-0.694,1.941c-0.138,0.096-0.339,0.264-0.607,0.503
						c-0.268,0.239-0.492,0.392-0.672,0.456c-1.854,0.677-3.278-0.603-4.273-3.834c-0.225,0.016-0.354,0.173-0.385,0.472
						c-0.031,0.297-0.079,0.48-0.146,0.547c-0.13,0.152-0.302,0.383-0.523,0.69c-0.221,0.308-0.396,0.543-0.535,0.706
						c-0.136,0.164-0.348,0.343-0.633,0.537c-0.283,0.193-0.606,0.346-0.971,0.459c-1.048,0.344-1.944,0.095-2.688-0.753
						c-0.744-0.849-1.169-2.014-1.275-3.498c-0.004-0.15,0.009-0.384,0.038-0.702c0.027-0.317,0.037-0.561,0.031-0.733
						c-0.014-0.225-0.058-0.583-0.13-1.076c-0.074-0.491-0.108-0.841-0.103-1.051c0.005-0.229,0.037-0.547,0.101-0.956
						c0.063-0.408,0.104-0.679,0.121-0.814c0.057-0.635,0.107-1.102,0.147-1.402c0.04-0.301,0.128-0.636,0.263-1.007
						c0.133-0.372,0.314-0.623,0.542-0.75c0.817-0.503,1.751-0.424,2.798,0.236c0.153,0.395,0.299,0.833,0.438,1.315
						c0.138,0.483,0.289,1.076,0.451,1.784c0.162,0.708,0.283,1.195,0.359,1.469c0.017,0.111-0.023,0.24-0.125,0.39
						c-0.101,0.147-0.151,0.289-0.151,0.421c0.091,0.48,0.099,1.2,0.022,2.16c-0.072,0.959-0.015,1.711,0.18,2.251
						c0.335-0.05,0.6-0.25,0.794-0.603c0.193-0.352,0.372-0.813,0.532-1.388c0.023-0.098,0.043-0.167,0.056-0.208
						c0.087-0.298,0.234-0.742,0.44-1.331c0.206-0.592,0.339-1.005,0.4-1.242c0.047-0.197,0.082-0.663,0.104-1.397
						c0.023-0.732,0.099-1.241,0.229-1.529c0.172-0.368,0.521-0.67,1.044-0.911c0.525-0.238,0.979-0.273,1.366-0.103
						c0.143,0.073,0.311,0.266,0.498,0.58c0.19,0.315,0.305,0.552,0.35,0.717c0.282,0.867,0.421,2.22,0.419,4.051
						c-0.001,1.831,0.157,3.132,0.479,3.9c0.459-0.125,0.835-0.493,1.133-1.109c0.299-0.613,0.504-0.975,0.622-1.088
						c0.345-1.628,0.893-3.038,1.646-4.232c-0.067-0.958,0.125-1.83,0.576-2.622L401.954,63.426z M393.982,55.791
						c0.068,0.217,0.112,0.438,0.126,0.664c0.018,0.227,0.065,0.492,0.148,0.804c-0.153,0.117-0.376,0.402-0.67,0.854
						c-0.291,0.452-0.559,0.771-0.795,0.958c-0.101,0.09-0.297,0.215-0.588,0.371c-0.288,0.158-0.491,0.284-0.611,0.377
						c-1.462,1.147-2.384,1.323-2.768,0.526c-0.246-0.495-0.038-1.19,0.628-2.086c0.155-0.232,0.669-0.785,1.546-1.654
						c0.314-0.314,0.572-0.556,0.776-0.729c0.201-0.172,0.472-0.326,0.812-0.464c0.342-0.135,0.703-0.195,1.084-0.176
						C393.809,55.389,393.91,55.575,393.982,55.791z"/>
					<path fill="#9EF7CD" d="M405.159,62.979c-0.274,1.104-0.371,1.906-0.297,2.406c0.012,0.208,0.092,0.487,0.238,0.833
						c0.146,0.35,0.24,0.585,0.276,0.714c0.016,0.112,0.023,0.272,0.016,0.48c-0.006,0.212-0.003,0.363,0.011,0.456
						c0.091,0.48,0.286,0.91,0.594,1.292c0.302,0.383,0.622,0.633,0.964,0.754c0.368-0.207,0.711-0.481,1.029-0.824
						c0.319-0.342,0.575-0.649,0.76-0.924c0.187-0.276,0.428-0.659,0.728-1.148c0.294-0.491,0.521-0.851,0.678-1.083
						c1.241-1.855,1.915-2.876,2.019-3.063c0.046-0.083,0.114-0.25,0.212-0.5c0.094-0.251,0.202-0.457,0.319-0.617
						c0.12-0.16,0.277-0.274,0.478-0.342c0.038,0.259,0.024,0.514-0.043,0.761c-0.069,0.247-0.196,0.533-0.386,0.855
						c-0.19,0.32-0.314,0.544-0.37,0.666c-0.115,0.246-0.265,0.632-0.439,1.162c-0.177,0.529-0.323,0.917-0.438,1.162
						c-0.09,0.165-0.248,0.384-0.475,0.655c-0.223,0.27-0.382,0.479-0.474,0.624c-0.061,0.104-0.11,0.249-0.148,0.438
						c-0.041,0.186-0.082,0.309-0.131,0.374c-0.213,0.354-0.617,0.856-1.214,1.504c-0.596,0.649-0.995,1.121-1.196,1.417
						c-0.307,0.103-0.607,0.262-0.896,0.477c-0.292,0.213-0.518,0.386-0.68,0.514c-0.16,0.128-0.41,0.236-0.748,0.324
						c-0.339,0.089-0.706,0.077-1.101-0.035c-0.261-0.076-0.66-0.252-1.205-0.533c-0.545-0.279-0.963-0.52-1.261-0.722
						c-0.341-0.255-0.687-0.596-1.036-1.028c-0.348-0.431-0.588-0.828-0.719-1.189c-0.059-0.143-0.104-0.424-0.139-0.846
						c-0.036-0.421-0.076-0.724-0.123-0.908c-0.021-0.149-0.088-0.37-0.199-0.668c-0.108-0.294-0.169-0.528-0.174-0.7
						c-0.078-0.899,0.151-1.906,0.688-3.021c0.534-1.115,1.172-1.944,1.907-2.491c0.287-0.231,0.765-0.528,1.432-0.883
						c0.67-0.355,1.16-0.556,1.479-0.603c0.166-0.024,0.33-0.032,0.495-0.017c0.162,0.013,0.289,0.032,0.378,0.056
						c0.088,0.025,0.238,0.069,0.447,0.134c0.208,0.065,0.353,0.108,0.435,0.136l0.322,0.064c0.195,0.047,0.338,0.088,0.429,0.12
						c0.091,0.035,0.209,0.094,0.355,0.177c0.145,0.084,0.254,0.176,0.324,0.279c0.147,0.34,0.275,0.791,0.388,1.352
						c0.111,0.564,0.089,1.102-0.071,1.618c-0.16,0.519-0.461,0.762-0.9,0.734c-0.289-0.015-0.505-0.149-0.646-0.403
						c-0.142-0.254-0.231-0.535-0.269-0.843c-0.036-0.307-0.138-0.587-0.309-0.835c-0.17-0.251-0.427-0.378-0.77-0.385
						C405.152,61.29,404.971,61.981,405.159,62.979z"/>
					<path fill="#9EF7CD" d="M427.436,59.627c0.119,0.288,0.195,0.523,0.231,0.708c0.037,0.184,0.02,0.401-0.06,0.651
						c-0.077,0.247-0.155,0.45-0.236,0.603c-0.081,0.154-0.179,0.346-0.299,0.572c-0.119,0.225-0.205,0.41-0.26,0.55
						c-0.118,0.36-0.28,0.921-0.49,1.684c-0.208,0.761-0.389,1.334-0.541,1.716c-0.155,0.099-0.296,0.242-0.419,0.434
						c0.034,0.487-0.178,1.122-0.642,1.902c-0.463,0.781-0.692,1.429-0.692,1.94c-0.137,0.097-0.34,0.264-0.609,0.503
						c-0.269,0.239-0.491,0.391-0.672,0.456c-1.854,0.677-3.278-0.603-4.272-3.834c-0.227,0.016-0.354,0.172-0.385,0.472
						c-0.032,0.297-0.08,0.481-0.146,0.547c-0.13,0.153-0.304,0.384-0.524,0.69c-0.219,0.309-0.397,0.544-0.536,0.707
						c-0.136,0.164-0.347,0.343-0.629,0.537c-0.285,0.193-0.608,0.346-0.973,0.459c-1.047,0.344-1.946,0.095-2.688-0.754
						c-0.743-0.848-1.171-2.013-1.276-3.497c-0.004-0.15,0.011-0.385,0.039-0.703c0.028-0.317,0.037-0.56,0.032-0.733
						c-0.014-0.225-0.06-0.583-0.133-1.076c-0.073-0.491-0.104-0.842-0.1-1.052c0.004-0.229,0.038-0.547,0.102-0.956
						c0.061-0.407,0.101-0.678,0.119-0.813c0.057-0.635,0.107-1.102,0.146-1.402c0.041-0.3,0.128-0.636,0.263-1.007
						c0.136-0.372,0.315-0.623,0.544-0.75c0.817-0.503,1.749-0.423,2.797,0.237c0.153,0.395,0.299,0.832,0.437,1.315
						c0.139,0.483,0.289,1.076,0.452,1.784c0.163,0.707,0.283,1.195,0.36,1.469c0.019,0.111-0.024,0.241-0.126,0.39
						c-0.101,0.147-0.153,0.289-0.152,0.421c0.09,0.48,0.099,1.201,0.025,2.16c-0.077,0.96-0.016,1.711,0.179,2.251
						c0.334-0.049,0.598-0.25,0.793-0.603c0.194-0.352,0.369-0.813,0.534-1.388c0.021-0.098,0.039-0.167,0.054-0.209
						c0.086-0.297,0.233-0.741,0.441-1.331c0.206-0.592,0.339-1.005,0.397-1.242c0.047-0.197,0.084-0.663,0.104-1.397
						c0.026-0.733,0.101-1.242,0.228-1.529c0.175-0.369,0.521-0.669,1.048-0.911c0.524-0.238,0.977-0.273,1.364-0.103
						c0.145,0.073,0.31,0.266,0.498,0.58c0.19,0.314,0.308,0.552,0.35,0.718c0.283,0.867,0.422,2.22,0.421,4.051
						c-0.003,1.832,0.156,3.133,0.481,3.9c0.456-0.125,0.832-0.493,1.129-1.108c0.296-0.613,0.506-0.976,0.621-1.088
						c0.346-1.626,0.893-3.037,1.646-4.232c-0.067-0.957,0.127-1.83,0.578-2.621L427.436,59.627z"/>
					<path fill="#9EF7CD" d="M431.86,65.362c0.384-0.806,0.673-1.311,0.87-1.511c0.052-0.293,0.133-0.604,0.244-0.934
						c0.113-0.33,0.215-0.583,0.302-0.756c0.089-0.174,0.24-0.454,0.459-0.837c0.218-0.383,0.348-0.626,0.39-0.727
						c0.027-0.08,0.074-0.273,0.143-0.576c0.068-0.305,0.113-0.511,0.135-0.62c0.022-0.106,0.078-0.285,0.162-0.535
						c0.085-0.25,0.169-0.435,0.245-0.549c0.077-0.116,0.187-0.251,0.321-0.404c0.141-0.153,0.289-0.281,0.445-0.38
						c0.091,0.102,0.124,0.263,0.1,0.484c-0.023,0.222-0.044,0.373-0.061,0.451c-0.016,0.078-0.07,0.228-0.159,0.451
						c-0.092,0.223-0.149,0.374-0.176,0.454c-0.024,0.097-0.093,0.327-0.212,0.686l-0.243,0.749
						c-0.046,0.139-0.121,0.36-0.229,0.659c-0.106,0.301-0.2,0.542-0.275,0.726c-0.08,0.18-0.175,0.399-0.287,0.653
						c-0.115,0.256-0.228,0.484-0.339,0.692c-0.111,0.207-0.23,0.405-0.354,0.594c-0.065,0.315-0.165,0.646-0.293,0.997
						c-0.128,0.351-0.297,0.771-0.51,1.257l-0.424,0.975c-0.016,0.022-0.03,0.061-0.039,0.118c-0.352,0.832-0.73,1.343-1.139,1.538
						c-0.034,0.022-0.07,0.038-0.106,0.043c-0.793,0.27-1.647,0.18-2.562-0.272c-0.91-0.454-1.511-1-1.794-1.642
						c-0.084-0.176-0.15-0.452-0.195-0.824c-0.046-0.373-0.099-0.678-0.15-0.917c-0.035-0.109-0.125-0.346-0.264-0.715
						c-0.14-0.367-0.225-0.646-0.253-0.832c-0.057-0.255-0.073-0.615-0.046-1.074c0.025-0.459,0.043-0.736,0.047-0.833
						c-0.007-0.169-0.033-0.423-0.083-0.757c-0.05-0.333-0.086-0.636-0.108-0.908c-0.02-0.271-0.021-0.523,0-0.755
						c0.054-0.786,0.252-2.172,0.593-4.159c0.338-1.986,0.478-3.439,0.416-4.361c0.243-0.417,0.437-1.128,0.578-2.137
						c0.144-1.007,0.311-1.708,0.5-2.096c0.713-0.428,1.439-0.494,2.176-0.196c0.737,0.299,1.282,0.801,1.635,1.508
						c0.351,0.689,0.548,1.198,0.598,1.533c0.035,0.092,0.022,0.262-0.035,0.518c-0.057,0.254-0.087,0.44-0.088,0.554
						c-0.001,0.133,0.041,0.308,0.12,0.524c0.079,0.215,0.128,0.369,0.142,0.462c0.012,0.34-0.093,0.796-0.312,1.371
						c-0.217,0.572-0.337,0.974-0.357,1.207c-0.021,0.135-0.015,0.387,0.012,0.752c0.023,0.367,0.008,0.658-0.055,0.877
						c-0.054,0.161-0.171,0.391-0.354,0.693c-0.181,0.301-0.305,0.553-0.37,0.753c-0.029,0.062-0.056,0.193-0.084,0.396
						c-0.025,0.205-0.049,0.364-0.069,0.482c-0.254,0.835-0.396,1.426-0.421,1.77c-0.014,0.286,0.004,0.782,0.052,1.488
						c0.047,0.704,0.062,1.246,0.044,1.63c-0.012,0.173-0.031,0.479-0.062,0.921c-0.027,0.442-0.042,0.736-0.04,0.887
						c0.005,0.152,0.015,0.374,0.028,0.666c0.016,0.292,0.062,0.538,0.14,0.734c0.075,0.197,0.179,0.399,0.304,0.609
						C431.027,66.686,431.479,66.168,431.86,65.362z M429.943,51.653c-0.028,0.575-0.036,0.983-0.029,1.229
						c0.008,0.245,0.165,0.562,0.469,0.954c0.387-0.721,0.573-1.594,0.565-2.617c-0.011-1.025-0.23-2.017-0.658-2.977
						c-0.186,0.028-0.336,0.075-0.449,0.151c-0.109,0.073-0.188,0.151-0.234,0.235c-0.042,0.083-0.063,0.199-0.062,0.35
						c0.004,0.151,0.022,0.276,0.056,0.375c0.035,0.1,0.08,0.244,0.138,0.437c0.057,0.191,0.09,0.332,0.104,0.426
						C429.939,50.601,429.971,51.079,429.943,51.653z"/>
					<path fill="#9EF7CD" d="M440.22,57.381c-0.2-0.083-0.351-0.199-0.45-0.344c-0.098-0.147-0.225-0.276-0.384-0.386
						c-0.157-0.109-0.329-0.14-0.512-0.093c-0.108,0.033-0.202,0.11-0.28,0.227c-0.077,0.115-0.137,0.275-0.185,0.483
						c-0.045,0.207-0.08,0.412-0.106,0.613c-0.027,0.205-0.046,0.453-0.06,0.75c-0.012,0.294-0.023,0.542-0.032,0.744
						c-0.007,0.199-0.013,0.454-0.015,0.757c-0.003,0.304-0.004,0.514-0.005,0.627c-0.008,0.077-0.016,0.192-0.02,0.345
						c-0.008,0.152-0.009,0.271-0.006,0.355c0.003,0.085,0.006,0.194,0.006,0.326c0.002,0.134,0.014,0.24,0.035,0.324
						c0.021,0.083,0.053,0.165,0.095,0.256c0.042,0.089,0.103,0.156,0.187,0.201c0.083,0.043,0.173,0.077,0.27,0.1
						c0.205-0.03,0.365-0.049,0.477-0.056c0.114-0.007,0.238-0.111,0.381-0.313c0.141-0.202,0.241-0.354,0.301-0.458
						c0.061-0.103,0.146-0.273,0.254-0.508c0.106-0.233,0.175-0.382,0.204-0.442c0.106-0.186,0.245-0.421,0.42-0.704
						c0.179-0.283,0.321-0.531,0.43-0.747c0.111-0.217,0.195-0.452,0.252-0.708c0.034-0.157,0.052-0.381,0.056-0.675
						c0.003-0.297,0.014-0.51,0.032-0.648c0.059-0.235,0.266-0.835,0.613-1.8c0.293-0.973,0.552-1.524,0.777-1.652
						c0.77-0.456,1.688-0.271,2.76,0.555c0.001,0.248,0.034,0.679,0.108,1.294c0.072,0.617,0.105,1.087,0.097,1.411
						c-0.005,0.095-0.042,0.258-0.113,0.484c-0.07,0.231-0.104,0.402-0.108,0.517c-0.023,0.211-0.002,0.522,0.067,0.929
						c0.071,0.407,0.102,0.716,0.095,0.926c0.002,0.264-0.032,0.751-0.108,1.455c-0.078,0.703-0.1,1.271-0.075,1.705
						c0.026,0.678,0.067,1.146,0.124,1.405c0.013,0.092,0.083,0.229,0.205,0.411c0.12,0.18,0.189,0.317,0.204,0.411
						c0.011,0.074,0.003,0.183-0.021,0.329c-0.025,0.148-0.024,0.257,0.005,0.329c0.146,0.338,0.245,0.693,0.301,1.065
						c0.055,0.372-0.036,0.707-0.277,1.009c-0.562,0.16-1.08,0.19-1.549,0.09c-0.476-0.102-0.86-0.287-1.166-0.554
						c-0.308-0.266-0.588-0.649-0.84-1.143c-0.255-0.493-0.453-0.966-0.597-1.419s-0.29-0.991-0.44-1.615
						c-0.312,0.067-0.66,0.375-1.043,0.927c-0.384,0.549-0.635,0.872-0.753,0.966c-1.167,0.836-2.233,1.12-3.207,0.847
						c-0.371-0.096-0.88-0.434-1.514-1.013c-0.638-0.578-1.049-1.11-1.236-1.595c-0.137-0.531-0.236-0.948-0.3-1.251
						c-0.064-0.304-0.062-0.694,0.011-1.169c0.071-0.475,0.143-0.847,0.217-1.113c0.077-0.268,0.177-0.62,0.299-1.056
						c0.126-0.437,0.216-0.773,0.276-1.009c0.271-0.229,0.629-0.762,1.071-1.598c0.445-0.835,0.874-1.397,1.288-1.687
						c0.764-0.475,1.485-0.629,2.166-0.466c0.678,0.165,1.283,0.568,1.816,1.21c0.16,0.184,0.293,0.378,0.398,0.581
						c0.107,0.202,0.154,0.428,0.143,0.676c-0.008,0.249-0.127,0.446-0.351,0.593C440.65,57.469,440.423,57.464,440.22,57.381z"/>
				</g>
				<g>
					<path fill="#9EF7CD" d="M364.516,20.84c0.052,0.184,0.248,0.255,0.588,0.217c0.344-0.039,0.523,0.066,0.536,0.317
						c0.151,0.24,0.167,0.428,0.049,0.559c-0.119,0.132-0.288,0.208-0.508,0.227c-0.224,0.019-0.399,0.09-0.536,0.211
						c-0.088,0.083-0.256,0.248-0.496,0.499c-0.24,0.251-0.449,0.415-0.627,0.493c-0.496,0.251-1.595,0.563-3.3,0.938
						c-1.703,0.376-2.719,0.793-3.044,1.251c-0.039,0.464,0.247,1.288,0.859,2.474c-0.145,0.295-0.209,0.701-0.19,1.22
						c0.018,0.517,0.064,0.971,0.145,1.358c0.081,0.387,0.202,0.906,0.37,1.55c0.164,0.647,0.268,1.049,0.312,1.207
						c0.698,0.173,1.941,0.045,3.733-0.381c1.787-0.428,2.847-0.66,3.176-0.694c0.47,1.282,0.02,2.199-1.354,2.751
						c-0.354,0.155-1.154,0.342-2.409,0.563c-1.252,0.222-1.985,0.46-2.195,0.718c-0.134,0.123-0.309,0.516-0.518,1.183
						c-0.211,0.666-0.315,1.154-0.314,1.465c0.01,0.336,0.103,0.854,0.285,1.553c0.181,0.699,0.287,1.213,0.323,1.542
						c0.043,0.864-0.029,1.831-0.212,2.899c0.253,0.496,0.458,1.335,0.618,2.52c0.159,1.186,0.361,2.112,0.602,2.779
						c-0.177,0.783-0.528,1.547-1.057,2.288c-0.529,0.739-1.201,1.322-2.016,1.748c-0.814,0.425-1.694,0.359-2.642-0.198
						c-0.071-0.461-0.325-1.117-0.761-1.971c-0.435-0.855-0.714-1.604-0.838-2.247c-0.082-0.402-0.178-1.124-0.284-2.168
						c-0.106-1.044-0.214-1.862-0.324-2.455c-0.078-0.486-0.258-1.284-0.539-2.392c-0.279-1.111-0.446-1.912-0.499-2.406
						c-0.017-0.164-0.014-0.407,0.01-0.724c0.025-0.318,0.028-0.559,0.012-0.724c-0.118-0.73-0.312-1.729-0.579-2.997
						c-0.268-1.269-0.441-2.09-0.517-2.464c-0.084-0.4-0.21-0.931-0.38-1.591c-0.169-0.66-0.295-1.189-0.379-1.59
						c-0.079-0.487-0.139-1.162-0.183-2.026c-0.043-0.864-0.103-1.484-0.178-1.859c-0.055-0.295-0.176-0.734-0.367-1.317
						c-0.191-0.582-0.332-1.044-0.428-1.387c-0.095-0.34-0.075-0.706,0.056-1.096c0.13-0.389,0.409-0.686,0.831-0.889
						c1.36-0.603,3.301-0.437,5.822,0.5c3.459-0.569,6.2-1.232,8.222-1.992C363.725,20.382,364.098,20.56,364.516,20.84z"/>
					<path fill="#9EF7CD" d="M375.902,41.179c0.194-0.124,0.374-0.309,0.547-0.554c0.171-0.247,0.297-0.429,0.377-0.551
						c0.078-0.121,0.202-0.367,0.367-0.738s0.254-0.586,0.265-0.646c1.508-3.416,2.451-5.614,2.828-6.596
						c0.013-0.061,0.044-0.167,0.101-0.325c0.056-0.157,0.101-0.268,0.141-0.335c0.037-0.067,0.082-0.179,0.139-0.335
						c0.055-0.157,0.102-0.269,0.139-0.336l0.171-0.302c0.076-0.133,0.141-0.237,0.19-0.307c0.051-0.071,0.117-0.16,0.2-0.268
						c0.083-0.109,0.166-0.194,0.247-0.259c0.079-0.065,0.169-0.126,0.267-0.18c0.099-0.058,0.199-0.099,0.305-0.128
						c0.128,0.36,0.177,0.735,0.144,1.126c-0.032,0.39-0.098,0.711-0.197,0.966c-0.099,0.253-0.263,0.609-0.487,1.069
						c-0.228,0.458-0.373,0.767-0.441,0.928c-0.824,1.812-1.308,3.12-1.452,3.923c-0.256,0.297-0.466,0.631-0.633,1.003
						c-0.164,0.37-0.337,0.836-0.521,1.396c-0.185,0.559-0.32,0.936-0.407,1.13c-0.51,0.396-1.175,1.36-1.993,2.888
						c-0.817,1.526-1.639,2.491-2.461,2.889c-0.494,0.25-0.98,0.387-1.456,0.406c-0.805,0.054-1.72-0.439-2.744-1.484
						c-1.025-1.042-1.657-2.195-1.895-3.457c-0.03-0.105-0.025-0.319,0.012-0.64c0.038-0.322,0.045-0.577,0.02-0.768
						c-0.018-0.166-0.073-0.369-0.171-0.61c-0.094-0.243-0.148-0.433-0.158-0.571c-0.041-0.553,0.012-1.381,0.159-2.482
						c0.145-1.1,0.216-1.863,0.21-2.285c0.009-0.171,0.009-0.575,0.003-1.209c-0.007-0.635,0-1.116,0.022-1.447
						c0.02-0.332,0.082-0.709,0.192-1.136c0.107-0.425,0.261-0.736,0.46-0.933c0.708-0.705,1.578-0.933,2.607-0.683
						c1.031,0.25,1.748,0.743,2.15,1.479c0.244,0.469,0.509,1.625,0.796,3.467c0.449,2.221,0.69,3.751,0.727,4.589
						c0.011,0.139-0.015,0.428-0.077,0.869c-0.061,0.441-0.046,0.797,0.044,1.07c0.09,0.271,0.294,0.475,0.616,0.612
						C375.494,41.384,375.712,41.303,375.902,41.179z M370.963,19.702c0.567,0.054,1.181,0.301,1.839,0.739
						c0.592,0.4,0.933,0.765,1.024,1.092c0.09,0.328,0.099,0.913,0.022,1.754c-0.008,0.173,0.004,0.394,0.037,0.668
						c0.034,0.272,0.048,0.501,0.045,0.688c-0.006,0.185-0.047,0.345-0.122,0.479c-0.119,0.288-0.406,0.622-0.865,1.004
						c-0.458,0.381-0.82,0.61-1.081,0.682c-0.657,0.183-1.542,0.048-2.658-0.405c-0.606-0.254-1.233-0.603-1.881-1.045
						c-0.645-0.441-1.021-0.847-1.121-1.213c-0.13-0.359-0.073-0.87,0.167-1.531c0.241-0.66,0.516-1.146,0.823-1.458
						c0.381-0.361,0.949-0.703,1.705-1.026C369.71,19.79,370.398,19.647,370.963,19.702z"/>
					<path fill="#9EF7CD" d="M388.763,38.404c0.409-1.229,0.735-2.006,0.986-2.329c0.021-0.431,0.082-0.894,0.185-1.389
						c0.104-0.494,0.199-0.875,0.297-1.142c0.096-0.267,0.266-0.696,0.511-1.287c0.246-0.591,0.39-0.964,0.432-1.116
						c0.023-0.12,0.057-0.404,0.103-0.855c0.044-0.45,0.07-0.755,0.084-0.914c0.012-0.158,0.057-0.426,0.138-0.801
						c0.078-0.376,0.162-0.654,0.254-0.833c0.092-0.182,0.224-0.395,0.396-0.641c0.171-0.246,0.36-0.453,0.566-0.624
						c0.15,0.127,0.226,0.354,0.232,0.677c0.004,0.324,0.002,0.542-0.009,0.659c-0.01,0.115-0.06,0.342-0.15,0.678
						c-0.089,0.335-0.146,0.563-0.169,0.683c-0.016,0.146-0.076,0.487-0.181,1.026l-0.219,1.121c-0.041,0.209-0.11,0.54-0.212,0.992
						c-0.101,0.453-0.189,0.816-0.268,1.092c-0.079,0.276-0.179,0.607-0.297,0.994c-0.117,0.386-0.239,0.738-0.362,1.055
						c-0.124,0.317-0.259,0.623-0.403,0.917c-0.04,0.464-0.121,0.959-0.24,1.488c-0.123,0.528-0.293,1.162-0.512,1.902l-0.436,1.478
						c-0.019,0.033-0.031,0.094-0.034,0.179c-0.358,1.259-0.811,2.063-1.363,2.416c-0.046,0.04-0.095,0.067-0.147,0.083
						c-1.096,0.532-2.34,0.553-3.734,0.064c-1.395-0.488-2.354-1.167-2.877-2.039c-0.152-0.241-0.295-0.625-0.428-1.153
						c-0.134-0.528-0.26-0.959-0.382-1.293c-0.07-0.15-0.239-0.478-0.506-0.982c-0.268-0.506-0.438-0.89-0.512-1.151
						c-0.129-0.359-0.216-0.873-0.259-1.538c-0.044-0.667-0.071-1.069-0.082-1.208c-0.038-0.243-0.123-0.6-0.255-1.072
						c-0.131-0.473-0.237-0.902-0.318-1.291c-0.078-0.388-0.123-0.749-0.132-1.086c-0.063-1.142-0.026-3.171,0.106-6.093
						c0.136-2.92,0.075-5.037-0.179-6.352c0.274-0.641,0.425-1.702,0.451-3.179c0.026-1.476,0.141-2.513,0.344-3.106
						c0.951-0.745,1.985-0.969,3.099-0.672c1.114,0.298,1.988,0.925,2.621,1.879c0.625,0.928,1.004,1.629,1.137,2.101
						c0.062,0.124,0.077,0.375,0.04,0.751c-0.038,0.377-0.047,0.649-0.028,0.814c0.024,0.191,0.114,0.435,0.267,0.73
						c0.154,0.298,0.248,0.51,0.284,0.642c0.079,0.487,0.012,1.163-0.199,2.028c-0.211,0.864-0.312,1.464-0.305,1.801
						c0.001,0.198,0.05,0.559,0.155,1.081c0.103,0.522,0.127,0.947,0.076,1.271c-0.047,0.239-0.173,0.594-0.382,1.061
						c-0.21,0.468-0.342,0.852-0.402,1.151c-0.03,0.093-0.046,0.289-0.048,0.586c-0.002,0.296-0.009,0.532-0.016,0.704
						c-0.217,1.248-0.314,2.122-0.288,2.623c0.031,0.416,0.145,1.126,0.339,2.132c0.195,1.006,0.316,1.786,0.354,2.339
						c0.014,0.251,0.039,0.696,0.077,1.336c0.034,0.639,0.07,1.067,0.103,1.285c0.03,0.217,0.083,0.536,0.158,0.953
						c0.074,0.417,0.184,0.76,0.329,1.032c0.146,0.27,0.328,0.545,0.549,0.822C387.804,40.46,388.357,39.633,388.763,38.404z
						 M383.559,19.016c0.062,0.831,0.118,1.422,0.177,1.773c0.055,0.353,0.337,0.782,0.845,1.291
						c0.426-1.108,0.542-2.397,0.343-3.868c-0.196-1.472-0.688-2.86-1.477-4.168c-0.263,0.073-0.468,0.173-0.615,0.299
						c-0.151,0.125-0.251,0.253-0.3,0.38c-0.049,0.126-0.057,0.298-0.024,0.515c0.032,0.218,0.083,0.394,0.147,0.532
						c0.066,0.137,0.155,0.338,0.274,0.603c0.115,0.263,0.19,0.462,0.227,0.593C383.362,17.501,383.496,18.185,383.559,19.016z"/>
					<path fill="#9EF7CD" d="M399.452,25.317c0.207-0.227,0.37-0.449,0.493-0.667c0.123-0.216,0.273-0.513,0.453-0.888
						c0.177-0.375,0.324-0.663,0.438-0.864c0.095-0.167,0.271-0.527,0.525-1.079c0.256-0.552,0.49-0.983,0.7-1.297
						c0.209-0.312,0.418-0.555,0.624-0.725c0.564-0.412,1.226-0.623,1.985-0.637c0.761-0.014,1.378,0.224,1.853,0.713
						c1.021,3.164,1.384,5.989,1.086,8.475c0.389,1.191,0.611,2.91,0.673,5.154c0.06,2.245,0.379,4.007,0.961,5.287
						c0.5-0.14,0.946-0.666,1.342-1.582c0.395-0.917,0.715-1.492,0.959-1.729c0.089-0.901,0.341-2.235,0.751-4.004
						c0.412-1.768,0.668-3.033,0.769-3.797c0.076-0.53,0.235-1.26,0.471-2.187c0.237-0.929,0.395-1.602,0.477-2.019
						c0.024-0.121,0.055-0.439,0.094-0.958c0.04-0.521,0.119-0.917,0.24-1.191c0.124-0.273,0.316-0.491,0.584-0.649
						c0.25-0.014,0.409,0.049,0.476,0.186c0.064,0.137,0.066,0.341,0.001,0.614c-0.065,0.272-0.104,0.439-0.115,0.498
						c-0.008,0.992-0.105,2.086-0.296,3.284c-0.189,1.197-0.355,2.099-0.498,2.702c-0.143,0.605-0.408,1.627-0.801,3.064
						l-0.517,1.798c-0.23,0.8-0.431,1.526-0.602,2.182c-0.17,0.655-0.292,1.26-0.362,1.817c-0.396,0.507-0.824,1.382-1.283,2.625
						c-0.46,1.246-0.962,2.1-1.513,2.563c-0.699,0.534-1.406,0.865-2.119,0.994c-0.715,0.127-1.345,0.069-1.894-0.173
						c-0.895-0.374-1.719-1.309-2.478-2.808c-0.756-1.5-1.198-3.094-1.331-4.781c-0.039-0.555-0.016-1.657,0.077-3.308
						c0.093-1.651,0.006-2.793-0.256-3.426c-0.655,0.379-1.234,1.347-1.736,2.898c-0.342,1-0.593,2.485-0.753,4.451
						c-0.109,1.132-0.116,2.123-0.02,2.973c-0.327,0.657-0.657,1.094-0.992,1.315c-0.335,0.22-1.02,0.347-2.057,0.381
						c-0.799-0.031-1.573-0.247-2.321-0.647c-0.746-0.398-1.263-0.912-1.55-1.539c-0.134-0.274-0.236-0.641-0.307-1.102
						c-0.072-0.461-0.143-1.036-0.206-1.725s-0.109-1.184-0.138-1.488l-1.165-10.273c-0.049-0.383-0.076-0.912-0.081-1.59
						c-0.004-0.676-0.014-1.14-0.025-1.39c-0.023-0.39-0.116-0.922-0.276-1.599s-0.254-1.166-0.282-1.469
						c-0.024-0.191-0.029-0.464-0.016-0.822c0.012-0.357,0.015-0.604,0.004-0.743c-0.068-0.349-0.207-0.975-0.417-1.876
						c-0.207-0.904-0.356-1.612-0.441-2.125c-0.279-2.014-0.318-3.175-0.123-3.484c0.44-0.546,1.04-0.855,1.798-0.924
						c0.758-0.071,1.43,0.025,2.011,0.288c0.675,0.293,1.695,1.421,3.062,3.387c0.104,0.169,0.262,0.379,0.474,0.631
						c0.212,0.251,0.345,0.427,0.4,0.524c0.128,0.36,0.202,0.912,0.228,1.653c0.024,0.743,0.057,1.25,0.104,1.519
						c0.065,0.434,0.237,1.029,0.518,1.785c0.283,0.754,0.463,1.277,0.544,1.566c0.098,0.453,0.196,1.492,0.295,3.118
						s0.388,2.839,0.865,3.639C399.032,25.717,399.248,25.544,399.452,25.317z"/>
					<path fill="#9EF7CD" d="M420.903,19.433c-0.306-0.084-0.543-0.225-0.709-0.418c-0.168-0.193-0.374-0.355-0.622-0.485
						c-0.25-0.128-0.499-0.143-0.756-0.044c-0.149,0.072-0.27,0.197-0.36,0.376c-0.092,0.182-0.152,0.424-0.18,0.729
						c-0.028,0.304-0.044,0.604-0.046,0.903c-0.001,0.297,0.014,0.66,0.049,1.087c0.034,0.43,0.064,0.789,0.09,1.079
						c0.023,0.291,0.062,0.653,0.111,1.092c0.053,0.438,0.088,0.739,0.104,0.904c0.004,0.111,0.016,0.277,0.033,0.5
						c0.02,0.221,0.039,0.391,0.058,0.514c0.021,0.122,0.043,0.278,0.067,0.469s0.06,0.343,0.106,0.457
						c0.046,0.117,0.105,0.232,0.184,0.353c0.077,0.121,0.177,0.206,0.304,0.255c0.125,0.049,0.263,0.083,0.408,0.098
						c0.289-0.081,0.514-0.136,0.675-0.167c0.162-0.03,0.325-0.204,0.49-0.517c0.169-0.316,0.286-0.553,0.354-0.714
						c0.069-0.161,0.16-0.418,0.272-0.774c0.113-0.357,0.184-0.582,0.214-0.675c0.12-0.288,0.28-0.65,0.481-1.088
						c0.204-0.438,0.367-0.823,0.485-1.152c0.12-0.331,0.199-0.685,0.236-1.062c0.02-0.232,0.006-0.561-0.04-0.984
						c-0.05-0.425-0.073-0.737-0.072-0.936c0.044-0.351,0.232-1.251,0.564-2.7c0.243-1.454,0.519-2.294,0.825-2.52
						c1.022-0.793,2.379-0.69,4.07,0.309c0.042,0.356,0.17,0.97,0.384,1.842c0.217,0.874,0.347,1.544,0.392,2.013
						c0.011,0.138-0.015,0.378-0.074,0.72c-0.062,0.342-0.081,0.594-0.065,0.759c0.001,0.311,0.089,0.753,0.263,1.327
						c0.176,0.573,0.276,1.012,0.305,1.315c0.048,0.381,0.082,1.084,0.101,2.112c0.017,1.026,0.082,1.849,0.198,2.467
						c0.158,0.974,0.3,1.641,0.43,2c0.037,0.131,0.158,0.316,0.365,0.556c0.208,0.238,0.331,0.423,0.368,0.555
						c0.029,0.104,0.038,0.264,0.026,0.479c-0.011,0.214,0.012,0.371,0.067,0.468c0.27,0.462,0.478,0.957,0.624,1.481
						c0.146,0.525,0.074,1.025-0.218,1.502c-0.783,0.33-1.524,0.466-2.218,0.406c-0.696-0.061-1.288-0.257-1.775-0.587
						c-0.488-0.331-0.959-0.829-1.412-1.495c-0.453-0.665-0.826-1.311-1.112-1.937c-0.288-0.626-0.596-1.375-0.92-2.246
						c-0.441,0.151-0.886,0.656-1.339,1.517c-0.452,0.86-0.758,1.37-0.91,1.525c-1.529,1.415-3.016,2.013-4.462,1.794
						c-0.557-0.072-1.345-0.467-2.366-1.187c-1.021-0.718-1.706-1.412-2.061-2.076c-0.29-0.739-0.509-1.32-0.656-1.747
						c-0.146-0.425-0.211-0.986-0.191-1.684c0.015-0.698,0.055-1.245,0.112-1.642c0.059-0.399,0.14-0.922,0.242-1.573
						c0.101-0.65,0.174-1.152,0.218-1.502c0.346-0.379,0.766-1.21,1.257-2.49c0.49-1.282,1.007-2.167,1.549-2.658
						c1.016-0.82,2.027-1.172,3.036-1.057c1.007,0.115,1.949,0.588,2.83,1.417c0.266,0.237,0.492,0.492,0.68,0.764
						c0.188,0.273,0.3,0.589,0.325,0.948c0.03,0.359-0.103,0.666-0.399,0.917C421.539,19.481,421.209,19.516,420.903,19.433z"/>
					<path fill="#9EF7CD" d="M441.448,22.934c0.09,0.272,0.092,0.816,0.009,1.63c-0.507,3.362-1.844,5.006-4.011,4.932
						c-0.317-0.024-0.723-0.152-1.21-0.384c-0.487-0.231-0.848-0.457-1.078-0.675c-0.605-0.652-1.034-1.607-1.285-2.865
						c-0.253-1.258-0.218-2.229,0.102-2.912c0.77-1.599,2.993-1.934,6.673-1.009C441.092,22.235,441.356,22.663,441.448,22.934z
						 M438.661,16.12c-0.189,0.69-0.436,1.204-0.736,1.541c-0.301,0.34-0.767,0.497-1.395,0.473
						c-0.979-0.066-1.707-0.853-2.183-2.361c-0.287-0.824-0.76-3.334-1.421-7.532c-0.668-4.534-0.553-7.676,0.348-9.423
						c0.63-0.374,1.638-0.429,3.025-0.165c1.388,0.264,2.225,0.653,2.51,1.167c0.229,0.417,0.323,1.138,0.284,2.167
						c-0.038,1.029-0.056,1.598-0.055,1.711c0.029,0.303,0.103,0.792,0.219,1.466s0.183,1.192,0.2,1.555
						c0.01,0.647-0.049,1.93-0.18,3.845c-0.131,1.916-0.177,3.307-0.132,4.171C439.013,14.971,438.853,15.432,438.661,16.12z"/>
				</g>
				<g>
					<path fill="#9EF7CD" d="M403.93,94.146c-0.226-0.102-0.389-0.239-0.493-0.406c-0.104-0.171-0.244-0.318-0.421-0.45
						c-0.171-0.13-0.362-0.17-0.572-0.127c-0.123,0.035-0.229,0.117-0.323,0.245c-0.09,0.125-0.166,0.304-0.228,0.536
						c-0.058,0.229-0.108,0.46-0.146,0.685c-0.037,0.229-0.071,0.513-0.096,0.845c-0.026,0.334-0.05,0.612-0.066,0.839
						c-0.019,0.223-0.035,0.509-0.048,0.853c-0.014,0.34-0.025,0.578-0.03,0.707c-0.014,0.085-0.026,0.214-0.038,0.387
						c-0.013,0.171-0.018,0.304-0.019,0.402c0.001,0.093,0,0.217-0.009,0.366c-0.002,0.149,0.006,0.27,0.027,0.366
						c0.021,0.093,0.055,0.189,0.096,0.293c0.043,0.102,0.111,0.178,0.203,0.231c0.091,0.054,0.192,0.094,0.302,0.125
						c0.231-0.025,0.412-0.04,0.537-0.042c0.128-0.003,0.276-0.117,0.443-0.338c0.167-0.223,0.287-0.389,0.357-0.505
						c0.072-0.114,0.175-0.301,0.305-0.562c0.132-0.26,0.213-0.422,0.247-0.491c0.129-0.207,0.296-0.464,0.505-0.776
						c0.211-0.312,0.38-0.587,0.515-0.827c0.133-0.238,0.236-0.5,0.311-0.785c0.046-0.176,0.074-0.427,0.089-0.759
						c0.017-0.334,0.038-0.573,0.062-0.728c0.077-0.264,0.334-0.932,0.765-2.005c0.367-1.084,0.682-1.694,0.945-1.83
						c0.88-0.48,1.91-0.237,3.086,0.739c-0.012,0.276,0.012,0.763,0.068,1.46c0.058,0.698,0.075,1.23,0.053,1.592
						c-0.009,0.109-0.058,0.29-0.146,0.544c-0.088,0.257-0.137,0.448-0.144,0.576c-0.038,0.24-0.024,0.59,0.039,1.051
						c0.062,0.461,0.083,0.809,0.069,1.046c-0.01,0.299-0.069,0.845-0.184,1.635c-0.113,0.79-0.164,1.428-0.152,1.916
						c0.001,0.77,0.028,1.297,0.085,1.591c0.012,0.104,0.08,0.26,0.212,0.471s0.202,0.365,0.213,0.474
						c0.01,0.082-0.002,0.206-0.037,0.368c-0.035,0.167-0.038,0.288-0.008,0.369c0.152,0.388,0.25,0.793,0.296,1.213
						c0.048,0.423-0.068,0.798-0.35,1.127c-0.643,0.157-1.229,0.172-1.754,0.037c-0.526-0.133-0.957-0.356-1.289-0.667
						c-0.333-0.314-0.636-0.756-0.9-1.323c-0.267-0.566-0.473-1.107-0.616-1.625c-0.144-0.514-0.286-1.129-0.431-1.837
						c-0.354,0.063-0.758,0.396-1.214,1.002c-0.453,0.604-0.749,0.958-0.887,1.057c-1.346,0.899-2.562,1.174-3.643,0.826
						c-0.422-0.123-0.977-0.523-1.671-1.202c-0.696-0.676-1.137-1.292-1.328-1.847c-0.13-0.602-0.228-1.078-0.287-1.421
						c-0.061-0.345-0.041-0.785,0.06-1.318c0.1-0.533,0.196-0.947,0.29-1.246c0.096-0.298,0.221-0.691,0.38-1.178
						c0.157-0.487,0.273-0.861,0.352-1.125c0.312-0.247,0.737-0.835,1.269-1.758c0.538-0.921,1.042-1.54,1.521-1.849
						c0.879-0.501,1.7-0.649,2.459-0.435c0.757,0.211,1.426,0.69,1.999,1.435c0.172,0.214,0.316,0.44,0.428,0.671
						c0.111,0.231,0.155,0.487,0.133,0.768c-0.021,0.28-0.162,0.498-0.421,0.653C404.409,94.261,404.154,94.247,403.93,94.146z"/>
					<path fill="#9EF7CD" d="M425.507,89.011c0.589-0.351,1.03-0.557,1.321-0.611c1.021-0.2,1.805-0.149,2.352,0.151
						c0.385,0.212,0.696,0.519,0.933,0.917c0.236,0.401,0.469,0.9,0.698,1.504c0.228,0.602,0.434,1.065,0.618,1.384
						c0.64,0.012,1.446-0.303,2.419-0.942c0.973-0.643,1.731-0.976,2.283-0.996c0.09,0.226,0.031,0.457-0.178,0.694
						c-0.206,0.235-0.465,0.402-0.774,0.501c-0.347,0.487-1.045,0.974-2.088,1.464c-1.041,0.493-1.726,0.979-2.056,1.463
						c-0.161,0.253-0.296,0.667-0.4,1.243c-0.106,0.577-0.234,0.97-0.38,1.176c-0.367,0.533-0.883,1.049-1.552,1.551
						c-0.427,0.367-1.239,0.713-2.438,1.042c-0.439,0.091-0.883,0.299-1.337,0.629c-0.453,0.327-0.725,0.657-0.815,0.986
						c-0.025,0.133-0.023,0.34,0.008,0.623c0.031,0.285,0.041,0.469,0.031,0.555c-0.064,0.948-0.232,2.02-0.499,3.22
						c-0.271,1.204-0.6,2.072-0.989,2.605c-0.109,0.139-0.344,0.374-0.701,0.702c-0.358,0.326-0.606,0.532-0.747,0.612
						c-0.72,0.421-1.425,0.469-2.123,0.143c-0.062-0.165-0.188-0.42-0.377-0.773c-0.187-0.352-0.304-0.631-0.35-0.838
						c-0.058-0.336-0.044-0.923,0.041-1.763c0.09-0.84,0.125-1.398,0.115-1.674c-0.016-0.146-0.053-0.42-0.107-0.819
						c-0.056-0.4-0.085-0.692-0.083-0.885c-0.014-0.297,0.018-0.761,0.099-1.386c0.078-0.625,0.129-1.025,0.15-1.199
						c0.014-0.086-0.004-0.239-0.052-0.458c-0.043-0.217-0.062-0.381-0.055-0.489c0-0.193,0.055-0.479,0.16-0.864
						c0.105-0.387,0.156-0.674,0.156-0.865c0.008-0.128,0.003-0.326-0.018-0.59c-0.019-0.264-0.015-0.462,0.016-0.593
						c0.005-0.128,0.051-0.329,0.138-0.607c0.085-0.274,0.134-0.465,0.143-0.575c0.023-0.172,0.017-0.423-0.021-0.747
						c-0.035-0.328-0.055-0.575-0.054-0.746c0.028-0.15,0.079-0.352,0.157-0.608c0.076-0.254,0.129-0.454,0.153-0.608
						c0.032-0.493,0.032-1.149,0.004-1.966c-0.029-0.818-0.033-1.508-0.012-2.074c0.02-0.567,0.1-1.009,0.236-1.322
						c0.242-0.498,0.701-0.814,1.377-0.954c0.68-0.141,1.266-0.049,1.771,0.278c0.089,0.205,0.323,0.63,0.707,1.28
						c0.381,0.649,0.613,1.235,0.693,1.76C424.444,89.545,424.921,89.367,425.507,89.011z M424.778,98.84
						c0.091,0.043,0.176,0.066,0.262,0.068c0.086,0.003,0.155-0.002,0.209-0.007c0.051-0.007,0.119-0.034,0.198-0.087l0.177-0.117
						c0.04-0.022,0.11-0.083,0.202-0.179c0.098-0.098,0.164-0.169,0.2-0.217c0.925-0.87,1.275-1.548,1.051-2.034
						c-0.58,0.149-1.038,0.297-1.373,0.442c-0.333,0.143-0.633,0.382-0.895,0.71c-0.26,0.326-0.375,0.744-0.336,1.25
						C424.584,98.74,424.688,98.799,424.778,98.84z M427.148,91.241c-1.168-0.146-1.955,0.315-2.368,1.386
						c-0.413,1.068-0.407,2.154,0.017,3.258c0.474-0.163,0.816-0.28,1.029-0.358c0.215-0.076,0.521-0.208,0.915-0.39
						c0.396-0.184,0.696-0.383,0.906-0.598c0.212-0.215,0.354-0.467,0.427-0.749C428.297,92.91,427.988,92.064,427.148,91.241z"/>
					<path fill="#9EF7CD" d="M440.747,89.997c-0.224-0.102-0.388-0.24-0.492-0.406c-0.104-0.172-0.242-0.321-0.419-0.452
						c-0.174-0.13-0.365-0.171-0.573-0.128c-0.122,0.036-0.23,0.12-0.322,0.247c-0.092,0.125-0.169,0.304-0.228,0.535
						c-0.061,0.231-0.109,0.461-0.147,0.687c-0.037,0.229-0.071,0.51-0.095,0.845c-0.027,0.332-0.051,0.611-0.068,0.838
						c-0.016,0.224-0.033,0.509-0.049,0.854c-0.013,0.34-0.024,0.578-0.029,0.705c-0.013,0.087-0.024,0.214-0.036,0.389
						c-0.015,0.171-0.021,0.304-0.021,0.401c0.001,0.094,0,0.218-0.006,0.367c-0.002,0.149,0.006,0.27,0.027,0.364
						c0.019,0.095,0.053,0.191,0.095,0.292c0.045,0.102,0.112,0.181,0.202,0.232c0.092,0.056,0.192,0.096,0.302,0.125
						c0.232-0.024,0.411-0.041,0.538-0.044c0.129-0.002,0.275-0.116,0.444-0.338c0.167-0.22,0.286-0.386,0.356-0.502
						c0.073-0.115,0.176-0.302,0.304-0.564c0.131-0.258,0.214-0.421,0.248-0.489c0.129-0.205,0.295-0.464,0.504-0.777
						c0.21-0.312,0.381-0.586,0.515-0.827c0.133-0.236,0.236-0.498,0.312-0.783c0.043-0.177,0.072-0.43,0.089-0.76
						c0.016-0.334,0.036-0.575,0.061-0.727c0.077-0.266,0.334-0.932,0.766-2.004c0.369-1.084,0.681-1.695,0.945-1.833
						c0.881-0.48,1.909-0.234,3.086,0.74c-0.01,0.278,0.012,0.766,0.069,1.462c0.058,0.698,0.074,1.23,0.051,1.592
						c-0.007,0.108-0.057,0.291-0.146,0.543c-0.087,0.258-0.137,0.448-0.144,0.577c-0.036,0.237-0.021,0.587,0.04,1.049
						c0.063,0.46,0.086,0.811,0.069,1.048c-0.009,0.299-0.069,0.845-0.183,1.635c-0.115,0.79-0.166,1.428-0.153,1.916
						c0.002,0.767,0.031,1.297,0.086,1.591c0.01,0.104,0.081,0.259,0.213,0.471c0.129,0.208,0.2,0.365,0.211,0.471
						c0.01,0.085-0.003,0.208-0.037,0.371c-0.034,0.166-0.035,0.288-0.007,0.369c0.151,0.387,0.251,0.792,0.298,1.212
						c0.048,0.422-0.07,0.796-0.354,1.125c-0.642,0.158-1.227,0.17-1.753,0.038c-0.527-0.131-0.957-0.354-1.29-0.667
						c-0.333-0.315-0.632-0.756-0.899-1.322c-0.265-0.566-0.472-1.107-0.614-1.625c-0.143-0.517-0.287-1.13-0.431-1.837
						c-0.356,0.063-0.761,0.396-1.215,1c-0.453,0.604-0.75,0.96-0.886,1.06c-1.349,0.896-2.562,1.173-3.646,0.824
						c-0.419-0.121-0.975-0.521-1.669-1.201c-0.696-0.678-1.137-1.293-1.329-1.847c-0.131-0.603-0.228-1.078-0.285-1.422
						c-0.061-0.343-0.041-0.784,0.058-1.317c0.099-0.532,0.199-0.949,0.291-1.248c0.094-0.296,0.221-0.689,0.38-1.177
						c0.158-0.488,0.273-0.863,0.351-1.125c0.312-0.25,0.738-0.834,1.271-1.757c0.537-0.921,1.042-1.54,1.52-1.849
						c0.88-0.504,1.701-0.648,2.458-0.436c0.759,0.213,1.426,0.69,2,1.437c0.171,0.213,0.318,0.438,0.429,0.671
						c0.109,0.23,0.153,0.488,0.132,0.766c-0.02,0.279-0.162,0.497-0.419,0.654C441.229,90.11,440.973,90.097,440.747,89.997z"/>
					<path fill="#9EF7CD" d="M457.383,81.522c0.683-0.088,1.286-0.113,1.813-0.075c0.527,0.034,0.861,0.247,1.012,0.634
						c-0.352,0.273-1.066,0.542-2.144,0.803c-1.079,0.258-1.795,0.536-2.145,0.832c-0.188,0.425-0.265,1.152-0.234,2.185
						c0.032,1.029,0.027,1.736-0.014,2.125c-0.022,0.194-0.08,0.479-0.177,0.852c-0.097,0.37-0.154,0.667-0.175,0.882
						c-0.029,0.662-0.021,1.302,0.027,1.915c-0.298,0.584-0.495,1.235-0.596,1.951c-0.103,0.714-0.013,1.353,0.263,1.921
						c0.651-0.458,1.117-0.793,1.391-1.005c0.272-0.212,0.62-0.543,1.038-0.997c0.418-0.45,0.728-0.901,0.935-1.35
						c0.423-0.217,0.916-0.71,1.479-1.477c0.565-0.767,1.133-1.245,1.708-1.439c0.028,0.254,0.062,0.43,0.108,0.533
						c0.043,0.101,0.002,0.271-0.119,0.508c-0.126,0.237-0.212,0.394-0.267,0.476c-0.055,0.083-0.165,0.228-0.332,0.438
						l-0.309,0.386c-0.093,0.137-0.332,0.431-0.718,0.879c-0.387,0.449-0.639,0.816-0.754,1.108
						c-0.504,0.44-1.002,0.933-1.495,1.476c-0.492,0.548-1.021,1.173-1.595,1.875c-0.571,0.704-1.024,1.245-1.366,1.624
						c-0.204,0.067-0.484,0.211-0.846,0.43c-0.358,0.224-0.645,0.357-0.852,0.401c-0.834,0.138-1.596-0.118-2.289-0.765
						c-0.691-0.647-1.105-1.398-1.246-2.256c-0.035-0.123-0.024-0.28,0.028-0.466c0.053-0.188,0.075-0.324,0.066-0.409
						c0.012-0.085-0.015-0.205-0.071-0.357c-0.062-0.152-0.097-0.273-0.105-0.357c-0.02-0.188-0.007-0.483,0.043-0.884
						c0.052-0.399,0.08-0.672,0.085-0.821c0.007-1.26,0.027-2.008,0.065-2.246c0.027-0.151,0.078-0.36,0.151-0.625
						c0.079-0.264,0.121-0.459,0.126-0.59c0.029-0.131,0.027-0.343-0.006-0.638c-0.033-0.293-0.038-0.507-0.009-0.636
						c0.005-0.15,0.097-0.697,0.278-1.648c0.179-0.945,0.223-1.656,0.125-2.137c-0.152-0.025-0.424-0.036-0.816-0.036
						c-0.396,0.002-0.699-0.011-0.917-0.041c-0.215-0.029-0.438-0.104-0.665-0.229c-0.227-0.123-0.385-0.307-0.479-0.552
						c0.129-0.375,0.639-0.644,1.524-0.795c0.889-0.153,1.439-0.326,1.655-0.521c0.105-0.736,0.249-1.637,0.427-2.702
						c0.618-0.561,1.271-0.855,1.961-0.892c0.688-0.036,1.328,0.202,1.915,0.709c0.594,0.51,0.935,1.165,1.022,1.963
						C456.202,81.596,456.7,81.61,457.383,81.522z M462.588,88.444c-0.054,0.082-0.168,0.121-0.338,0.119
						c-0.04-0.167-0.032-0.289,0.021-0.37c0.057-0.08,0.17-0.12,0.339-0.119C462.65,88.241,462.643,88.364,462.588,88.444z"/>
					<path fill="#9EF7CD" d="M467.597,86.968c-0.227-0.101-0.387-0.236-0.496-0.405c-0.101-0.169-0.241-0.319-0.415-0.45
						c-0.172-0.13-0.366-0.172-0.574-0.128c-0.123,0.036-0.232,0.119-0.323,0.247c-0.093,0.126-0.167,0.306-0.228,0.538
						c-0.059,0.229-0.109,0.459-0.145,0.685c-0.039,0.229-0.071,0.509-0.098,0.842c-0.027,0.333-0.048,0.613-0.064,0.841
						c-0.018,0.222-0.035,0.509-0.051,0.85c-0.014,0.341-0.024,0.578-0.029,0.708c-0.015,0.087-0.026,0.214-0.039,0.386
						c-0.013,0.171-0.017,0.307-0.018,0.404c0,0.094-0.001,0.217-0.007,0.367c-0.004,0.15,0.006,0.27,0.024,0.364
						c0.022,0.095,0.057,0.191,0.098,0.292c0.043,0.102,0.112,0.18,0.204,0.233c0.091,0.054,0.191,0.096,0.3,0.125
						c0.229-0.027,0.413-0.04,0.538-0.044c0.13-0.002,0.275-0.115,0.442-0.338c0.167-0.223,0.285-0.386,0.356-0.505
						c0.073-0.111,0.176-0.299,0.306-0.561c0.131-0.258,0.214-0.423,0.249-0.49c0.125-0.206,0.295-0.465,0.503-0.776
						c0.21-0.312,0.383-0.586,0.515-0.826c0.134-0.238,0.236-0.5,0.311-0.787c0.046-0.174,0.074-0.428,0.09-0.758
						c0.017-0.335,0.038-0.576,0.062-0.73c0.076-0.26,0.333-0.93,0.765-2.002c0.367-1.087,0.682-1.695,0.944-1.831
						c0.883-0.482,1.913-0.236,3.086,0.739c-0.012,0.275,0.012,0.764,0.068,1.461c0.059,0.697,0.075,1.227,0.055,1.592
						c-0.012,0.109-0.059,0.29-0.148,0.543c-0.09,0.256-0.136,0.447-0.144,0.578c-0.035,0.236-0.024,0.586,0.04,1.049
						c0.062,0.46,0.085,0.81,0.068,1.045c-0.01,0.3-0.068,0.846-0.183,1.634c-0.113,0.791-0.164,1.43-0.152,1.919
						c0.003,0.767,0.03,1.295,0.084,1.587c0.011,0.107,0.084,0.264,0.215,0.472c0.128,0.21,0.202,0.367,0.213,0.473
						c0.011,0.084-0.005,0.208-0.038,0.37c-0.036,0.167-0.039,0.287-0.008,0.372c0.15,0.386,0.249,0.789,0.295,1.21
						c0.047,0.422-0.067,0.797-0.351,1.128c-0.644,0.157-1.226,0.17-1.752,0.037c-0.529-0.134-0.957-0.356-1.291-0.667
						c-0.335-0.314-0.635-0.759-0.899-1.323c-0.266-0.568-0.47-1.109-0.613-1.625c-0.145-0.516-0.29-1.127-0.434-1.836
						c-0.354,0.061-0.759,0.394-1.212,1c-0.456,0.606-0.749,0.958-0.888,1.06c-1.346,0.896-2.562,1.171-3.646,0.826
						c-0.417-0.125-0.975-0.523-1.668-1.205c-0.695-0.675-1.137-1.292-1.329-1.845c-0.129-0.604-0.226-1.077-0.286-1.42
						c-0.06-0.348-0.041-0.785,0.059-1.319c0.101-0.534,0.197-0.947,0.289-1.247c0.099-0.299,0.224-0.69,0.382-1.178
						c0.157-0.487,0.272-0.863,0.353-1.126c0.312-0.249,0.737-0.833,1.27-1.757c0.534-0.922,1.042-1.54,1.518-1.848
						c0.882-0.504,1.7-0.649,2.461-0.436c0.759,0.211,1.426,0.689,1.999,1.435c0.172,0.214,0.314,0.44,0.426,0.672
						c0.113,0.231,0.157,0.489,0.134,0.766c-0.021,0.282-0.16,0.499-0.419,0.655C468.077,87.084,467.821,87.073,467.597,86.968z"/>
					<path fill="#9EF7CD" d="M482.931,92.192c0.035,0.219-0.03,0.636-0.195,1.25c-0.803,2.52-2.033,3.616-3.688,3.292
						c-0.24-0.059-0.533-0.206-0.881-0.443c-0.345-0.238-0.593-0.456-0.742-0.653c-0.387-0.574-0.597-1.357-0.635-2.356
						c-0.037-0.999,0.107-1.734,0.439-2.223c0.786-1.131,2.535-1.115,5.242,0.05C482.741,91.611,482.896,91.973,482.931,92.192z
						 M481.63,86.62c-0.229,0.503-0.482,0.868-0.755,1.09c-0.271,0.223-0.648,0.287-1.129,0.19
						c-0.744-0.171-1.205-0.865-1.385-2.081c-0.119-0.669-0.173-2.653-0.161-5.956c0.046-3.562,0.521-5.963,1.428-7.191
						c0.529-0.209,1.312-0.127,2.345,0.248c1.032,0.372,1.625,0.775,1.78,1.204c0.125,0.346,0.11,0.913-0.048,1.701
						c-0.156,0.783-0.24,1.219-0.252,1.303c-0.016,0.238-0.021,0.622-0.013,1.153c0.006,0.534-0.009,0.938-0.039,1.22
						c-0.072,0.498-0.276,1.472-0.612,2.93c-0.337,1.453-0.543,2.517-0.615,3.183C482.041,85.78,481.859,86.113,481.63,86.62z"/>
				</g>
				<g>
					<path fill="#9EF7CD" d="M458.533,49.226c0.526-0.416,0.928-0.673,1.209-0.762c0.967-0.323,1.738-0.375,2.306-0.149
						c0.403,0.155,0.743,0.417,1.026,0.776c0.281,0.358,0.567,0.817,0.868,1.375c0.295,0.558,0.558,0.981,0.774,1.27
						c0.626-0.07,1.373-0.476,2.235-1.224c0.865-0.747,1.566-1.169,2.1-1.257c0.117,0.208,0.089,0.439-0.088,0.696
						c-0.169,0.256-0.398,0.453-0.687,0.585c-0.277,0.519-0.895,1.082-1.848,1.69c-0.953,0.609-1.56,1.172-1.817,1.686
						c-0.126,0.266-0.205,0.686-0.235,1.261c-0.028,0.573-0.103,0.972-0.22,1.194c-0.29,0.563-0.729,1.129-1.314,1.701
						c-0.369,0.414-1.117,0.854-2.24,1.323c-0.415,0.147-0.822,0.406-1.223,0.783c-0.401,0.378-0.625,0.731-0.672,1.065
						c-0.01,0.129,0.021,0.333,0.087,0.603c0.067,0.273,0.099,0.452,0.099,0.538c0.058,0.93,0.032,1.995-0.079,3.199
						c-0.109,1.203-0.32,2.089-0.629,2.657c-0.094,0.15-0.291,0.408-0.595,0.776c-0.307,0.362-0.525,0.591-0.651,0.688
						c-0.647,0.501-1.329,0.639-2.05,0.407c-0.081-0.152-0.232-0.388-0.464-0.702c-0.229-0.323-0.376-0.579-0.445-0.774
						c-0.101-0.319-0.159-0.893-0.184-1.723c-0.022-0.829-0.056-1.377-0.1-1.646c-0.033-0.141-0.102-0.403-0.207-0.781
						c-0.106-0.381-0.168-0.667-0.193-0.853c-0.052-0.287-0.078-0.74-0.079-1.359c-0.004-0.621-0.005-1.018-0.003-1.188
						c-0.001-0.088-0.038-0.233-0.109-0.441c-0.07-0.206-0.111-0.363-0.114-0.469c-0.024-0.188-0.009-0.474,0.042-0.863
						c0.058-0.386,0.072-0.673,0.044-0.859c-0.007-0.127-0.038-0.318-0.09-0.571c-0.051-0.257-0.074-0.45-0.062-0.581
						c-0.009-0.125,0.01-0.328,0.058-0.607c0.053-0.279,0.073-0.474,0.068-0.578c0.001-0.173-0.039-0.413-0.115-0.726
						c-0.077-0.314-0.125-0.554-0.144-0.719c0.007-0.152,0.03-0.356,0.076-0.612c0.042-0.255,0.066-0.462,0.07-0.612
						c-0.031-0.484-0.113-1.121-0.246-1.915c-0.129-0.791-0.222-1.465-0.271-2.02c-0.051-0.554-0.031-0.991,0.061-1.314
						c0.176-0.513,0.581-0.881,1.224-1.104c0.638-0.223,1.226-0.206,1.759,0.048c0.113,0.187,0.394,0.575,0.849,1.157
						c0.451,0.583,0.751,1.127,0.896,1.625C457.563,49.879,458.004,49.645,458.533,49.226z M459.062,58.886
						c0.096,0.031,0.183,0.041,0.266,0.033c0.082-0.008,0.149-0.021,0.197-0.033c0.055-0.014,0.112-0.051,0.186-0.11l0.158-0.136
						c0.035-0.028,0.096-0.098,0.175-0.202c0.081-0.106,0.136-0.188,0.169-0.236c0.787-0.963,1.044-1.668,0.761-2.111
						c-0.545,0.218-0.971,0.419-1.279,0.604c-0.308,0.182-0.567,0.451-0.781,0.802c-0.213,0.352-0.269,0.773-0.171,1.263
						C458.863,58.814,458.97,58.856,459.062,58.886z M460.412,51.188c-1.155,0.006-1.865,0.556-2.131,1.649
						c-0.268,1.094-0.123,2.149,0.426,3.168c0.439-0.214,0.76-0.375,0.957-0.477c0.201-0.1,0.48-0.269,0.841-0.496
						c0.364-0.227,0.63-0.459,0.81-0.695c0.178-0.236,0.284-0.5,0.321-0.787C461.738,52.669,461.332,51.884,460.412,51.188z"/>
					<path fill="#9EF7CD" d="M473.493,48.257c-0.231-0.07-0.409-0.181-0.533-0.333c-0.123-0.151-0.276-0.28-0.463-0.385
						c-0.188-0.105-0.375-0.121-0.574-0.051c-0.117,0.05-0.213,0.144-0.283,0.279c-0.075,0.135-0.125,0.32-0.156,0.552
						c-0.026,0.23-0.048,0.462-0.055,0.687c-0.007,0.226-0.006,0.504,0.013,0.832c0.016,0.327,0.03,0.604,0.042,0.827
						c0.012,0.221,0.034,0.499,0.062,0.833c0.027,0.333,0.049,0.567,0.058,0.693c-0.002,0.087,0,0.212,0.013,0.381
						c0.01,0.167,0.02,0.301,0.032,0.394s0.025,0.216,0.04,0.359c0.015,0.146,0.039,0.262,0.07,0.354
						c0.034,0.086,0.077,0.177,0.134,0.27c0.054,0.094,0.13,0.162,0.227,0.202c0.094,0.041,0.198,0.069,0.307,0.083
						c0.223-0.054,0.395-0.09,0.517-0.109c0.126-0.019,0.255-0.147,0.389-0.385c0.134-0.237,0.231-0.416,0.286-0.537
						c0.058-0.117,0.131-0.314,0.225-0.584c0.095-0.269,0.156-0.439,0.18-0.509c0.096-0.215,0.229-0.49,0.395-0.819
						c0.164-0.331,0.297-0.62,0.396-0.87c0.098-0.25,0.163-0.516,0.201-0.802c0.022-0.178,0.019-0.428-0.007-0.753
						c-0.024-0.326-0.037-0.562-0.034-0.717c0.044-0.264,0.208-0.948,0.496-2.046c0.218-1.104,0.447-1.738,0.685-1.901
						c0.8-0.581,1.834-0.473,3.1,0.329c0.022,0.27,0.107,0.741,0.25,1.415c0.146,0.672,0.23,1.185,0.253,1.544
						c0.004,0.105-0.021,0.288-0.075,0.546c-0.051,0.26-0.075,0.454-0.066,0.58c-0.005,0.235,0.052,0.574,0.171,1.017
						c0.12,0.442,0.184,0.778,0.201,1.009c0.027,0.292,0.038,0.833,0.027,1.615c-0.01,0.784,0.022,1.411,0.097,1.886
						c0.098,0.746,0.188,1.258,0.279,1.536c0.026,0.102,0.113,0.245,0.268,0.431c0.153,0.191,0.243,0.333,0.268,0.434
						c0.021,0.081,0.021,0.204,0.009,0.365c-0.011,0.166,0.001,0.287,0.04,0.363c0.195,0.358,0.346,0.737,0.443,1.14
						c0.099,0.406,0.033,0.785-0.2,1.142c-0.606,0.236-1.173,0.321-1.703,0.259c-0.53-0.064-0.976-0.226-1.342-0.487
						c-0.362-0.265-0.712-0.655-1.043-1.175c-0.33-0.519-0.598-1.02-0.802-1.502c-0.204-0.486-0.424-1.062-0.653-1.734
						c-0.336,0.104-0.688,0.48-1.054,1.126c-0.365,0.647-0.606,1.027-0.73,1.144c-1.198,1.042-2.345,1.466-3.443,1.265
						c-0.426-0.067-1.018-0.387-1.779-0.959c-0.76-0.572-1.269-1.116-1.525-1.631c-0.203-0.572-0.356-1.02-0.46-1.346
						c-0.101-0.332-0.137-0.76-0.106-1.291c0.029-0.534,0.07-0.949,0.125-1.251c0.055-0.303,0.127-0.7,0.22-1.195
						c0.095-0.495,0.16-0.875,0.202-1.139c0.274-0.283,0.613-0.905,1.016-1.874c0.403-0.965,0.818-1.63,1.244-1.99
						c0.794-0.602,1.572-0.847,2.339-0.735c0.764,0.11,1.474,0.492,2.125,1.144c0.198,0.186,0.366,0.389,0.501,0.599
						c0.14,0.212,0.216,0.457,0.229,0.731c0.014,0.275-0.095,0.504-0.326,0.689C473.976,48.311,473.723,48.331,473.493,48.257z"/>
					<path fill="#9EF7CD" d="M486.866,44.1c0.091-0.191,0.138-0.433,0.143-0.724c0.004-0.29,0.014-0.479,0.035-0.57
						c0.527-1.692,1.337-2.607,2.438-2.75c0.336-0.021,0.757,0.095,1.259,0.348c0.499,0.25,0.826,0.562,0.981,0.93
						c0.1,0.232,0.216,0.728,0.351,1.487c0.134,0.759,0.228,1.251,0.282,1.473c0.012,0.059,0.065,0.222,0.155,0.49
						c0.084,0.27,0.141,0.489,0.16,0.668c0.021,0.173,0.019,0.333-0.012,0.467c-0.035,0.116-0.109,0.234-0.216,0.36
						c-0.108,0.12-0.256,0.264-0.441,0.43c-0.185,0.164-0.311,0.273-0.382,0.333c-0.051,0.054-0.145,0.174-0.283,0.358
						c-0.136,0.186-0.263,0.316-0.384,0.399c-0.117,0.083-0.281,0.14-0.488,0.169c-0.265,0.044-0.532,0.002-0.798-0.125
						c-0.271-0.126-0.479-0.26-0.632-0.406c-0.151-0.144-0.357-0.372-0.619-0.682c-0.254-0.311-0.441-0.517-0.552-0.617
						c-0.142,0.12-0.243,0.278-0.298,0.475c-0.062,0.196-0.106,0.419-0.141,0.675c-0.036,0.254-0.066,0.451-0.098,0.586
						c-0.04,0.18-0.133,0.529-0.271,1.048c-0.14,0.515-0.256,0.977-0.351,1.383c-0.09,0.408-0.153,0.807-0.183,1.202
						c-0.007,0.151-0.001,0.454,0.012,0.912c0.016,0.455-0.011,0.799-0.081,1.031c-0.042,0.182-0.197,0.462-0.47,0.839
						c-0.269,0.376-0.394,0.701-0.37,0.973c-0.178,0.044-0.41,0.218-0.688,0.521c-0.278,0.305-0.564,0.474-0.859,0.502
						c-0.333,0.038-0.686-0.143-1.062-0.543c-0.375-0.399-0.639-0.814-0.789-1.249c-0.105-0.336-0.142-0.936-0.105-1.788
						c0.036-0.856,0.049-1.399,0.032-1.629c-0.009-0.211-0.047-0.525-0.115-0.937c-0.069-0.409-0.118-0.718-0.147-0.925
						c-0.015-0.232-0.037-0.864-0.065-1.893c-0.029-1.03-0.076-1.853-0.138-2.456c-0.036-0.228-0.097-0.542-0.185-0.95
						c-0.089-0.408-0.153-0.766-0.186-1.081c-0.033-0.311-0.033-0.567,0-0.767c0.2-0.671,0.661-1.067,1.377-1.191
						c0.722-0.124,1.332-0.023,1.84,0.303c0.234,0.156,0.432,0.355,0.598,0.59c0.165,0.239,0.289,0.472,0.379,0.695
						c0.087,0.224,0.21,0.55,0.37,0.983c0.16,0.433,0.312,0.812,0.458,1.141C486.596,44.456,486.773,44.296,486.866,44.1z"/>
					<path fill="#9EF7CD" d="M499.977,41.741c-0.23-0.07-0.409-0.181-0.533-0.333c-0.123-0.151-0.277-0.279-0.465-0.384
						c-0.183-0.104-0.377-0.121-0.574-0.05c-0.116,0.049-0.21,0.143-0.284,0.279c-0.072,0.133-0.126,0.317-0.151,0.55
						c-0.028,0.231-0.047,0.461-0.056,0.686c-0.009,0.227-0.005,0.505,0.014,0.833c0.015,0.328,0.027,0.604,0.039,0.824
						c0.012,0.222,0.033,0.502,0.063,0.837c0.028,0.334,0.049,0.565,0.056,0.691c0.001,0.085,0.003,0.213,0.016,0.381
						c0.007,0.169,0.018,0.302,0.029,0.394c0.015,0.094,0.027,0.215,0.04,0.358c0.017,0.148,0.038,0.265,0.072,0.354
						c0.033,0.087,0.075,0.176,0.13,0.273c0.059,0.094,0.133,0.16,0.229,0.2c0.095,0.04,0.197,0.07,0.309,0.083
						c0.222-0.055,0.395-0.092,0.517-0.109c0.127-0.019,0.256-0.148,0.388-0.385c0.137-0.238,0.232-0.414,0.286-0.538
						c0.059-0.12,0.132-0.313,0.224-0.583c0.096-0.271,0.155-0.44,0.181-0.51c0.099-0.215,0.229-0.49,0.396-0.819
						c0.161-0.331,0.295-0.618,0.396-0.868c0.097-0.25,0.164-0.518,0.201-0.806c0.021-0.175,0.02-0.426-0.007-0.75
						c-0.027-0.328-0.04-0.564-0.034-0.717c0.043-0.266,0.207-0.948,0.495-2.045c0.217-1.105,0.449-1.74,0.684-1.903
						c0.801-0.58,1.833-0.472,3.101,0.328c0.024,0.271,0.11,0.742,0.251,1.417c0.146,0.67,0.23,1.184,0.252,1.542
						c0.006,0.106-0.021,0.288-0.074,0.546c-0.051,0.26-0.077,0.454-0.065,0.579c-0.008,0.237,0.05,0.575,0.17,1.018
						c0.118,0.442,0.185,0.779,0.201,1.009c0.027,0.293,0.037,0.832,0.024,1.615c-0.009,0.783,0.025,1.412,0.098,1.888
						c0.098,0.746,0.19,1.256,0.282,1.535c0.024,0.101,0.112,0.244,0.267,0.431c0.153,0.188,0.241,0.332,0.267,0.435
						c0.02,0.081,0.022,0.201,0.009,0.364c-0.011,0.166,0.002,0.286,0.041,0.36c0.196,0.36,0.346,0.74,0.444,1.143
						c0.1,0.405,0.03,0.784-0.201,1.142c-0.607,0.236-1.175,0.322-1.703,0.257c-0.531-0.062-0.978-0.225-1.341-0.486
						c-0.364-0.265-0.713-0.656-1.045-1.174c-0.329-0.518-0.597-1.021-0.804-1.504c-0.203-0.483-0.419-1.063-0.651-1.733
						c-0.336,0.104-0.687,0.48-1.053,1.127c-0.364,0.646-0.606,1.025-0.73,1.142c-1.199,1.043-2.346,1.465-3.443,1.264
						c-0.426-0.066-1.018-0.384-1.779-0.958c-0.761-0.571-1.269-1.116-1.525-1.63c-0.203-0.571-0.358-1.02-0.459-1.348
						c-0.102-0.329-0.139-0.757-0.108-1.289c0.028-0.534,0.07-0.949,0.126-1.252c0.053-0.302,0.127-0.7,0.219-1.193
						c0.092-0.492,0.16-0.875,0.201-1.14c0.274-0.281,0.613-0.904,1.016-1.872c0.405-0.967,0.82-1.632,1.246-1.994
						c0.792-0.6,1.572-0.845,2.338-0.733c0.765,0.111,1.475,0.493,2.127,1.144c0.195,0.188,0.364,0.387,0.501,0.599
						c0.14,0.214,0.215,0.457,0.229,0.732c0.013,0.274-0.096,0.503-0.329,0.689C500.458,41.794,500.209,41.812,499.977,41.741z"/>
				</g>
			</g>
		</g>
	</g>
	<g>
		<path fill="#206BF8" d="M434.67,391.976c0,6.628-5.373,12-12,12H203.332c-6.628,0-12-5.372-12-12v-23.334c0-6.628,5.372-12,12-12
			H422.67c6.627,0,12,5.372,12,12V391.976z"/>
		<rect x="191.5" y="371.267" fill="none" width="243.169" height="16.084"/>
		<text transform="matrix(1 0 0 1 227.2866 386.0664)" fill="#FFFFFF" font-family="'IBMPlexSans-Bold'" font-size="20">Confirmar escolha</text>
	</g>
	<g>
		<rect x="17.5" y="235.954" fill="#FFFFFF" width="278" height="77"/>
		<rect x="330.5" y="235.954" fill="#FFFFFF" width="278" height="77"/>
		<rect x="18.167" y="265.455" fill="none" width="278" height="41"/>
		<text transform="matrix(1 0 0 1 47.9985 280.2549)"><tspan x="0" y="0" font-family="'IBMPlexSans-Bold'" font-size="20">Filha</tspan><tspan x="46.779" y="0" font-family="'IBMPlexSans'" font-size="20">, </tspan><tspan x="56.939" y="0" font-family="'IBMPlexSans-Medium'" font-size="20">rcula </tspan><tspan x="119.397" y="0" font-family="'IBMPlexSans-Light'" font-size="20">para a pata</tspan></text>
		<rect x="330.5" y="265.455" fill="none" width="278" height="41"/>
		<text transform="matrix(1 0 0 1 361.6523 280.2549)"><tspan x="0" y="0" font-family="'IBMPlexSans-Italic'" font-size="20">Filha</tspan><tspan x="44.359" y="0" font-family="'IBMPlexSans'" font-size="20">, </tspan><tspan x="54.519" y="0" font-family="'IBMPlexSans-Italic'" font-size="20">r</tspan><tspan x="73.038" y="0" font-family="'IBMPlexSans'" font-size="20">cula para a pata</tspan></text>
	</g>
	<g>
		<circle cx="191" cy="141.683" r="13.25"/>
		<rect x="177.971" y="133.433" fill="none" width="25.53" height="21.5"/>
		<text transform="matrix(1 0 0 1 184.7358 148.2324)" fill="#FFFFFF" font-family="'IBMPlexSans-Bold'" font-size="20">1</text>
	</g>
	<g>
		<circle cx="13.25" cy="232.849" r="13.25"/>
		<rect x="0.22" y="224.599" fill="none" width="25.53" height="21.5"/>
		<text transform="matrix(1 0 0 1 6.9854 239.3984)" fill="#FFFFFF" font-family="'IBMPlexSans-Bold'" font-size="20">2</text>
	</g>
	<g>
		<circle cx="191" cy="353.394" r="13.25"/>
		<rect x="177.971" y="345.144" fill="none" width="25.53" height="21.5"/>
		<text transform="matrix(1 0 0 1 184.7358 359.9424)" fill="#FFFFFF" font-family="'IBMPlexSans-Bold'" font-size="20">4</text>
	</g>
	<g>
		<circle cx="333.953" cy="232.849" r="13.25"/>
		<rect x="320.924" y="224.599" fill="none" width="25.529" height="21.5"/>
		<text transform="matrix(1 0 0 1 327.6885 239.3984)" fill="#FFFFFF" font-family="'IBMPlexSans-Bold'" font-size="20">3</text>
	</g>
</g>
</svg>
