<?xml version="1.0" encoding="utf-8"?>
<!-- Generator: Adobe Illustrator 16.0.0, SVG Export Plug-In . SVG Version: 6.00 Build 0)  -->
<!DOCTYPE svg PUBLIC "-//W3C//DTD SVG 1.1//EN" "http://www.w3.org/Graphics/SVG/1.1/DTD/svg11.dtd">
<svg version="1.1" id="Layer_1" xmlns="http://www.w3.org/2000/svg" xmlns:xlink="http://www.w3.org/1999/xlink" x="0px" y="0px"
	 width="608.5px" height="193.266px" viewBox="0 0 608.5 193.266" enable-background="new 0 0 608.5 193.266" xml:space="preserve">
<g id="Layer_1_1_">
	<g>
		<path fill="none" stroke="#000000" stroke-width="2" stroke-miterlimit="10" d="M425.919,179.266c0,6.627-5.373,12-12,12H194.581
			c-6.628,0-12-5.373-12-12v-23.334c0-6.627,5.372-12,12-12h219.338c6.627,0,12,5.373,12,12V179.266z"/>
		<polygon points="295.437,180.115 295.437,155.084 313.062,167.599 		"/>
	</g>
	<g>
		<polygon points="528.349,65.889 515.543,56.984 521.396,42.544 505.783,41.037 505.438,25.391 490.123,28.867 485.869,13.772 
			471.603,20.347 464.737,6.234 451.686,14.972 442.869,1.983 431.102,12.385 420.705,0.617 410.305,12.385 398.536,1.984 
			389.716,14.973 376.666,6.236 369.803,20.348 355.541,13.771 351.289,28.865 335.978,25.386 335.632,41.032 320.017,42.54 
			325.867,56.981 313.062,65.889 325.866,74.798 320.014,89.236 335.626,90.743 335.971,106.39 351.287,102.911 341.691,140.521 
			372.227,112.459 376.673,125.546 389.723,116.81 398.542,129.798 410.308,119.395 420.705,131.163 431.105,119.395 
			442.873,129.797 451.693,116.809 464.744,125.545 471.605,111.432 485.869,118.007 490.12,102.914 505.431,106.394 
			505.779,90.747 521.394,89.24 515.542,74.8 		"/>
		<g>
			<g>
				<defs>
					<polygon id="SVGID_1_" points="528.349,65.889 515.543,56.984 521.396,42.544 505.783,41.037 505.438,25.391 490.123,28.867 
						485.869,13.772 471.603,20.347 464.737,6.234 451.686,14.972 442.869,1.983 431.102,12.385 420.705,0.617 410.305,12.385 
						398.536,1.984 389.716,14.973 376.666,6.236 369.803,20.348 355.541,13.771 351.289,28.865 335.978,25.386 335.632,41.032 
						320.017,42.54 325.867,56.981 313.062,65.889 325.866,74.798 320.014,89.236 335.626,90.743 335.971,106.39 351.287,102.911 
						341.691,140.521 372.227,112.459 376.673,125.546 389.723,116.81 398.542,129.798 410.308,119.395 420.705,131.163 
						431.105,119.395 442.873,129.797 451.693,116.809 464.744,125.545 471.605,111.432 485.869,118.007 490.12,102.914 
						505.431,106.394 505.779,90.747 521.394,89.24 515.542,74.8 					"/>
				</defs>
				<clipPath id="SVGID_2_">
					<use xlink:href="#SVGID_1_"  overflow="visible"/>
				</clipPath>
				<g clip-path="url(#SVGID_2_)">
					<g>
						<path fill="#9EF7CD" d="M361.409,65.953c0.171-0.266,0.334-0.603,0.489-1c0.153-0.396,0.294-0.686,0.413-0.875
							c0.764-1.157,1.676-1.749,2.735-1.78c0.316-0.003,0.699,0.093,1.144,0.293c0.446,0.202,0.839,0.304,1.181,0.318
							c0.059,0.097,0.385,0.486,0.973,1.166c0.593,0.678,0.937,1.211,1.038,1.599c0.05,0.206,0.036,0.544-0.041,1.013
							c-0.078,0.471-0.066,0.844,0.039,1.128c-0.17,0.28-0.3,0.682-0.395,1.208c-0.092,0.526-0.206,0.905-0.342,1.137
							c-0.084,0.14-0.241,0.302-0.471,0.485c-0.228,0.184-0.379,0.324-0.448,0.419c-0.337,0.432-0.785,1.201-1.348,2.306
							c-0.159,0.067-0.337,0.26-0.536,0.574c-0.198,0.318-0.352,0.539-0.459,0.661c-0.092,0.099-0.305,0.266-0.63,0.508
							c-0.325,0.239-0.58,0.464-0.761,0.672c-0.184,0.208-0.265,0.427-0.252,0.661c0.013,0.23,0.469,0.725,1.37,1.487
							c0.172,0.145,0.409,0.381,0.713,0.706c0.305,0.328,0.531,0.556,0.678,0.681c0.172,0.167,0.469,0.342,0.892,0.523
							c0.421,0.182,0.7,0.314,0.842,0.401c0.208,0.117,0.586,0.403,1.131,0.852c0.548,0.451,0.897,0.771,1.055,0.96
							c0.129,0.151,0.295,0.393,0.49,0.724c0.199,0.334,0.322,0.581,0.367,0.744c0.11,0.454,0.057,1.015-0.164,1.685
							c-0.219,0.672-0.509,1.077-0.872,1.216c-0.055,0.052-0.138,0.072-0.245,0.069c-0.108-0.005-0.188-0.003-0.239,0.003
							c-0.052,0.007-0.133-0.007-0.246-0.044c-0.111-0.036-0.195-0.064-0.254-0.091c-0.056-0.023-0.146-0.056-0.27-0.102
							c-0.124-0.047-0.222-0.084-0.287-0.118c-0.117-0.047-0.329-0.126-0.644-0.24c-0.316-0.112-0.553-0.218-0.719-0.323
							c-0.187-0.101-0.404-0.295-0.665-0.587c-0.255-0.29-0.453-0.492-0.597-0.594c-0.196-0.165-0.508-0.345-0.945-0.548
							c-0.436-0.201-0.732-0.354-0.897-0.457c-0.164-0.104-0.574-0.425-1.229-0.967c-0.658-0.541-1.199-0.897-1.628-1.064
							c-0.205,0.201-0.374,0.455-0.51,0.761c-0.136,0.308-0.267,0.679-0.394,1.114c-0.126,0.432-0.249,0.765-0.361,0.996
							c-0.055,0.07-0.121,0.219-0.204,0.445c-0.085,0.223-0.154,0.372-0.207,0.445c-0.053,0.07-0.187,0.175-0.398,0.313
							c-0.213,0.138-0.365,0.256-0.46,0.356c-0.089,0.097-0.281,0.339-0.576,0.724c-0.296,0.385-0.575,0.713-0.844,0.988
							c-0.267,0.273-0.534,0.45-0.798,0.532c-0.445,0.153-0.895,0.183-1.343,0.09c-0.451-0.092-0.736-0.256-0.857-0.495
							c-0.095-0.198-0.052-0.599,0.123-1.199c0.178-0.599,0.266-1.04,0.268-1.317c-0.002-0.15-0.044-0.343-0.136-0.584
							c-0.088-0.245-0.142-0.429-0.161-0.554c-0.014-0.083,0.017-0.242,0.089-0.476c0.07-0.233,0.097-0.404,0.082-0.509
							c-0.073-0.649-0.085-1.212-0.026-1.686c0.004-0.107,0.032-0.278,0.083-0.509c0.051-0.23,0.081-0.388,0.089-0.474
							c-0.011-0.083-0.054-0.216-0.125-0.397c-0.069-0.182-0.103-0.326-0.093-0.433c-0.014-0.083,0.018-0.2,0.088-0.348
							c0.076-0.151,0.119-0.258,0.13-0.323c0.008-0.236-0.018-0.614-0.074-1.139c-0.058-0.525-0.081-0.914-0.078-1.17
							c0.021-0.28,0.076-0.943,0.165-1.989c0.09-1.045,0.114-1.777,0.07-2.196c-0.019-0.125-0.075-0.414-0.178-0.869
							c-0.096-0.452-0.124-0.756-0.087-0.911c0.008-0.107,0.05-0.273,0.133-0.5c0.084-0.227,0.129-0.39,0.135-0.498
							c0.005-0.107-0.006-0.287-0.032-0.539c-0.027-0.251-0.025-0.431,0.001-0.542c0.016-0.175,0.089-0.417,0.222-0.736
							c0.135-0.316,0.2-0.551,0.2-0.701c-0.004-0.445-0.054-0.858-0.153-1.236c-0.099-0.379-0.15-0.796-0.155-1.254
							c-0.003-0.457,0.093-0.829,0.281-1.112c0.986-0.655,1.909-0.903,2.765-0.73c1.288,0.233,2.195,1.513,2.713,3.841
							C361.021,66.422,361.237,66.225,361.409,65.953z M365.522,72.556c0.167-0.292,0.327-0.62,0.475-0.981
							c0.148-0.362,0.271-0.666,0.362-0.901c0.094-0.237,0.211-0.589,0.354-1.058c0.141-0.466,0.254-0.804,0.329-1.005
							c0.188-0.583,0.331-1.188,0.431-1.821c0.097-0.633,0.066-1.286-0.084-1.967c-0.159-0.678-0.496-1.129-1.02-1.349
							c-0.686-0.195-1.281-0.149-1.781,0.138c-0.5,0.287-0.9,0.709-1.201,1.264c-0.081,0.162-0.14,0.431-0.182,0.81
							c-0.038,0.378-0.078,0.655-0.114,0.83c-0.038,0.178-0.133,0.399-0.286,0.667c-0.151,0.265-0.24,0.466-0.262,0.596
							c-0.021,0.154-0.008,0.438,0.032,0.858c0.042,0.419,0.048,0.737,0.015,0.955c-0.021,0.13-0.1,0.33-0.229,0.594
							c-0.132,0.265-0.209,0.472-0.229,0.625c-0.006,0.086,0.014,0.222,0.062,0.404c0.052,0.188,0.071,0.332,0.065,0.439
							c0.003,0.148-0.039,0.346-0.118,0.593c-0.08,0.246-0.125,0.414-0.134,0.499c-0.004,0.256,0.01,0.526,0.041,0.808
							c0.031,0.282,0.071,0.589,0.121,0.924l0.116,0.78c0.88-0.088,1.778-0.713,2.691-1.869
							C365.171,73.123,365.353,72.847,365.522,72.556z"/>
						<path fill="#9EF7CD" d="M389.31,71.736c0.133,0.323,0.221,0.587,0.262,0.793c0.038,0.206,0.019,0.45-0.067,0.729
							c-0.087,0.278-0.176,0.504-0.27,0.677c-0.089,0.173-0.2,0.388-0.333,0.641c-0.132,0.252-0.228,0.458-0.29,0.616
							c-0.133,0.404-0.314,1.033-0.551,1.888c-0.233,0.855-0.436,1.496-0.604,1.925c-0.178,0.112-0.334,0.271-0.471,0.486
							c0.037,0.547-0.199,1.258-0.721,2.133c-0.518,0.875-0.776,1.602-0.778,2.176c-0.154,0.108-0.38,0.297-0.68,0.564
							c-0.302,0.269-0.553,0.44-0.755,0.511c-2.078,0.76-3.675-0.675-4.791-4.299c-0.253,0.019-0.397,0.194-0.431,0.53
							c-0.035,0.333-0.089,0.538-0.165,0.613c-0.146,0.17-0.338,0.429-0.587,0.773c-0.247,0.346-0.443,0.608-0.599,0.792
							c-0.153,0.184-0.391,0.384-0.711,0.602c-0.316,0.217-0.679,0.388-1.088,0.515c-1.175,0.386-2.18,0.106-3.014-0.844
							c-0.834-0.951-1.311-2.258-1.43-3.922c-0.005-0.167,0.01-0.43,0.042-0.787c0.031-0.355,0.042-0.628,0.035-0.821
							c-0.017-0.253-0.065-0.654-0.146-1.207c-0.083-0.551-0.121-0.943-0.116-1.178c0.006-0.257,0.042-0.613,0.114-1.072
							c0.07-0.458,0.116-0.762,0.136-0.913c0.063-0.712,0.119-1.235,0.164-1.572c0.045-0.337,0.144-0.713,0.295-1.129
							c0.149-0.417,0.353-0.699,0.607-0.841c0.917-0.564,1.963-0.475,3.139,0.265c0.171,0.442,0.335,0.934,0.49,1.475
							c0.154,0.541,0.324,1.206,0.506,2s0.317,1.34,0.402,1.648c0.02,0.124-0.025,0.268-0.141,0.437
							c-0.113,0.165-0.169,0.324-0.169,0.472c0.103,0.539,0.111,1.346,0.024,2.422c-0.08,1.075-0.017,1.918,0.202,2.524
							c0.376-0.056,0.673-0.28,0.891-0.677c0.216-0.394,0.417-0.911,0.597-1.556c0.025-0.109,0.048-0.187,0.062-0.233
							c0.098-0.334,0.262-0.833,0.493-1.493c0.23-0.664,0.38-1.127,0.448-1.393c0.053-0.22,0.093-0.742,0.117-1.566
							c0.025-0.821,0.111-1.392,0.257-1.714c0.192-0.413,0.585-0.751,1.17-1.022c0.59-0.266,1.099-0.305,1.532-0.115
							c0.16,0.082,0.349,0.298,0.559,0.65c0.212,0.353,0.342,0.619,0.392,0.804c0.316,0.972,0.473,2.489,0.47,4.542
							c-0.001,2.053,0.177,3.512,0.538,4.374c0.515-0.14,0.937-0.553,1.271-1.244c0.335-0.688,0.564-1.093,0.697-1.22
							c0.387-1.825,1.001-3.406,1.845-4.745c-0.074-1.074,0.141-2.052,0.646-2.94L389.31,71.736z M380.371,63.175
							c0.076,0.243,0.125,0.491,0.142,0.745c0.02,0.254,0.072,0.552,0.165,0.901c-0.171,0.131-0.421,0.451-0.751,0.958
							c-0.326,0.506-0.626,0.864-0.892,1.074c-0.113,0.101-0.332,0.241-0.659,0.415c-0.322,0.177-0.551,0.318-0.685,0.423
							c-1.64,1.287-2.674,1.483-3.104,0.59c-0.276-0.555-0.043-1.333,0.704-2.339c0.174-0.261,0.75-0.88,1.733-1.855
							c0.352-0.352,0.642-0.623,0.869-0.817c0.226-0.192,0.53-0.366,0.911-0.52c0.383-0.152,0.788-0.219,1.216-0.198
							C380.177,62.724,380.29,62.933,380.371,63.175z"/>
						<path fill="#9EF7CD" d="M392.904,71.234c-0.309,1.239-0.417,2.138-0.333,2.698c0.013,0.233,0.103,0.546,0.266,0.934
							c0.164,0.392,0.27,0.656,0.31,0.8c0.018,0.126,0.026,0.306,0.018,0.539c-0.006,0.237-0.003,0.406,0.014,0.511
							c0.102,0.538,0.32,1.02,0.666,1.449c0.338,0.429,0.697,0.709,1.08,0.845c0.413-0.232,0.798-0.54,1.154-0.924
							c0.357-0.383,0.644-0.728,0.852-1.036c0.211-0.31,0.48-0.739,0.816-1.288c0.329-0.551,0.585-0.954,0.761-1.214
							c1.391-2.08,2.147-3.225,2.264-3.434c0.052-0.093,0.128-0.28,0.237-0.561c0.105-0.282,0.227-0.513,0.358-0.692
							c0.135-0.18,0.311-0.308,0.535-0.383c0.043,0.29,0.027,0.576-0.048,0.853c-0.077,0.277-0.219,0.598-0.433,0.959
							c-0.213,0.358-0.352,0.61-0.415,0.746c-0.129,0.276-0.297,0.709-0.492,1.303c-0.197,0.593-0.362,1.028-0.491,1.303
							c-0.101,0.185-0.278,0.43-0.532,0.734c-0.25,0.302-0.428,0.537-0.532,0.7c-0.067,0.116-0.122,0.279-0.165,0.491
							c-0.046,0.209-0.092,0.347-0.146,0.419c-0.239,0.397-0.692,0.96-1.361,1.688s-1.116,1.256-1.342,1.589
							c-0.345,0.115-0.681,0.293-1.005,0.534c-0.327,0.239-0.58,0.433-0.763,0.576c-0.179,0.143-0.459,0.265-0.838,0.363
							c-0.381,0.1-0.792,0.086-1.234-0.04c-0.294-0.085-0.74-0.282-1.352-0.598c-0.611-0.312-1.079-0.583-1.414-0.809
							c-0.383-0.286-0.771-0.668-1.161-1.153c-0.391-0.483-0.659-0.927-0.808-1.333c-0.065-0.16-0.115-0.475-0.155-0.948
							c-0.04-0.472-0.085-0.812-0.138-1.019c-0.023-0.167-0.099-0.415-0.224-0.749c-0.12-0.33-0.189-0.593-0.194-0.785
							c-0.088-1.009,0.17-2.138,0.771-3.387c0.598-1.25,1.314-2.18,2.138-2.793c0.322-0.26,0.858-0.593,1.606-0.99
							c0.751-0.398,1.301-0.624,1.658-0.677c0.186-0.027,0.369-0.036,0.555-0.019c0.182,0.014,0.324,0.035,0.424,0.062
							c0.099,0.028,0.268,0.078,0.501,0.15c0.233,0.074,0.396,0.122,0.487,0.152l0.361,0.072c0.22,0.053,0.379,0.099,0.481,0.135
							c0.103,0.04,0.234,0.105,0.398,0.198c0.162,0.094,0.284,0.197,0.363,0.313c0.164,0.381,0.308,0.887,0.435,1.516
							c0.125,0.633,0.1,1.236-0.08,1.814c-0.178,0.583-0.517,0.854-1.008,0.823c-0.324-0.018-0.566-0.167-0.726-0.452
							c-0.158-0.285-0.258-0.6-0.301-0.945c-0.04-0.345-0.155-0.658-0.347-0.937c-0.191-0.281-0.479-0.424-0.863-0.431
							C392.896,69.341,392.692,70.115,392.904,71.234z"/>
						<path fill="#9EF7CD" d="M417.882,67.476c0.134,0.323,0.219,0.586,0.26,0.794c0.042,0.206,0.022,0.449-0.067,0.729
							c-0.086,0.277-0.174,0.505-0.265,0.677c-0.091,0.173-0.2,0.388-0.335,0.642c-0.134,0.252-0.229,0.46-0.291,0.617
							c-0.133,0.404-0.314,1.033-0.55,1.888c-0.233,0.854-0.437,1.496-0.606,1.924c-0.175,0.112-0.332,0.272-0.47,0.487
							c0.038,0.546-0.201,1.258-0.721,2.133s-0.775,1.602-0.775,2.175c-0.154,0.108-0.382,0.295-0.684,0.564
							c-0.301,0.268-0.551,0.439-0.753,0.511c-2.08,0.759-3.676-0.676-4.791-4.299c-0.254,0.018-0.396,0.193-0.432,0.529
							c-0.036,0.334-0.09,0.54-0.163,0.614c-0.146,0.171-0.341,0.43-0.588,0.773c-0.245,0.347-0.444,0.61-0.601,0.793
							c-0.152,0.184-0.389,0.384-0.705,0.602c-0.32,0.217-0.683,0.388-1.091,0.515c-1.174,0.385-2.183,0.106-3.015-0.845
							c-0.833-0.951-1.313-2.257-1.431-3.921c-0.004-0.168,0.013-0.431,0.044-0.789c0.031-0.355,0.042-0.627,0.035-0.821
							c-0.016-0.253-0.066-0.654-0.148-1.207c-0.082-0.551-0.116-0.945-0.112-1.18c0.005-0.256,0.043-0.613,0.114-1.072
							c0.069-0.456,0.114-0.76,0.134-0.911c0.063-0.711,0.12-1.235,0.164-1.572c0.046-0.336,0.144-0.713,0.295-1.129
							c0.151-0.417,0.353-0.699,0.609-0.841c0.915-0.564,1.961-0.474,3.136,0.266c0.172,0.442,0.336,0.933,0.491,1.474
							c0.155,0.542,0.324,1.207,0.506,2c0.183,0.793,0.317,1.34,0.404,1.647c0.021,0.125-0.027,0.271-0.142,0.438
							c-0.113,0.165-0.172,0.324-0.171,0.472c0.101,0.538,0.111,1.347,0.028,2.422c-0.086,1.077-0.018,1.918,0.2,2.524
							c0.375-0.055,0.672-0.28,0.89-0.676c0.218-0.395,0.414-0.911,0.599-1.556c0.024-0.109,0.044-0.188,0.061-0.234
							c0.097-0.333,0.262-0.831,0.495-1.493c0.23-0.664,0.38-1.126,0.445-1.393c0.053-0.22,0.094-0.744,0.116-1.566
							c0.029-0.822,0.112-1.393,0.255-1.715c0.197-0.414,0.585-0.75,1.176-1.021c0.587-0.267,1.096-0.306,1.529-0.115
							c0.163,0.081,0.348,0.298,0.559,0.65c0.213,0.352,0.346,0.619,0.393,0.805c0.317,0.972,0.473,2.489,0.472,4.542
							c-0.003,2.054,0.175,3.513,0.539,4.374c0.512-0.14,0.933-0.553,1.266-1.243c0.332-0.688,0.568-1.094,0.696-1.22
							c0.389-1.823,1.002-3.405,1.847-4.746c-0.075-1.073,0.143-2.052,0.648-2.938L417.882,67.476z"/>
						<path fill="#9EF7CD" d="M422.844,73.907c0.43-0.905,0.754-1.471,0.976-1.695c0.058-0.329,0.148-0.677,0.272-1.047
							c0.127-0.37,0.242-0.654,0.34-0.848c0.1-0.195,0.268-0.509,0.515-0.938c0.244-0.431,0.39-0.702,0.437-0.816
							c0.03-0.09,0.083-0.306,0.16-0.646c0.076-0.342,0.127-0.573,0.152-0.695c0.023-0.118,0.087-0.319,0.182-0.599
							s0.189-0.488,0.273-0.617c0.087-0.129,0.21-0.281,0.36-0.452c0.157-0.172,0.324-0.315,0.499-0.426
							c0.102,0.114,0.14,0.294,0.112,0.542c-0.025,0.25-0.05,0.418-0.068,0.506s-0.079,0.256-0.179,0.506
							c-0.103,0.25-0.167,0.419-0.197,0.509c-0.027,0.108-0.104,0.367-0.237,0.769l-0.272,0.84
							c-0.052,0.157-0.136,0.404-0.258,0.739c-0.118,0.337-0.223,0.608-0.308,0.813c-0.09,0.203-0.195,0.448-0.321,0.732
							c-0.13,0.287-0.257,0.543-0.38,0.776c-0.125,0.232-0.259,0.454-0.397,0.666c-0.072,0.354-0.186,0.724-0.329,1.118
							c-0.144,0.393-0.333,0.864-0.571,1.409l-0.476,1.093c-0.019,0.025-0.034,0.069-0.044,0.132
							c-0.395,0.933-0.818,1.507-1.277,1.725c-0.037,0.025-0.078,0.043-0.118,0.048c-0.89,0.303-1.848,0.203-2.874-0.304
							c-1.019-0.509-1.693-1.122-2.011-1.842c-0.095-0.197-0.168-0.507-0.218-0.923c-0.052-0.418-0.112-0.761-0.169-1.028
							c-0.04-0.123-0.141-0.389-0.296-0.803c-0.157-0.411-0.253-0.724-0.283-0.933c-0.064-0.286-0.082-0.689-0.052-1.204
							c0.027-0.515,0.048-0.826,0.053-0.934c-0.008-0.189-0.037-0.475-0.093-0.85c-0.057-0.374-0.097-0.713-0.122-1.017
							c-0.021-0.305-0.022-0.587,0-0.847c0.061-0.881,0.282-2.437,0.665-4.664c0.38-2.227,0.536-3.856,0.466-4.89
							c0.272-0.468,0.491-1.265,0.648-2.396c0.162-1.129,0.35-1.915,0.561-2.351c0.8-0.479,1.614-0.553,2.439-0.219
							c0.827,0.335,1.438,0.898,1.835,1.69c0.393,0.773,0.614,1.344,0.67,1.719c0.039,0.103,0.023,0.293-0.04,0.581
							c-0.063,0.285-0.097,0.494-0.098,0.621c-0.002,0.15,0.046,0.346,0.134,0.588c0.089,0.241,0.144,0.414,0.159,0.518
							c0.015,0.381-0.104,0.893-0.35,1.538c-0.243,0.642-0.378,1.092-0.4,1.354c-0.023,0.151-0.017,0.434,0.015,0.843
							c0.024,0.412,0.008,0.738-0.062,0.983c-0.061,0.181-0.192,0.439-0.396,0.777c-0.204,0.337-0.343,0.62-0.415,0.844
							c-0.033,0.069-0.063,0.216-0.095,0.444c-0.028,0.23-0.055,0.408-0.077,0.541c-0.285,0.937-0.443,1.599-0.473,1.984
							c-0.015,0.321,0.005,0.877,0.059,1.669c0.053,0.79,0.07,1.397,0.049,1.828c-0.013,0.193-0.033,0.538-0.068,1.032
							c-0.031,0.496-0.048,0.826-0.045,0.996c0.005,0.169,0.017,0.419,0.031,0.747c0.018,0.328,0.069,0.604,0.157,0.822
							c0.084,0.221,0.2,0.448,0.34,0.684C421.909,75.391,422.415,74.811,422.844,73.907z M420.694,58.534
							c-0.032,0.645-0.041,1.103-0.033,1.379c0.009,0.274,0.185,0.629,0.525,1.07c0.434-0.808,0.643-1.787,0.634-2.935
							c-0.012-1.149-0.258-2.261-0.737-3.337c-0.21,0.031-0.377,0.083-0.504,0.168c-0.122,0.083-0.21,0.17-0.262,0.264
							c-0.047,0.093-0.071,0.223-0.07,0.392c0.005,0.169,0.025,0.31,0.062,0.42c0.039,0.113,0.09,0.274,0.155,0.491
							c0.063,0.213,0.101,0.372,0.116,0.477C420.689,57.355,420.725,57.892,420.694,58.534z"/>
						<path fill="#9EF7CD" d="M432.217,64.958c-0.225-0.093-0.394-0.223-0.505-0.385c-0.109-0.166-0.252-0.31-0.431-0.434
							c-0.176-0.122-0.369-0.157-0.573-0.104c-0.122,0.037-0.227,0.124-0.314,0.255c-0.087,0.128-0.153,0.308-0.207,0.541
							c-0.051,0.232-0.09,0.462-0.119,0.688c-0.03,0.23-0.052,0.508-0.067,0.841c-0.013,0.33-0.025,0.607-0.036,0.834
							c-0.007,0.224-0.014,0.509-0.016,0.849c-0.004,0.341-0.005,0.576-0.006,0.703c-0.01,0.086-0.019,0.216-0.023,0.387
							c-0.009,0.171-0.01,0.304-0.006,0.398c0.003,0.095,0.006,0.217,0.006,0.366c0.003,0.15,0.016,0.268,0.04,0.362
							c0.022,0.093,0.059,0.185,0.106,0.288c0.047,0.1,0.115,0.174,0.21,0.225c0.093,0.048,0.193,0.086,0.302,0.113
							c0.23-0.034,0.41-0.055,0.536-0.063c0.127-0.008,0.266-0.124,0.427-0.351c0.157-0.227,0.271-0.397,0.337-0.514
							c0.069-0.116,0.163-0.307,0.285-0.569c0.119-0.262,0.195-0.428,0.229-0.496c0.118-0.208,0.275-0.472,0.471-0.79
							c0.201-0.317,0.36-0.594,0.482-0.837c0.125-0.243,0.219-0.507,0.282-0.794c0.038-0.175,0.06-0.427,0.063-0.757
							c0.003-0.333,0.016-0.571,0.036-0.726c0.065-0.264,0.298-0.937,0.687-2.02c0.328-1.09,0.62-1.708,0.872-1.852
							c0.862-0.511,1.892-0.304,3.094,0.622c0.001,0.278,0.039,0.761,0.122,1.451c0.08,0.692,0.117,1.219,0.108,1.583
							c-0.006,0.106-0.047,0.289-0.127,0.543c-0.078,0.258-0.116,0.45-0.121,0.579c-0.026,0.237-0.002,0.586,0.075,1.042
							c0.08,0.457,0.114,0.803,0.107,1.039c0.002,0.296-0.036,0.842-0.122,1.631c-0.088,0.788-0.111,1.425-0.084,1.912
							c0.029,0.761,0.075,1.286,0.139,1.576c0.016,0.103,0.093,0.257,0.23,0.461c0.134,0.202,0.212,0.356,0.229,0.461
							c0.012,0.083,0.003,0.205-0.023,0.369c-0.028,0.166-0.027,0.288,0.006,0.369c0.163,0.379,0.274,0.776,0.337,1.193
							c0.062,0.417-0.04,0.793-0.311,1.131c-0.63,0.18-1.211,0.213-1.736,0.102c-0.533-0.115-0.965-0.322-1.308-0.622
							c-0.345-0.298-0.659-0.727-0.942-1.281c-0.285-0.553-0.508-1.083-0.669-1.591c-0.162-0.508-0.325-1.111-0.493-1.811
							c-0.35,0.076-0.74,0.42-1.17,1.039c-0.431,0.616-0.712,0.978-0.844,1.083c-1.309,0.938-2.505,1.256-3.597,0.951
							c-0.416-0.108-0.986-0.487-1.697-1.137c-0.716-0.647-1.177-1.244-1.386-1.788c-0.153-0.596-0.266-1.063-0.336-1.403
							c-0.072-0.34-0.07-0.778,0.012-1.311c0.08-0.532,0.161-0.95,0.243-1.249c0.086-0.3,0.198-0.694,0.336-1.184
							c0.141-0.489,0.242-0.867,0.309-1.131c0.305-0.257,0.705-0.854,1.201-1.792c0.498-0.936,0.98-1.565,1.444-1.891
							c0.856-0.532,1.665-0.705,2.429-0.522c0.76,0.185,1.439,0.636,2.036,1.356c0.18,0.206,0.328,0.424,0.446,0.652
							c0.119,0.227,0.172,0.479,0.16,0.757c-0.009,0.279-0.143,0.5-0.394,0.665C432.699,65.056,432.444,65.051,432.217,64.958z"/>
					</g>
					<g>
						<path fill="#9EF7CD" d="M347.331,23.985c0.059,0.206,0.278,0.286,0.659,0.243c0.387-0.044,0.587,0.075,0.601,0.356
							c0.17,0.269,0.188,0.479,0.056,0.626c-0.133,0.148-0.322,0.233-0.57,0.255c-0.25,0.021-0.446,0.101-0.601,0.237
							c-0.099,0.093-0.287,0.278-0.556,0.56c-0.27,0.281-0.504,0.465-0.704,0.553c-0.555,0.281-1.788,0.63-3.7,1.051
							c-1.908,0.422-3.048,0.889-3.413,1.403c-0.043,0.52,0.277,1.444,0.964,2.774c-0.163,0.332-0.234,0.786-0.213,1.369
							c0.021,0.579,0.072,1.088,0.163,1.522c0.091,0.435,0.227,1.016,0.415,1.739c0.184,0.725,0.3,1.176,0.349,1.353
							c0.783,0.195,2.177,0.051,4.187-0.427c2.004-0.479,3.191-0.74,3.561-0.777c0.527,1.437,0.023,2.465-1.519,3.084
							c-0.396,0.173-1.293,0.383-2.7,0.631c-1.404,0.25-2.227,0.516-2.462,0.805c-0.149,0.138-0.346,0.579-0.58,1.327
							c-0.236,0.747-0.354,1.294-0.353,1.643c0.011,0.376,0.116,0.957,0.319,1.741c0.203,0.784,0.322,1.36,0.363,1.729
							c0.048,0.969-0.033,2.053-0.238,3.251c0.284,0.556,0.513,1.497,0.692,2.825c0.179,1.33,0.405,2.368,0.676,3.116
							c-0.198,0.878-0.593,1.734-1.187,2.565c-0.592,0.829-1.346,1.483-2.26,1.96c-0.913,0.476-1.899,0.403-2.962-0.223
							c-0.08-0.517-0.364-1.252-0.854-2.209c-0.487-0.959-0.8-1.799-0.939-2.52c-0.092-0.451-0.199-1.261-0.318-2.431
							c-0.118-1.17-0.24-2.088-0.362-2.753c-0.088-0.545-0.29-1.44-0.604-2.682c-0.313-1.246-0.501-2.144-0.56-2.698
							c-0.02-0.184-0.017-0.457,0.011-0.812c0.028-0.356,0.032-0.626,0.014-0.812c-0.132-0.818-0.35-1.938-0.649-3.361
							c-0.301-1.422-0.494-2.343-0.58-2.763c-0.094-0.449-0.235-1.043-0.426-1.784c-0.189-0.74-0.33-1.333-0.425-1.783
							c-0.089-0.546-0.156-1.303-0.206-2.272c-0.048-0.969-0.114-1.664-0.199-2.085c-0.061-0.331-0.196-0.822-0.411-1.476
							c-0.214-0.653-0.372-1.17-0.479-1.555c-0.106-0.382-0.085-0.791,0.062-1.229c0.146-0.436,0.458-0.769,0.932-0.996
							c1.525-0.677,3.702-0.491,6.528,0.561c3.878-0.639,6.952-1.382,9.219-2.234C346.443,23.471,346.862,23.671,347.331,23.985z"/>
						<path fill="#9EF7CD" d="M360.099,46.791c0.217-0.139,0.419-0.346,0.613-0.621c0.191-0.277,0.333-0.48,0.423-0.618
							c0.087-0.136,0.227-0.412,0.411-0.828c0.186-0.416,0.285-0.657,0.297-0.725c1.69-3.83,2.749-6.294,3.171-7.396
							c0.015-0.068,0.05-0.188,0.113-0.365c0.063-0.175,0.113-0.3,0.158-0.375c0.042-0.075,0.093-0.2,0.156-0.375
							c0.061-0.176,0.114-0.301,0.155-0.377l0.191-0.338c0.086-0.149,0.159-0.266,0.214-0.344c0.057-0.08,0.131-0.18,0.225-0.301
							c0.093-0.123,0.186-0.218,0.276-0.291c0.089-0.073,0.189-0.141,0.299-0.201c0.112-0.066,0.224-0.112,0.342-0.145
							c0.145,0.404,0.199,0.824,0.162,1.262c-0.036,0.438-0.109,0.798-0.221,1.084c-0.111,0.284-0.295,0.683-0.546,1.198
							c-0.256,0.514-0.418,0.86-0.494,1.041c-0.925,2.031-1.467,3.498-1.629,4.399c-0.287,0.333-0.522,0.708-0.709,1.125
							c-0.185,0.415-0.378,0.938-0.584,1.565c-0.208,0.627-0.359,1.05-0.457,1.267c-0.572,0.445-1.317,1.525-2.234,3.239
							c-0.917,1.71-1.838,2.793-2.76,3.239c-0.554,0.28-1.1,0.434-1.633,0.456c-0.903,0.061-1.928-0.493-3.076-1.664
							c-1.15-1.168-1.858-2.461-2.126-3.876c-0.033-0.117-0.027-0.357,0.015-0.717c0.042-0.361,0.05-0.647,0.021-0.862
							c-0.02-0.186-0.082-0.413-0.191-0.683c-0.105-0.273-0.165-0.486-0.178-0.641c-0.046-0.62,0.015-1.548,0.179-2.783
							c0.163-1.234,0.242-2.089,0.235-2.562c0.011-0.192,0.011-0.645,0.003-1.356c-0.007-0.712,0-1.251,0.025-1.623
							c0.022-0.372,0.092-0.795,0.215-1.273c0.12-0.477,0.294-0.826,0.517-1.047c0.793-0.791,1.769-1.046,2.923-0.766
							c1.156,0.281,1.96,0.833,2.411,1.658c0.272,0.526,0.57,1.822,0.893,3.888c0.504,2.49,0.773,4.206,0.814,5.146
							c0.012,0.155-0.017,0.479-0.086,0.975c-0.068,0.494-0.052,0.894,0.049,1.199c0.101,0.305,0.33,0.534,0.691,0.687
							C359.641,47.021,359.885,46.929,360.099,46.791z M354.56,22.709c0.637,0.061,1.325,0.337,2.062,0.828
							c0.664,0.449,1.047,0.858,1.148,1.225c0.101,0.367,0.11,1.024,0.024,1.966c-0.009,0.194,0.004,0.441,0.041,0.749
							c0.039,0.305,0.054,0.562,0.051,0.771c-0.007,0.208-0.053,0.388-0.137,0.538c-0.133,0.323-0.455,0.698-0.97,1.126
							c-0.513,0.427-0.919,0.683-1.212,0.764c-0.736,0.206-1.729,0.054-2.98-0.455c-0.68-0.285-1.383-0.676-2.109-1.172
							c-0.724-0.493-1.145-0.949-1.257-1.359c-0.146-0.402-0.082-0.976,0.188-1.716c0.271-0.74,0.578-1.286,0.923-1.635
							c0.428-0.405,1.063-0.789,1.911-1.151C353.155,22.808,353.927,22.647,354.56,22.709z"/>
						<path fill="#9EF7CD" d="M374.519,43.679c0.459-1.378,0.824-2.25,1.106-2.611c0.022-0.484,0.092-1.003,0.207-1.558
							c0.117-0.554,0.223-0.981,0.332-1.28c0.108-0.3,0.299-0.781,0.574-1.443c0.275-0.662,0.437-1.081,0.484-1.251
							c0.025-0.135,0.063-0.452,0.115-0.958c0.05-0.505,0.078-0.847,0.095-1.025c0.013-0.177,0.063-0.478,0.154-0.898
							c0.088-0.422,0.182-0.734,0.284-0.934c0.104-0.205,0.251-0.443,0.445-0.72c0.191-0.275,0.402-0.508,0.634-0.699
							c0.169,0.143,0.254,0.397,0.261,0.759c0.004,0.363,0.002,0.607-0.011,0.739c-0.012,0.129-0.067,0.383-0.168,0.761
							c-0.1,0.376-0.164,0.631-0.189,0.766c-0.018,0.163-0.085,0.546-0.204,1.151l-0.245,1.256
							c-0.046,0.234-0.122,0.605-0.237,1.112c-0.112,0.508-0.211,0.916-0.3,1.225c-0.089,0.31-0.202,0.681-0.333,1.114
							c-0.132,0.434-0.269,0.828-0.406,1.184c-0.139,0.354-0.29,0.698-0.452,1.028c-0.045,0.521-0.136,1.076-0.269,1.668
							c-0.138,0.592-0.329,1.303-0.575,2.133l-0.488,1.657c-0.021,0.038-0.034,0.106-0.038,0.202
							c-0.401,1.412-0.91,2.312-1.528,2.709c-0.052,0.045-0.106,0.075-0.164,0.093c-1.23,0.596-2.624,0.62-4.188,0.071
							c-1.563-0.546-2.64-1.309-3.226-2.287c-0.171-0.27-0.331-0.701-0.48-1.292c-0.15-0.592-0.292-1.075-0.429-1.45
							c-0.078-0.169-0.268-0.537-0.567-1.102c-0.3-0.567-0.49-0.998-0.574-1.291c-0.145-0.402-0.241-0.979-0.29-1.724
							c-0.049-0.748-0.08-1.199-0.092-1.354c-0.043-0.273-0.138-0.673-0.286-1.203c-0.146-0.531-0.266-1.012-0.356-1.447
							c-0.088-0.435-0.138-0.84-0.147-1.218c-0.071-1.281-0.03-3.555,0.119-6.832c0.152-3.275,0.083-5.648-0.202-7.123
							c0.309-0.719,0.477-1.909,0.507-3.564c0.029-1.655,0.157-2.818,0.385-3.483c1.066-0.835,2.227-1.086,3.476-0.753
							c1.248,0.334,2.229,1.037,2.939,2.106c0.7,1.041,1.125,1.827,1.274,2.356c0.068,0.139,0.086,0.421,0.045,0.842
							c-0.043,0.422-0.053,0.727-0.032,0.912c0.027,0.214,0.128,0.488,0.301,0.819c0.172,0.334,0.277,0.572,0.317,0.72
							c0.089,0.546,0.014,1.304-0.223,2.274c-0.237,0.969-0.351,1.641-0.343,2.019c0.001,0.222,0.057,0.626,0.174,1.212
							c0.115,0.584,0.143,1.062,0.086,1.424c-0.053,0.268-0.194,0.667-0.429,1.19c-0.235,0.525-0.384,0.955-0.451,1.291
							c-0.033,0.104-0.051,0.323-0.053,0.657c-0.003,0.332-0.011,0.596-0.02,0.79c-0.242,1.398-0.351,2.378-0.321,2.94
							c0.034,0.467,0.162,1.263,0.38,2.392c0.218,1.128,0.354,2.002,0.396,2.623c0.017,0.281,0.044,0.78,0.086,1.498
							c0.039,0.716,0.079,1.196,0.116,1.441c0.033,0.243,0.092,0.601,0.177,1.069c0.083,0.468,0.207,0.852,0.369,1.156
							c0.164,0.303,0.367,0.611,0.615,0.922C373.443,45.985,374.064,45.057,374.519,43.679z M368.684,21.94
							c0.07,0.932,0.132,1.594,0.199,1.988c0.062,0.396,0.378,0.877,0.947,1.447c0.478-1.242,0.607-2.688,0.384-4.337
							c-0.22-1.65-0.771-3.207-1.655-4.674c-0.296,0.082-0.525,0.194-0.689,0.335c-0.17,0.14-0.282,0.284-0.337,0.426
							c-0.055,0.141-0.064,0.334-0.027,0.578c0.036,0.245,0.094,0.441,0.166,0.596c0.073,0.155,0.174,0.379,0.307,0.677
							c0.129,0.294,0.213,0.518,0.255,0.665C368.463,20.241,368.613,21.008,368.684,21.94z"/>
						<path fill="#9EF7CD" d="M386.505,29.004c0.231-0.254,0.415-0.502,0.553-0.748c0.138-0.242,0.306-0.575,0.508-0.996
							c0.198-0.42,0.362-0.743,0.491-0.969c0.105-0.188,0.304-0.59,0.589-1.21c0.287-0.619,0.549-1.102,0.784-1.454
							c0.234-0.35,0.469-0.622,0.699-0.812c0.633-0.462,1.375-0.699,2.227-0.714c0.853-0.017,1.545,0.25,2.078,0.799
							c1.145,3.548,1.552,6.715,1.218,9.503c0.436,1.335,0.685,3.263,0.754,5.779c0.067,2.517,0.425,4.493,1.078,5.928
							c0.561-0.158,1.061-0.747,1.504-1.774c0.444-1.028,0.802-1.673,1.075-1.939c0.1-1.009,0.383-2.505,0.843-4.489
							c0.462-1.982,0.749-3.401,0.862-4.257c0.085-0.595,0.263-1.413,0.528-2.452c0.266-1.042,0.442-1.797,0.534-2.265
							c0.027-0.136,0.062-0.492,0.106-1.074c0.045-0.583,0.132-1.028,0.268-1.335c0.14-0.307,0.355-0.551,0.655-0.728
							c0.28-0.015,0.459,0.055,0.534,0.208c0.071,0.155,0.073,0.383,0.001,0.689c-0.073,0.306-0.117,0.493-0.129,0.559
							c-0.009,1.112-0.117,2.339-0.332,3.682c-0.212,1.342-0.398,2.353-0.559,3.03c-0.159,0.678-0.457,1.825-0.897,3.435
							l-0.58,2.016c-0.258,0.898-0.483,1.711-0.675,2.447c-0.19,0.735-0.327,1.413-0.406,2.037
							c-0.443,0.569-0.923,1.551-1.438,2.943c-0.518,1.397-1.08,2.355-1.697,2.875c-0.784,0.599-1.577,0.97-2.377,1.115
							c-0.801,0.143-1.508,0.077-2.123-0.194c-1.004-0.419-1.927-1.468-2.779-3.149c-0.847-1.682-1.342-3.469-1.492-5.36
							c-0.044-0.623-0.018-1.858,0.087-3.71c0.104-1.851,0.008-3.132-0.287-3.841c-0.734,0.425-1.383,1.51-1.946,3.249
							c-0.384,1.121-0.665,2.787-0.845,4.991c-0.122,1.269-0.13,2.38-0.022,3.334c-0.366,0.736-0.736,1.227-1.112,1.474
							c-0.375,0.246-1.143,0.39-2.306,0.427c-0.896-0.034-1.765-0.277-2.604-0.725c-0.836-0.447-1.415-1.023-1.737-1.726
							c-0.15-0.308-0.265-0.719-0.344-1.236c-0.081-0.517-0.161-1.161-0.231-1.934c-0.071-0.773-0.122-1.327-0.155-1.668
							l-1.307-11.519c-0.055-0.429-0.085-1.023-0.091-1.783c-0.004-0.759-0.015-1.279-0.027-1.56
							c-0.026-0.437-0.13-1.033-0.31-1.792s-0.285-1.308-0.316-1.647c-0.026-0.214-0.032-0.521-0.018-0.922
							c0.013-0.4,0.017-0.678,0.004-0.833c-0.076-0.391-0.231-1.093-0.467-2.104c-0.232-1.014-0.4-1.808-0.494-2.383
							c-0.313-2.258-0.357-3.56-0.138-3.907c0.492-0.612,1.165-0.958,2.016-1.036c0.85-0.079,1.604,0.029,2.255,0.323
							c0.757,0.329,1.9,1.594,3.433,3.798c0.117,0.189,0.295,0.426,0.532,0.708c0.237,0.281,0.387,0.479,0.447,0.587
							c0.146,0.404,0.228,1.023,0.257,1.854c0.026,0.833,0.063,1.401,0.116,1.702c0.073,0.487,0.266,1.154,0.581,2.002
							c0.317,0.846,0.52,1.433,0.61,1.756c0.109,0.508,0.22,1.673,0.33,3.497c0.111,1.823,0.435,3.183,0.971,4.08
							C386.034,29.453,386.275,29.26,386.505,29.004z"/>
						<path fill="#9EF7CD" d="M410.558,22.407c-0.344-0.094-0.609-0.252-0.795-0.469c-0.188-0.215-0.42-0.397-0.697-0.543
							c-0.28-0.145-0.56-0.161-0.848-0.05c-0.168,0.081-0.304,0.221-0.404,0.423c-0.103,0.203-0.171,0.475-0.201,0.816
							c-0.032,0.341-0.05,0.677-0.052,1.013c-0.002,0.333,0.016,0.74,0.055,1.219c0.037,0.482,0.071,0.885,0.101,1.21
							c0.025,0.327,0.069,0.732,0.125,1.225c0.06,0.49,0.099,0.829,0.116,1.014c0.004,0.124,0.018,0.31,0.037,0.561
							c0.021,0.248,0.044,0.438,0.064,0.576c0.024,0.137,0.048,0.312,0.075,0.526c0.026,0.214,0.067,0.384,0.119,0.512
							c0.051,0.132,0.118,0.261,0.206,0.396c0.087,0.135,0.198,0.231,0.341,0.286c0.141,0.055,0.295,0.093,0.458,0.109
							c0.324-0.091,0.576-0.152,0.757-0.188c0.182-0.034,0.364-0.229,0.55-0.579c0.189-0.354,0.32-0.621,0.396-0.801
							c0.077-0.181,0.179-0.47,0.305-0.868c0.127-0.4,0.206-0.652,0.24-0.757c0.135-0.323,0.314-0.729,0.539-1.22
							c0.229-0.491,0.411-0.923,0.544-1.292c0.135-0.371,0.224-0.768,0.265-1.191c0.022-0.26,0.007-0.628-0.045-1.103
							c-0.056-0.477-0.082-0.827-0.081-1.05c0.05-0.394,0.261-1.403,0.633-3.027c0.271-1.63,0.582-2.572,0.925-2.826
							c1.146-0.889,2.668-0.773,4.563,0.347c0.047,0.398,0.19,1.087,0.431,2.065c0.243,0.98,0.39,1.731,0.44,2.257
							c0.012,0.155-0.018,0.424-0.084,0.807c-0.069,0.384-0.091,0.667-0.073,0.852c0.001,0.349,0.1,0.845,0.296,1.487
							c0.197,0.643,0.309,1.136,0.342,1.475c0.054,0.428,0.092,1.216,0.112,2.369c0.021,1.149,0.093,2.072,0.223,2.766
							c0.178,1.092,0.336,1.84,0.482,2.243c0.041,0.146,0.177,0.354,0.409,0.623c0.233,0.267,0.371,0.474,0.412,0.623
							c0.033,0.116,0.043,0.295,0.03,0.537c-0.014,0.24,0.013,0.416,0.074,0.524c0.304,0.518,0.536,1.073,0.699,1.661
							c0.165,0.588,0.084,1.148-0.244,1.684c-0.878,0.37-1.709,0.522-2.486,0.456c-0.781-0.069-1.444-0.289-1.99-0.659
							c-0.548-0.37-1.076-0.929-1.584-1.675c-0.508-0.746-0.926-1.471-1.246-2.172c-0.323-0.702-0.669-1.542-1.031-2.519
							c-0.495,0.17-0.994,0.735-1.503,1.702c-0.506,0.963-0.85,1.536-1.019,1.709c-1.715,1.587-3.383,2.258-5.004,2.012
							c-0.625-0.08-1.509-0.523-2.652-1.331c-1.146-0.805-1.913-1.583-2.312-2.328c-0.325-0.829-0.57-1.48-0.735-1.959
							c-0.163-0.476-0.236-1.105-0.214-1.888c0.017-0.783,0.062-1.396,0.126-1.842c0.066-0.446,0.157-1.033,0.271-1.764
							c0.114-0.729,0.196-1.291,0.245-1.685c0.388-0.425,0.858-1.356,1.409-2.791c0.55-1.438,1.129-2.43,1.737-2.98
							c1.139-0.92,2.273-1.314,3.404-1.185c1.129,0.128,2.186,0.659,3.173,1.589c0.298,0.265,0.553,0.551,0.763,0.856
							c0.211,0.305,0.336,0.661,0.364,1.063c0.034,0.402-0.116,0.747-0.447,1.028C411.271,22.461,410.9,22.5,410.558,22.407z"/>
						<path fill="#9EF7CD" d="M433.594,26.332c0.102,0.306,0.104,0.916,0.011,1.828c-0.568,3.77-2.067,5.613-4.498,5.531
							c-0.355-0.027-0.811-0.171-1.356-0.432c-0.546-0.258-0.951-0.511-1.209-0.756c-0.679-0.73-1.159-1.802-1.44-3.212
							c-0.284-1.411-0.244-2.5,0.113-3.266c0.864-1.793,3.356-2.169,7.483-1.132C433.194,25.549,433.49,26.03,433.594,26.332z
							 M430.469,18.693c-0.212,0.773-0.489,1.351-0.825,1.728c-0.337,0.381-0.859,0.557-1.563,0.53
							c-1.099-0.074-1.914-0.956-2.449-2.647c-0.32-0.923-0.852-3.738-1.593-8.445c-0.749-5.084-0.62-8.608,0.391-10.567
							c0.706-0.419,1.837-0.48,3.392-0.185c1.557,0.296,2.495,0.732,2.814,1.309c0.257,0.468,0.362,1.276,0.318,2.431
							c-0.043,1.153-0.062,1.791-0.062,1.918c0.033,0.34,0.115,0.889,0.245,1.644c0.131,0.755,0.206,1.336,0.225,1.743
							c0.011,0.726-0.055,2.164-0.201,4.311c-0.146,2.148-0.199,3.709-0.149,4.677C430.863,17.404,430.685,17.921,430.469,18.693z"
							/>
					</g>
					<g>
						<path fill="#9EF7CD" d="M391.525,106.182c-0.253-0.114-0.436-0.268-0.552-0.455c-0.117-0.192-0.274-0.356-0.474-0.505
							c-0.191-0.146-0.405-0.19-0.641-0.142c-0.138,0.039-0.257,0.131-0.362,0.274c-0.101,0.141-0.186,0.341-0.256,0.6
							c-0.064,0.258-0.121,0.518-0.163,0.77c-0.042,0.256-0.08,0.574-0.107,0.946c-0.029,0.375-0.057,0.688-0.074,0.941
							c-0.021,0.25-0.04,0.571-0.054,0.957c-0.016,0.381-0.028,0.647-0.034,0.792c-0.016,0.096-0.029,0.24-0.043,0.435
							c-0.014,0.191-0.02,0.34-0.021,0.45c0.001,0.104,0,0.243-0.01,0.41c-0.003,0.167,0.007,0.303,0.029,0.41
							c0.024,0.105,0.062,0.213,0.108,0.329c0.048,0.114,0.124,0.2,0.227,0.259c0.104,0.061,0.216,0.105,0.34,0.141
							c0.258-0.028,0.461-0.045,0.601-0.047c0.145-0.004,0.311-0.132,0.497-0.379c0.188-0.251,0.322-0.438,0.401-0.566
							c0.08-0.128,0.196-0.338,0.342-0.631c0.147-0.291,0.238-0.473,0.276-0.551c0.145-0.231,0.332-0.52,0.566-0.869
							c0.236-0.351,0.426-0.658,0.578-0.928c0.149-0.267,0.264-0.561,0.349-0.88c0.051-0.197,0.083-0.479,0.1-0.852
							c0.019-0.374,0.042-0.643,0.069-0.816c0.086-0.296,0.375-1.045,0.857-2.248c0.412-1.216,0.765-1.898,1.061-2.052
							c0.986-0.538,2.142-0.266,3.46,0.829c-0.015,0.31,0.013,0.854,0.075,1.637c0.066,0.783,0.085,1.38,0.061,1.785
							c-0.011,0.122-0.065,0.325-0.164,0.609c-0.099,0.289-0.153,0.503-0.161,0.646c-0.043,0.269-0.027,0.661,0.044,1.178
							c0.069,0.517,0.093,0.908,0.076,1.173c-0.011,0.336-0.076,0.948-0.205,1.834c-0.127,0.886-0.185,1.602-0.171,2.148
							c0.001,0.863,0.031,1.454,0.095,1.784c0.014,0.116,0.09,0.291,0.238,0.527c0.147,0.236,0.227,0.41,0.238,0.532
							c0.012,0.092-0.002,0.231-0.041,0.412c-0.039,0.187-0.042,0.323-0.01,0.414c0.171,0.436,0.281,0.889,0.332,1.359
							c0.055,0.476-0.075,0.896-0.392,1.264c-0.721,0.177-1.378,0.194-1.967,0.042c-0.59-0.149-1.073-0.398-1.445-0.748
							c-0.374-0.352-0.713-0.848-1.01-1.482c-0.299-0.636-0.53-1.242-0.689-1.822c-0.162-0.577-0.321-1.267-0.484-2.061
							c-0.396,0.071-0.85,0.444-1.361,1.124c-0.508,0.677-0.84,1.074-0.994,1.185c-1.509,1.008-2.873,1.316-4.085,0.927
							c-0.474-0.138-1.096-0.587-1.874-1.348c-0.779-0.758-1.274-1.449-1.488-2.071c-0.146-0.675-0.256-1.209-0.321-1.594
							c-0.069-0.387-0.047-0.88,0.066-1.478c0.111-0.598,0.22-1.062,0.325-1.397c0.107-0.334,0.247-0.774,0.426-1.32
							c0.177-0.546,0.307-0.966,0.396-1.262c0.35-0.276,0.825-0.936,1.422-1.972c0.604-1.032,1.169-1.727,1.705-2.073
							c0.987-0.562,1.906-0.728,2.759-0.487c0.849,0.237,1.599,0.773,2.241,1.609c0.193,0.239,0.354,0.493,0.479,0.752
							c0.125,0.26,0.173,0.546,0.149,0.861c-0.024,0.313-0.182,0.559-0.473,0.731C392.062,106.311,391.777,106.295,391.525,106.182z
							"/>
						<path fill="#9EF7CD" d="M415.72,100.424c0.66-0.394,1.155-0.624,1.481-0.686c1.144-0.224,2.023-0.167,2.637,0.17
							c0.433,0.237,0.78,0.581,1.047,1.028c0.264,0.449,0.525,1.009,0.781,1.686c0.257,0.676,0.487,1.195,0.693,1.552
							c0.719,0.015,1.622-0.339,2.713-1.056c1.091-0.722,1.941-1.095,2.56-1.116c0.101,0.253,0.035,0.512-0.199,0.778
							c-0.231,0.263-0.521,0.45-0.868,0.562c-0.389,0.545-1.172,1.092-2.342,1.642c-1.167,0.552-1.935,1.097-2.305,1.641
							c-0.181,0.283-0.332,0.747-0.449,1.394c-0.118,0.646-0.262,1.087-0.426,1.318c-0.411,0.598-0.989,1.176-1.739,1.739
							c-0.479,0.411-1.39,0.799-2.734,1.168c-0.492,0.102-0.99,0.335-1.499,0.705c-0.509,0.367-0.812,0.737-0.914,1.106
							c-0.028,0.148-0.025,0.381,0.01,0.698c0.034,0.319,0.046,0.525,0.034,0.622c-0.072,1.063-0.261,2.266-0.56,3.61
							c-0.304,1.35-0.673,2.323-1.109,2.921c-0.122,0.156-0.385,0.42-0.786,0.788c-0.4,0.365-0.679,0.597-0.837,0.685
							c-0.808,0.474-1.598,0.527-2.381,0.161c-0.069-0.185-0.21-0.471-0.423-0.867c-0.209-0.394-0.341-0.707-0.392-0.939
							c-0.066-0.377-0.05-1.034,0.046-1.977c0.101-0.941,0.14-1.567,0.128-1.877c-0.018-0.164-0.059-0.471-0.119-0.918
							c-0.062-0.449-0.096-0.776-0.094-0.992c-0.015-0.333,0.021-0.854,0.111-1.554c0.087-0.701,0.145-1.15,0.168-1.345
							c0.016-0.097-0.004-0.269-0.058-0.514c-0.048-0.243-0.07-0.428-0.062-0.549c0-0.217,0.062-0.536,0.18-0.969
							c0.118-0.434,0.175-0.756,0.175-0.97c0.009-0.145,0.004-0.365-0.021-0.662c-0.021-0.296-0.017-0.518,0.019-0.665
							c0.006-0.144,0.057-0.369,0.154-0.68c0.096-0.308,0.15-0.522,0.161-0.645c0.025-0.193,0.019-0.475-0.024-0.838
							c-0.039-0.368-0.061-0.646-0.06-0.837c0.03-0.169,0.089-0.395,0.176-0.682c0.085-0.285,0.145-0.51,0.171-0.682
							c0.036-0.553,0.036-1.289,0.005-2.204c-0.032-0.918-0.036-1.691-0.014-2.326c0.023-0.636,0.113-1.131,0.266-1.482
							c0.271-0.559,0.786-0.912,1.544-1.069c0.762-0.158,1.419-0.055,1.984,0.312c0.102,0.23,0.363,0.706,0.793,1.436
							c0.428,0.728,0.688,1.385,0.777,1.974C414.528,101.023,415.062,100.823,415.72,100.424z M414.902,111.446
							c0.102,0.048,0.197,0.074,0.294,0.076c0.096,0.003,0.174-0.002,0.234-0.009c0.057-0.008,0.133-0.037,0.222-0.098l0.198-0.13
							c0.045-0.025,0.124-0.093,0.227-0.201c0.109-0.11,0.185-0.189,0.225-0.243c1.037-0.976,1.429-1.736,1.179-2.281
							c-0.65,0.168-1.164,0.333-1.54,0.496c-0.373,0.16-0.71,0.428-1.004,0.796c-0.291,0.366-0.421,0.835-0.377,1.401
							C414.685,111.333,414.801,111.399,414.902,111.446z M417.561,102.925c-1.311-0.164-2.192,0.353-2.656,1.554
							c-0.463,1.197-0.456,2.416,0.019,3.653c0.532-0.184,0.916-0.314,1.154-0.402c0.241-0.084,0.584-0.233,1.026-0.437
							c0.443-0.206,0.78-0.43,1.015-0.671c0.239-0.24,0.397-0.523,0.479-0.84C418.848,104.796,418.502,103.847,417.561,102.925z"/>
						<path fill="#9EF7CD" d="M432.808,101.53c-0.25-0.114-0.435-0.27-0.552-0.455c-0.116-0.192-0.271-0.36-0.47-0.507
							c-0.194-0.146-0.409-0.192-0.643-0.144c-0.137,0.04-0.257,0.135-0.36,0.277c-0.104,0.14-0.19,0.34-0.256,0.6
							c-0.068,0.259-0.123,0.517-0.164,0.77c-0.042,0.258-0.08,0.573-0.107,0.948c-0.03,0.373-0.058,0.685-0.076,0.939
							c-0.019,0.251-0.037,0.571-0.056,0.957c-0.015,0.382-0.026,0.648-0.031,0.791c-0.015,0.098-0.027,0.239-0.041,0.436
							c-0.017,0.193-0.024,0.342-0.024,0.45c0.003,0.105,0,0.244-0.006,0.412c-0.003,0.166,0.006,0.302,0.03,0.408
							c0.021,0.106,0.06,0.214,0.106,0.327c0.05,0.114,0.126,0.203,0.227,0.26c0.103,0.063,0.216,0.108,0.338,0.14
							c0.261-0.026,0.461-0.046,0.604-0.049c0.145-0.002,0.309-0.13,0.498-0.379c0.188-0.246,0.321-0.433,0.399-0.562
							c0.082-0.13,0.198-0.339,0.341-0.633c0.147-0.289,0.24-0.473,0.278-0.548c0.145-0.23,0.331-0.521,0.565-0.872
							c0.235-0.349,0.427-0.656,0.577-0.927c0.148-0.265,0.265-0.559,0.351-0.879c0.048-0.198,0.079-0.481,0.1-0.852
							c0.018-0.374,0.04-0.645,0.067-0.814c0.087-0.299,0.375-1.046,0.859-2.247c0.413-1.216,0.764-1.901,1.06-2.056
							c0.987-0.539,2.141-0.263,3.46,0.829c-0.011,0.312,0.014,0.859,0.077,1.641c0.065,0.781,0.084,1.378,0.058,1.784
							c-0.008,0.121-0.063,0.327-0.163,0.609c-0.098,0.289-0.154,0.503-0.162,0.647c-0.041,0.265-0.023,0.657,0.045,1.176
							c0.071,0.516,0.096,0.908,0.077,1.175c-0.01,0.335-0.077,0.947-0.205,1.833c-0.129,0.886-0.186,1.601-0.171,2.148
							c0.002,0.86,0.033,1.454,0.096,1.784c0.012,0.116,0.091,0.291,0.239,0.528c0.145,0.233,0.225,0.408,0.236,0.528
							c0.011,0.095-0.003,0.232-0.042,0.416c-0.038,0.186-0.039,0.322-0.008,0.413c0.17,0.435,0.282,0.889,0.334,1.359
							c0.054,0.473-0.078,0.893-0.396,1.262c-0.721,0.177-1.377,0.19-1.966,0.042c-0.592-0.146-1.073-0.397-1.446-0.747
							c-0.374-0.354-0.71-0.848-1.009-1.483c-0.297-0.635-0.529-1.241-0.688-1.821c-0.16-0.58-0.322-1.268-0.483-2.061
							c-0.399,0.07-0.853,0.444-1.362,1.122c-0.508,0.677-0.841,1.076-0.994,1.188c-1.512,1.006-2.872,1.315-4.088,0.925
							c-0.47-0.136-1.093-0.584-1.871-1.348c-0.78-0.76-1.274-1.449-1.49-2.07c-0.146-0.676-0.255-1.209-0.319-1.595
							c-0.068-0.384-0.046-0.879,0.065-1.477c0.11-0.597,0.223-1.064,0.326-1.399c0.105-0.332,0.247-0.772,0.426-1.319
							c0.178-0.548,0.306-0.969,0.394-1.262c0.351-0.28,0.828-0.936,1.426-1.97c0.601-1.033,1.168-1.727,1.703-2.074
							c0.987-0.565,1.908-0.726,2.757-0.488c0.851,0.238,1.599,0.774,2.242,1.612c0.191,0.238,0.357,0.49,0.48,0.752
							c0.123,0.257,0.172,0.546,0.149,0.858c-0.023,0.313-0.182,0.558-0.47,0.733C433.348,101.656,433.061,101.642,432.808,101.53z"
							/>
						<path fill="#9EF7CD" d="M451.461,92.026c0.767-0.098,1.442-0.125,2.034-0.083c0.59,0.037,0.965,0.276,1.134,0.71
							c-0.395,0.306-1.195,0.608-2.403,0.9c-1.21,0.289-2.014,0.601-2.405,0.933c-0.212,0.477-0.297,1.292-0.263,2.45
							c0.036,1.154,0.03,1.947-0.016,2.382c-0.025,0.219-0.09,0.538-0.198,0.956c-0.109,0.415-0.173,0.748-0.196,0.989
							c-0.032,0.742-0.024,1.46,0.029,2.147c-0.334,0.654-0.555,1.385-0.667,2.188c-0.116,0.801-0.015,1.517,0.294,2.154
							c0.73-0.514,1.253-0.89,1.561-1.127c0.305-0.238,0.694-0.609,1.164-1.118c0.469-0.505,0.815-1.011,1.048-1.514
							c0.474-0.244,1.027-0.797,1.658-1.656c0.634-0.859,1.271-1.396,1.916-1.613c0.03,0.285,0.068,0.482,0.12,0.597
							c0.048,0.114,0.002,0.305-0.134,0.57c-0.141,0.266-0.237,0.441-0.299,0.534c-0.062,0.093-0.185,0.255-0.372,0.49l-0.347,0.434
							c-0.104,0.153-0.373,0.482-0.806,0.985c-0.434,0.504-0.716,0.914-0.845,1.242c-0.565,0.493-1.124,1.047-1.677,1.655
							c-0.552,0.614-1.145,1.315-1.788,2.103c-0.641,0.789-1.148,1.396-1.532,1.821c-0.229,0.074-0.542,0.236-0.948,0.481
							c-0.401,0.251-0.724,0.4-0.954,0.45c-0.937,0.154-1.791-0.133-2.567-0.858c-0.775-0.726-1.239-1.567-1.396-2.529
							c-0.04-0.139-0.027-0.313,0.03-0.522c0.061-0.211,0.084-0.364,0.074-0.459c0.014-0.096-0.018-0.23-0.08-0.399
							c-0.068-0.171-0.108-0.307-0.117-0.401c-0.022-0.21-0.009-0.541,0.049-0.991c0.058-0.447,0.09-0.753,0.095-0.921
							c0.008-1.412,0.029-2.251,0.072-2.519c0.031-0.168,0.088-0.402,0.17-0.7c0.089-0.296,0.136-0.515,0.142-0.661
							c0.032-0.147,0.03-0.385-0.007-0.716c-0.037-0.328-0.043-0.568-0.01-0.713c0.005-0.168,0.108-0.781,0.311-1.848
							c0.202-1.06,0.251-1.857,0.141-2.396c-0.17-0.029-0.476-0.041-0.914-0.041c-0.445,0.002-0.784-0.012-1.028-0.046
							c-0.241-0.033-0.492-0.117-0.746-0.257c-0.255-0.138-0.433-0.344-0.538-0.619c0.145-0.42,0.717-0.721,1.71-0.891
							c0.996-0.172,1.612-0.366,1.855-0.583c0.117-0.826,0.278-1.836,0.479-3.03c0.693-0.629,1.425-0.959,2.199-1
							c0.771-0.041,1.489,0.227,2.147,0.795c0.666,0.573,1.048,1.306,1.146,2.201C450.138,92.11,450.696,92.125,451.461,92.026z
							 M457.298,99.787c-0.061,0.093-0.188,0.136-0.379,0.134c-0.045-0.188-0.036-0.324,0.024-0.415
							c0.063-0.089,0.19-0.134,0.38-0.132C457.368,99.561,457.359,99.699,457.298,99.787z"/>
						<path fill="#9EF7CD" d="M462.914,98.133c-0.254-0.112-0.434-0.265-0.557-0.454c-0.112-0.189-0.27-0.357-0.465-0.504
							c-0.193-0.147-0.41-0.194-0.643-0.145c-0.139,0.041-0.261,0.134-0.363,0.277c-0.104,0.141-0.187,0.344-0.256,0.603
							c-0.065,0.258-0.121,0.515-0.162,0.77c-0.044,0.256-0.08,0.57-0.109,0.943c-0.03,0.374-0.055,0.688-0.072,0.943
							c-0.02,0.248-0.039,0.57-0.057,0.953c-0.016,0.383-0.027,0.647-0.033,0.794c-0.017,0.098-0.028,0.24-0.044,0.433
							c-0.014,0.191-0.019,0.344-0.02,0.452c0,0.106-0.001,0.244-0.008,0.412c-0.004,0.168,0.007,0.303,0.026,0.408
							c0.025,0.106,0.064,0.215,0.11,0.327c0.049,0.114,0.125,0.202,0.229,0.262c0.103,0.061,0.214,0.107,0.337,0.141
							c0.256-0.031,0.463-0.045,0.604-0.05c0.146-0.002,0.308-0.129,0.495-0.38c0.187-0.249,0.319-0.433,0.399-0.565
							c0.081-0.124,0.197-0.336,0.343-0.629c0.146-0.289,0.239-0.475,0.279-0.55c0.14-0.231,0.33-0.521,0.563-0.869
							c0.235-0.351,0.43-0.658,0.577-0.927c0.151-0.267,0.265-0.561,0.35-0.883c0.052-0.194,0.083-0.479,0.101-0.85
							c0.019-0.375,0.043-0.646,0.07-0.818c0.084-0.292,0.373-1.043,0.857-2.245c0.411-1.219,0.764-1.901,1.059-2.053
							c0.99-0.54,2.146-0.265,3.46,0.829c-0.014,0.308,0.014,0.856,0.076,1.638c0.066,0.782,0.084,1.375,0.062,1.785
							c-0.014,0.123-0.066,0.325-0.166,0.609c-0.101,0.287-0.152,0.501-0.161,0.648c-0.039,0.265-0.027,0.656,0.044,1.176
							c0.07,0.516,0.097,0.909,0.077,1.172c-0.012,0.336-0.077,0.949-0.205,1.832c-0.127,0.887-0.184,1.604-0.171,2.152
							c0.003,0.859,0.034,1.452,0.094,1.779c0.013,0.119,0.095,0.296,0.241,0.529c0.144,0.235,0.227,0.411,0.239,0.529
							c0.013,0.095-0.006,0.233-0.043,0.415c-0.04,0.188-0.043,0.322-0.009,0.418c0.169,0.433,0.279,0.885,0.331,1.356
							c0.052,0.473-0.075,0.894-0.394,1.265c-0.722,0.177-1.374,0.19-1.965,0.042c-0.593-0.15-1.073-0.399-1.447-0.748
							c-0.376-0.352-0.712-0.851-1.009-1.484c-0.298-0.636-0.526-1.242-0.687-1.821c-0.163-0.578-0.325-1.264-0.487-2.059
							c-0.396,0.068-0.851,0.442-1.358,1.121c-0.512,0.68-0.84,1.074-0.995,1.188c-1.51,1.005-2.874,1.313-4.089,0.927
							c-0.468-0.14-1.093-0.587-1.87-1.352c-0.779-0.758-1.275-1.448-1.491-2.069c-0.145-0.677-0.253-1.208-0.32-1.592
							c-0.067-0.39-0.045-0.881,0.066-1.479c0.113-0.599,0.222-1.062,0.324-1.398c0.11-0.335,0.251-0.774,0.429-1.321
							c0.176-0.546,0.305-0.967,0.396-1.263c0.349-0.279,0.825-0.934,1.423-1.97c0.599-1.034,1.169-1.727,1.702-2.072
							c0.989-0.565,1.906-0.729,2.759-0.49c0.853,0.237,1.601,0.773,2.242,1.61c0.193,0.24,0.353,0.493,0.479,0.753
							c0.126,0.259,0.175,0.549,0.149,0.858c-0.023,0.316-0.18,0.56-0.47,0.734C463.453,98.264,463.166,98.251,462.914,98.133z"/>
						<path fill="#9EF7CD" d="M480.107,103.99c0.04,0.246-0.032,0.714-0.218,1.401c-0.901,2.826-2.279,4.055-4.136,3.691
							c-0.27-0.065-0.598-0.231-0.987-0.496c-0.387-0.268-0.665-0.512-0.832-0.732c-0.434-0.644-0.669-1.521-0.712-2.642
							c-0.042-1.12,0.119-1.944,0.491-2.493c0.882-1.268,2.843-1.25,5.878,0.056C479.896,103.339,480.069,103.745,480.107,103.99z
							 M478.649,97.743c-0.257,0.563-0.54,0.974-0.847,1.222c-0.305,0.25-0.727,0.322-1.266,0.213
							c-0.835-0.191-1.352-0.97-1.553-2.333c-0.134-0.75-0.195-2.974-0.181-6.677c0.052-3.995,0.584-6.688,1.601-8.064
							c0.594-0.234,1.472-0.142,2.629,0.278c1.158,0.417,1.822,0.868,1.996,1.35c0.141,0.388,0.124,1.024-0.053,1.907
							c-0.176,0.877-0.27,1.367-0.283,1.461c-0.018,0.267-0.023,0.698-0.015,1.293c0.007,0.598-0.011,1.051-0.043,1.368
							c-0.081,0.558-0.31,1.65-0.687,3.285c-0.378,1.629-0.609,2.823-0.69,3.57C479.11,96.802,478.906,97.175,478.649,97.743z"/>
					</g>
					<g>
						<path fill="#9EF7CD" d="M452.751,55.813c0.59-0.466,1.041-0.754,1.356-0.854c1.084-0.362,1.948-0.42,2.585-0.167
							c0.452,0.174,0.833,0.468,1.15,0.871c0.315,0.402,0.636,0.917,0.974,1.542c0.331,0.625,0.625,1.101,0.867,1.424
							c0.702-0.078,1.54-0.533,2.507-1.372c0.97-0.838,1.755-1.311,2.354-1.409c0.131,0.233,0.1,0.492-0.099,0.781
							c-0.189,0.287-0.447,0.508-0.771,0.656c-0.311,0.582-1.004,1.213-2.072,1.895c-1.069,0.683-1.749,1.314-2.037,1.891
							c-0.141,0.298-0.229,0.769-0.264,1.414c-0.032,0.643-0.115,1.089-0.246,1.339c-0.325,0.631-0.818,1.266-1.475,1.907
							c-0.413,0.464-1.252,0.958-2.512,1.483c-0.464,0.166-0.921,0.456-1.371,0.878c-0.448,0.424-0.7,0.82-0.753,1.194
							c-0.011,0.145,0.024,0.374,0.098,0.676c0.075,0.307,0.11,0.507,0.11,0.604c0.065,1.042,0.036,2.237-0.088,3.587
							c-0.122,1.349-0.359,2.342-0.705,2.979c-0.106,0.169-0.326,0.458-0.668,0.871c-0.344,0.406-0.588,0.663-0.729,0.772
							c-0.726,0.562-1.49,0.716-2.299,0.456c-0.091-0.17-0.26-0.435-0.521-0.786c-0.256-0.362-0.422-0.649-0.498-0.869
							c-0.114-0.358-0.179-1-0.207-1.931c-0.024-0.93-0.062-1.544-0.111-1.846c-0.037-0.158-0.115-0.453-0.232-0.876
							c-0.119-0.427-0.188-0.748-0.217-0.956c-0.059-0.322-0.088-0.83-0.089-1.524c-0.004-0.696-0.006-1.141-0.003-1.332
							c-0.001-0.099-0.043-0.262-0.122-0.495c-0.079-0.231-0.125-0.408-0.128-0.526c-0.027-0.211-0.01-0.531,0.047-0.968
							c0.064-0.433,0.081-0.754,0.05-0.963c-0.008-0.142-0.043-0.357-0.101-0.64c-0.059-0.288-0.084-0.505-0.07-0.652
							c-0.01-0.14,0.012-0.368,0.065-0.681c0.06-0.312,0.081-0.531,0.075-0.648c0.002-0.194-0.043-0.462-0.129-0.814
							c-0.085-0.351-0.14-0.621-0.161-0.806c0.008-0.171,0.034-0.4,0.086-0.687c0.047-0.286,0.073-0.518,0.077-0.687
							c-0.033-0.542-0.126-1.256-0.274-2.147c-0.146-0.887-0.25-1.643-0.305-2.265c-0.057-0.621-0.035-1.111,0.069-1.474
							c0.197-0.575,0.65-0.988,1.372-1.237c0.715-0.25,1.374-0.231,1.972,0.054c0.127,0.21,0.442,0.645,0.953,1.297
							c0.505,0.654,0.842,1.264,1.004,1.822C451.663,56.546,452.158,56.283,452.751,55.813z M453.345,66.645
							c0.107,0.035,0.205,0.046,0.298,0.037c0.092-0.009,0.166-0.024,0.222-0.037c0.061-0.016,0.124-0.057,0.208-0.124l0.177-0.152
							c0.04-0.031,0.107-0.11,0.196-0.227c0.091-0.119,0.152-0.21,0.189-0.264c0.883-1.08,1.171-1.87,0.853-2.367
							c-0.61,0.244-1.088,0.47-1.433,0.677c-0.347,0.205-0.637,0.506-0.876,0.9s-0.303,0.866-0.192,1.416
							C453.121,66.564,453.241,66.611,453.345,66.645z M454.858,58.013c-1.296,0.006-2.092,0.624-2.39,1.849
							c-0.301,1.227-0.138,2.409,0.478,3.552c0.493-0.24,0.852-0.42,1.073-0.535c0.226-0.112,0.537-0.301,0.942-0.555
							c0.408-0.255,0.706-0.515,0.908-0.78c0.2-0.265,0.318-0.561,0.36-0.883C456.345,59.675,455.89,58.794,454.858,58.013z"/>
						<path fill="#9EF7CD" d="M469.525,54.727c-0.259-0.079-0.459-0.203-0.598-0.374c-0.138-0.17-0.31-0.314-0.519-0.432
							c-0.212-0.118-0.421-0.136-0.645-0.057c-0.131,0.056-0.238,0.161-0.317,0.312c-0.083,0.151-0.14,0.359-0.174,0.619
							c-0.029,0.258-0.055,0.519-0.062,0.771c-0.008,0.253-0.007,0.565,0.016,0.933c0.018,0.367,0.032,0.677,0.047,0.928
							c0.013,0.248,0.037,0.56,0.068,0.934c0.031,0.374,0.055,0.635,0.065,0.776c-0.003,0.097,0,0.237,0.015,0.428
							c0.012,0.187,0.022,0.337,0.036,0.441s0.027,0.242,0.045,0.403c0.017,0.163,0.044,0.293,0.078,0.396
							c0.038,0.097,0.087,0.198,0.149,0.304c0.062,0.105,0.147,0.181,0.256,0.226c0.104,0.046,0.222,0.078,0.344,0.093
							c0.251-0.06,0.443-0.101,0.58-0.122c0.142-0.022,0.286-0.165,0.436-0.431c0.15-0.266,0.26-0.467,0.321-0.603
							c0.064-0.131,0.146-0.353,0.252-0.655c0.107-0.302,0.175-0.493,0.202-0.571c0.107-0.241,0.257-0.549,0.442-0.918
							c0.185-0.371,0.333-0.695,0.444-0.976c0.11-0.28,0.184-0.578,0.225-0.899c0.025-0.2,0.022-0.48-0.007-0.844
							c-0.026-0.366-0.042-0.631-0.039-0.805c0.051-0.296,0.234-1.062,0.557-2.294c0.245-1.237,0.501-1.948,0.769-2.131
							c0.896-0.652,2.057-0.531,3.476,0.369c0.025,0.302,0.12,0.83,0.28,1.587c0.164,0.753,0.259,1.328,0.283,1.731
							c0.005,0.117-0.022,0.322-0.084,0.612c-0.057,0.291-0.083,0.509-0.073,0.65c-0.006,0.263,0.058,0.643,0.191,1.14
							c0.135,0.496,0.206,0.873,0.226,1.131c0.029,0.328,0.043,0.934,0.029,1.811c-0.011,0.879,0.025,1.583,0.11,2.115
							c0.109,0.836,0.21,1.41,0.312,1.722c0.029,0.115,0.127,0.275,0.301,0.483c0.173,0.215,0.273,0.374,0.301,0.487
							c0.023,0.091,0.023,0.229,0.01,0.41c-0.012,0.186,0.002,0.322,0.046,0.406c0.218,0.402,0.388,0.827,0.496,1.279
							c0.11,0.455,0.037,0.88-0.225,1.28c-0.679,0.265-1.315,0.36-1.909,0.29c-0.594-0.071-1.095-0.253-1.505-0.545
							c-0.405-0.298-0.799-0.735-1.17-1.318c-0.37-0.582-0.67-1.143-0.898-1.684c-0.229-0.544-0.476-1.19-0.732-1.943
							c-0.377,0.116-0.771,0.538-1.182,1.262c-0.41,0.725-0.681,1.151-0.819,1.282c-1.343,1.168-2.629,1.644-3.859,1.419
							c-0.478-0.076-1.143-0.435-1.996-1.076c-0.852-0.642-1.422-1.251-1.71-1.83c-0.227-0.641-0.398-1.143-0.515-1.509
							c-0.114-0.373-0.154-0.852-0.119-1.448c0.033-0.599,0.079-1.064,0.14-1.403c0.062-0.339,0.143-0.785,0.247-1.34
							c0.107-0.554,0.18-0.981,0.227-1.277c0.308-0.318,0.688-1.015,1.14-2.102c0.451-1.082,0.917-1.828,1.394-2.231
							c0.891-0.675,1.764-0.949,2.623-0.824c0.857,0.123,1.653,0.552,2.383,1.283c0.222,0.209,0.41,0.437,0.562,0.672
							c0.156,0.238,0.242,0.513,0.256,0.819c0.016,0.309-0.105,0.565-0.365,0.773C470.066,54.787,469.783,54.81,469.525,54.727z"/>
						<path fill="#9EF7CD" d="M484.521,50.066c0.102-0.213,0.154-0.485,0.16-0.812c0.004-0.325,0.017-0.538,0.039-0.639
							c0.592-1.896,1.499-2.923,2.734-3.083c0.377-0.023,0.849,0.106,1.411,0.391c0.56,0.28,0.927,0.63,1.1,1.042
							c0.113,0.26,0.242,0.816,0.395,1.668c0.15,0.851,0.255,1.402,0.316,1.651c0.013,0.066,0.072,0.249,0.173,0.55
							c0.095,0.302,0.159,0.547,0.18,0.749c0.024,0.194,0.021,0.374-0.013,0.523c-0.04,0.13-0.123,0.262-0.242,0.404
							c-0.122,0.133-0.288,0.295-0.495,0.481c-0.207,0.184-0.349,0.306-0.429,0.374c-0.057,0.06-0.163,0.195-0.317,0.401
							c-0.152,0.209-0.294,0.354-0.43,0.448c-0.132,0.093-0.315,0.157-0.548,0.189c-0.297,0.049-0.597,0.002-0.895-0.14
							c-0.305-0.141-0.537-0.292-0.709-0.456c-0.169-0.161-0.4-0.417-0.693-0.764c-0.285-0.35-0.495-0.58-0.619-0.692
							c-0.16,0.135-0.272,0.312-0.334,0.533c-0.07,0.219-0.119,0.47-0.159,0.757c-0.04,0.285-0.073,0.506-0.109,0.657
							c-0.045,0.201-0.148,0.592-0.304,1.175c-0.157,0.577-0.287,1.095-0.394,1.55c-0.101,0.458-0.172,0.905-0.205,1.348
							c-0.009,0.17-0.002,0.509,0.014,1.023c0.018,0.51-0.013,0.896-0.091,1.156c-0.047,0.204-0.222,0.518-0.527,0.94
							c-0.302,0.421-0.442,0.786-0.415,1.091c-0.2,0.049-0.46,0.244-0.771,0.584c-0.312,0.342-0.632,0.531-0.963,0.563
							c-0.373,0.042-0.77-0.161-1.191-0.609c-0.42-0.448-0.716-0.913-0.885-1.4c-0.117-0.377-0.158-1.05-0.117-2.005
							c0.04-0.96,0.055-1.569,0.035-1.827c-0.01-0.236-0.053-0.589-0.128-1.051c-0.078-0.458-0.133-0.805-0.165-1.037
							c-0.017-0.26-0.042-0.969-0.072-2.122c-0.033-1.155-0.086-2.078-0.155-2.754c-0.041-0.256-0.108-0.607-0.207-1.065
							c-0.1-0.458-0.172-0.859-0.21-1.212c-0.036-0.35-0.036-0.636,0-0.861c0.225-0.752,0.742-1.196,1.544-1.335
							c0.811-0.139,1.494-0.026,2.064,0.34c0.262,0.175,0.484,0.398,0.67,0.661c0.186,0.269,0.324,0.53,0.425,0.78
							c0.098,0.25,0.235,0.616,0.415,1.103c0.18,0.485,0.35,0.91,0.514,1.279C484.218,50.466,484.417,50.286,484.521,50.066z"/>
						<path fill="#9EF7CD" d="M499.221,47.421c-0.257-0.079-0.457-0.204-0.597-0.373c-0.138-0.17-0.311-0.313-0.522-0.432
							c-0.204-0.116-0.422-0.136-0.643-0.056c-0.13,0.055-0.235,0.161-0.318,0.313c-0.081,0.149-0.142,0.355-0.17,0.617
							c-0.03,0.259-0.053,0.517-0.062,0.77c-0.01,0.254-0.005,0.566,0.016,0.934c0.018,0.367,0.03,0.677,0.044,0.923
							c0.013,0.25,0.037,0.562,0.071,0.938c0.03,0.375,0.055,0.634,0.062,0.775c0.001,0.095,0.003,0.239,0.018,0.427
							c0.008,0.189,0.021,0.338,0.032,0.442c0.018,0.105,0.031,0.241,0.045,0.401c0.019,0.166,0.043,0.297,0.081,0.397
							c0.037,0.097,0.084,0.197,0.146,0.305c0.066,0.105,0.149,0.18,0.257,0.225s0.221,0.079,0.347,0.093
							c0.249-0.062,0.442-0.103,0.579-0.123c0.143-0.021,0.287-0.165,0.437-0.431c0.153-0.267,0.259-0.464,0.319-0.604
							c0.066-0.135,0.148-0.35,0.252-0.654c0.107-0.303,0.173-0.493,0.202-0.571c0.111-0.241,0.258-0.55,0.444-0.919
							c0.182-0.371,0.331-0.692,0.444-0.972c0.109-0.28,0.184-0.582,0.226-0.905c0.023-0.196,0.021-0.477-0.008-0.841
							c-0.031-0.368-0.045-0.632-0.038-0.804c0.048-0.298,0.231-1.063,0.555-2.293c0.243-1.239,0.504-1.951,0.767-2.134
							c0.898-0.65,2.056-0.529,3.478,0.368c0.026,0.304,0.123,0.832,0.281,1.589c0.163,0.751,0.258,1.328,0.283,1.729
							c0.006,0.119-0.024,0.323-0.084,0.612c-0.057,0.291-0.086,0.509-0.072,0.649c-0.01,0.266,0.057,0.645,0.19,1.142
							c0.132,0.495,0.207,0.873,0.225,1.131c0.031,0.329,0.042,0.933,0.027,1.811c-0.01,0.877,0.029,1.583,0.109,2.117
							c0.111,0.836,0.214,1.408,0.317,1.721c0.027,0.113,0.126,0.274,0.299,0.483c0.172,0.211,0.271,0.373,0.3,0.487
							c0.021,0.091,0.024,0.226,0.01,0.409c-0.012,0.186,0.002,0.321,0.046,0.404c0.22,0.403,0.388,0.83,0.498,1.281
							c0.112,0.455,0.033,0.879-0.226,1.281c-0.681,0.264-1.317,0.36-1.909,0.288c-0.596-0.07-1.097-0.253-1.504-0.545
							c-0.408-0.297-0.799-0.736-1.172-1.316c-0.368-0.58-0.67-1.144-0.9-1.686c-0.229-0.542-0.472-1.192-0.73-1.944
							c-0.377,0.117-0.771,0.539-1.181,1.264c-0.408,0.725-0.68,1.15-0.819,1.281c-1.345,1.169-2.63,1.643-3.86,1.417
							c-0.478-0.073-1.142-0.431-1.994-1.074c-0.854-0.641-1.424-1.251-1.711-1.828c-0.228-0.641-0.4-1.143-0.515-1.511
							c-0.113-0.369-0.155-0.85-0.12-1.445c0.03-0.599,0.078-1.064,0.141-1.404c0.06-0.339,0.143-0.785,0.246-1.338
							c0.103-0.552,0.18-0.981,0.226-1.278c0.307-0.315,0.687-1.014,1.139-2.099c0.454-1.084,0.92-1.83,1.397-2.236
							c0.888-0.673,1.763-0.947,2.621-0.822c0.857,0.125,1.653,0.553,2.385,1.283c0.219,0.21,0.408,0.434,0.562,0.671
							c0.158,0.24,0.241,0.513,0.258,0.821c0.015,0.307-0.108,0.564-0.369,0.772C499.761,47.48,499.481,47.5,499.221,47.421z"/>
					</g>
				</g>
			</g>
		</g>
	</g>
</g>
<g>
	<circle fill="none" cx="595.25" cy="13.25" r="13.25"/>
	<rect x="582.221" y="5" fill="none" width="25.529" height="21.5"/>
	<text transform="matrix(1 0 0 1 588.9854 19.7991)" fill="#206BF8" font-family="'IBMPlexSans'" font-size="20">1</text>
</g>
</svg>
