<?xml version="1.0" encoding="utf-8"?>
<!-- Generator: Adobe Illustrator 16.0.0, SVG Export Plug-In . SVG Version: 6.00 Build 0)  -->
<!DOCTYPE svg PUBLIC "-//W3C//DTD SVG 1.1//EN" "http://www.w3.org/Graphics/SVG/1.1/DTD/svg11.dtd">
<svg version="1.1" id="Layer_1" xmlns="http://www.w3.org/2000/svg" xmlns:xlink="http://www.w3.org/1999/xlink" x="0px" y="0px"
	 width="608.5px" height="93.355px" viewBox="0 0 608.5 93.355" enable-background="new 0 0 608.5 93.355" xml:space="preserve">
<g>
	<rect x="33.418" y="16.355" fill="#FFFFFF" width="258" height="77"/>
	<rect x="306.415" y="16.355" fill="#FFFFFF" width="257.998" height="77"/>
	<rect x="24.084" y="45.856" fill="none" width="278.001" height="41"/>
	<text transform="matrix(1 0 0 1 53.9165 60.656)" font-family="'IBMPlexSans-Bold'" font-size="20">Filha</text>
	<text transform="matrix(1 0 0 1 100.6953 60.656)" font-family="'IBMPlexSans'" font-size="20">, </text>
	<text transform="matrix(1 0 0 1 110.8555 60.656)" font-family="'IBMPlexSans-Medium'" font-size="20">rúcula </text>
	<text transform="matrix(1 0 0 1 173.3135 60.656)" font-family="'IBMPlexSans-Light'" font-size="20">para a pata</text>
	<rect x="326.417" y="45.856" fill="none" width="257.998" height="41"/>
	<text transform="matrix(1 0 0 1 327.5674 60.656)" font-family="'IBMPlexSans-Italic'" font-size="20">Filha</text>
	<text transform="matrix(1 0 0 1 371.9268 60.656)" font-family="'IBMPlexSans'" font-size="20">, </text>
	<text transform="matrix(1 0 0 1 382.0869 60.656)" font-family="'IBMPlexSans-Italic'" font-size="20">rú</text>
	<text transform="matrix(1 0 0 1 400.6055 60.656)" font-family="'IBMPlexSans'" font-size="20">cula para a pata</text>
</g>
<g>
	<circle fill="none" cx="595.25" cy="13.25" r="13.25"/>
	<rect x="582.221" y="5" fill="none" width="25.53" height="21.5"/>
	<text transform="matrix(1 0 0 1 588.9863 19.7986)" fill="#206BF8" font-family="'IBMPlexSans'" font-size="20">2</text>
</g>
</svg>
