<?xml version="1.0" encoding="utf-8"?>
<!-- Generator: Adobe Illustrator 16.0.0, SVG Export Plug-In . SVG Version: 6.00 Build 0)  -->
<!DOCTYPE svg PUBLIC "-//W3C//DTD SVG 1.1//EN" "http://www.w3.org/Graphics/SVG/1.1/DTD/svg11.dtd">
<svg version="1.1" id="Layer_1" xmlns="http://www.w3.org/2000/svg" xmlns:xlink="http://www.w3.org/1999/xlink" x="0px" y="0px"
	 width="608.5px" height="63.832px" viewBox="0 0 608.5 63.832" enable-background="new 0 0 608.5 63.832" xml:space="preserve">
<g id="Layer_1_1_">
	<g>
		<path d="M425.919,47.832c0,6.628-5.373,12-12,12H194.581c-6.628,0-12-5.372-12-12V24.498c0-6.628,5.372-12,12-12h219.338
			c6.627,0,12,5.372,12,12V47.832z"/>
		<rect x="182.749" y="27.123" fill="none" width="243.169" height="16.084"/>
		<g enable-background="new    ">
			<path fill="#FFFFFF" d="M225.315,42.163c-1.773,0-3.153-0.604-4.14-1.811c-0.987-1.206-1.48-2.982-1.48-5.33
				c0-2.346,0.493-4.149,1.48-5.409c0.986-1.261,2.366-1.891,4.14-1.891c1.173,0,2.157,0.264,2.95,0.79
				c0.793,0.527,1.41,1.277,1.85,2.25l-1.36,0.82c-0.28-0.72-0.707-1.297-1.28-1.73c-0.573-0.433-1.293-0.649-2.16-0.649
				c-0.6,0-1.137,0.113-1.61,0.341s-0.874,0.553-1.2,0.974c-0.327,0.422-0.577,0.924-0.75,1.505c-0.174,0.582-0.26,1.234-0.26,1.957
				v2.088c0,1.444,0.333,2.575,1,3.392c0.667,0.816,1.606,1.224,2.82,1.224c0.894,0,1.64-0.229,2.24-0.689s1.04-1.07,1.32-1.83
				l1.34,0.84c-0.44,0.986-1.074,1.76-1.9,2.32C227.489,41.883,226.489,42.163,225.315,42.163z"/>
			<path fill="#FFFFFF" d="M236.556,42.163c-0.693,0-1.327-0.127-1.9-0.38c-0.574-0.254-1.063-0.617-1.47-1.091
				c-0.407-0.473-0.724-1.039-0.95-1.699s-0.34-1.403-0.34-2.23c0-0.812,0.113-1.553,0.34-2.22s0.543-1.236,0.95-1.71
				s0.896-0.837,1.47-1.09c0.573-0.254,1.207-0.38,1.9-0.38c0.693,0,1.323,0.126,1.89,0.38c0.566,0.253,1.056,0.616,1.47,1.09
				c0.413,0.474,0.733,1.043,0.96,1.71s0.34,1.407,0.34,2.22c0,0.827-0.113,1.57-0.34,2.23s-0.547,1.227-0.96,1.699
				c-0.414,0.474-0.903,0.837-1.47,1.091C237.879,42.036,237.249,42.163,236.556,42.163z M236.556,40.743
				c0.867,0,1.573-0.267,2.12-0.801c0.546-0.532,0.82-1.346,0.82-2.439v-1.48c0-1.093-0.273-1.906-0.82-2.439
				c-0.547-0.533-1.253-0.8-2.12-0.8c-0.867,0-1.574,0.267-2.12,0.8c-0.547,0.533-0.82,1.347-0.82,2.439v1.48
				c0,1.094,0.273,1.907,0.82,2.439C234.982,40.477,235.688,40.743,236.556,40.743z"/>
			<path fill="#FFFFFF" d="M243.855,41.923v-10.32h1.6v1.661h0.08c0.253-0.58,0.61-1.043,1.07-1.386s1.076-0.515,1.85-0.515
				c1.067,0,1.91,0.343,2.53,1.029c0.62,0.688,0.93,1.657,0.93,2.91v6.62h-1.6v-6.354c0-1.857-0.78-2.786-2.34-2.786
				c-0.32,0-0.63,0.04-0.93,0.12c-0.3,0.08-0.57,0.2-0.81,0.36c-0.24,0.161-0.43,0.364-0.57,0.611
				c-0.14,0.247-0.21,0.538-0.21,0.872v7.176H243.855z"/>
			<path fill="#FFFFFF" d="M255.775,33.022h-1.68v-1.42h1.68v-2.08c0-0.72,0.187-1.3,0.56-1.739c0.374-0.44,0.94-0.66,1.7-0.66h1.56
				v1.42h-2.22v3.06h5.78v10.32h-1.6v-8.9h-4.18v8.9h-1.6V33.022z M262.355,29.183c-0.347,0-0.597-0.083-0.75-0.25
				c-0.153-0.166-0.23-0.383-0.23-0.649v-0.261c0-0.267,0.077-0.482,0.23-0.649s0.403-0.25,0.75-0.25s0.597,0.083,0.75,0.25
				s0.23,0.383,0.23,0.649v0.261c0,0.267-0.077,0.483-0.23,0.649C262.952,29.1,262.702,29.183,262.355,29.183z"/>
			<path fill="#FFFFFF" d="M266.555,41.923v-10.32h1.6v1.9h0.1c0.187-0.493,0.52-0.934,1-1.32s1.14-0.58,1.98-0.58h0.62v1.601h-0.94
				c-0.867,0-1.543,0.163-2.03,0.489c-0.487,0.327-0.73,0.737-0.73,1.23v7H266.555z"/>
			<path fill="#FFFFFF" d="M273.895,41.923v-10.32h1.6v1.661h0.08c0.12-0.264,0.257-0.511,0.41-0.742s0.34-0.433,0.56-0.604
				c0.22-0.171,0.477-0.307,0.77-0.405c0.293-0.1,0.64-0.148,1.04-0.148c0.68,0,1.307,0.161,1.88,0.485
				c0.573,0.323,1,0.855,1.28,1.596h0.04c0.187-0.555,0.537-1.041,1.05-1.457c0.513-0.416,1.21-0.624,2.09-0.624
				c1.053,0,1.876,0.343,2.47,1.029c0.593,0.688,0.89,1.657,0.89,2.91v6.62h-1.6v-6.354c0-0.922-0.18-1.617-0.54-2.085
				c-0.36-0.468-0.934-0.701-1.72-0.701c-0.32,0-0.624,0.04-0.91,0.12s-0.543,0.2-0.77,0.36c-0.227,0.161-0.407,0.364-0.54,0.611
				s-0.2,0.538-0.2,0.872v7.176h-1.6v-6.354c0-0.922-0.18-1.617-0.54-2.085s-0.92-0.701-1.68-0.701c-0.32,0-0.626,0.04-0.92,0.12
				s-0.553,0.2-0.78,0.36c-0.227,0.161-0.41,0.364-0.55,0.611c-0.14,0.247-0.21,0.538-0.21,0.872v7.176H273.895z"/>
			<path fill="#FFFFFF" d="M298.854,41.923c-0.6,0-1.03-0.16-1.29-0.48c-0.26-0.319-0.424-0.72-0.49-1.199h-0.1
				c-0.227,0.64-0.6,1.12-1.12,1.439c-0.52,0.32-1.14,0.48-1.86,0.48c-1.093,0-1.943-0.28-2.55-0.84
				c-0.607-0.561-0.91-1.32-0.91-2.28c0-0.974,0.356-1.72,1.07-2.24c0.713-0.52,1.823-0.78,3.33-0.78h2.04v-1.02
				c0-0.733-0.2-1.293-0.6-1.68c-0.4-0.387-1.014-0.58-1.84-0.58c-0.627,0-1.15,0.14-1.57,0.42c-0.42,0.279-0.77,0.653-1.05,1.12
				l-0.96-0.9c0.28-0.56,0.727-1.036,1.34-1.43c0.613-0.394,1.386-0.59,2.32-0.59c1.253,0,2.227,0.306,2.92,0.918
				c0.693,0.611,1.04,1.463,1.04,2.554v5.668h1.18v1.42H298.854z M294.254,40.803c0.4,0,0.767-0.047,1.1-0.14
				c0.333-0.094,0.62-0.227,0.86-0.4c0.24-0.173,0.426-0.373,0.56-0.6c0.133-0.227,0.2-0.474,0.2-0.74v-1.7h-2.12
				c-0.92,0-1.59,0.134-2.01,0.4s-0.63,0.653-0.63,1.16v0.42c0,0.507,0.183,0.899,0.55,1.18S293.627,40.803,294.254,40.803z"/>
			<path fill="#FFFFFF" d="M302.035,41.923v-10.32h1.6v1.9h0.1c0.187-0.493,0.52-0.934,1-1.32c0.48-0.387,1.141-0.58,1.98-0.58
				h0.619v1.601h-0.939c-0.867,0-1.543,0.163-2.03,0.489c-0.487,0.327-0.73,0.737-0.73,1.23v7H302.035z"/>
			<path fill="#FFFFFF" d="M317.975,42.163c-0.707,0-1.344-0.127-1.91-0.38c-0.567-0.254-1.054-0.617-1.461-1.091
				c-0.406-0.473-0.719-1.039-0.939-1.699s-0.33-1.403-0.33-2.23c0-0.812,0.109-1.553,0.33-2.22s0.533-1.236,0.939-1.71
				c0.407-0.474,0.894-0.837,1.461-1.09c0.566-0.254,1.203-0.38,1.91-0.38c0.692,0,1.312,0.126,1.859,0.378
				c0.547,0.253,1.014,0.602,1.4,1.047s0.683,0.974,0.89,1.584c0.206,0.611,0.31,1.282,0.31,2.014v0.757h-7.42v0.48
				c0,0.439,0.07,0.85,0.211,1.229c0.14,0.38,0.34,0.71,0.6,0.99s0.58,0.5,0.96,0.66s0.81,0.24,1.29,0.24
				c0.652,0,1.223-0.153,1.71-0.46c0.486-0.307,0.862-0.747,1.13-1.32l1.141,0.825c-0.334,0.711-0.854,1.285-1.561,1.721
				S318.947,42.163,317.975,42.163z M317.975,32.703c-0.44,0-0.84,0.076-1.201,0.229c-0.359,0.152-0.67,0.368-0.93,0.646
				c-0.26,0.278-0.463,0.606-0.609,0.984s-0.221,0.792-0.221,1.242v0.139h5.7v-0.219c0-0.914-0.25-1.646-0.75-2.195
				C319.464,32.978,318.801,32.703,317.975,32.703z"/>
			<path fill="#FFFFFF" d="M328.174,42.163c-0.96,0-1.764-0.184-2.41-0.55c-0.646-0.367-1.203-0.857-1.67-1.471l1.141-0.92
				c0.399,0.507,0.846,0.897,1.34,1.17c0.493,0.273,1.066,0.41,1.72,0.41c0.681,0,1.21-0.146,1.59-0.439
				c0.38-0.294,0.57-0.707,0.57-1.24c0-0.4-0.13-0.743-0.39-1.03c-0.26-0.286-0.73-0.483-1.41-0.59l-0.82-0.12
				c-0.48-0.066-0.92-0.17-1.32-0.31c-0.399-0.141-0.75-0.327-1.05-0.561s-0.533-0.523-0.7-0.87c-0.166-0.347-0.25-0.76-0.25-1.239
				c0-0.507,0.094-0.95,0.28-1.33c0.187-0.381,0.443-0.697,0.771-0.95c0.326-0.253,0.717-0.443,1.17-0.57
				c0.453-0.126,0.939-0.189,1.459-0.189c0.841,0,1.544,0.146,2.111,0.439c0.566,0.294,1.062,0.7,1.489,1.22l-1.06,0.96
				c-0.227-0.319-0.561-0.609-1-0.869c-0.44-0.261-0.994-0.391-1.66-0.391c-0.667,0-1.17,0.144-1.51,0.431
				c-0.34,0.286-0.51,0.677-0.51,1.17c0,0.507,0.17,0.873,0.51,1.1s0.83,0.394,1.47,0.5l0.8,0.12c1.146,0.173,1.96,0.503,2.439,0.99
				c0.48,0.486,0.721,1.123,0.721,1.909c0,1-0.34,1.787-1.02,2.36C330.294,41.876,329.36,42.163,328.174,42.163z"/>
			<path fill="#FFFFFF" d="M338.654,42.163c-0.721,0-1.367-0.127-1.94-0.38c-0.573-0.254-1.058-0.613-1.45-1.08
				c-0.394-0.467-0.693-1.033-0.9-1.7s-0.31-1.413-0.31-2.24c0-0.826,0.103-1.573,0.31-2.24c0.207-0.666,0.507-1.232,0.9-1.699
				c0.393-0.467,0.877-0.827,1.45-1.08c0.573-0.254,1.22-0.38,1.94-0.38c1.025,0,1.85,0.223,2.469,0.67
				c0.621,0.446,1.084,1.029,1.391,1.75l-1.34,0.68c-0.188-0.533-0.494-0.946-0.92-1.24c-0.428-0.293-0.96-0.439-1.6-0.439
				c-0.48,0-0.9,0.076-1.261,0.229s-0.659,0.367-0.899,0.641s-0.42,0.6-0.541,0.979c-0.119,0.38-0.18,0.797-0.18,1.25v1.76
				c0,0.907,0.244,1.65,0.73,2.23s1.203,0.87,2.15,0.87c1.293,0,2.227-0.601,2.799-1.801l1.16,0.78
				c-0.333,0.747-0.83,1.34-1.49,1.78C340.464,41.942,339.641,42.163,338.654,42.163z"/>
			<path fill="#FFFFFF" d="M348.654,42.163c-0.693,0-1.328-0.127-1.9-0.38c-0.574-0.254-1.063-0.617-1.471-1.091
				c-0.406-0.473-0.723-1.039-0.949-1.699s-0.34-1.403-0.34-2.23c0-0.812,0.113-1.553,0.34-2.22s0.543-1.236,0.949-1.71
				c0.407-0.474,0.896-0.837,1.471-1.09c0.572-0.254,1.207-0.38,1.9-0.38c0.692,0,1.322,0.126,1.89,0.38
				c0.566,0.253,1.056,0.616,1.47,1.09c0.413,0.474,0.733,1.043,0.96,1.71s0.34,1.407,0.34,2.22c0,0.827-0.113,1.57-0.34,2.23
				s-0.547,1.227-0.96,1.699c-0.414,0.474-0.903,0.837-1.47,1.091C349.977,42.036,349.347,42.163,348.654,42.163z M348.654,40.743
				c0.866,0,1.572-0.267,2.119-0.801c0.547-0.532,0.82-1.346,0.82-2.439v-1.48c0-1.093-0.273-1.906-0.82-2.439s-1.253-0.8-2.119-0.8
				c-0.867,0-1.574,0.267-2.121,0.8s-0.819,1.347-0.819,2.439v1.48c0,1.094,0.272,1.907,0.819,2.439
				C347.08,40.477,347.787,40.743,348.654,40.743z"/>
			<path fill="#FFFFFF" d="M357.654,41.923c-0.561,0-0.984-0.156-1.271-0.47s-0.43-0.71-0.43-1.19v-13.14h1.6v13.38h1.521v1.42
				H357.654z"/>
			<path fill="#FFFFFF" d="M361.394,27.123h1.6v6.141h0.08c0.253-0.58,0.61-1.043,1.07-1.386s1.076-0.515,1.85-0.515
				c1.067,0,1.91,0.343,2.53,1.029c0.62,0.688,0.93,1.657,0.93,2.91v6.62h-1.6v-6.354c0-1.857-0.78-2.786-2.34-2.786
				c-0.32,0-0.631,0.04-0.93,0.12c-0.301,0.08-0.57,0.2-0.811,0.36c-0.24,0.161-0.43,0.364-0.57,0.611
				c-0.14,0.247-0.21,0.538-0.21,0.872v7.176h-1.6V27.123z"/>
			<path fill="#FFFFFF" d="M380.254,41.923c-0.601,0-1.031-0.16-1.291-0.48c-0.26-0.319-0.424-0.72-0.49-1.199h-0.1
				c-0.227,0.64-0.6,1.12-1.119,1.439c-0.521,0.32-1.141,0.48-1.861,0.48c-1.093,0-1.943-0.28-2.549-0.84
				c-0.607-0.561-0.91-1.32-0.91-2.28c0-0.974,0.355-1.72,1.07-2.24c0.713-0.52,1.822-0.78,3.329-0.78h2.04v-1.02
				c0-0.733-0.199-1.293-0.6-1.68s-1.014-0.58-1.84-0.58c-0.627,0-1.15,0.14-1.57,0.42c-0.42,0.279-0.77,0.653-1.051,1.12
				l-0.959-0.9c0.279-0.56,0.727-1.036,1.34-1.43s1.387-0.59,2.32-0.59c1.252,0,2.227,0.306,2.92,0.918
				c0.693,0.611,1.039,1.463,1.039,2.554v5.668h1.181v1.42H380.254z M375.653,40.803c0.399,0,0.767-0.047,1.101-0.14
				c0.332-0.094,0.619-0.227,0.859-0.4c0.24-0.173,0.426-0.373,0.561-0.6c0.133-0.227,0.199-0.474,0.199-0.74v-1.7h-2.119
				c-0.921,0-1.591,0.134-2.011,0.4s-0.63,0.653-0.63,1.16v0.42c0,0.507,0.184,0.899,0.55,1.18S375.026,40.803,375.653,40.803z"/>
		</g>
	</g>
	<g>
		<circle fill="none" cx="595.25" cy="13.25" r="13.25"/>
		<rect x="582.221" y="5" fill="none" width="25.53" height="21.5"/>
		<g enable-background="new    ">
			<path fill="#206BF8" d="M594.207,11.719c0.945,0,1.656-0.216,2.129-0.647c0.474-0.431,0.711-0.985,0.711-1.662V9.27
				c0-0.73-0.23-1.278-0.69-1.643c-0.46-0.365-1.063-0.548-1.81-0.548c-0.721,0-1.308,0.156-1.761,0.47s-0.827,0.737-1.12,1.27
				l-1.24-0.96c0.174-0.279,0.384-0.556,0.631-0.826c0.246-0.271,0.536-0.512,0.869-0.723c0.334-0.211,0.721-0.382,1.16-0.514
				c0.44-0.131,0.94-0.197,1.5-0.197c0.587,0,1.141,0.077,1.66,0.229s0.971,0.378,1.35,0.677c0.381,0.299,0.681,0.667,0.9,1.104
				c0.221,0.438,0.33,0.936,0.33,1.493c0,0.451-0.07,0.856-0.21,1.214c-0.14,0.358-0.33,0.671-0.569,0.936
				c-0.24,0.266-0.523,0.491-0.851,0.677c-0.327,0.187-0.677,0.326-1.05,0.419v0.08c0.373,0.08,0.736,0.211,1.09,0.392
				s0.666,0.415,0.939,0.703s0.494,0.636,0.66,1.044c0.167,0.408,0.25,0.874,0.25,1.396c0,0.603-0.113,1.155-0.34,1.657
				s-0.547,0.931-0.96,1.285s-0.913,0.633-1.5,0.833c-0.587,0.201-1.233,0.302-1.94,0.302c-0.6,0-1.133-0.066-1.6-0.197
				c-0.467-0.132-0.88-0.31-1.24-0.533c-0.359-0.224-0.676-0.475-0.949-0.753c-0.273-0.277-0.518-0.57-0.73-0.877l1.26-0.96
				c0.174,0.28,0.363,0.533,0.57,0.76c0.207,0.228,0.437,0.42,0.689,0.58c0.254,0.16,0.541,0.283,0.861,0.37
				c0.319,0.087,0.692,0.13,1.119,0.13c0.986,0,1.733-0.225,2.24-0.675c0.506-0.45,0.76-1.091,0.76-1.925v-0.161
				c0-0.832-0.254-1.474-0.76-1.924c-0.507-0.45-1.254-0.675-2.24-0.675h-1.64v-1.48H594.207z"/>
		</g>
	</g>
</g>
</svg>
