<?xml version="1.0" encoding="utf-8"?>
<!-- Generator: Adobe Illustrator 16.0.0, SVG Export Plug-In . SVG Version: 6.00 Build 0)  -->
<!DOCTYPE svg PUBLIC "-//W3C//DTD SVG 1.1//EN" "http://www.w3.org/Graphics/SVG/1.1/DTD/svg11.dtd">
<svg version="1.1" id="Layer_1" xmlns="http://www.w3.org/2000/svg" xmlns:xlink="http://www.w3.org/1999/xlink" x="0px" y="0px"
	 width="608.5px" height="193.266px" viewBox="0 0 608.5 193.266" enable-background="new 0 0 608.5 193.266" xml:space="preserve">
<g id="Layer_1_1_">
	<g>
		<path fill="none" stroke="#000000" stroke-width="2" stroke-miterlimit="10" d="M434.67,180.266c0,6.627-5.373,12-12,12H203.332
			c-6.628,0-12-5.373-12-12v-23.334c0-6.627,5.372-12,12-12H422.67c6.627,0,12,5.373,12,12V180.266z"/>
		<polygon points="304.188,181.115 304.188,156.084 321.812,168.599 		"/>
	</g>
	<g>
		<polygon points="525.953,58.212 514.533,50.27 519.753,37.392 505.829,36.048 505.521,22.094 491.862,25.195 488.068,11.732 
			475.346,17.596 469.223,5.009 457.583,12.802 449.72,1.218 439.226,10.495 429.953,0 420.678,10.495 410.183,1.219 
			402.316,12.803 390.678,5.011 384.557,17.597 371.838,11.731 368.046,25.193 354.391,22.09 354.082,36.043 340.156,37.388 
			345.374,50.267 333.953,58.212 345.373,66.156 340.153,79.033 354.077,80.377 354.385,94.331 368.044,91.23 359.486,124.771 
			386.719,99.744 390.684,111.416 402.322,103.624 410.188,115.208 420.681,105.93 429.953,116.425 439.229,105.93 449.724,115.207 
			457.59,103.623 469.229,111.415 475.348,98.828 488.068,104.693 491.86,91.232 505.515,94.335 505.825,80.381 519.751,79.037 
			514.532,66.158 		"/>
		<g>
			<g>
				<defs>
					<polygon id="SVGID_1_" points="525.953,58.212 514.533,50.27 519.753,37.392 505.829,36.048 505.521,22.094 491.862,25.195 
						488.068,11.732 475.346,17.596 469.223,5.009 457.583,12.802 449.72,1.218 439.226,10.495 429.953,0 420.678,10.495 
						410.183,1.219 402.316,12.803 390.678,5.011 384.557,17.597 371.838,11.731 368.046,25.193 354.391,22.09 354.082,36.043 
						340.156,37.388 345.374,50.267 333.953,58.212 345.373,66.156 340.153,79.033 354.077,80.377 354.385,94.331 368.044,91.23 
						359.486,124.771 386.719,99.744 390.684,111.416 402.322,103.624 410.188,115.208 420.681,105.93 429.953,116.425 
						439.229,105.93 449.724,115.207 457.59,103.623 469.229,111.415 475.348,98.828 488.068,104.693 491.86,91.232 505.515,94.335 
						505.825,80.381 519.751,79.037 514.532,66.158 					"/>
				</defs>
				<clipPath id="SVGID_2_">
					<use xlink:href="#SVGID_1_"  overflow="visible"/>
				</clipPath>
				<g clip-path="url(#SVGID_2_)">
					<g>
						<path fill="#9EF7CD" d="M377.071,58.269c0.152-0.237,0.298-0.537,0.437-0.892c0.137-0.354,0.262-0.611,0.368-0.78
							c0.681-1.032,1.494-1.56,2.439-1.588c0.282-0.003,0.624,0.083,1.02,0.262c0.398,0.18,0.748,0.271,1.054,0.284
							c0.052,0.086,0.343,0.434,0.867,1.039c0.528,0.604,0.835,1.08,0.926,1.426c0.044,0.184,0.032,0.485-0.037,0.903
							c-0.069,0.42-0.059,0.753,0.035,1.006c-0.151,0.25-0.268,0.608-0.352,1.077c-0.082,0.469-0.184,0.807-0.305,1.014
							c-0.075,0.125-0.216,0.27-0.42,0.433c-0.203,0.164-0.338,0.289-0.4,0.374c-0.3,0.386-0.7,1.071-1.201,2.057
							c-0.143,0.06-0.301,0.231-0.479,0.512c-0.177,0.284-0.313,0.48-0.409,0.59c-0.082,0.088-0.271,0.237-0.562,0.453
							c-0.29,0.213-0.518,0.414-0.679,0.6c-0.164,0.186-0.236,0.381-0.225,0.59c0.011,0.205,0.418,0.646,1.222,1.326
							c0.153,0.129,0.365,0.34,0.636,0.63c0.271,0.292,0.474,0.496,0.604,0.607c0.153,0.149,0.418,0.305,0.795,0.467
							c0.376,0.162,0.625,0.28,0.751,0.357c0.186,0.104,0.522,0.359,1.009,0.76c0.488,0.402,0.8,0.688,0.94,0.856
							c0.115,0.135,0.263,0.351,0.438,0.646c0.178,0.298,0.287,0.518,0.327,0.663c0.099,0.404,0.051,0.905-0.146,1.503
							c-0.195,0.6-0.453,0.96-0.777,1.084c-0.049,0.047-0.123,0.064-0.219,0.062c-0.097-0.005-0.168-0.003-0.214,0.003
							c-0.046,0.007-0.118-0.006-0.219-0.039c-0.1-0.032-0.175-0.058-0.227-0.081c-0.05-0.021-0.13-0.05-0.24-0.091
							c-0.111-0.042-0.198-0.075-0.257-0.105c-0.104-0.042-0.293-0.112-0.573-0.214c-0.282-0.1-0.493-0.194-0.642-0.288
							c-0.166-0.09-0.36-0.264-0.593-0.523c-0.228-0.259-0.404-0.438-0.532-0.53c-0.175-0.146-0.453-0.308-0.843-0.488
							c-0.389-0.18-0.653-0.315-0.801-0.407c-0.146-0.093-0.512-0.379-1.096-0.862c-0.587-0.482-1.069-0.8-1.451-0.949
							c-0.184,0.179-0.334,0.405-0.455,0.679c-0.121,0.274-0.237,0.605-0.351,0.993c-0.112,0.386-0.223,0.683-0.322,0.889
							c-0.049,0.062-0.108,0.195-0.183,0.396c-0.075,0.199-0.138,0.332-0.185,0.397c-0.047,0.062-0.166,0.156-0.355,0.279
							s-0.325,0.229-0.41,0.317c-0.079,0.087-0.251,0.303-0.514,0.646c-0.264,0.344-0.513,0.636-0.752,0.881
							c-0.238,0.244-0.477,0.401-0.712,0.475c-0.397,0.137-0.798,0.163-1.197,0.08c-0.402-0.082-0.657-0.229-0.765-0.441
							c-0.085-0.177-0.047-0.534,0.109-1.069c0.158-0.534,0.237-0.928,0.238-1.175c-0.001-0.134-0.039-0.306-0.121-0.521
							c-0.078-0.219-0.126-0.383-0.144-0.494c-0.012-0.074,0.015-0.216,0.079-0.424c0.063-0.208,0.087-0.36,0.073-0.454
							c-0.065-0.579-0.075-1.081-0.023-1.504c0.004-0.096,0.029-0.248,0.074-0.454c0.045-0.205,0.072-0.346,0.079-0.423
							c-0.01-0.074-0.048-0.192-0.111-0.354c-0.062-0.162-0.092-0.291-0.083-0.386c-0.012-0.074,0.016-0.179,0.079-0.311
							c0.067-0.135,0.105-0.23,0.115-0.288c0.007-0.211-0.016-0.548-0.066-1.016c-0.051-0.469-0.072-0.815-0.069-1.044
							c0.02-0.25,0.068-0.841,0.147-1.773c0.08-0.933,0.102-1.585,0.062-1.959c-0.017-0.111-0.067-0.369-0.158-0.774
							c-0.086-0.403-0.111-0.675-0.078-0.812c0.007-0.096,0.045-0.243,0.119-0.445s0.114-0.348,0.12-0.444
							c0.004-0.096-0.006-0.256-0.029-0.48c-0.024-0.225-0.022-0.385,0.001-0.483c0.014-0.156,0.079-0.372,0.198-0.656
							c0.12-0.282,0.178-0.491,0.178-0.625c-0.003-0.396-0.048-0.766-0.137-1.103c-0.088-0.338-0.134-0.71-0.138-1.118
							c-0.003-0.407,0.082-0.739,0.25-0.992c0.88-0.584,1.703-0.806,2.466-0.651c1.149,0.208,1.958,1.35,2.42,3.426
							C376.726,58.687,376.918,58.511,377.071,58.269z M380.739,64.157c0.149-0.261,0.292-0.553,0.424-0.875
							c0.132-0.323,0.241-0.594,0.323-0.804c0.083-0.212,0.188-0.525,0.314-0.943c0.126-0.416,0.227-0.717,0.294-0.896
							c0.167-0.52,0.295-1.06,0.384-1.624c0.087-0.564,0.06-1.146-0.074-1.754c-0.143-0.604-0.442-1.007-0.909-1.203
							c-0.612-0.174-1.144-0.133-1.589,0.123c-0.446,0.256-0.803,0.633-1.071,1.127c-0.072,0.145-0.125,0.385-0.162,0.723
							c-0.034,0.337-0.069,0.584-0.102,0.74c-0.034,0.158-0.119,0.355-0.256,0.595c-0.135,0.236-0.214,0.416-0.233,0.531
							c-0.018,0.138-0.007,0.391,0.029,0.766c0.037,0.374,0.042,0.657,0.013,0.852c-0.019,0.116-0.089,0.294-0.204,0.53
							c-0.117,0.236-0.186,0.421-0.203,0.557c-0.006,0.077,0.012,0.198,0.055,0.36c0.046,0.167,0.063,0.296,0.059,0.392
							c0.002,0.132-0.035,0.309-0.105,0.528c-0.071,0.22-0.111,0.369-0.119,0.445c-0.004,0.229,0.009,0.469,0.036,0.721
							c0.028,0.251,0.063,0.525,0.108,0.824l0.104,0.695c0.784-0.078,1.586-0.636,2.4-1.667
							C380.426,64.663,380.588,64.417,380.739,64.157z"/>
						<path fill="#9EF7CD" d="M401.954,63.426c0.118,0.288,0.196,0.523,0.233,0.708c0.033,0.184,0.017,0.401-0.061,0.65
							c-0.077,0.248-0.156,0.449-0.24,0.604c-0.079,0.154-0.179,0.346-0.297,0.571c-0.118,0.225-0.203,0.409-0.259,0.55
							c-0.118,0.36-0.28,0.921-0.491,1.684c-0.208,0.763-0.389,1.334-0.539,1.717c-0.158,0.1-0.298,0.242-0.42,0.434
							c0.033,0.488-0.178,1.122-0.643,1.902c-0.462,0.78-0.692,1.429-0.694,1.94c-0.138,0.097-0.339,0.265-0.606,0.503
							c-0.269,0.239-0.492,0.393-0.673,0.456c-1.854,0.678-3.277-0.603-4.272-3.834c-0.226,0.017-0.354,0.173-0.385,0.473
							c-0.031,0.297-0.079,0.479-0.146,0.547c-0.13,0.151-0.302,0.383-0.523,0.689c-0.221,0.309-0.396,0.543-0.534,0.706
							c-0.137,0.164-0.349,0.343-0.634,0.537c-0.282,0.193-0.605,0.346-0.971,0.459c-1.048,0.344-1.943,0.095-2.688-0.753
							c-0.744-0.849-1.169-2.014-1.275-3.498c-0.004-0.149,0.009-0.384,0.038-0.702c0.027-0.316,0.037-0.561,0.031-0.732
							c-0.015-0.226-0.059-0.583-0.13-1.076c-0.074-0.491-0.108-0.841-0.104-1.051c0.005-0.229,0.037-0.547,0.102-0.956
							c0.062-0.408,0.104-0.68,0.121-0.814c0.057-0.635,0.106-1.102,0.146-1.402s0.128-0.636,0.263-1.007
							c0.134-0.372,0.314-0.623,0.542-0.75c0.817-0.503,1.751-0.424,2.799,0.236c0.152,0.395,0.299,0.833,0.438,1.315
							c0.138,0.482,0.289,1.075,0.451,1.783s0.283,1.195,0.358,1.47c0.018,0.11-0.022,0.239-0.125,0.39
							c-0.101,0.147-0.15,0.289-0.15,0.421c0.091,0.48,0.099,1.2,0.021,2.16c-0.071,0.959-0.015,1.711,0.181,2.251
							c0.335-0.05,0.6-0.25,0.794-0.604c0.192-0.352,0.372-0.812,0.532-1.388c0.022-0.098,0.043-0.167,0.056-0.208
							c0.087-0.298,0.233-0.742,0.439-1.331c0.206-0.592,0.339-1.005,0.4-1.242c0.047-0.196,0.082-0.662,0.104-1.396
							c0.022-0.732,0.099-1.241,0.229-1.529c0.172-0.368,0.521-0.67,1.044-0.911c0.525-0.237,0.979-0.272,1.366-0.103
							c0.143,0.073,0.311,0.266,0.498,0.58c0.189,0.314,0.305,0.552,0.35,0.717c0.282,0.867,0.421,2.22,0.419,4.051
							c-0.001,1.831,0.157,3.132,0.479,3.9c0.459-0.125,0.835-0.493,1.133-1.109c0.299-0.613,0.504-0.975,0.622-1.088
							c0.345-1.628,0.893-3.038,1.646-4.231c-0.066-0.958,0.125-1.83,0.576-2.622L401.954,63.426z M393.982,55.791
							c0.067,0.217,0.111,0.438,0.126,0.664c0.018,0.227,0.064,0.492,0.147,0.804c-0.152,0.117-0.376,0.402-0.67,0.854
							c-0.291,0.451-0.559,0.771-0.795,0.958c-0.102,0.09-0.297,0.215-0.588,0.37c-0.288,0.158-0.491,0.284-0.611,0.377
							c-1.462,1.147-2.384,1.323-2.768,0.526c-0.246-0.495-0.038-1.189,0.628-2.086c0.155-0.232,0.669-0.785,1.546-1.654
							c0.313-0.313,0.572-0.556,0.775-0.729c0.201-0.172,0.473-0.326,0.812-0.464c0.342-0.136,0.703-0.195,1.084-0.177
							C393.809,55.389,393.91,55.575,393.982,55.791z"/>
						<path fill="#9EF7CD" d="M405.159,62.979c-0.274,1.104-0.371,1.906-0.297,2.406c0.012,0.208,0.092,0.487,0.237,0.833
							c0.146,0.35,0.24,0.585,0.276,0.714c0.016,0.112,0.023,0.272,0.016,0.48c-0.006,0.212-0.003,0.362,0.012,0.456
							c0.091,0.479,0.286,0.909,0.594,1.292c0.302,0.383,0.622,0.633,0.964,0.754c0.368-0.207,0.711-0.481,1.029-0.824
							c0.318-0.342,0.574-0.649,0.76-0.924c0.188-0.276,0.428-0.659,0.728-1.148c0.294-0.491,0.521-0.851,0.679-1.083
							c1.24-1.854,1.915-2.876,2.019-3.062c0.046-0.083,0.114-0.25,0.212-0.5c0.094-0.251,0.202-0.457,0.319-0.617
							c0.12-0.16,0.277-0.274,0.478-0.342c0.038,0.259,0.024,0.514-0.043,0.761c-0.068,0.247-0.195,0.533-0.386,0.855
							c-0.189,0.319-0.313,0.544-0.37,0.665c-0.115,0.246-0.265,0.633-0.438,1.162c-0.177,0.529-0.323,0.917-0.438,1.162
							c-0.09,0.165-0.248,0.384-0.475,0.655c-0.223,0.27-0.382,0.479-0.475,0.624c-0.061,0.104-0.109,0.249-0.147,0.438
							c-0.041,0.187-0.082,0.31-0.131,0.374c-0.213,0.354-0.617,0.856-1.214,1.505s-0.995,1.12-1.196,1.417
							c-0.308,0.103-0.607,0.262-0.896,0.477c-0.292,0.213-0.518,0.386-0.68,0.514c-0.16,0.128-0.41,0.236-0.748,0.324
							c-0.339,0.089-0.706,0.077-1.101-0.035c-0.262-0.076-0.66-0.252-1.205-0.533c-0.545-0.278-0.963-0.52-1.262-0.722
							c-0.341-0.255-0.687-0.596-1.035-1.028c-0.349-0.431-0.588-0.827-0.72-1.188c-0.059-0.143-0.104-0.424-0.139-0.846
							c-0.036-0.421-0.076-0.725-0.123-0.908c-0.021-0.149-0.088-0.37-0.199-0.668c-0.107-0.294-0.169-0.528-0.174-0.7
							c-0.078-0.899,0.151-1.906,0.688-3.021c0.533-1.115,1.172-1.944,1.906-2.491c0.287-0.231,0.766-0.528,1.433-0.883
							c0.67-0.355,1.16-0.557,1.479-0.604c0.166-0.024,0.33-0.032,0.495-0.017c0.162,0.013,0.289,0.031,0.378,0.056
							c0.088,0.025,0.238,0.069,0.447,0.134c0.208,0.065,0.353,0.108,0.435,0.136l0.322,0.064c0.195,0.047,0.338,0.088,0.429,0.12
							c0.092,0.035,0.209,0.094,0.355,0.177c0.145,0.084,0.254,0.176,0.324,0.279c0.146,0.34,0.274,0.791,0.388,1.352
							c0.111,0.564,0.089,1.103-0.071,1.618c-0.159,0.52-0.461,0.762-0.899,0.734c-0.289-0.016-0.505-0.149-0.646-0.403
							s-0.23-0.535-0.269-0.843c-0.036-0.308-0.139-0.587-0.31-0.835c-0.17-0.251-0.427-0.378-0.77-0.385
							C405.152,61.29,404.971,61.981,405.159,62.979z"/>
						<path fill="#9EF7CD" d="M427.436,59.627c0.119,0.288,0.195,0.522,0.231,0.708c0.037,0.184,0.021,0.4-0.06,0.65
							c-0.077,0.247-0.155,0.45-0.236,0.604c-0.081,0.154-0.179,0.346-0.299,0.572c-0.119,0.225-0.205,0.41-0.26,0.55
							c-0.118,0.36-0.28,0.921-0.49,1.684c-0.208,0.762-0.39,1.334-0.541,1.716c-0.155,0.1-0.296,0.242-0.419,0.435
							c0.034,0.487-0.179,1.122-0.643,1.902c-0.463,0.78-0.691,1.429-0.691,1.939c-0.138,0.097-0.341,0.264-0.609,0.503
							s-0.491,0.392-0.672,0.456c-1.854,0.677-3.278-0.603-4.272-3.834c-0.227,0.016-0.354,0.172-0.385,0.472
							c-0.032,0.298-0.08,0.481-0.146,0.548c-0.13,0.152-0.305,0.384-0.524,0.689c-0.219,0.31-0.396,0.544-0.536,0.707
							c-0.136,0.164-0.347,0.343-0.629,0.537c-0.285,0.193-0.608,0.346-0.973,0.459c-1.047,0.344-1.946,0.095-2.688-0.754
							c-0.743-0.848-1.171-2.013-1.275-3.497c-0.004-0.15,0.011-0.385,0.039-0.703c0.027-0.317,0.037-0.56,0.031-0.732
							c-0.014-0.226-0.06-0.583-0.133-1.076c-0.073-0.491-0.104-0.843-0.1-1.053c0.004-0.229,0.038-0.547,0.102-0.956
							c0.062-0.406,0.102-0.678,0.119-0.812c0.057-0.635,0.107-1.102,0.146-1.402c0.041-0.3,0.128-0.636,0.263-1.007
							c0.136-0.372,0.314-0.623,0.544-0.75c0.816-0.503,1.749-0.423,2.797,0.237c0.153,0.395,0.299,0.832,0.438,1.314
							c0.139,0.483,0.289,1.076,0.451,1.784c0.163,0.707,0.283,1.195,0.36,1.469c0.019,0.111-0.024,0.241-0.126,0.391
							c-0.101,0.146-0.153,0.289-0.152,0.421c0.09,0.479,0.1,1.201,0.025,2.16c-0.077,0.96-0.016,1.711,0.179,2.251
							c0.334-0.049,0.599-0.25,0.793-0.604c0.194-0.352,0.369-0.812,0.534-1.388c0.021-0.098,0.039-0.167,0.054-0.209
							c0.086-0.297,0.233-0.741,0.441-1.331c0.206-0.592,0.339-1.005,0.397-1.242c0.047-0.196,0.084-0.663,0.104-1.396
							c0.026-0.733,0.101-1.242,0.228-1.529c0.176-0.369,0.521-0.669,1.049-0.911c0.523-0.238,0.977-0.272,1.363-0.103
							c0.146,0.072,0.311,0.266,0.498,0.58c0.19,0.313,0.309,0.552,0.351,0.718c0.283,0.867,0.422,2.22,0.421,4.051
							c-0.003,1.832,0.155,3.133,0.48,3.9c0.456-0.125,0.832-0.493,1.129-1.108c0.296-0.613,0.507-0.976,0.621-1.088
							c0.347-1.626,0.894-3.037,1.646-4.232c-0.067-0.957,0.127-1.83,0.578-2.62L427.436,59.627z"/>
						<path fill="#9EF7CD" d="M431.86,65.363c0.384-0.807,0.673-1.312,0.87-1.512c0.052-0.293,0.133-0.604,0.243-0.934
							c0.113-0.33,0.216-0.583,0.303-0.756c0.089-0.174,0.239-0.454,0.459-0.837c0.218-0.384,0.348-0.626,0.39-0.728
							c0.027-0.08,0.074-0.272,0.143-0.576c0.068-0.305,0.113-0.511,0.136-0.62c0.021-0.105,0.078-0.284,0.162-0.534
							c0.085-0.25,0.169-0.436,0.244-0.55c0.077-0.115,0.188-0.251,0.321-0.403c0.141-0.153,0.289-0.281,0.445-0.38
							c0.091,0.102,0.124,0.263,0.1,0.483c-0.022,0.223-0.044,0.373-0.061,0.451s-0.07,0.229-0.159,0.451
							c-0.092,0.223-0.149,0.374-0.176,0.454c-0.024,0.097-0.093,0.327-0.212,0.686l-0.243,0.749
							c-0.046,0.14-0.121,0.36-0.229,0.659c-0.105,0.301-0.199,0.542-0.274,0.726c-0.08,0.181-0.175,0.399-0.287,0.653
							c-0.115,0.256-0.229,0.484-0.339,0.692c-0.111,0.207-0.23,0.404-0.354,0.594c-0.064,0.315-0.165,0.646-0.293,0.997
							c-0.128,0.351-0.297,0.771-0.51,1.257l-0.424,0.975c-0.017,0.022-0.03,0.062-0.039,0.118c-0.353,0.832-0.73,1.344-1.14,1.538
							c-0.033,0.022-0.069,0.038-0.105,0.043c-0.793,0.271-1.647,0.181-2.562-0.271c-0.909-0.454-1.511-1-1.794-1.643
							c-0.084-0.176-0.149-0.452-0.194-0.823c-0.046-0.373-0.1-0.679-0.15-0.917c-0.035-0.109-0.125-0.347-0.264-0.716
							c-0.141-0.366-0.226-0.646-0.253-0.832c-0.058-0.255-0.073-0.614-0.046-1.073c0.024-0.459,0.043-0.736,0.047-0.833
							c-0.007-0.169-0.033-0.424-0.083-0.758c-0.05-0.333-0.086-0.636-0.108-0.907c-0.02-0.271-0.021-0.523,0-0.755
							c0.054-0.786,0.252-2.173,0.593-4.159c0.339-1.986,0.479-3.439,0.416-4.361c0.243-0.417,0.438-1.128,0.578-2.137
							c0.145-1.007,0.312-1.708,0.5-2.097c0.713-0.428,1.439-0.493,2.176-0.195c0.737,0.299,1.282,0.801,1.636,1.508
							c0.351,0.689,0.548,1.198,0.598,1.533c0.035,0.092,0.021,0.262-0.035,0.518c-0.057,0.254-0.087,0.44-0.088,0.554
							c-0.001,0.134,0.041,0.309,0.12,0.524c0.079,0.215,0.128,0.369,0.142,0.462c0.013,0.34-0.093,0.796-0.312,1.371
							c-0.217,0.572-0.337,0.974-0.357,1.207c-0.021,0.135-0.015,0.387,0.013,0.752c0.022,0.367,0.008,0.658-0.056,0.877
							c-0.054,0.161-0.171,0.392-0.354,0.693c-0.182,0.301-0.306,0.553-0.37,0.753c-0.029,0.062-0.057,0.192-0.084,0.396
							c-0.025,0.205-0.049,0.364-0.069,0.482c-0.254,0.835-0.396,1.426-0.421,1.77c-0.014,0.286,0.004,0.782,0.052,1.488
							c0.047,0.704,0.062,1.246,0.044,1.63c-0.012,0.173-0.03,0.479-0.062,0.921c-0.027,0.442-0.042,0.736-0.04,0.888
							c0.005,0.151,0.015,0.374,0.028,0.666c0.016,0.292,0.062,0.538,0.14,0.733c0.075,0.197,0.179,0.399,0.304,0.609
							C431.027,66.686,431.479,66.168,431.86,65.363z M429.943,51.653c-0.028,0.575-0.036,0.983-0.029,1.229
							c0.008,0.245,0.165,0.562,0.469,0.954c0.387-0.721,0.573-1.594,0.565-2.617c-0.011-1.025-0.23-2.017-0.658-2.977
							c-0.187,0.027-0.336,0.074-0.449,0.15c-0.108,0.073-0.188,0.151-0.233,0.235c-0.042,0.083-0.063,0.199-0.062,0.35
							c0.004,0.151,0.022,0.276,0.056,0.375c0.035,0.101,0.08,0.244,0.139,0.438c0.057,0.19,0.09,0.332,0.104,0.426
							C429.939,50.601,429.971,51.079,429.943,51.653z"/>
						<path fill="#9EF7CD" d="M440.22,57.381c-0.2-0.083-0.351-0.199-0.45-0.344c-0.098-0.147-0.225-0.276-0.384-0.387
							c-0.157-0.108-0.329-0.14-0.512-0.093c-0.108,0.033-0.202,0.11-0.28,0.228c-0.077,0.114-0.137,0.274-0.185,0.482
							c-0.045,0.207-0.08,0.412-0.106,0.613c-0.026,0.205-0.046,0.453-0.06,0.75c-0.012,0.294-0.023,0.542-0.032,0.744
							c-0.007,0.199-0.013,0.454-0.015,0.757c-0.003,0.304-0.004,0.514-0.005,0.627c-0.009,0.077-0.017,0.192-0.021,0.345
							c-0.008,0.152-0.009,0.271-0.006,0.355c0.003,0.085,0.006,0.193,0.006,0.326c0.002,0.134,0.014,0.239,0.035,0.323
							c0.021,0.083,0.053,0.165,0.095,0.257c0.042,0.089,0.104,0.155,0.188,0.2c0.083,0.043,0.173,0.077,0.27,0.101
							c0.205-0.03,0.365-0.049,0.478-0.057c0.113-0.007,0.237-0.11,0.381-0.312c0.141-0.202,0.241-0.354,0.301-0.458
							c0.062-0.104,0.146-0.273,0.254-0.508c0.106-0.233,0.175-0.382,0.204-0.442c0.105-0.186,0.245-0.421,0.42-0.704
							c0.179-0.283,0.321-0.53,0.43-0.747c0.111-0.217,0.195-0.452,0.252-0.708c0.034-0.156,0.053-0.381,0.057-0.675
							c0.003-0.297,0.014-0.51,0.032-0.647c0.059-0.235,0.266-0.835,0.612-1.801c0.293-0.973,0.553-1.523,0.777-1.651
							c0.77-0.456,1.688-0.271,2.76,0.555c0.001,0.248,0.034,0.679,0.108,1.294c0.071,0.617,0.104,1.087,0.097,1.411
							c-0.005,0.095-0.042,0.258-0.113,0.484c-0.069,0.23-0.104,0.401-0.107,0.517c-0.023,0.211-0.002,0.522,0.066,0.929
							c0.071,0.407,0.103,0.716,0.096,0.927c0.002,0.264-0.032,0.751-0.108,1.454c-0.078,0.703-0.1,1.271-0.075,1.705
							c0.026,0.679,0.067,1.146,0.124,1.405c0.014,0.092,0.083,0.229,0.205,0.411c0.12,0.18,0.189,0.317,0.204,0.411
							c0.011,0.074,0.003,0.183-0.021,0.329c-0.025,0.147-0.024,0.257,0.005,0.329c0.146,0.338,0.245,0.692,0.301,1.064
							c0.055,0.372-0.036,0.707-0.277,1.009c-0.562,0.16-1.08,0.19-1.549,0.091c-0.476-0.103-0.86-0.287-1.166-0.555
							c-0.308-0.266-0.588-0.648-0.84-1.143c-0.255-0.493-0.453-0.966-0.597-1.419c-0.145-0.453-0.29-0.991-0.44-1.615
							c-0.312,0.067-0.66,0.375-1.043,0.927c-0.384,0.549-0.635,0.872-0.753,0.966c-1.167,0.837-2.233,1.12-3.207,0.848
							c-0.371-0.097-0.88-0.435-1.514-1.014c-0.639-0.577-1.05-1.109-1.236-1.595c-0.137-0.531-0.236-0.948-0.3-1.251
							c-0.064-0.304-0.062-0.694,0.011-1.169c0.071-0.475,0.144-0.847,0.217-1.113c0.077-0.268,0.177-0.619,0.3-1.056
							c0.125-0.437,0.216-0.773,0.275-1.009c0.271-0.229,0.629-0.762,1.071-1.599c0.444-0.835,0.874-1.396,1.288-1.687
							c0.764-0.475,1.484-0.629,2.166-0.466c0.678,0.165,1.283,0.567,1.815,1.21c0.16,0.184,0.293,0.378,0.398,0.581
							c0.106,0.202,0.153,0.428,0.143,0.676c-0.008,0.249-0.127,0.446-0.351,0.593C440.65,57.469,440.423,57.464,440.22,57.381z"/>
					</g>
					<g>
						<path fill="#9EF7CD" d="M364.516,20.84c0.053,0.184,0.248,0.255,0.588,0.217c0.345-0.039,0.523,0.066,0.536,0.317
							c0.151,0.24,0.167,0.428,0.05,0.559c-0.119,0.132-0.288,0.208-0.509,0.228c-0.224,0.019-0.398,0.09-0.536,0.211
							c-0.088,0.083-0.256,0.248-0.495,0.499c-0.24,0.251-0.449,0.415-0.628,0.493c-0.495,0.251-1.595,0.562-3.3,0.938
							c-1.702,0.376-2.719,0.793-3.044,1.251c-0.039,0.464,0.247,1.288,0.859,2.474c-0.146,0.296-0.209,0.701-0.19,1.221
							c0.019,0.517,0.064,0.971,0.146,1.357c0.081,0.388,0.202,0.906,0.37,1.551c0.164,0.646,0.268,1.049,0.312,1.206
							c0.698,0.174,1.941,0.046,3.733-0.381c1.787-0.428,2.847-0.66,3.176-0.693c0.47,1.281,0.021,2.198-1.354,2.751
							c-0.354,0.154-1.153,0.342-2.408,0.562c-1.252,0.223-1.985,0.46-2.195,0.718c-0.134,0.123-0.309,0.517-0.518,1.184
							c-0.211,0.666-0.315,1.154-0.314,1.465c0.01,0.336,0.104,0.854,0.285,1.553c0.181,0.699,0.287,1.213,0.323,1.542
							c0.043,0.864-0.029,1.831-0.212,2.899c0.253,0.496,0.457,1.335,0.617,2.52c0.159,1.187,0.361,2.112,0.603,2.779
							c-0.177,0.783-0.528,1.547-1.058,2.288c-0.528,0.739-1.2,1.322-2.016,1.748c-0.814,0.425-1.694,0.359-2.642-0.198
							c-0.071-0.461-0.325-1.117-0.762-1.971c-0.435-0.855-0.714-1.604-0.838-2.247c-0.082-0.402-0.178-1.124-0.284-2.168
							c-0.105-1.044-0.214-1.862-0.323-2.455c-0.078-0.486-0.259-1.284-0.539-2.392c-0.279-1.111-0.446-1.912-0.499-2.406
							c-0.018-0.164-0.015-0.407,0.01-0.725c0.025-0.317,0.028-0.559,0.012-0.724c-0.117-0.729-0.312-1.729-0.579-2.997
							s-0.44-2.09-0.517-2.464c-0.084-0.4-0.21-0.931-0.38-1.591c-0.169-0.66-0.295-1.189-0.379-1.59
							c-0.079-0.487-0.14-1.162-0.184-2.026c-0.043-0.864-0.103-1.484-0.178-1.859c-0.055-0.295-0.176-0.733-0.367-1.316
							c-0.19-0.582-0.332-1.044-0.428-1.387c-0.095-0.341-0.075-0.706,0.056-1.097c0.131-0.389,0.409-0.686,0.831-0.889
							c1.36-0.604,3.302-0.438,5.822,0.5c3.459-0.569,6.2-1.232,8.222-1.992C363.725,20.382,364.098,20.56,364.516,20.84z"/>
						<path fill="#9EF7CD" d="M375.902,41.179c0.193-0.124,0.374-0.309,0.547-0.554c0.171-0.247,0.297-0.429,0.377-0.551
							c0.078-0.121,0.202-0.367,0.367-0.738s0.254-0.586,0.265-0.646c1.508-3.416,2.451-5.613,2.828-6.596
							c0.013-0.061,0.044-0.167,0.101-0.325c0.057-0.156,0.102-0.268,0.142-0.335c0.037-0.066,0.082-0.179,0.139-0.335
							c0.055-0.157,0.103-0.269,0.139-0.336l0.171-0.302c0.076-0.133,0.142-0.237,0.19-0.307c0.051-0.071,0.117-0.16,0.2-0.269
							c0.083-0.109,0.166-0.194,0.247-0.259c0.079-0.065,0.169-0.126,0.267-0.18c0.1-0.059,0.199-0.1,0.305-0.129
							c0.129,0.36,0.178,0.735,0.145,1.126c-0.032,0.391-0.098,0.712-0.197,0.967c-0.099,0.253-0.263,0.608-0.486,1.068
							c-0.229,0.458-0.373,0.768-0.441,0.929c-0.824,1.812-1.308,3.119-1.452,3.923c-0.256,0.297-0.466,0.631-0.633,1.003
							c-0.164,0.37-0.337,0.836-0.521,1.396c-0.186,0.56-0.32,0.937-0.407,1.13c-0.511,0.396-1.175,1.36-1.993,2.889
							c-0.817,1.525-1.639,2.491-2.461,2.889c-0.494,0.25-0.98,0.387-1.456,0.406c-0.806,0.054-1.72-0.439-2.744-1.484
							c-1.025-1.042-1.657-2.194-1.896-3.457c-0.029-0.104-0.024-0.318,0.013-0.64c0.038-0.322,0.045-0.577,0.02-0.769
							c-0.018-0.166-0.073-0.368-0.171-0.609c-0.094-0.243-0.147-0.434-0.158-0.571c-0.041-0.553,0.013-1.381,0.159-2.481
							c0.146-1.101,0.216-1.863,0.21-2.285c0.01-0.171,0.01-0.575,0.003-1.209c-0.007-0.636,0-1.116,0.022-1.447
							c0.02-0.332,0.082-0.709,0.191-1.136c0.107-0.425,0.262-0.736,0.461-0.934c0.707-0.705,1.577-0.933,2.606-0.683
							c1.031,0.25,1.748,0.743,2.15,1.479c0.243,0.47,0.509,1.625,0.796,3.468c0.449,2.221,0.689,3.751,0.727,4.589
							c0.011,0.139-0.015,0.428-0.077,0.869c-0.061,0.44-0.046,0.797,0.044,1.069c0.09,0.271,0.294,0.476,0.616,0.612
							C375.494,41.384,375.712,41.303,375.902,41.179z M370.963,19.702c0.567,0.054,1.182,0.301,1.839,0.738
							c0.593,0.4,0.934,0.766,1.024,1.093c0.09,0.327,0.099,0.913,0.021,1.754c-0.008,0.173,0.004,0.394,0.037,0.668
							c0.034,0.271,0.048,0.501,0.045,0.688c-0.006,0.186-0.047,0.346-0.122,0.479c-0.118,0.288-0.405,0.622-0.864,1.004
							c-0.458,0.381-0.82,0.609-1.081,0.682c-0.657,0.184-1.542,0.048-2.658-0.405c-0.606-0.254-1.233-0.603-1.881-1.045
							c-0.646-0.44-1.021-0.847-1.121-1.213c-0.13-0.358-0.073-0.87,0.167-1.53c0.241-0.66,0.516-1.146,0.823-1.458
							c0.381-0.361,0.948-0.703,1.704-1.026C369.71,19.79,370.398,19.647,370.963,19.702z"/>
						<path fill="#9EF7CD" d="M388.763,38.405c0.409-1.229,0.735-2.007,0.986-2.329c0.021-0.432,0.082-0.895,0.185-1.39
							c0.104-0.494,0.199-0.875,0.297-1.142c0.097-0.268,0.267-0.696,0.512-1.287c0.246-0.591,0.39-0.964,0.432-1.116
							c0.023-0.12,0.057-0.403,0.104-0.854c0.044-0.45,0.069-0.755,0.084-0.914c0.012-0.158,0.057-0.426,0.138-0.801
							c0.078-0.377,0.162-0.654,0.254-0.833c0.092-0.183,0.224-0.396,0.396-0.642c0.171-0.246,0.359-0.453,0.565-0.624
							c0.15,0.127,0.227,0.354,0.232,0.677c0.004,0.324,0.002,0.542-0.01,0.659c-0.01,0.115-0.06,0.342-0.149,0.679
							c-0.089,0.335-0.146,0.562-0.169,0.683c-0.016,0.146-0.076,0.487-0.182,1.026l-0.219,1.12
							c-0.041,0.209-0.109,0.54-0.212,0.992c-0.101,0.453-0.188,0.816-0.268,1.092c-0.079,0.276-0.18,0.607-0.297,0.994
							s-0.239,0.738-0.362,1.056c-0.124,0.316-0.259,0.623-0.403,0.917c-0.04,0.464-0.121,0.959-0.239,1.487
							c-0.123,0.528-0.294,1.162-0.513,1.902l-0.436,1.478c-0.02,0.033-0.031,0.095-0.034,0.18
							c-0.358,1.259-0.812,2.062-1.363,2.416c-0.046,0.04-0.095,0.066-0.146,0.083c-1.097,0.531-2.34,0.553-3.734,0.063
							c-1.395-0.487-2.354-1.167-2.877-2.039c-0.152-0.24-0.295-0.625-0.428-1.152c-0.135-0.528-0.261-0.959-0.383-1.293
							c-0.069-0.15-0.238-0.479-0.506-0.982c-0.268-0.506-0.438-0.89-0.512-1.151c-0.129-0.358-0.216-0.873-0.259-1.537
							c-0.044-0.667-0.071-1.069-0.082-1.208c-0.038-0.243-0.123-0.601-0.255-1.072c-0.131-0.474-0.237-0.902-0.318-1.291
							c-0.078-0.388-0.123-0.749-0.132-1.086c-0.063-1.143-0.026-3.171,0.106-6.093c0.136-2.921,0.074-5.037-0.18-6.353
							c0.274-0.641,0.425-1.702,0.451-3.179s0.141-2.514,0.344-3.106c0.951-0.745,1.985-0.969,3.1-0.672
							c1.113,0.298,1.987,0.925,2.621,1.879c0.625,0.928,1.004,1.629,1.137,2.102c0.062,0.124,0.077,0.375,0.04,0.751
							c-0.038,0.377-0.047,0.648-0.028,0.813c0.024,0.191,0.114,0.436,0.268,0.73c0.153,0.298,0.248,0.51,0.283,0.642
							c0.079,0.487,0.013,1.163-0.198,2.028c-0.212,0.864-0.312,1.464-0.306,1.801c0.001,0.198,0.051,0.559,0.155,1.081
							c0.103,0.521,0.127,0.947,0.076,1.271c-0.047,0.239-0.173,0.595-0.382,1.062c-0.21,0.468-0.343,0.852-0.402,1.151
							c-0.03,0.093-0.046,0.288-0.048,0.586c-0.002,0.296-0.009,0.531-0.017,0.704c-0.217,1.247-0.313,2.121-0.287,2.622
							c0.03,0.416,0.145,1.126,0.339,2.133c0.194,1.006,0.315,1.785,0.354,2.339c0.015,0.251,0.039,0.695,0.077,1.336
							c0.034,0.639,0.07,1.066,0.104,1.285c0.029,0.217,0.082,0.536,0.157,0.953c0.074,0.417,0.185,0.76,0.329,1.031
							c0.146,0.271,0.328,0.545,0.549,0.822C387.804,40.46,388.357,39.633,388.763,38.405z M383.559,19.016
							c0.062,0.831,0.118,1.422,0.178,1.773c0.055,0.353,0.337,0.782,0.845,1.291c0.426-1.108,0.542-2.397,0.343-3.868
							c-0.196-1.472-0.688-2.86-1.477-4.168c-0.264,0.073-0.469,0.173-0.615,0.299c-0.151,0.125-0.251,0.253-0.3,0.38
							c-0.049,0.126-0.058,0.298-0.024,0.516c0.032,0.218,0.083,0.394,0.147,0.531c0.065,0.138,0.155,0.338,0.273,0.604
							c0.115,0.263,0.19,0.462,0.228,0.593C383.362,17.501,383.496,18.185,383.559,19.016z"/>
						<path fill="#9EF7CD" d="M399.452,25.317c0.207-0.227,0.37-0.448,0.493-0.667c0.123-0.216,0.272-0.513,0.453-0.888
							c0.177-0.375,0.323-0.663,0.438-0.864c0.095-0.167,0.271-0.526,0.525-1.079c0.256-0.552,0.489-0.982,0.699-1.297
							c0.209-0.312,0.418-0.555,0.624-0.725c0.564-0.412,1.227-0.623,1.985-0.637c0.761-0.015,1.378,0.224,1.854,0.713
							c1.021,3.164,1.384,5.988,1.086,8.475c0.389,1.191,0.61,2.91,0.673,5.154c0.06,2.245,0.379,4.007,0.961,5.287
							c0.5-0.141,0.946-0.666,1.342-1.582c0.396-0.917,0.715-1.492,0.959-1.729c0.089-0.9,0.341-2.234,0.751-4.004
							c0.412-1.768,0.668-3.033,0.77-3.797c0.075-0.53,0.234-1.26,0.471-2.187c0.237-0.93,0.395-1.603,0.477-2.02
							c0.024-0.121,0.056-0.438,0.095-0.958c0.04-0.521,0.118-0.917,0.239-1.19c0.124-0.273,0.316-0.491,0.584-0.649
							c0.25-0.014,0.409,0.049,0.477,0.186c0.063,0.138,0.065,0.342,0.001,0.614c-0.065,0.272-0.104,0.439-0.115,0.498
							c-0.008,0.992-0.104,2.086-0.296,3.284c-0.189,1.197-0.355,2.099-0.498,2.702c-0.143,0.604-0.408,1.627-0.801,3.063
							l-0.518,1.798c-0.229,0.801-0.431,1.526-0.602,2.183c-0.17,0.655-0.292,1.26-0.362,1.816
							c-0.396,0.508-0.823,1.383-1.282,2.625c-0.461,1.246-0.963,2.101-1.514,2.563c-0.699,0.534-1.406,0.865-2.119,0.994
							c-0.715,0.127-1.345,0.068-1.894-0.173c-0.896-0.374-1.719-1.31-2.479-2.809c-0.756-1.5-1.197-3.094-1.331-4.78
							c-0.039-0.556-0.016-1.657,0.077-3.309c0.093-1.65,0.007-2.793-0.256-3.426c-0.655,0.379-1.233,1.347-1.735,2.897
							c-0.343,1-0.594,2.485-0.754,4.451c-0.108,1.132-0.115,2.123-0.02,2.974c-0.327,0.656-0.657,1.094-0.992,1.314
							c-0.335,0.22-1.02,0.348-2.057,0.381c-0.799-0.03-1.573-0.247-2.321-0.646c-0.746-0.398-1.263-0.912-1.55-1.539
							c-0.134-0.274-0.236-0.642-0.307-1.103c-0.072-0.461-0.144-1.035-0.206-1.725c-0.063-0.689-0.109-1.184-0.139-1.488
							l-1.165-10.272c-0.049-0.383-0.076-0.912-0.081-1.59c-0.004-0.677-0.014-1.141-0.024-1.391
							c-0.023-0.39-0.116-0.922-0.276-1.599s-0.254-1.166-0.282-1.469c-0.023-0.191-0.028-0.465-0.016-0.822
							c0.012-0.357,0.015-0.604,0.004-0.743c-0.068-0.349-0.207-0.975-0.417-1.876c-0.207-0.904-0.356-1.612-0.44-2.125
							c-0.279-2.014-0.318-3.175-0.123-3.484c0.439-0.546,1.039-0.854,1.798-0.924c0.758-0.07,1.43,0.025,2.011,0.288
							c0.675,0.293,1.695,1.421,3.062,3.387c0.104,0.169,0.263,0.38,0.475,0.632c0.212,0.251,0.345,0.427,0.399,0.523
							c0.129,0.36,0.202,0.912,0.229,1.653c0.023,0.743,0.057,1.25,0.104,1.519c0.065,0.435,0.237,1.029,0.519,1.785
							c0.283,0.754,0.463,1.277,0.544,1.566c0.098,0.453,0.196,1.492,0.295,3.118s0.388,2.839,0.865,3.639
							C399.032,25.717,399.248,25.544,399.452,25.317z"/>
						<path fill="#9EF7CD" d="M420.903,19.433c-0.307-0.084-0.543-0.225-0.709-0.418c-0.168-0.192-0.374-0.354-0.622-0.484
							c-0.25-0.129-0.499-0.144-0.756-0.045c-0.149,0.072-0.271,0.197-0.36,0.377c-0.092,0.182-0.152,0.424-0.18,0.729
							c-0.028,0.304-0.044,0.604-0.046,0.903c-0.002,0.297,0.014,0.66,0.049,1.087c0.033,0.43,0.063,0.789,0.09,1.079
							c0.022,0.291,0.062,0.652,0.111,1.092c0.053,0.438,0.088,0.739,0.104,0.904c0.004,0.11,0.016,0.276,0.033,0.5
							c0.02,0.221,0.039,0.391,0.058,0.514c0.021,0.122,0.043,0.278,0.067,0.469c0.023,0.191,0.06,0.343,0.105,0.457
							c0.046,0.117,0.105,0.232,0.185,0.354c0.077,0.12,0.177,0.206,0.304,0.255c0.125,0.049,0.263,0.083,0.408,0.098
							c0.289-0.081,0.514-0.136,0.675-0.167c0.162-0.03,0.325-0.204,0.49-0.517c0.169-0.316,0.286-0.554,0.354-0.714
							c0.069-0.161,0.16-0.419,0.272-0.774c0.113-0.357,0.184-0.582,0.214-0.675c0.12-0.288,0.28-0.65,0.48-1.088
							c0.204-0.438,0.367-0.823,0.485-1.152c0.12-0.331,0.199-0.685,0.236-1.062c0.02-0.231,0.006-0.561-0.04-0.983
							c-0.05-0.425-0.073-0.737-0.072-0.937c0.044-0.351,0.232-1.251,0.564-2.699c0.242-1.454,0.519-2.294,0.824-2.521
							c1.022-0.793,2.38-0.689,4.07,0.31c0.042,0.355,0.17,0.97,0.384,1.842c0.217,0.874,0.348,1.544,0.393,2.013
							c0.011,0.138-0.016,0.378-0.074,0.72c-0.062,0.343-0.081,0.595-0.065,0.76c0.001,0.311,0.089,0.753,0.264,1.326
							c0.176,0.573,0.275,1.013,0.305,1.315c0.048,0.381,0.082,1.084,0.101,2.112c0.018,1.025,0.082,1.849,0.198,2.467
							c0.158,0.974,0.3,1.641,0.431,2c0.036,0.131,0.157,0.315,0.364,0.556c0.208,0.238,0.331,0.423,0.368,0.556
							c0.029,0.104,0.038,0.264,0.026,0.479c-0.012,0.214,0.012,0.371,0.066,0.468c0.271,0.462,0.479,0.957,0.624,1.481
							c0.146,0.524,0.074,1.024-0.218,1.502c-0.783,0.33-1.524,0.466-2.218,0.406c-0.696-0.062-1.288-0.258-1.775-0.588
							c-0.488-0.33-0.959-0.828-1.412-1.494c-0.453-0.665-0.826-1.312-1.111-1.938c-0.288-0.626-0.597-1.375-0.92-2.246
							c-0.441,0.151-0.887,0.656-1.34,1.518c-0.451,0.859-0.758,1.37-0.909,1.524c-1.529,1.415-3.017,2.014-4.462,1.794
							c-0.558-0.071-1.346-0.467-2.366-1.187c-1.021-0.718-1.706-1.412-2.062-2.076c-0.29-0.739-0.509-1.32-0.656-1.747
							c-0.146-0.425-0.211-0.986-0.19-1.684c0.015-0.698,0.055-1.245,0.112-1.643c0.059-0.398,0.14-0.922,0.241-1.573
							c0.102-0.649,0.175-1.151,0.219-1.502c0.346-0.379,0.766-1.21,1.257-2.489c0.49-1.282,1.007-2.167,1.549-2.658
							c1.016-0.82,2.027-1.172,3.036-1.057c1.007,0.114,1.949,0.588,2.83,1.417c0.266,0.236,0.492,0.491,0.68,0.764
							c0.188,0.272,0.3,0.589,0.325,0.948c0.03,0.358-0.104,0.666-0.399,0.917C421.539,19.481,421.209,19.516,420.903,19.433z"/>
						<path fill="#9EF7CD" d="M441.448,22.934c0.09,0.272,0.092,0.816,0.009,1.63c-0.507,3.362-1.844,5.006-4.011,4.933
							c-0.317-0.024-0.724-0.152-1.21-0.385c-0.487-0.23-0.849-0.456-1.078-0.675c-0.605-0.651-1.034-1.606-1.285-2.864
							c-0.253-1.259-0.218-2.229,0.102-2.912c0.771-1.6,2.993-1.935,6.674-1.01C441.092,22.235,441.355,22.663,441.448,22.934z
							 M438.661,16.12c-0.189,0.689-0.437,1.204-0.736,1.541c-0.301,0.34-0.767,0.497-1.395,0.473
							c-0.979-0.066-1.707-0.853-2.184-2.361c-0.286-0.823-0.76-3.334-1.421-7.531c-0.668-4.534-0.553-7.677,0.349-9.424
							c0.63-0.374,1.638-0.429,3.024-0.165c1.389,0.265,2.226,0.653,2.51,1.167c0.229,0.418,0.323,1.139,0.284,2.168
							c-0.038,1.028-0.056,1.598-0.055,1.711c0.029,0.303,0.103,0.792,0.219,1.466s0.184,1.191,0.2,1.555
							c0.01,0.647-0.049,1.93-0.18,3.845c-0.131,1.916-0.178,3.308-0.133,4.171C439.013,14.971,438.854,15.432,438.661,16.12z"/>
					</g>
					<g>
						<path fill="#9EF7CD" d="M403.93,94.146c-0.226-0.102-0.389-0.238-0.492-0.405c-0.104-0.172-0.244-0.318-0.422-0.45
							c-0.171-0.13-0.361-0.17-0.571-0.127c-0.123,0.035-0.229,0.117-0.323,0.245c-0.09,0.125-0.166,0.304-0.229,0.535
							c-0.058,0.229-0.107,0.461-0.146,0.686c-0.037,0.229-0.071,0.513-0.096,0.845c-0.026,0.334-0.051,0.612-0.066,0.839
							c-0.019,0.224-0.035,0.51-0.048,0.854c-0.014,0.34-0.025,0.578-0.03,0.707c-0.014,0.085-0.026,0.214-0.038,0.387
							c-0.013,0.171-0.018,0.304-0.019,0.402c0.001,0.093,0,0.217-0.009,0.365c-0.002,0.149,0.006,0.271,0.026,0.366
							c0.021,0.094,0.056,0.189,0.097,0.293c0.043,0.103,0.11,0.179,0.202,0.231c0.092,0.054,0.192,0.094,0.303,0.125
							c0.23-0.025,0.411-0.04,0.536-0.042c0.129-0.003,0.276-0.117,0.443-0.338c0.167-0.224,0.287-0.39,0.357-0.505
							c0.071-0.114,0.175-0.302,0.305-0.562c0.132-0.26,0.213-0.422,0.247-0.491c0.129-0.207,0.296-0.464,0.505-0.775
							c0.211-0.312,0.38-0.587,0.516-0.827c0.133-0.238,0.235-0.5,0.311-0.785c0.046-0.176,0.074-0.427,0.089-0.759
							c0.017-0.334,0.038-0.573,0.062-0.729c0.076-0.264,0.334-0.932,0.765-2.005c0.367-1.084,0.682-1.693,0.945-1.83
							c0.88-0.479,1.91-0.236,3.086,0.739c-0.013,0.276,0.012,0.763,0.067,1.46c0.059,0.698,0.075,1.23,0.054,1.592
							c-0.01,0.109-0.059,0.29-0.146,0.544c-0.088,0.258-0.137,0.448-0.144,0.576c-0.038,0.24-0.024,0.59,0.039,1.051
							c0.062,0.461,0.083,0.81,0.068,1.046c-0.01,0.3-0.068,0.846-0.184,1.636c-0.113,0.79-0.164,1.428-0.152,1.916
							c0.001,0.77,0.028,1.297,0.085,1.591c0.012,0.104,0.08,0.26,0.212,0.471s0.202,0.365,0.213,0.475
							c0.011,0.082-0.002,0.206-0.036,0.367c-0.035,0.167-0.038,0.288-0.009,0.369c0.152,0.389,0.25,0.793,0.296,1.213
							c0.049,0.424-0.067,0.799-0.35,1.127c-0.643,0.157-1.229,0.173-1.754,0.037c-0.526-0.133-0.957-0.355-1.289-0.667
							c-0.333-0.313-0.636-0.756-0.9-1.322c-0.267-0.566-0.473-1.107-0.615-1.625c-0.145-0.515-0.286-1.13-0.432-1.838
							c-0.354,0.063-0.758,0.396-1.214,1.003c-0.453,0.604-0.749,0.958-0.887,1.057c-1.346,0.898-2.562,1.174-3.644,0.826
							c-0.422-0.123-0.977-0.523-1.671-1.202c-0.695-0.676-1.137-1.292-1.327-1.847c-0.131-0.603-0.229-1.078-0.287-1.422
							c-0.062-0.345-0.041-0.784,0.06-1.317c0.1-0.533,0.196-0.947,0.29-1.246c0.096-0.298,0.221-0.691,0.38-1.178
							c0.157-0.487,0.273-0.861,0.353-1.125c0.312-0.247,0.736-0.835,1.269-1.759c0.538-0.921,1.042-1.54,1.521-1.849
							c0.88-0.501,1.7-0.649,2.46-0.435c0.757,0.211,1.426,0.689,1.999,1.435c0.172,0.214,0.315,0.44,0.428,0.671
							c0.111,0.231,0.154,0.487,0.133,0.769c-0.021,0.279-0.162,0.498-0.421,0.652C404.409,94.261,404.154,94.247,403.93,94.146z"/>
						<path fill="#9EF7CD" d="M425.507,89.011c0.589-0.351,1.03-0.557,1.321-0.611c1.021-0.199,1.805-0.148,2.352,0.151
							c0.386,0.212,0.696,0.519,0.934,0.917c0.235,0.401,0.469,0.9,0.697,1.504c0.229,0.603,0.435,1.065,0.618,1.384
							c0.641,0.013,1.446-0.303,2.419-0.941c0.974-0.644,1.731-0.977,2.283-0.996c0.09,0.226,0.031,0.457-0.178,0.694
							c-0.206,0.234-0.465,0.401-0.774,0.501c-0.347,0.486-1.045,0.974-2.088,1.464c-1.041,0.492-1.726,0.979-2.056,1.463
							c-0.161,0.253-0.296,0.667-0.4,1.243c-0.105,0.576-0.233,0.97-0.38,1.176c-0.367,0.533-0.883,1.049-1.552,1.551
							c-0.427,0.367-1.239,0.713-2.438,1.042c-0.438,0.091-0.883,0.299-1.337,0.629c-0.453,0.327-0.725,0.657-0.814,0.986
							c-0.025,0.133-0.023,0.34,0.008,0.623c0.031,0.285,0.041,0.469,0.031,0.555c-0.064,0.948-0.232,2.021-0.499,3.22
							c-0.271,1.204-0.601,2.072-0.989,2.605c-0.109,0.139-0.344,0.374-0.701,0.702c-0.357,0.326-0.605,0.532-0.747,0.611
							c-0.72,0.422-1.425,0.47-2.123,0.144c-0.062-0.165-0.188-0.42-0.377-0.773c-0.187-0.352-0.304-0.631-0.35-0.838
							c-0.059-0.336-0.044-0.923,0.041-1.763c0.09-0.84,0.125-1.398,0.114-1.674c-0.016-0.146-0.053-0.42-0.106-0.819
							c-0.056-0.4-0.085-0.692-0.083-0.885c-0.014-0.297,0.018-0.761,0.099-1.386c0.078-0.625,0.129-1.025,0.15-1.199
							c0.014-0.086-0.004-0.239-0.052-0.458c-0.043-0.217-0.062-0.381-0.056-0.489c0-0.193,0.056-0.479,0.16-0.864
							c0.105-0.387,0.156-0.674,0.156-0.864c0.008-0.129,0.003-0.326-0.019-0.591c-0.019-0.264-0.015-0.462,0.017-0.593
							c0.005-0.128,0.051-0.329,0.138-0.606c0.085-0.274,0.134-0.466,0.144-0.575c0.022-0.172,0.017-0.423-0.021-0.747
							c-0.035-0.328-0.055-0.575-0.054-0.746c0.027-0.15,0.079-0.352,0.157-0.608c0.075-0.254,0.129-0.454,0.152-0.607
							c0.032-0.493,0.032-1.149,0.004-1.966c-0.028-0.818-0.032-1.509-0.012-2.074c0.021-0.567,0.101-1.009,0.236-1.322
							c0.242-0.498,0.701-0.813,1.377-0.954c0.68-0.141,1.266-0.049,1.771,0.278c0.09,0.205,0.323,0.63,0.707,1.28
							c0.381,0.648,0.613,1.234,0.693,1.76C424.444,89.545,424.921,89.367,425.507,89.011z M424.778,98.84
							c0.091,0.043,0.176,0.066,0.262,0.068c0.086,0.003,0.155-0.002,0.209-0.008c0.051-0.007,0.119-0.033,0.198-0.087l0.177-0.116
							c0.04-0.022,0.11-0.083,0.202-0.18c0.098-0.098,0.164-0.169,0.2-0.217c0.925-0.87,1.274-1.548,1.051-2.034
							c-0.58,0.149-1.038,0.297-1.373,0.442c-0.333,0.143-0.633,0.382-0.896,0.71c-0.26,0.326-0.375,0.744-0.336,1.25
							C424.584,98.74,424.688,98.799,424.778,98.84z M427.148,91.241c-1.168-0.146-1.955,0.314-2.368,1.386
							c-0.413,1.067-0.407,2.154,0.017,3.258c0.475-0.163,0.816-0.28,1.029-0.358c0.215-0.075,0.521-0.208,0.915-0.39
							c0.396-0.184,0.696-0.383,0.905-0.598c0.213-0.215,0.354-0.467,0.428-0.749C428.297,92.91,427.988,92.064,427.148,91.241z"/>
						<path fill="#9EF7CD" d="M440.747,89.997c-0.224-0.103-0.388-0.24-0.492-0.406c-0.104-0.172-0.242-0.321-0.419-0.452
							c-0.174-0.13-0.365-0.171-0.573-0.128c-0.122,0.036-0.229,0.12-0.321,0.247c-0.093,0.125-0.17,0.304-0.229,0.535
							c-0.061,0.23-0.109,0.461-0.146,0.687c-0.037,0.229-0.071,0.511-0.096,0.846c-0.026,0.332-0.051,0.61-0.067,0.838
							c-0.017,0.224-0.033,0.509-0.05,0.854c-0.013,0.34-0.023,0.578-0.028,0.705c-0.013,0.087-0.024,0.214-0.036,0.389
							c-0.015,0.172-0.021,0.305-0.021,0.401c0.002,0.094,0,0.218-0.006,0.367c-0.002,0.148,0.006,0.27,0.027,0.364
							c0.019,0.095,0.053,0.19,0.095,0.292c0.045,0.102,0.112,0.181,0.202,0.231c0.092,0.057,0.192,0.097,0.302,0.125
							c0.232-0.023,0.411-0.041,0.538-0.044c0.129-0.002,0.275-0.116,0.444-0.338c0.167-0.22,0.286-0.386,0.355-0.502
							c0.073-0.115,0.177-0.302,0.305-0.564c0.131-0.258,0.214-0.421,0.248-0.488c0.129-0.205,0.295-0.464,0.504-0.777
							c0.21-0.312,0.381-0.586,0.515-0.827c0.133-0.235,0.236-0.498,0.312-0.783c0.043-0.177,0.071-0.43,0.089-0.76
							c0.016-0.334,0.036-0.575,0.061-0.727c0.077-0.267,0.334-0.933,0.767-2.004c0.368-1.084,0.681-1.695,0.944-1.833
							c0.881-0.48,1.909-0.234,3.086,0.739c-0.01,0.278,0.013,0.767,0.069,1.463c0.058,0.697,0.074,1.229,0.051,1.592
							c-0.007,0.107-0.057,0.291-0.146,0.543c-0.087,0.258-0.138,0.448-0.145,0.577c-0.036,0.236-0.021,0.587,0.04,1.049
							c0.063,0.46,0.086,0.811,0.069,1.048c-0.009,0.299-0.069,0.845-0.184,1.635s-0.165,1.428-0.152,1.916
							c0.002,0.768,0.03,1.297,0.086,1.591c0.01,0.104,0.081,0.26,0.213,0.472c0.129,0.208,0.2,0.364,0.211,0.471
							c0.01,0.085-0.003,0.208-0.037,0.371c-0.034,0.166-0.035,0.288-0.007,0.369c0.151,0.387,0.251,0.792,0.298,1.212
							c0.048,0.422-0.07,0.796-0.354,1.125c-0.643,0.158-1.228,0.17-1.753,0.038c-0.527-0.131-0.957-0.354-1.29-0.667
							c-0.333-0.315-0.633-0.756-0.899-1.322c-0.265-0.566-0.472-1.107-0.614-1.625c-0.143-0.517-0.287-1.13-0.431-1.837
							c-0.356,0.062-0.761,0.396-1.215,1c-0.453,0.604-0.75,0.96-0.887,1.06c-1.349,0.896-2.562,1.173-3.646,0.824
							c-0.419-0.121-0.975-0.521-1.669-1.201c-0.696-0.678-1.137-1.293-1.329-1.847c-0.131-0.603-0.228-1.078-0.285-1.422
							c-0.061-0.343-0.041-0.784,0.059-1.317c0.099-0.532,0.198-0.949,0.291-1.248c0.094-0.296,0.221-0.688,0.38-1.177
							c0.158-0.488,0.272-0.863,0.351-1.125c0.312-0.25,0.738-0.834,1.271-1.757c0.536-0.921,1.042-1.54,1.52-1.85
							c0.88-0.504,1.701-0.647,2.458-0.436c0.759,0.213,1.426,0.69,2,1.438c0.171,0.213,0.318,0.438,0.429,0.671
							c0.109,0.229,0.153,0.487,0.133,0.766c-0.021,0.279-0.162,0.497-0.419,0.654C441.229,90.11,440.973,90.097,440.747,89.997z"/>
						<path fill="#9EF7CD" d="M457.383,81.522c0.684-0.088,1.286-0.112,1.813-0.074c0.526,0.033,0.86,0.246,1.012,0.634
							c-0.353,0.272-1.066,0.542-2.144,0.803c-1.079,0.258-1.796,0.536-2.146,0.832c-0.188,0.425-0.265,1.152-0.234,2.185
							c0.032,1.029,0.027,1.736-0.014,2.125c-0.022,0.194-0.08,0.479-0.177,0.853c-0.098,0.37-0.154,0.667-0.175,0.882
							c-0.029,0.662-0.021,1.302,0.026,1.915c-0.298,0.584-0.495,1.235-0.596,1.951c-0.104,0.714-0.013,1.353,0.263,1.921
							c0.651-0.458,1.117-0.793,1.392-1.005c0.271-0.212,0.619-0.543,1.038-0.997c0.418-0.45,0.728-0.901,0.935-1.35
							c0.423-0.218,0.916-0.711,1.479-1.478c0.565-0.767,1.134-1.245,1.709-1.438c0.027,0.254,0.062,0.43,0.107,0.532
							c0.043,0.102,0.002,0.271-0.119,0.509c-0.126,0.236-0.212,0.394-0.267,0.476c-0.056,0.083-0.165,0.228-0.332,0.438
							l-0.31,0.387c-0.093,0.137-0.332,0.431-0.718,0.879c-0.387,0.449-0.639,0.815-0.754,1.107
							c-0.504,0.44-1.002,0.934-1.495,1.477c-0.492,0.548-1.021,1.173-1.595,1.875c-0.571,0.704-1.024,1.245-1.366,1.624
							c-0.204,0.066-0.483,0.211-0.846,0.43c-0.358,0.224-0.646,0.357-0.852,0.401c-0.835,0.138-1.597-0.118-2.289-0.766
							c-0.691-0.646-1.105-1.397-1.246-2.256c-0.035-0.123-0.024-0.279,0.027-0.466c0.054-0.188,0.075-0.324,0.066-0.409
							c0.012-0.085-0.016-0.205-0.071-0.356c-0.062-0.152-0.097-0.273-0.104-0.357c-0.021-0.188-0.008-0.482,0.043-0.884
							c0.052-0.399,0.08-0.672,0.085-0.821c0.007-1.26,0.026-2.008,0.064-2.246c0.027-0.15,0.078-0.359,0.151-0.625
							c0.079-0.264,0.121-0.459,0.126-0.59c0.029-0.131,0.027-0.343-0.006-0.638c-0.033-0.293-0.038-0.507-0.009-0.636
							c0.005-0.15,0.097-0.697,0.277-1.648c0.18-0.945,0.224-1.656,0.125-2.137c-0.151-0.025-0.424-0.036-0.815-0.036
							c-0.396,0.002-0.699-0.011-0.917-0.041c-0.215-0.029-0.438-0.104-0.665-0.229c-0.228-0.123-0.386-0.307-0.479-0.552
							c0.129-0.375,0.639-0.644,1.524-0.795c0.889-0.153,1.438-0.326,1.655-0.521c0.104-0.736,0.248-1.638,0.427-2.702
							c0.618-0.562,1.271-0.855,1.961-0.893c0.688-0.036,1.328,0.202,1.915,0.709c0.594,0.511,0.935,1.165,1.021,1.963
							C456.202,81.596,456.7,81.61,457.383,81.522z M462.588,88.444c-0.054,0.082-0.168,0.121-0.338,0.119
							c-0.04-0.167-0.032-0.289,0.021-0.37c0.057-0.079,0.17-0.119,0.339-0.118C462.65,88.241,462.643,88.365,462.588,88.444z"/>
						<path fill="#9EF7CD" d="M467.597,86.968c-0.227-0.101-0.387-0.236-0.496-0.405c-0.101-0.169-0.24-0.318-0.415-0.449
							c-0.172-0.131-0.365-0.173-0.573-0.129c-0.123,0.036-0.232,0.119-0.323,0.247c-0.093,0.126-0.167,0.307-0.229,0.538
							c-0.059,0.229-0.108,0.459-0.145,0.686c-0.039,0.229-0.071,0.509-0.098,0.842c-0.027,0.333-0.049,0.613-0.064,0.841
							c-0.018,0.222-0.035,0.509-0.051,0.851c-0.014,0.341-0.024,0.577-0.029,0.708c-0.015,0.087-0.025,0.214-0.039,0.386
							c-0.013,0.171-0.017,0.307-0.018,0.403c0,0.095-0.001,0.218-0.007,0.367c-0.004,0.15,0.006,0.271,0.023,0.364
							c0.022,0.095,0.058,0.191,0.099,0.292c0.043,0.102,0.111,0.18,0.203,0.233s0.191,0.096,0.301,0.125
							c0.229-0.027,0.413-0.04,0.538-0.044c0.13-0.002,0.274-0.115,0.441-0.339c0.167-0.223,0.285-0.386,0.356-0.505
							c0.072-0.11,0.176-0.299,0.306-0.561c0.131-0.258,0.214-0.423,0.249-0.49c0.125-0.206,0.295-0.465,0.503-0.775
							c0.21-0.312,0.383-0.587,0.515-0.826c0.135-0.238,0.236-0.5,0.312-0.787c0.046-0.174,0.074-0.428,0.09-0.758
							c0.017-0.335,0.038-0.576,0.062-0.73c0.075-0.26,0.333-0.93,0.765-2.002c0.367-1.087,0.682-1.695,0.944-1.831
							c0.883-0.481,1.913-0.236,3.086,0.739c-0.013,0.274,0.012,0.764,0.067,1.461c0.06,0.697,0.075,1.227,0.056,1.592
							c-0.013,0.109-0.06,0.29-0.148,0.543c-0.09,0.256-0.136,0.447-0.144,0.578c-0.035,0.236-0.024,0.586,0.039,1.049
							c0.062,0.46,0.086,0.811,0.068,1.045c-0.01,0.3-0.068,0.847-0.183,1.634c-0.113,0.791-0.164,1.431-0.152,1.92
							c0.003,0.767,0.03,1.295,0.084,1.587c0.011,0.106,0.084,0.264,0.215,0.472c0.128,0.21,0.202,0.367,0.213,0.473
							c0.012,0.084-0.005,0.208-0.038,0.37c-0.035,0.167-0.038,0.287-0.008,0.372c0.15,0.386,0.249,0.789,0.295,1.21
							c0.047,0.422-0.066,0.797-0.351,1.128c-0.644,0.157-1.226,0.17-1.752,0.037c-0.529-0.134-0.957-0.355-1.291-0.667
							c-0.335-0.313-0.635-0.759-0.899-1.323c-0.266-0.567-0.47-1.108-0.612-1.625c-0.146-0.516-0.29-1.127-0.435-1.836
							c-0.354,0.062-0.759,0.395-1.212,1c-0.456,0.606-0.749,0.958-0.888,1.061c-1.346,0.896-2.562,1.171-3.646,0.826
							c-0.417-0.125-0.975-0.523-1.668-1.205c-0.694-0.676-1.137-1.292-1.329-1.846c-0.129-0.604-0.226-1.077-0.286-1.42
							c-0.06-0.348-0.04-0.785,0.06-1.318c0.101-0.534,0.197-0.947,0.289-1.247c0.099-0.299,0.224-0.69,0.382-1.179
							c0.157-0.486,0.272-0.862,0.354-1.126c0.312-0.249,0.736-0.833,1.27-1.757c0.534-0.922,1.042-1.54,1.518-1.848
							c0.883-0.504,1.7-0.649,2.461-0.437c0.76,0.211,1.427,0.689,1.999,1.436c0.173,0.214,0.314,0.439,0.427,0.672
							c0.112,0.231,0.156,0.489,0.134,0.766c-0.021,0.282-0.16,0.499-0.419,0.655C468.077,87.084,467.821,87.073,467.597,86.968z"/>
						<path fill="#9EF7CD" d="M482.931,92.192c0.035,0.22-0.029,0.637-0.194,1.25c-0.804,2.521-2.033,3.616-3.688,3.292
							c-0.24-0.059-0.533-0.206-0.881-0.442c-0.345-0.238-0.593-0.456-0.742-0.653c-0.387-0.574-0.597-1.356-0.635-2.355
							c-0.037-0.999,0.106-1.734,0.438-2.224c0.786-1.131,2.535-1.115,5.242,0.05C482.741,91.611,482.896,91.973,482.931,92.192z
							 M481.63,86.62c-0.229,0.503-0.481,0.868-0.755,1.09c-0.271,0.223-0.648,0.287-1.129,0.189
							c-0.744-0.171-1.205-0.864-1.385-2.081c-0.119-0.669-0.174-2.652-0.161-5.955c0.046-3.562,0.521-5.964,1.428-7.191
							c0.529-0.209,1.312-0.127,2.345,0.248c1.032,0.372,1.625,0.774,1.78,1.204c0.125,0.346,0.11,0.913-0.048,1.701
							c-0.156,0.782-0.24,1.219-0.252,1.303c-0.016,0.238-0.021,0.622-0.014,1.153c0.007,0.533-0.009,0.938-0.038,1.22
							c-0.072,0.498-0.276,1.472-0.612,2.93c-0.337,1.453-0.543,2.518-0.615,3.184C482.041,85.781,481.859,86.114,481.63,86.62z"/>
					</g>
					<g>
						<path fill="#9EF7CD" d="M458.533,49.226c0.525-0.416,0.928-0.673,1.209-0.762c0.967-0.323,1.738-0.375,2.306-0.149
							c0.403,0.155,0.743,0.417,1.026,0.776c0.281,0.358,0.566,0.817,0.868,1.375c0.295,0.558,0.558,0.981,0.773,1.27
							c0.626-0.069,1.373-0.476,2.235-1.224c0.865-0.747,1.565-1.169,2.1-1.257c0.117,0.208,0.089,0.438-0.088,0.696
							c-0.169,0.256-0.398,0.453-0.687,0.585c-0.277,0.519-0.896,1.082-1.849,1.689c-0.953,0.609-1.56,1.172-1.816,1.687
							c-0.126,0.266-0.205,0.686-0.235,1.261c-0.028,0.573-0.103,0.972-0.22,1.194c-0.29,0.562-0.729,1.129-1.314,1.7
							c-0.369,0.414-1.117,0.854-2.24,1.323c-0.414,0.147-0.821,0.406-1.223,0.783c-0.4,0.378-0.625,0.731-0.672,1.065
							c-0.01,0.129,0.021,0.333,0.087,0.603c0.067,0.273,0.099,0.452,0.099,0.538c0.059,0.93,0.032,1.995-0.078,3.199
							c-0.109,1.203-0.32,2.089-0.629,2.656c-0.095,0.15-0.291,0.408-0.596,0.776c-0.307,0.362-0.524,0.591-0.65,0.688
							c-0.647,0.501-1.329,0.639-2.051,0.406c-0.081-0.151-0.231-0.388-0.464-0.701c-0.229-0.323-0.376-0.579-0.444-0.774
							c-0.102-0.319-0.159-0.893-0.185-1.723c-0.021-0.829-0.056-1.377-0.1-1.646c-0.033-0.141-0.103-0.403-0.207-0.781
							c-0.106-0.381-0.168-0.667-0.193-0.853c-0.052-0.287-0.078-0.74-0.079-1.359c-0.004-0.621-0.005-1.018-0.003-1.188
							c-0.001-0.088-0.038-0.233-0.108-0.441c-0.07-0.206-0.111-0.363-0.114-0.469c-0.024-0.188-0.009-0.474,0.042-0.863
							c0.058-0.386,0.072-0.673,0.044-0.858c-0.007-0.127-0.038-0.318-0.09-0.571c-0.052-0.257-0.074-0.45-0.062-0.581
							c-0.009-0.125,0.011-0.328,0.059-0.607c0.053-0.278,0.072-0.474,0.067-0.578c0.001-0.173-0.039-0.412-0.115-0.726
							s-0.125-0.554-0.144-0.719c0.007-0.152,0.03-0.356,0.076-0.612c0.042-0.255,0.065-0.462,0.069-0.612
							c-0.03-0.483-0.112-1.12-0.245-1.915c-0.13-0.791-0.223-1.465-0.271-2.02c-0.051-0.554-0.031-0.991,0.062-1.314
							c0.176-0.513,0.58-0.881,1.224-1.104c0.638-0.223,1.226-0.206,1.759,0.048c0.113,0.188,0.395,0.575,0.85,1.157
							c0.45,0.583,0.751,1.127,0.896,1.625C457.562,49.879,458.004,49.645,458.533,49.226z M459.062,58.886
							c0.096,0.031,0.183,0.041,0.266,0.033c0.082-0.008,0.148-0.021,0.197-0.033c0.055-0.014,0.111-0.051,0.186-0.11l0.158-0.136
							c0.035-0.027,0.096-0.098,0.175-0.202c0.081-0.105,0.136-0.188,0.169-0.235c0.787-0.963,1.044-1.668,0.761-2.111
							c-0.545,0.218-0.971,0.419-1.278,0.604c-0.309,0.183-0.567,0.451-0.781,0.803c-0.213,0.352-0.27,0.772-0.171,1.263
							C458.863,58.814,458.97,58.856,459.062,58.886z M460.412,51.188c-1.155,0.006-1.865,0.557-2.131,1.649
							c-0.269,1.094-0.123,2.148,0.426,3.168c0.439-0.214,0.76-0.375,0.957-0.478c0.201-0.1,0.479-0.269,0.841-0.495
							c0.364-0.228,0.63-0.459,0.81-0.695c0.179-0.236,0.284-0.5,0.321-0.787C461.738,52.669,461.332,51.884,460.412,51.188z"/>
						<path fill="#9EF7CD" d="M473.493,48.257c-0.231-0.07-0.409-0.181-0.533-0.333c-0.123-0.151-0.276-0.28-0.463-0.385
							c-0.188-0.105-0.375-0.121-0.574-0.051c-0.117,0.05-0.213,0.144-0.283,0.278c-0.074,0.135-0.125,0.32-0.155,0.552
							c-0.026,0.23-0.049,0.463-0.056,0.688c-0.007,0.226-0.006,0.504,0.014,0.832c0.016,0.327,0.029,0.604,0.042,0.827
							c0.012,0.221,0.033,0.499,0.062,0.833c0.027,0.333,0.049,0.566,0.058,0.692c-0.002,0.087,0,0.212,0.014,0.382
							c0.01,0.167,0.02,0.301,0.032,0.394c0.012,0.093,0.024,0.216,0.04,0.359c0.015,0.146,0.039,0.262,0.069,0.354
							c0.034,0.086,0.077,0.177,0.134,0.271c0.055,0.094,0.131,0.161,0.228,0.201c0.094,0.041,0.198,0.069,0.307,0.083
							c0.224-0.054,0.396-0.09,0.518-0.108c0.126-0.02,0.255-0.147,0.389-0.385s0.231-0.416,0.286-0.537
							c0.058-0.117,0.131-0.314,0.225-0.584c0.096-0.27,0.156-0.439,0.181-0.51c0.096-0.215,0.229-0.489,0.395-0.818
							c0.164-0.331,0.297-0.62,0.396-0.87c0.098-0.25,0.163-0.516,0.2-0.802c0.022-0.179,0.02-0.429-0.007-0.753
							c-0.023-0.326-0.037-0.562-0.034-0.718c0.045-0.264,0.209-0.947,0.496-2.046c0.219-1.104,0.447-1.737,0.686-1.9
							c0.8-0.581,1.834-0.474,3.1,0.329c0.022,0.27,0.107,0.74,0.25,1.415c0.146,0.672,0.23,1.185,0.253,1.544
							c0.004,0.104-0.021,0.287-0.075,0.546c-0.051,0.26-0.074,0.454-0.065,0.58c-0.005,0.234,0.052,0.573,0.171,1.017
							c0.12,0.442,0.184,0.778,0.201,1.009c0.026,0.292,0.038,0.833,0.026,1.615c-0.01,0.784,0.022,1.411,0.098,1.886
							c0.098,0.746,0.188,1.258,0.278,1.536c0.026,0.103,0.113,0.245,0.269,0.431c0.153,0.191,0.243,0.333,0.268,0.435
							c0.021,0.081,0.021,0.204,0.009,0.365c-0.011,0.166,0.002,0.287,0.041,0.362c0.194,0.358,0.346,0.737,0.442,1.141
							c0.099,0.405,0.033,0.785-0.2,1.142c-0.605,0.236-1.173,0.321-1.703,0.259c-0.529-0.063-0.976-0.226-1.342-0.486
							c-0.361-0.266-0.712-0.655-1.043-1.176c-0.33-0.519-0.598-1.02-0.802-1.502c-0.204-0.485-0.424-1.062-0.653-1.733
							c-0.336,0.104-0.688,0.479-1.054,1.126c-0.365,0.646-0.606,1.026-0.73,1.144c-1.197,1.042-2.345,1.466-3.442,1.266
							c-0.426-0.067-1.019-0.388-1.779-0.959c-0.76-0.572-1.269-1.116-1.525-1.632c-0.202-0.571-0.355-1.02-0.459-1.346
							c-0.102-0.332-0.138-0.76-0.106-1.291c0.029-0.534,0.07-0.949,0.125-1.251c0.055-0.303,0.127-0.7,0.22-1.195
							c0.096-0.494,0.16-0.875,0.202-1.139c0.274-0.283,0.613-0.905,1.017-1.874c0.402-0.965,0.817-1.63,1.243-1.99
							c0.794-0.602,1.572-0.847,2.339-0.734c0.765,0.109,1.475,0.492,2.125,1.144c0.198,0.187,0.366,0.39,0.502,0.6
							c0.14,0.212,0.216,0.457,0.229,0.73c0.014,0.275-0.095,0.504-0.326,0.689C473.976,48.311,473.723,48.331,473.493,48.257z"/>
						<path fill="#9EF7CD" d="M486.866,44.1c0.091-0.19,0.138-0.433,0.143-0.724c0.004-0.29,0.015-0.479,0.035-0.57
							c0.527-1.691,1.337-2.606,2.438-2.75c0.336-0.021,0.757,0.095,1.259,0.349c0.499,0.25,0.826,0.562,0.98,0.93
							c0.101,0.231,0.216,0.728,0.352,1.487c0.134,0.759,0.228,1.251,0.282,1.473c0.012,0.059,0.064,0.222,0.154,0.49
							c0.084,0.27,0.142,0.488,0.16,0.668c0.021,0.173,0.02,0.333-0.012,0.467c-0.035,0.116-0.109,0.233-0.216,0.36
							c-0.108,0.119-0.257,0.264-0.441,0.43c-0.185,0.164-0.311,0.272-0.382,0.333c-0.051,0.054-0.146,0.174-0.283,0.357
							c-0.136,0.187-0.263,0.316-0.384,0.399c-0.117,0.083-0.281,0.14-0.488,0.169c-0.265,0.044-0.532,0.002-0.798-0.125
							c-0.271-0.126-0.479-0.26-0.632-0.406c-0.151-0.144-0.357-0.372-0.619-0.682c-0.254-0.312-0.441-0.517-0.552-0.617
							c-0.143,0.12-0.243,0.278-0.298,0.476c-0.062,0.195-0.106,0.419-0.142,0.675c-0.036,0.254-0.065,0.451-0.098,0.586
							c-0.04,0.18-0.133,0.528-0.271,1.048c-0.14,0.515-0.256,0.977-0.351,1.383c-0.09,0.408-0.153,0.807-0.183,1.202
							c-0.008,0.151-0.002,0.454,0.012,0.912c0.016,0.455-0.011,0.799-0.081,1.031c-0.042,0.182-0.197,0.462-0.47,0.839
							c-0.27,0.376-0.395,0.701-0.37,0.973c-0.179,0.044-0.41,0.218-0.688,0.521c-0.277,0.305-0.563,0.474-0.858,0.502
							c-0.333,0.038-0.687-0.144-1.062-0.543c-0.375-0.399-0.639-0.814-0.789-1.249c-0.104-0.336-0.142-0.937-0.104-1.788
							c0.035-0.856,0.049-1.399,0.031-1.629c-0.009-0.211-0.047-0.525-0.114-0.938c-0.069-0.409-0.118-0.718-0.147-0.925
							c-0.015-0.232-0.037-0.864-0.064-1.893c-0.029-1.03-0.076-1.854-0.139-2.456c-0.036-0.229-0.097-0.542-0.185-0.95
							c-0.089-0.408-0.153-0.767-0.187-1.081c-0.032-0.312-0.032-0.567,0-0.768c0.2-0.671,0.661-1.066,1.377-1.19
							c0.723-0.124,1.332-0.023,1.841,0.303c0.233,0.156,0.432,0.355,0.598,0.59c0.165,0.239,0.289,0.473,0.379,0.695
							c0.087,0.224,0.21,0.55,0.37,0.983c0.16,0.433,0.312,0.812,0.458,1.141C486.596,44.456,486.773,44.296,486.866,44.1z"/>
						<path fill="#9EF7CD" d="M499.977,41.741c-0.229-0.07-0.408-0.182-0.532-0.333c-0.123-0.151-0.277-0.279-0.466-0.385
							c-0.183-0.104-0.377-0.121-0.573-0.05c-0.116,0.049-0.21,0.144-0.284,0.279c-0.072,0.133-0.126,0.316-0.151,0.55
							c-0.027,0.231-0.047,0.461-0.056,0.687c-0.009,0.227-0.005,0.505,0.014,0.833c0.016,0.327,0.027,0.604,0.039,0.823
							c0.012,0.223,0.033,0.502,0.063,0.837c0.027,0.334,0.049,0.565,0.056,0.691c0.001,0.085,0.003,0.213,0.016,0.381
							c0.008,0.169,0.019,0.302,0.029,0.395c0.016,0.094,0.027,0.215,0.04,0.357c0.017,0.148,0.038,0.266,0.072,0.354
							c0.033,0.087,0.075,0.176,0.13,0.272c0.059,0.094,0.133,0.16,0.229,0.2s0.197,0.07,0.31,0.083
							c0.222-0.055,0.395-0.092,0.517-0.109c0.127-0.019,0.256-0.147,0.389-0.385c0.137-0.238,0.231-0.414,0.285-0.538
							c0.06-0.12,0.133-0.312,0.225-0.583c0.096-0.271,0.154-0.439,0.181-0.51c0.099-0.215,0.229-0.49,0.396-0.819
							c0.161-0.331,0.295-0.617,0.396-0.867c0.098-0.25,0.164-0.519,0.201-0.807c0.021-0.175,0.02-0.426-0.007-0.75
							c-0.027-0.328-0.04-0.563-0.034-0.717c0.043-0.266,0.207-0.948,0.495-2.045c0.217-1.105,0.449-1.74,0.684-1.903
							c0.802-0.58,1.833-0.472,3.102,0.328c0.023,0.271,0.109,0.742,0.251,1.417c0.146,0.67,0.229,1.185,0.252,1.542
							c0.006,0.106-0.021,0.288-0.074,0.546c-0.051,0.26-0.077,0.454-0.064,0.579c-0.009,0.237,0.05,0.575,0.17,1.019
							c0.117,0.441,0.185,0.778,0.2,1.009c0.027,0.293,0.037,0.832,0.024,1.615c-0.009,0.782,0.025,1.411,0.098,1.888
							c0.099,0.746,0.19,1.256,0.282,1.535c0.024,0.101,0.112,0.244,0.267,0.431c0.153,0.188,0.241,0.332,0.268,0.435
							c0.02,0.081,0.021,0.201,0.009,0.364c-0.011,0.166,0.002,0.286,0.041,0.36c0.196,0.359,0.346,0.74,0.444,1.143
							c0.1,0.405,0.029,0.784-0.201,1.143c-0.607,0.235-1.175,0.321-1.703,0.257c-0.531-0.062-0.978-0.226-1.341-0.486
							c-0.364-0.265-0.713-0.656-1.045-1.174c-0.329-0.518-0.598-1.021-0.804-1.504c-0.203-0.483-0.42-1.063-0.651-1.733
							c-0.336,0.104-0.688,0.48-1.053,1.127c-0.364,0.646-0.606,1.025-0.73,1.143c-1.199,1.043-2.346,1.465-3.443,1.264
							c-0.426-0.065-1.018-0.384-1.778-0.958c-0.762-0.571-1.27-1.116-1.525-1.63c-0.203-0.571-0.357-1.02-0.459-1.348
							c-0.102-0.329-0.139-0.758-0.107-1.289c0.027-0.534,0.069-0.949,0.125-1.252c0.054-0.303,0.128-0.7,0.22-1.193
							c0.092-0.492,0.16-0.875,0.201-1.14c0.273-0.281,0.612-0.904,1.016-1.872c0.405-0.967,0.82-1.632,1.246-1.994
							c0.792-0.601,1.572-0.845,2.338-0.733c0.765,0.111,1.475,0.493,2.127,1.145c0.195,0.188,0.364,0.387,0.501,0.599
							c0.141,0.214,0.215,0.457,0.229,0.732c0.013,0.273-0.097,0.503-0.329,0.688C500.458,41.794,500.209,41.812,499.977,41.741z"/>
					</g>
				</g>
			</g>
		</g>
	</g>
	<g>
		<circle cx="13.25" cy="13.25" r="13.25"/>
		<rect x="0.221" y="5" fill="none" width="25.53" height="21.5"/>
		<text transform="matrix(1 0 0 1 6.9858 19.8)" fill="#FFFFFF" font-family="'IBMPlexSans'" font-size="20">1</text>
	</g>
</g>
</svg>
