<?xml version="1.0" encoding="utf-8"?>
<!-- Generator: Adobe Illustrator 16.0.0, SVG Export Plug-In . SVG Version: 6.00 Build 0)  -->
<!DOCTYPE svg PUBLIC "-//W3C//DTD SVG 1.1//EN" "http://www.w3.org/Graphics/SVG/1.1/DTD/svg11.dtd">
<svg version="1.1" id="Layer_1" xmlns="http://www.w3.org/2000/svg" xmlns:xlink="http://www.w3.org/1999/xlink" x="0px" y="0px"
	 width="608.5px" height="93.355px" viewBox="0 0 608.5 93.355" enable-background="new 0 0 608.5 93.355" xml:space="preserve">
<g>
	<rect x="33.418" y="16.355" fill="#FFFFFF" width="258" height="77"/>
	<rect x="306.415" y="16.355" fill="#FFFFFF" width="257.998" height="77"/>
	<rect x="24.084" y="45.856" fill="none" width="278.001" height="41"/>
	<g enable-background="new    ">
		<path d="M55.457,60.656v-13.96h9.26v2.7h-6.22v2.84h5.3v2.7h-5.3v5.72H55.457z"/>
		<path d="M68.476,49.036c-0.6,0-1.037-0.137-1.31-0.41c-0.273-0.271-0.41-0.623-0.41-1.05v-0.438c0-0.428,0.136-0.777,0.41-1.052
			c0.273-0.271,0.71-0.41,1.31-0.41s1.037,0.139,1.31,0.41c0.273,0.273,0.41,0.624,0.41,1.052v0.438c0,0.427-0.137,0.777-0.41,1.05
			C69.513,48.899,69.076,49.036,68.476,49.036z M66.996,50.156h2.96v10.5h-2.96V50.156z"/>
		<path d="M75.656,60.656c-1.013,0-1.757-0.246-2.23-0.74c-0.473-0.493-0.71-1.206-0.71-2.14v-11.92h2.96v12.5h1.32v2.3H75.656z"/>
		<path d="M78.776,45.856h2.96v6.08h0.12c0.187-0.547,0.513-1.021,0.98-1.42c0.467-0.4,1.113-0.602,1.94-0.602
			c1.08,0,1.896,0.36,2.45,1.08c0.553,0.72,0.83,1.747,0.83,3.08v6.58h-2.96v-6.34c0-0.681-0.107-1.185-0.32-1.51
			c-0.213-0.327-0.593-0.49-1.14-0.49c-0.24,0-0.474,0.029-0.7,0.09c-0.227,0.06-0.43,0.157-0.61,0.29
			c-0.18,0.134-0.324,0.297-0.43,0.49c-0.107,0.192-0.16,0.417-0.16,0.67v6.8h-2.96V45.856z"/>
		<path d="M98.456,60.656c-0.534,0-0.977-0.167-1.33-0.5c-0.354-0.333-0.577-0.78-0.67-1.34h-0.12c-0.16,0.68-0.514,1.196-1.06,1.55
			c-0.547,0.354-1.22,0.53-2.02,0.53c-1.053,0-1.86-0.279-2.42-0.838s-0.84-1.297-0.84-2.214c0-1.103,0.403-1.924,1.21-2.462
			s1.903-0.808,3.29-0.808h1.66v-0.66c0-0.506-0.133-0.91-0.4-1.21c-0.267-0.3-0.713-0.45-1.34-0.45c-0.587,0-1.054,0.127-1.4,0.381
			c-0.347,0.254-0.634,0.539-0.86,0.859l-1.76-1.568c0.426-0.63,0.963-1.122,1.61-1.479c0.646-0.355,1.523-0.533,2.63-0.533
			c1.493,0,2.613,0.327,3.36,0.98c0.747,0.652,1.12,1.605,1.12,2.858v4.602h0.98v2.3L98.456,60.656L98.456,60.656z M94.356,58.836
			c0.493,0,0.917-0.104,1.27-0.316c0.353-0.211,0.53-0.557,0.53-1.032v-1.23h-1.44c-1.16,0-1.74,0.392-1.74,1.171v0.299
			c0,0.384,0.12,0.665,0.36,0.844C93.576,58.747,93.916,58.836,94.356,58.836z"/>
	</g>
	<g enable-background="new    ">
		<path d="M103.416,58.316c0.426,0,0.736,0.108,0.93,0.33c0.193,0.22,0.29,0.503,0.29,0.85v0.28c0,0.547-0.16,1.148-0.479,1.81
			c-0.32,0.661-0.767,1.237-1.34,1.73h-1.34c0.4-0.427,0.723-0.83,0.97-1.21c0.247-0.38,0.423-0.805,0.53-1.271
			c-0.267-0.065-0.463-0.191-0.59-0.38c-0.127-0.187-0.19-0.413-0.19-0.68v-0.28c0-0.347,0.097-0.63,0.29-0.85
			C102.678,58.426,102.988,58.316,103.416,58.316z"/>
	</g>
	<g enable-background="new    ">
		<path d="M112.416,60.656v-10.4h2.18v2h0.1c0.146-0.532,0.453-1,0.92-1.398c0.467-0.4,1.113-0.602,1.94-0.602h0.58v2.102h-0.86
			c-0.867,0-1.53,0.14-1.99,0.42s-0.69,0.692-0.69,1.24v6.64L112.416,60.656L112.416,60.656z"/>
		<path d="M126.375,58.936h-0.08c-0.093,0.253-0.217,0.5-0.37,0.738c-0.154,0.24-0.347,0.45-0.58,0.632
			c-0.233,0.18-0.514,0.322-0.84,0.43c-0.327,0.105-0.704,0.16-1.13,0.16c-1.08,0-1.917-0.348-2.51-1.04
			c-0.594-0.693-0.89-1.688-0.89-2.98v-6.62h2.18v6.342c0,1.612,0.667,2.42,2,2.42c0.28,0,0.553-0.037,0.82-0.11
			s0.503-0.184,0.71-0.33c0.207-0.146,0.373-0.333,0.5-0.56c0.126-0.228,0.19-0.493,0.19-0.802v-6.96h2.18v10.4h-2.18V58.936z
			 M124.516,49.016l-1.36-0.66l1.82-3.602l1.9,0.92L124.516,49.016z"/>
		<path d="M135.695,60.896c-0.747,0-1.414-0.127-2-0.38c-0.587-0.254-1.08-0.617-1.48-1.092c-0.4-0.473-0.707-1.046-0.92-1.72
			c-0.213-0.673-0.32-1.423-0.32-2.25c0-0.826,0.107-1.576,0.32-2.25c0.213-0.673,0.52-1.246,0.92-1.72
			c0.4-0.475,0.893-0.837,1.48-1.09c0.586-0.253,1.253-0.38,2-0.38c1.04,0,1.893,0.232,2.56,0.698
			c0.667,0.469,1.153,1.087,1.46,1.86l-1.8,0.84c-0.146-0.479-0.403-0.863-0.77-1.148c-0.367-0.287-0.85-0.432-1.45-0.432
			c-0.8,0-1.403,0.25-1.81,0.748c-0.407,0.499-0.61,1.147-0.61,1.944v1.854c0,0.799,0.203,1.446,0.61,1.944
			c0.407,0.499,1.01,0.748,1.81,0.748c0.64,0,1.15-0.156,1.53-0.47c0.38-0.313,0.683-0.73,0.91-1.25l1.66,0.88
			c-0.347,0.855-0.867,1.515-1.56,1.973C137.542,60.667,136.695,60.896,135.695,60.896z"/>
		<path d="M148.175,58.936h-0.08c-0.093,0.253-0.217,0.5-0.37,0.738c-0.154,0.24-0.347,0.45-0.58,0.632
			c-0.233,0.18-0.514,0.322-0.84,0.43c-0.327,0.105-0.704,0.16-1.13,0.16c-1.08,0-1.917-0.348-2.51-1.04
			c-0.594-0.693-0.89-1.688-0.89-2.98v-6.62h2.18v6.342c0,1.612,0.667,2.42,2,2.42c0.28,0,0.553-0.037,0.82-0.11
			s0.503-0.184,0.71-0.33c0.207-0.146,0.373-0.333,0.5-0.56c0.126-0.228,0.19-0.493,0.19-0.802v-6.96h2.18v10.4h-2.18V58.936
			L148.175,58.936z"/>
		<path d="M155.694,60.656c-0.747,0-1.303-0.19-1.67-0.57c-0.367-0.38-0.55-0.91-0.55-1.59v-12.64h2.18v13.02h1.44v1.78H155.694z"/>
		<path d="M166.794,60.656c-0.574,0-1.014-0.163-1.32-0.49c-0.307-0.326-0.493-0.743-0.56-1.25h-0.1
			c-0.2,0.653-0.567,1.147-1.1,1.48c-0.534,0.333-1.18,0.5-1.94,0.5c-1.08,0-1.91-0.28-2.49-0.84c-0.58-0.562-0.87-1.313-0.87-2.262
			c0-1.04,0.377-1.818,1.13-2.34c0.753-0.52,1.856-0.78,3.31-0.78h1.88v-0.88c0-0.64-0.173-1.133-0.52-1.479
			c-0.347-0.348-0.887-0.521-1.62-0.521c-0.613,0-1.113,0.135-1.5,0.4c-0.387,0.266-0.713,0.605-0.979,1.02l-1.3-1.18
			c0.346-0.587,0.833-1.07,1.46-1.45c0.626-0.38,1.446-0.568,2.46-0.568c1.347,0,2.38,0.312,3.1,0.938
			c0.72,0.627,1.08,1.527,1.08,2.7v5.22h1.1v1.78L166.794,60.656L166.794,60.656z M162.394,59.236c0.68,0,1.24-0.15,1.68-0.45
			c0.44-0.3,0.66-0.703,0.66-1.21v-1.5h-1.84c-1.507,0-2.26,0.467-2.26,1.4v0.358c0,0.467,0.157,0.817,0.47,1.051
			C161.417,59.12,161.847,59.236,162.394,59.236z"/>
	</g>
	<g enable-background="new    ">
		<path d="M175.173,50.416h1.14v1.642h0.06c0.253-0.573,0.64-1.03,1.16-1.37c0.52-0.34,1.173-0.512,1.96-0.512
			c1.32,0,2.353,0.469,3.1,1.4c0.747,0.934,1.12,2.254,1.12,3.96c0,1.707-0.374,3.027-1.12,3.96c-0.747,0.935-1.78,1.4-3.1,1.4
			c-0.787,0-1.434-0.17-1.94-0.511c-0.507-0.341-0.9-0.797-1.18-1.369h-0.06v5.64h-1.14V50.416L175.173,50.416z M179.233,59.876
			c1.027,0,1.827-0.326,2.4-0.979c0.573-0.653,0.86-1.533,0.86-2.642v-1.438c0-1.106-0.287-1.986-0.86-2.642
			c-0.573-0.651-1.373-0.979-2.4-0.979c-0.4,0-0.777,0.057-1.13,0.17c-0.354,0.113-0.664,0.271-0.93,0.47
			c-0.267,0.2-0.477,0.44-0.63,0.722c-0.153,0.278-0.23,0.587-0.23,0.92v4.06c0,0.36,0.077,0.685,0.23,0.97
			c0.153,0.287,0.363,0.534,0.63,0.74c0.267,0.207,0.577,0.363,0.93,0.47C178.457,59.823,178.833,59.876,179.233,59.876z"/>
		<path d="M193.693,60.656c-0.44,0-0.76-0.113-0.96-0.34c-0.2-0.228-0.313-0.533-0.34-0.92v-0.36h-0.1
			c-0.227,0.573-0.6,1.027-1.12,1.36s-1.18,0.5-1.98,0.5c-1.08,0-1.914-0.266-2.5-0.793c-0.587-0.528-0.88-1.274-0.88-2.237
			c0-0.909,0.323-1.632,0.97-2.167c0.646-0.535,1.71-0.803,3.19-0.803h2.36v-1.2c0-1.693-0.874-2.54-2.62-2.54
			c-0.68,0-1.247,0.144-1.7,0.43c-0.454,0.287-0.82,0.697-1.1,1.23l-0.72-0.597c0.28-0.596,0.71-1.085,1.29-1.469
			s1.336-0.576,2.27-0.576c1.2,0,2.12,0.302,2.76,0.902c0.64,0.603,0.96,1.443,0.96,2.525v6.071h1.38v0.98h-1.16V60.656z
			 M189.354,59.916c0.413,0,0.8-0.053,1.16-0.16c0.36-0.106,0.676-0.258,0.95-0.451c0.274-0.194,0.487-0.43,0.64-0.704
			s0.23-0.586,0.23-0.936v-1.909h-2.4c-1.027,0-1.77,0.165-2.23,0.493s-0.69,0.78-0.69,1.356v0.481c0,0.604,0.213,1.059,0.64,1.366
			C188.08,59.76,188.646,59.916,189.354,59.916z"/>
		<path d="M197.193,60.656v-10.24h1.14v1.84h0.08c0.2-0.479,0.54-0.905,1.02-1.278s1.16-0.562,2.04-0.562h0.68v1.12h-0.9
			c-0.854,0-1.553,0.188-2.1,0.562c-0.547,0.372-0.82,0.893-0.82,1.56v7L197.193,60.656L197.193,60.656z"/>
		<path d="M211.333,60.656c-0.44,0-0.76-0.113-0.96-0.34c-0.2-0.228-0.313-0.533-0.34-0.92v-0.36h-0.1
			c-0.227,0.573-0.6,1.027-1.12,1.36s-1.18,0.5-1.98,0.5c-1.08,0-1.914-0.266-2.5-0.793c-0.587-0.528-0.88-1.274-0.88-2.237
			c0-0.909,0.323-1.632,0.97-2.167c0.646-0.535,1.71-0.803,3.19-0.803h2.36v-1.2c0-1.693-0.874-2.54-2.62-2.54
			c-0.68,0-1.247,0.144-1.7,0.43c-0.454,0.287-0.82,0.697-1.1,1.23l-0.72-0.597c0.28-0.596,0.71-1.085,1.29-1.469
			s1.336-0.576,2.27-0.576c1.2,0,2.12,0.302,2.76,0.902c0.64,0.603,0.96,1.443,0.96,2.525v6.071h1.38v0.98h-1.16V60.656z
			 M206.993,59.916c0.413,0,0.8-0.053,1.16-0.16c0.36-0.106,0.676-0.258,0.95-0.451c0.274-0.194,0.487-0.43,0.64-0.704
			c0.153-0.274,0.23-0.586,0.23-0.936v-1.909h-2.4c-1.027,0-1.771,0.165-2.23,0.493s-0.69,0.78-0.69,1.356v0.481
			c0,0.604,0.213,1.059,0.64,1.366S206.286,59.916,206.993,59.916z"/>
		<path d="M226.593,60.656c-0.44,0-0.76-0.113-0.96-0.34c-0.2-0.228-0.313-0.533-0.34-0.92v-0.36h-0.1
			c-0.227,0.573-0.6,1.027-1.12,1.36c-0.521,0.333-1.18,0.5-1.98,0.5c-1.08,0-1.914-0.266-2.5-0.793
			c-0.587-0.528-0.88-1.274-0.88-2.237c0-0.909,0.323-1.632,0.97-2.167c0.646-0.535,1.71-0.803,3.19-0.803h2.36v-1.2
			c0-1.693-0.874-2.54-2.62-2.54c-0.68,0-1.247,0.144-1.7,0.43c-0.454,0.287-0.82,0.697-1.1,1.23l-0.72-0.597
			c0.28-0.596,0.71-1.085,1.29-1.469s1.336-0.576,2.27-0.576c1.2,0,2.12,0.302,2.76,0.902c0.64,0.603,0.96,1.443,0.96,2.525v6.071
			h1.38v0.98h-1.16V60.656z M222.253,59.916c0.413,0,0.8-0.053,1.16-0.16c0.36-0.106,0.676-0.258,0.95-0.451
			c0.274-0.194,0.487-0.43,0.64-0.704c0.153-0.274,0.23-0.586,0.23-0.936v-1.909h-2.4c-1.027,0-1.77,0.165-2.23,0.493
			s-0.69,0.78-0.69,1.356v0.481c0,0.604,0.213,1.059,0.64,1.366C220.979,59.76,221.546,59.916,222.253,59.916z"/>
		<path d="M234.812,50.416h1.14v1.642h0.06c0.253-0.573,0.64-1.03,1.16-1.37s1.173-0.512,1.96-0.512c1.32,0,2.353,0.469,3.1,1.4
			c0.747,0.934,1.12,2.254,1.12,3.96c0,1.707-0.374,3.027-1.12,3.96c-0.747,0.935-1.78,1.4-3.1,1.4c-0.787,0-1.434-0.17-1.94-0.511
			c-0.507-0.341-0.9-0.797-1.18-1.369h-0.06v5.64h-1.14V50.416z M238.873,59.876c1.027,0,1.827-0.326,2.4-0.979
			c0.573-0.653,0.86-1.533,0.86-2.642v-1.438c0-1.106-0.287-1.986-0.86-2.642c-0.573-0.651-1.373-0.979-2.4-0.979
			c-0.4,0-0.777,0.057-1.13,0.17c-0.354,0.113-0.664,0.271-0.93,0.47c-0.267,0.2-0.477,0.44-0.63,0.722
			c-0.153,0.278-0.23,0.587-0.23,0.92v4.06c0,0.36,0.077,0.685,0.23,0.97c0.153,0.287,0.363,0.534,0.63,0.74
			c0.267,0.207,0.577,0.363,0.93,0.47C238.096,59.823,238.473,59.876,238.873,59.876z"/>
		<path d="M253.332,60.656c-0.44,0-0.76-0.113-0.96-0.34c-0.2-0.228-0.313-0.533-0.34-0.92v-0.36h-0.1
			c-0.227,0.573-0.6,1.027-1.12,1.36s-1.18,0.5-1.98,0.5c-1.08,0-1.914-0.266-2.5-0.793c-0.587-0.528-0.88-1.274-0.88-2.237
			c0-0.909,0.323-1.632,0.97-2.167c0.646-0.535,1.71-0.803,3.19-0.803h2.36v-1.2c0-1.693-0.874-2.54-2.62-2.54
			c-0.68,0-1.247,0.144-1.7,0.43c-0.454,0.287-0.82,0.697-1.1,1.23l-0.72-0.597c0.28-0.596,0.71-1.085,1.29-1.469
			s1.336-0.576,2.27-0.576c1.2,0,2.12,0.302,2.76,0.902c0.64,0.603,0.96,1.443,0.96,2.525v6.071h1.38v0.98h-1.16V60.656z
			 M248.992,59.916c0.413,0,0.8-0.053,1.16-0.16c0.36-0.106,0.676-0.258,0.95-0.451c0.274-0.194,0.487-0.43,0.64-0.704
			c0.153-0.274,0.23-0.586,0.23-0.936v-1.909h-2.4c-1.027,0-1.771,0.165-2.23,0.493s-0.69,0.78-0.69,1.356v0.481
			c0,0.604,0.213,1.059,0.64,1.366S248.285,59.916,248.992,59.916z"/>
		<path d="M258.632,60.656c-0.414,0-0.727-0.113-0.94-0.341c-0.213-0.228-0.32-0.534-0.32-0.922v-7.997h-1.78v-0.98h1.16
			c0.28,0,0.47-0.057,0.57-0.17c0.1-0.113,0.15-0.315,0.15-0.608v-2.08h1.04v2.858h2.32v0.98h-2.32v8.278h2.16v0.98L258.632,60.656
			L258.632,60.656z"/>
		<path d="M270.612,60.656c-0.44,0-0.76-0.113-0.96-0.34c-0.2-0.228-0.313-0.533-0.34-0.92v-0.36h-0.1
			c-0.227,0.573-0.6,1.027-1.12,1.36c-0.52,0.333-1.18,0.5-1.98,0.5c-1.08,0-1.914-0.266-2.5-0.793
			c-0.587-0.528-0.88-1.274-0.88-2.237c0-0.909,0.323-1.632,0.97-2.167c0.646-0.535,1.71-0.803,3.19-0.803h2.36v-1.2
			c0-1.693-0.874-2.54-2.62-2.54c-0.68,0-1.247,0.144-1.7,0.43c-0.454,0.287-0.82,0.697-1.1,1.23l-0.72-0.597
			c0.28-0.596,0.71-1.085,1.29-1.469s1.336-0.576,2.27-0.576c1.2,0,2.12,0.302,2.76,0.902c0.64,0.603,0.96,1.443,0.96,2.525v6.071
			h1.38v0.98h-1.16V60.656z M266.272,59.916c0.413,0,0.8-0.053,1.16-0.16c0.36-0.106,0.676-0.258,0.95-0.451
			c0.274-0.194,0.487-0.43,0.64-0.704s0.23-0.586,0.23-0.936v-1.909h-2.4c-1.027,0-1.77,0.165-2.23,0.493s-0.69,0.78-0.69,1.356
			v0.481c0,0.604,0.213,1.059,0.64,1.366C264.999,59.76,265.565,59.916,266.272,59.916z"/>
	</g>
	<rect x="326.417" y="45.856" fill="none" width="257.998" height="41"/>
	<g enable-background="new    ">
		<path d="M328.348,60.656l2.801-13.96h8l-0.301,1.46h-6.359l-0.94,4.7h5.841l-0.279,1.46h-5.859l-1.281,6.34H328.348z"/>
		<path d="M340.827,60.656c-0.468,0-0.817-0.116-1.05-0.35c-0.233-0.233-0.351-0.537-0.351-0.91c0-0.12,0.021-0.28,0.06-0.48
			l1.721-8.58h1.54l-1.8,8.96h1.46l-0.261,1.36H340.827z M342.527,47.916c-0.308,0-0.523-0.068-0.65-0.21
			c-0.127-0.14-0.189-0.303-0.189-0.49c0-0.04,0.004-0.096,0.011-0.17c0.006-0.072,0.028-0.203,0.069-0.39
			c0.054-0.253,0.162-0.45,0.33-0.59c0.166-0.142,0.416-0.21,0.75-0.21c0.308,0,0.522,0.068,0.649,0.21
			c0.127,0.14,0.19,0.304,0.19,0.49c0,0.04-0.004,0.097-0.011,0.17c-0.008,0.072-0.03,0.203-0.069,0.39
			c-0.055,0.254-0.164,0.45-0.33,0.59C343.109,47.846,342.859,47.916,342.527,47.916z"/>
		<path d="M346.107,60.656c-0.467,0-0.817-0.116-1.051-0.35c-0.232-0.233-0.351-0.537-0.351-0.91c0-0.12,0.021-0.28,0.062-0.48
			l2.618-13.06h1.541l-2.7,13.438h1.561l-0.26,1.36L346.107,60.656L346.107,60.656z"/>
		<path d="M352.667,45.856h1.54l-1.32,6.52h0.1c0.361-0.771,0.791-1.347,1.291-1.72s1.123-0.56,1.869-0.56
			c0.895,0,1.562,0.253,2,0.76c0.44,0.507,0.66,1.207,0.66,2.1c0,0.188-0.01,0.395-0.029,0.62c-0.021,0.227-0.058,0.467-0.109,0.72
			l-1,5h1.46l-0.26,1.36h-1.461c-0.388,0-0.696-0.093-0.931-0.28c-0.232-0.187-0.35-0.479-0.35-0.88c0-0.065,0-0.126,0-0.18
			c0-0.055,0.014-0.133,0.04-0.24l0.96-4.78c0.04-0.198,0.066-0.396,0.08-0.59c0.013-0.192,0.02-0.35,0.02-0.47
			c0-0.587-0.123-1.023-0.369-1.312c-0.248-0.285-0.649-0.43-1.211-0.43c-0.72,0-1.354,0.273-1.899,0.82
			c-0.347,0.347-0.64,0.76-0.879,1.24c-0.24,0.479-0.4,0.927-0.48,1.34l-1.159,5.76h-1.539L352.667,45.856z"/>
		<path d="M369.007,60.656c-0.454,0-0.79-0.113-1.011-0.34c-0.221-0.228-0.33-0.526-0.33-0.9c0-0.16,0.021-0.34,0.061-0.54
			l0.101-0.46h-0.06c-0.428,0.867-0.899,1.497-1.42,1.892c-0.521,0.393-1.16,0.59-1.921,0.59c-0.946,0-1.707-0.352-2.28-1.05
			c-0.572-0.7-0.858-1.663-0.858-2.892c0-0.76,0.103-1.543,0.31-2.35c0.206-0.808,0.518-1.547,0.93-2.221
			c0.414-0.674,0.938-1.224,1.57-1.649c0.633-0.427,1.377-0.64,2.229-0.64c0.307,0,0.606,0.039,0.899,0.118
			c0.293,0.08,0.562,0.2,0.801,0.36c0.24,0.16,0.445,0.36,0.619,0.6c0.174,0.24,0.302,0.521,0.381,0.842h0.08l0.341-1.682h1.538
			l-1.799,8.96h1.459l-0.26,1.36L369.007,60.656L369.007,60.656z M364.807,59.496c0.48,0,0.892-0.093,1.23-0.28
			c0.34-0.187,0.662-0.433,0.97-0.738c0.347-0.348,0.623-0.722,0.829-1.12c0.207-0.4,0.363-0.854,0.471-1.36l0.5-2.479
			c0.041-0.228,0.018-0.46-0.069-0.7s-0.229-0.457-0.431-0.65c-0.201-0.192-0.449-0.353-0.75-0.479c-0.3-0.126-0.649-0.19-1.05-0.19
			c-0.88,0-1.591,0.273-2.13,0.82c-0.541,0.547-0.91,1.32-1.109,2.32l-0.301,1.5c-0.066,0.373-0.1,0.713-0.1,1.02
			c0,0.667,0.156,1.224,0.469,1.67C363.65,59.273,364.141,59.496,364.807,59.496z"/>
	</g>
	<g enable-background="new    ">
		<path d="M374.646,58.316c0.427,0,0.735,0.108,0.93,0.33c0.193,0.22,0.291,0.503,0.291,0.85v0.28c0,0.547-0.16,1.148-0.48,1.81
			s-0.767,1.237-1.34,1.73h-1.34c0.4-0.427,0.723-0.83,0.97-1.21s0.423-0.805,0.53-1.271c-0.268-0.065-0.464-0.191-0.59-0.38
			c-0.127-0.187-0.19-0.413-0.19-0.68v-0.28c0-0.347,0.097-0.63,0.29-0.85S374.22,58.316,374.646,58.316z"/>
	</g>
	<g enable-background="new    ">
		<path d="M382.807,60.656l2.08-10.32h1.54l-0.44,2.062h0.102c0.135-0.253,0.293-0.503,0.479-0.75
			c0.188-0.247,0.404-0.467,0.65-0.66s0.53-0.35,0.85-0.47c0.32-0.12,0.693-0.182,1.121-0.182h0.641l-0.3,1.58h-0.722
			c-0.479,0-0.902,0.07-1.27,0.21c-0.367,0.142-0.684,0.33-0.95,0.57c-0.266,0.24-0.483,0.517-0.649,0.83
			c-0.168,0.312-0.283,0.644-0.351,0.99l-1.239,6.14H382.807z"/>
		<path d="M393.587,50.336l-1.28,6.36c-0.039,0.2-0.065,0.396-0.08,0.59c-0.014,0.194-0.02,0.352-0.02,0.47
			c0,0.574,0.116,1.008,0.35,1.302c0.233,0.293,0.631,0.438,1.189,0.438c0.707,0,1.327-0.272,1.861-0.82
			c0.373-0.386,0.672-0.815,0.898-1.288c0.227-0.475,0.38-0.903,0.46-1.29l1.16-5.762h1.539l-1.799,8.96h1.459l-0.261,1.36h-1.399
			c-0.438,0-0.771-0.116-0.989-0.35c-0.219-0.234-0.33-0.537-0.33-0.91c0-0.134,0.026-0.327,0.08-0.58l0.04-0.2h-0.1
			c-0.36,0.787-0.787,1.363-1.28,1.73c-0.493,0.365-1.102,0.55-1.82,0.55c-0.88,0-1.539-0.253-1.979-0.761
			c-0.439-0.507-0.66-1.206-0.66-2.101c0-0.187,0.01-0.393,0.029-0.62c0.021-0.227,0.057-0.467,0.109-0.72l1.28-6.36L393.587,50.336
			L393.587,50.336z M396.447,48.956l-0.961-0.5l2.08-3.398l1.359,0.72L396.447,48.956z"/>
	</g>
	<g enable-background="new    ">
		<path d="M406.146,60.896c-0.721,0-1.366-0.127-1.94-0.38c-0.573-0.254-1.058-0.613-1.449-1.08c-0.396-0.468-0.692-1.033-0.899-1.7
			s-0.312-1.413-0.312-2.24c0-0.826,0.104-1.573,0.312-2.24c0.207-0.666,0.506-1.231,0.899-1.698
			c0.394-0.468,0.876-0.827,1.449-1.08c0.574-0.254,1.221-0.38,1.94-0.38c1.025,0,1.851,0.223,2.47,0.67
			c0.62,0.445,1.084,1.028,1.391,1.75l-1.34,0.68c-0.188-0.533-0.494-0.946-0.92-1.24c-0.429-0.293-0.961-0.438-1.601-0.438
			c-0.479,0-0.899,0.075-1.262,0.229c-0.359,0.153-0.658,0.367-0.898,0.642c-0.239,0.272-0.42,0.6-0.541,0.979
			c-0.118,0.38-0.18,0.797-0.18,1.25v1.76c0,0.907,0.243,1.65,0.73,2.23c0.486,0.58,1.203,0.87,2.148,0.87
			c1.293,0,2.228-0.602,2.801-1.802l1.16,0.78c-0.334,0.747-0.83,1.34-1.49,1.78C407.955,60.676,407.132,60.896,406.146,60.896z"/>
		<path d="M418.725,58.995h-0.08c-0.105,0.238-0.235,0.473-0.39,0.703c-0.153,0.231-0.343,0.436-0.569,0.614
			c-0.228,0.178-0.5,0.318-0.819,0.426c-0.32,0.104-0.693,0.158-1.12,0.158c-1.066,0-1.913-0.345-2.54-1.03s-0.938-1.656-0.938-2.91
			v-6.62h1.6v6.354c0,1.856,0.785,2.786,2.359,2.786c0.319,0,0.631-0.04,0.931-0.121c0.3-0.079,0.565-0.2,0.8-0.36
			c0.232-0.16,0.42-0.364,0.561-0.611c0.141-0.246,0.209-0.544,0.209-0.892v-7.156h1.602v10.32h-1.602v-1.661H418.725z"/>
		<path d="M425.426,60.656c-0.561,0-0.983-0.156-1.271-0.47c-0.287-0.314-0.431-0.71-0.431-1.19v-13.14h1.601v13.38h1.521v1.42
			H425.426z"/>
		<path d="M436.665,60.656c-0.601,0-1.03-0.16-1.29-0.48c-0.26-0.318-0.424-0.72-0.49-1.198h-0.1c-0.228,0.64-0.601,1.12-1.12,1.438
			c-0.521,0.32-1.14,0.48-1.86,0.48c-1.094,0-1.942-0.28-2.55-0.84c-0.605-0.562-0.91-1.32-0.91-2.28c0-0.975,0.356-1.72,1.07-2.24
			c0.713-0.52,1.823-0.78,3.329-0.78h2.041v-1.02c0-0.733-0.2-1.293-0.6-1.68c-0.4-0.388-1.015-0.58-1.842-0.58
			c-0.627,0-1.148,0.14-1.568,0.42c-0.42,0.278-0.771,0.652-1.052,1.12l-0.96-0.9c0.28-0.56,0.728-1.036,1.342-1.43
			c0.611-0.395,1.386-0.59,2.318-0.59c1.253,0,2.228,0.306,2.92,0.918c0.693,0.61,1.04,1.463,1.04,2.554v5.668h1.181v1.42H436.665z
			 M432.064,59.536c0.399,0,0.768-0.047,1.101-0.14c0.333-0.095,0.62-0.228,0.86-0.4c0.238-0.173,0.426-0.373,0.56-0.6
			c0.133-0.228,0.2-0.475,0.2-0.74v-1.7h-2.12c-0.921,0-1.591,0.134-2.011,0.4c-0.42,0.266-0.629,0.652-0.629,1.16v0.42
			c0,0.507,0.183,0.898,0.549,1.18C430.941,59.396,431.438,59.536,432.064,59.536z"/>
		<path d="M444.564,50.336h1.6v1.661h0.08c0.268-0.646,0.657-1.125,1.17-1.436c0.514-0.311,1.131-0.465,1.851-0.465
			c0.641,0,1.221,0.126,1.74,0.38c0.521,0.253,0.963,0.612,1.33,1.08c0.366,0.467,0.646,1.032,0.84,1.698
			c0.192,0.667,0.29,1.414,0.29,2.24c0,0.827-0.098,1.573-0.29,2.24s-0.474,1.232-0.84,1.7c-0.367,0.467-0.81,0.825-1.33,1.08
			c-0.521,0.253-1.101,0.38-1.74,0.38c-1.398,0-2.406-0.635-3.021-1.901h-0.08v5.661h-1.6V50.336L444.564,50.336z M448.824,59.476
			c0.907,0,1.621-0.285,2.141-0.854c0.521-0.569,0.779-1.315,0.779-2.241v-1.769c0-0.925-0.26-1.672-0.779-2.241
			c-0.52-0.57-1.232-0.854-2.141-0.854c-0.359,0-0.703,0.05-1.029,0.149c-0.327,0.102-0.609,0.238-0.85,0.412
			c-0.24,0.175-0.432,0.386-0.57,0.633c-0.141,0.248-0.211,0.514-0.211,0.794v3.859c0,0.335,0.07,0.634,0.211,0.896
			c0.14,0.262,0.33,0.482,0.57,0.663c0.238,0.182,0.521,0.318,0.85,0.412C448.121,59.429,448.465,59.476,448.824,59.476z"/>
		<path d="M463.664,60.656c-0.6,0-1.029-0.16-1.289-0.48c-0.261-0.318-0.424-0.72-0.49-1.198h-0.101
			c-0.228,0.64-0.601,1.12-1.12,1.438c-0.52,0.32-1.14,0.48-1.859,0.48c-1.094,0-1.942-0.28-2.551-0.84
			c-0.605-0.562-0.91-1.32-0.91-2.28c0-0.975,0.357-1.72,1.07-2.24c0.713-0.52,1.823-0.78,3.33-0.78h2.04v-1.02
			c0-0.733-0.2-1.293-0.601-1.68c-0.399-0.388-1.014-0.58-1.841-0.58c-0.627,0-1.148,0.14-1.568,0.42
			c-0.421,0.278-0.771,0.652-1.051,1.12l-0.961-0.9c0.281-0.56,0.728-1.036,1.341-1.43c0.612-0.395,1.387-0.59,2.319-0.59
			c1.254,0,2.228,0.306,2.92,0.918c0.693,0.61,1.041,1.463,1.041,2.554v5.668h1.181v1.42H463.664z M459.064,59.536
			c0.399,0,0.767-0.047,1.1-0.14c0.334-0.095,0.62-0.228,0.86-0.4c0.238-0.173,0.427-0.373,0.56-0.6c0.133-0.228,0.2-0.475,0.2-0.74
			v-1.7h-2.12c-0.92,0-1.59,0.134-2.01,0.4c-0.42,0.266-0.63,0.652-0.63,1.16v0.42c0,0.507,0.183,0.898,0.55,1.18
			S458.438,59.536,459.064,59.536z"/>
		<path d="M466.845,60.656v-10.32h1.601v1.9h0.101c0.187-0.493,0.521-0.935,1-1.32c0.479-0.387,1.14-0.58,1.979-0.58h0.619v1.602
			h-0.938c-0.867,0-1.544,0.163-2.031,0.488c-0.485,0.327-0.729,0.737-0.729,1.23v7H466.845z"/>
		<path d="M481.604,60.656c-0.601,0-1.029-0.16-1.289-0.48c-0.261-0.318-0.425-0.72-0.49-1.198h-0.101
			c-0.227,0.64-0.6,1.12-1.12,1.438c-0.521,0.32-1.14,0.48-1.859,0.48c-1.094,0-1.943-0.28-2.55-0.84
			c-0.606-0.562-0.91-1.32-0.91-2.28c0-0.975,0.355-1.72,1.069-2.24c0.714-0.52,1.823-0.78,3.329-0.78h2.041v-1.02
			c0-0.733-0.199-1.293-0.6-1.68c-0.4-0.388-1.014-0.58-1.841-0.58c-0.627,0-1.149,0.14-1.569,0.42
			c-0.42,0.278-0.771,0.652-1.051,1.12l-0.96-0.9c0.28-0.56,0.727-1.036,1.341-1.43c0.612-0.395,1.386-0.59,2.319-0.59
			c1.253,0,2.227,0.306,2.92,0.918c0.693,0.61,1.04,1.463,1.04,2.554v5.668h1.18v1.42H481.604z M477.004,59.536
			c0.4,0,0.768-0.047,1.102-0.14c0.332-0.095,0.619-0.228,0.859-0.4c0.239-0.173,0.426-0.373,0.561-0.6
			c0.133-0.228,0.199-0.475,0.199-0.74v-1.7h-2.119c-0.922,0-1.592,0.134-2.012,0.4c-0.42,0.266-0.629,0.652-0.629,1.16v0.42
			c0,0.507,0.184,0.898,0.549,1.18C475.881,59.396,476.377,59.536,477.004,59.536z"/>
		<path d="M497.004,60.656c-0.6,0-1.03-0.16-1.29-0.48c-0.261-0.318-0.424-0.72-0.49-1.198h-0.101c-0.227,0.64-0.6,1.12-1.119,1.438
			c-0.52,0.32-1.141,0.48-1.859,0.48c-1.094,0-1.943-0.28-2.551-0.84c-0.606-0.562-0.91-1.32-0.91-2.28
			c0-0.975,0.356-1.72,1.07-2.24c0.713-0.52,1.822-0.78,3.33-0.78h2.039v-1.02c0-0.733-0.199-1.293-0.6-1.68
			c-0.401-0.388-1.015-0.58-1.841-0.58c-0.627,0-1.149,0.14-1.569,0.42c-0.42,0.278-0.771,0.652-1.051,1.12l-0.959-0.9
			c0.279-0.56,0.727-1.036,1.34-1.43c0.612-0.395,1.387-0.59,2.319-0.59c1.253,0,2.228,0.306,2.921,0.918
			c0.692,0.61,1.039,1.463,1.039,2.554v5.668h1.182v1.42H497.004z M492.404,59.536c0.398,0,0.766-0.047,1.1-0.14
			c0.333-0.095,0.619-0.228,0.859-0.4s0.427-0.373,0.561-0.6c0.133-0.228,0.199-0.475,0.199-0.74v-1.7h-2.119
			c-0.92,0-1.59,0.134-2.01,0.4c-0.42,0.266-0.631,0.652-0.631,1.16v0.42c0,0.507,0.184,0.898,0.551,1.18
			C491.28,59.396,491.777,59.536,492.404,59.536z"/>
		<path d="M504.904,50.336h1.6v1.661h0.08c0.266-0.646,0.656-1.125,1.17-1.436c0.513-0.311,1.13-0.465,1.85-0.465
			c0.642,0,1.222,0.126,1.74,0.38c0.521,0.253,0.963,0.612,1.33,1.08c0.366,0.467,0.646,1.032,0.84,1.698
			c0.193,0.667,0.29,1.414,0.29,2.24c0,0.827-0.097,1.573-0.29,2.24c-0.192,0.667-0.474,1.232-0.84,1.7
			c-0.367,0.467-0.811,0.825-1.33,1.08c-0.52,0.253-1.1,0.38-1.74,0.38c-1.399,0-2.405-0.635-3.02-1.901h-0.08v5.661h-1.6V50.336z
			 M509.164,59.476c0.906,0,1.619-0.285,2.14-0.854c0.521-0.569,0.78-1.315,0.78-2.241v-1.769c0-0.925-0.26-1.672-0.78-2.241
			c-0.521-0.57-1.232-0.854-2.14-0.854c-0.36,0-0.704,0.05-1.03,0.149c-0.327,0.102-0.609,0.238-0.851,0.412
			c-0.24,0.175-0.43,0.386-0.57,0.633c-0.139,0.248-0.209,0.514-0.209,0.794v3.859c0,0.335,0.07,0.634,0.209,0.896
			c0.141,0.262,0.33,0.482,0.57,0.663c0.24,0.182,0.522,0.318,0.851,0.412C508.46,59.429,508.804,59.476,509.164,59.476z"/>
		<path d="M524.004,60.656c-0.6,0-1.03-0.16-1.29-0.48c-0.261-0.318-0.424-0.72-0.489-1.198h-0.102
			c-0.227,0.64-0.6,1.12-1.119,1.438c-0.52,0.32-1.141,0.48-1.859,0.48c-1.094,0-1.943-0.28-2.551-0.84
			c-0.606-0.562-0.91-1.32-0.91-2.28c0-0.975,0.356-1.72,1.07-2.24c0.713-0.52,1.822-0.78,3.33-0.78h2.039v-1.02
			c0-0.733-0.199-1.293-0.6-1.68c-0.401-0.388-1.015-0.58-1.84-0.58c-0.627,0-1.15,0.14-1.57,0.42
			c-0.42,0.278-0.771,0.652-1.05,1.12l-0.96-0.9c0.279-0.56,0.727-1.036,1.34-1.43c0.613-0.395,1.387-0.59,2.32-0.59
			c1.252,0,2.227,0.306,2.92,0.918c0.692,0.61,1.039,1.463,1.039,2.554v5.668h1.182v1.42H524.004z M519.404,59.536
			c0.398,0,0.766-0.047,1.1-0.14c0.333-0.095,0.619-0.228,0.859-0.4s0.427-0.373,0.561-0.6c0.133-0.228,0.199-0.475,0.199-0.74v-1.7
			h-2.119c-0.92,0-1.59,0.134-2.01,0.4c-0.42,0.266-0.631,0.652-0.631,1.16v0.42c0,0.507,0.184,0.898,0.551,1.18
			C518.28,59.396,518.777,59.536,519.404,59.536z"/>
		<path d="M529.463,60.656c-0.56,0-0.982-0.156-1.27-0.469c-0.288-0.313-0.431-0.723-0.431-1.229v-7.204h-1.7v-1.42h0.961
			c0.347,0,0.582-0.068,0.71-0.21c0.126-0.14,0.189-0.383,0.189-0.729v-1.92h1.439v2.858h2.26v1.42h-2.26v7.48h2.1v1.42
			L529.463,60.656L529.463,60.656z"/>
		<path d="M541.703,60.656c-0.6,0-1.029-0.16-1.289-0.48c-0.261-0.318-0.424-0.72-0.49-1.198h-0.101
			c-0.228,0.64-0.601,1.12-1.12,1.438c-0.521,0.32-1.141,0.48-1.859,0.48c-1.094,0-1.942-0.28-2.551-0.84
			c-0.605-0.562-0.91-1.32-0.91-2.28c0-0.975,0.357-1.72,1.07-2.24c0.713-0.52,1.823-0.78,3.33-0.78h2.04v-1.02
			c0-0.733-0.2-1.293-0.601-1.68c-0.399-0.388-1.014-0.58-1.841-0.58c-0.627,0-1.148,0.14-1.569,0.42
			c-0.42,0.278-0.771,0.652-1.05,1.12l-0.961-0.9c0.281-0.56,0.728-1.036,1.341-1.43c0.612-0.395,1.387-0.59,2.319-0.59
			c1.254,0,2.228,0.306,2.92,0.918c0.693,0.61,1.041,1.463,1.041,2.554v5.668h1.181v1.42H541.703z M537.104,59.536
			c0.4,0,0.768-0.047,1.101-0.14c0.334-0.095,0.62-0.228,0.86-0.4c0.238-0.173,0.427-0.373,0.56-0.6c0.133-0.228,0.2-0.475,0.2-0.74
			v-1.7h-2.12c-0.92,0-1.59,0.134-2.01,0.4c-0.421,0.266-0.63,0.652-0.63,1.16v0.42c0,0.507,0.183,0.898,0.55,1.18
			C535.98,59.397,536.477,59.536,537.104,59.536z"/>
	</g>
</g>
<g>
	<circle fill="none" cx="595.25" cy="13.25" r="13.25"/>
	<rect x="582.221" y="5" fill="none" width="25.53" height="21.5"/>
	<g enable-background="new    ">
		<path fill="#206BF8" d="M599.646,19.799h-9.16v-1.72l4.561-4.2c0.652-0.602,1.199-1.239,1.641-1.916
			c0.439-0.675,0.658-1.354,0.658-2.035V9.686c0-0.775-0.213-1.404-0.639-1.887c-0.428-0.48-1.074-0.722-1.941-0.722
			c-0.426,0-0.799,0.061-1.119,0.18c-0.319,0.12-0.598,0.287-0.829,0.5c-0.233,0.215-0.428,0.465-0.58,0.75
			c-0.153,0.287-0.277,0.598-0.37,0.931l-1.5-0.58c0.134-0.413,0.316-0.816,0.55-1.209c0.233-0.395,0.527-0.741,0.881-1.044
			c0.354-0.304,0.779-0.546,1.279-0.73c0.5-0.184,1.09-0.275,1.77-0.275c0.682,0,1.287,0.101,1.82,0.3
			c0.533,0.2,0.979,0.479,1.34,0.84c0.36,0.359,0.638,0.786,0.83,1.278c0.193,0.492,0.291,1.04,0.291,1.639
			c0,0.547-0.078,1.053-0.229,1.52c-0.154,0.467-0.363,0.909-0.631,1.329c-0.267,0.419-0.591,0.829-0.97,1.229
			c-0.381,0.398-0.791,0.8-1.229,1.199l-3.76,3.387h7.34v1.479H599.646z"/>
	</g>
</g>
</svg>
