<?xml version="1.0" encoding="utf-8"?>
<!-- Generator: Adobe Illustrator 16.0.0, SVG Export Plug-In . SVG Version: 6.00 Build 0)  -->
<!DOCTYPE svg PUBLIC "-//W3C//DTD SVG 1.1//EN" "http://www.w3.org/Graphics/SVG/1.1/DTD/svg11.dtd">
<svg version="1.1" id="Layer_1" xmlns="http://www.w3.org/2000/svg" xmlns:xlink="http://www.w3.org/1999/xlink" x="0px" y="0px"
	 width="608.5px" height="193.266px" viewBox="0 0 608.5 193.266" enable-background="new 0 0 608.5 193.266" xml:space="preserve">
<g id="Layer_1_1_">
	<g>
		<path fill="none" stroke="#000000" stroke-width="2" stroke-miterlimit="10" d="M425.919,179.266c0,6.627-5.373,12-12,12H194.581
			c-6.628,0-12-5.373-12-12v-23.334c0-6.627,5.372-12,12-12h219.338c6.627,0,12,5.373,12,12V179.266z"/>
		<polygon points="295.437,180.115 295.437,155.084 313.062,167.599 		"/>
	</g>
	<g>
		<polygon points="528.349,65.889 515.543,56.984 521.396,42.544 505.783,41.037 505.438,25.391 490.123,28.867 485.869,13.772 
			471.604,20.347 464.737,6.234 451.686,14.972 442.869,1.983 431.102,12.385 420.705,0.617 410.305,12.385 398.536,1.984 
			389.716,14.973 376.666,6.236 369.803,20.348 355.541,13.771 351.289,28.865 335.979,25.386 335.632,41.032 320.018,42.54 
			325.867,56.981 313.062,65.889 325.866,74.798 320.014,89.236 335.626,90.743 335.971,106.39 351.287,102.911 341.691,140.521 
			372.227,112.459 376.673,125.546 389.723,116.81 398.542,129.798 410.309,119.395 420.705,131.163 431.105,119.395 
			442.873,129.797 451.693,116.809 464.744,125.545 471.605,111.432 485.869,118.007 490.12,102.914 505.431,106.394 
			505.779,90.747 521.395,89.24 515.542,74.8 		"/>
		<g>
			<g>
				<g>
					<g>
						<defs>
							<polygon id="SVGID_1_" points="528.349,65.889 515.543,56.984 521.396,42.544 505.783,41.037 505.438,25.391 490.123,28.867 
								485.869,13.772 471.604,20.347 464.737,6.234 451.686,14.972 442.869,1.983 431.102,12.385 420.705,0.617 410.305,12.385 
								398.536,1.984 389.716,14.973 376.666,6.236 369.803,20.348 355.541,13.771 351.289,28.865 335.979,25.386 335.632,41.032 
								320.018,42.54 325.867,56.981 313.062,65.889 325.866,74.798 320.014,89.236 335.626,90.743 335.971,106.39 351.287,102.911 
								341.691,140.521 372.227,112.459 376.673,125.546 389.723,116.81 398.542,129.798 410.309,119.395 420.705,131.163 
								431.105,119.395 442.873,129.797 451.693,116.809 464.744,125.545 471.605,111.432 485.869,118.007 490.12,102.914 
								505.431,106.394 505.779,90.747 521.395,89.24 515.542,74.8 							"/>
						</defs>
						<clipPath id="SVGID_2_">
							<use xlink:href="#SVGID_1_"  overflow="visible"/>
						</clipPath>
						<g clip-path="url(#SVGID_2_)">
							<g>
								<path fill="#9EF7CD" d="M361.409,65.953c0.171-0.268,0.334-0.604,0.489-1c0.151-0.396,0.293-0.688,0.412-0.875
									c0.765-1.157,1.676-1.749,2.734-1.78c0.314-0.003,0.699,0.093,1.145,0.293c0.446,0.202,0.84,0.304,1.182,0.318
									c0.059,0.097,0.385,0.484,0.973,1.166c0.594,0.678,0.938,1.211,1.038,1.599c0.05,0.206,0.036,0.544-0.041,1.013
									c-0.077,0.473-0.065,0.846,0.039,1.128c-0.17,0.28-0.3,0.684-0.396,1.208c-0.092,0.526-0.205,0.905-0.342,1.139
									c-0.084,0.14-0.24,0.302-0.472,0.483c-0.229,0.186-0.379,0.324-0.446,0.419c-0.339,0.434-0.785,1.201-1.35,2.308
									c-0.159,0.065-0.337,0.26-0.536,0.572c-0.196,0.318-0.353,0.539-0.459,0.661c-0.092,0.101-0.305,0.268-0.63,0.509
									c-0.325,0.238-0.58,0.465-0.761,0.673c-0.185,0.208-0.267,0.427-0.253,0.659c0.014,0.23,0.47,0.727,1.369,1.487
									c0.172,0.146,0.41,0.381,0.713,0.706c0.307,0.328,0.531,0.556,0.68,0.681c0.172,0.167,0.469,0.344,0.893,0.523
									c0.422,0.182,0.699,0.314,0.842,0.401c0.209,0.115,0.586,0.401,1.131,0.852c0.549,0.451,0.897,0.771,1.056,0.96
									c0.129,0.151,0.295,0.395,0.49,0.725c0.198,0.335,0.321,0.58,0.366,0.743c0.109,0.454,0.058,1.017-0.164,1.687
									c-0.219,0.672-0.508,1.077-0.871,1.216c-0.055,0.052-0.139,0.072-0.245,0.069c-0.108-0.005-0.188-0.003-0.239,0.003
									c-0.052,0.007-0.133-0.007-0.246-0.044c-0.111-0.036-0.195-0.064-0.254-0.093c-0.056-0.021-0.146-0.056-0.27-0.102
									c-0.125-0.047-0.224-0.084-0.287-0.118c-0.117-0.047-0.329-0.126-0.646-0.24c-0.315-0.11-0.553-0.218-0.719-0.321
									c-0.188-0.103-0.403-0.295-0.665-0.587c-0.255-0.29-0.453-0.492-0.597-0.596c-0.196-0.165-0.509-0.345-0.945-0.548
									c-0.437-0.201-0.731-0.354-0.896-0.457c-0.164-0.103-0.574-0.425-1.229-0.967c-0.657-0.541-1.198-0.897-1.628-1.064
									c-0.205,0.201-0.374,0.455-0.51,0.763c-0.137,0.308-0.269,0.679-0.396,1.112c-0.126,0.434-0.247,0.767-0.36,0.996
									c-0.056,0.07-0.121,0.221-0.203,0.445c-0.086,0.223-0.154,0.372-0.207,0.445c-0.053,0.068-0.188,0.175-0.398,0.312
									c-0.213,0.14-0.365,0.256-0.46,0.356c-0.089,0.097-0.28,0.339-0.575,0.724c-0.297,0.385-0.576,0.713-0.845,0.988
									c-0.267,0.271-0.534,0.45-0.798,0.532c-0.445,0.151-0.895,0.183-1.344,0.09c-0.45-0.092-0.735-0.256-0.856-0.495
									c-0.095-0.198-0.052-0.599,0.123-1.199c0.179-0.599,0.267-1.04,0.269-1.315c-0.002-0.15-0.045-0.345-0.137-0.584
									c-0.088-0.245-0.142-0.431-0.16-0.556c-0.015-0.083,0.018-0.242,0.088-0.476s0.099-0.404,0.082-0.509
									c-0.071-0.649-0.084-1.213-0.024-1.688c0.004-0.105,0.03-0.278,0.083-0.509c0.051-0.23,0.081-0.388,0.089-0.475
									c-0.011-0.082-0.055-0.217-0.125-0.396c-0.067-0.182-0.104-0.326-0.093-0.433c-0.016-0.083,0.018-0.2,0.088-0.35
									c0.075-0.149,0.119-0.258,0.13-0.322c0.008-0.235-0.019-0.613-0.074-1.14c-0.058-0.523-0.079-0.914-0.077-1.17
									c0.021-0.28,0.075-0.943,0.166-1.989c0.09-1.045,0.112-1.775,0.068-2.194c-0.02-0.125-0.075-0.414-0.178-0.869
									c-0.098-0.452-0.124-0.756-0.088-0.911c0.009-0.107,0.051-0.273,0.134-0.5c0.084-0.229,0.129-0.39,0.135-0.498
									c0.005-0.107-0.006-0.287-0.03-0.539c-0.027-0.251-0.025-0.431,0-0.542c0.016-0.175,0.09-0.417,0.223-0.736
									c0.135-0.314,0.199-0.551,0.199-0.699c-0.004-0.445-0.055-0.858-0.152-1.236c-0.1-0.379-0.15-0.796-0.155-1.254
									c-0.003-0.457,0.093-0.829,0.281-1.112c0.985-0.655,1.909-0.903,2.765-0.729c1.288,0.231,2.195,1.513,2.713,3.841
									C361.021,66.422,361.236,66.225,361.409,65.953z M365.521,72.556c0.168-0.292,0.328-0.62,0.476-0.979
									c0.147-0.362,0.271-0.666,0.362-0.901c0.094-0.237,0.211-0.589,0.354-1.058c0.141-0.468,0.254-0.806,0.329-1.007
									c0.188-0.583,0.331-1.188,0.431-1.819c0.099-0.633,0.066-1.286-0.084-1.967c-0.158-0.68-0.496-1.131-1.02-1.351
									c-0.686-0.195-1.281-0.147-1.781,0.138c-0.5,0.287-0.9,0.709-1.201,1.266c-0.08,0.162-0.14,0.431-0.182,0.81
									c-0.038,0.378-0.078,0.655-0.114,0.83c-0.038,0.178-0.133,0.399-0.286,0.667c-0.149,0.267-0.24,0.466-0.262,0.597
									c-0.021,0.153-0.008,0.438,0.032,0.857c0.042,0.419,0.048,0.737,0.015,0.955c-0.021,0.13-0.1,0.33-0.229,0.594
									c-0.133,0.267-0.209,0.474-0.229,0.625c-0.006,0.086,0.015,0.224,0.062,0.404c0.054,0.188,0.072,0.332,0.065,0.438
									c0.003,0.148-0.038,0.348-0.118,0.595c-0.08,0.246-0.125,0.414-0.134,0.499c-0.004,0.256,0.011,0.524,0.041,0.808
									c0.031,0.282,0.071,0.589,0.121,0.924l0.116,0.78c0.88-0.088,1.777-0.713,2.691-1.869
									C365.171,73.123,365.354,72.847,365.521,72.556z"/>
								<path fill="#9EF7CD" d="M389.311,71.736c0.133,0.323,0.222,0.589,0.263,0.793c0.036,0.206,0.019,0.45-0.067,0.729
									c-0.087,0.278-0.176,0.504-0.271,0.677c-0.088,0.173-0.198,0.39-0.332,0.643c-0.133,0.252-0.229,0.458-0.29,0.614
									c-0.134,0.404-0.313,1.033-0.552,1.89c-0.231,0.854-0.436,1.496-0.604,1.925c-0.178,0.112-0.334,0.271-0.471,0.486
									c0.037,0.547-0.199,1.258-0.721,2.133c-0.52,0.875-0.777,1.602-0.779,2.176c-0.153,0.108-0.379,0.297-0.68,0.564
									c-0.303,0.269-0.554,0.438-0.756,0.511c-2.076,0.76-3.675-0.675-4.791-4.299c-0.253,0.019-0.396,0.192-0.431,0.528
									c-0.035,0.333-0.089,0.538-0.165,0.613c-0.146,0.17-0.338,0.429-0.587,0.773c-0.247,0.346-0.443,0.606-0.601,0.792
									c-0.151,0.184-0.391,0.384-0.711,0.602c-0.314,0.217-0.679,0.388-1.088,0.515c-1.175,0.388-2.18,0.106-3.014-0.844
									c-0.834-0.951-1.311-2.258-1.43-3.922c-0.006-0.167,0.01-0.43,0.041-0.787c0.031-0.354,0.043-0.628,0.035-0.821
									c-0.018-0.253-0.064-0.652-0.146-1.207c-0.083-0.551-0.121-0.941-0.116-1.178c0.007-0.257,0.042-0.613,0.114-1.072
									c0.068-0.458,0.115-0.762,0.136-0.911c0.062-0.714,0.119-1.235,0.164-1.572s0.146-0.713,0.295-1.129
									c0.149-0.417,0.354-0.699,0.607-0.841c0.917-0.564,1.963-0.477,3.139,0.265c0.171,0.441,0.335,0.934,0.49,1.475
									c0.153,0.541,0.323,1.206,0.506,2s0.315,1.34,0.401,1.648c0.021,0.124-0.024,0.268-0.141,0.437
									c-0.113,0.165-0.17,0.324-0.17,0.474c0.104,0.539,0.111,1.346,0.024,2.422c-0.08,1.075-0.017,1.918,0.202,2.522
									c0.375-0.056,0.673-0.278,0.891-0.677c0.216-0.394,0.417-0.911,0.598-1.556c0.024-0.109,0.047-0.188,0.062-0.233
									c0.098-0.334,0.262-0.833,0.492-1.493c0.229-0.664,0.381-1.127,0.447-1.393c0.053-0.22,0.094-0.742,0.117-1.566
									c0.025-0.819,0.111-1.392,0.258-1.714c0.191-0.413,0.584-0.751,1.17-1.021c0.59-0.268,1.1-0.307,1.531-0.115
									c0.16,0.082,0.35,0.298,0.559,0.649c0.214,0.354,0.344,0.618,0.394,0.805c0.315,0.972,0.474,2.489,0.472,4.542
									s0.176,3.512,0.536,4.374c0.517-0.142,0.938-0.553,1.271-1.244c0.335-0.688,0.563-1.093,0.696-1.22
									c0.388-1.825,1-3.406,1.846-4.745c-0.074-1.074,0.141-2.052,0.646-2.94L389.311,71.736z M380.371,63.175
									c0.076,0.243,0.125,0.491,0.143,0.745c0.021,0.254,0.071,0.552,0.164,0.899c-0.171,0.133-0.421,0.451-0.751,0.958
									c-0.325,0.508-0.626,0.864-0.892,1.074c-0.113,0.103-0.332,0.241-0.659,0.415c-0.321,0.177-0.551,0.318-0.685,0.423
									c-1.642,1.287-2.674,1.483-3.104,0.592c-0.276-0.557-0.043-1.333,0.704-2.341c0.174-0.261,0.75-0.88,1.732-1.854
									c0.353-0.354,0.643-0.623,0.869-0.817c0.227-0.19,0.529-0.366,0.911-0.52c0.384-0.152,0.787-0.22,1.216-0.198
									C380.177,62.724,380.29,62.933,380.371,63.175z"/>
								<path fill="#9EF7CD" d="M392.904,71.234c-0.31,1.239-0.418,2.14-0.334,2.698c0.014,0.233,0.104,0.546,0.267,0.936
									c0.164,0.392,0.271,0.654,0.31,0.8c0.02,0.126,0.026,0.306,0.02,0.539c-0.006,0.235-0.003,0.404,0.016,0.511
									c0.102,0.538,0.318,1.02,0.664,1.449c0.34,0.429,0.697,0.709,1.08,0.845c0.413-0.232,0.799-0.54,1.154-0.924
									c0.355-0.383,0.645-0.729,0.854-1.036c0.211-0.31,0.479-0.739,0.814-1.288c0.329-0.551,0.585-0.954,0.761-1.214
									c1.392-2.08,2.146-3.225,2.265-3.434c0.053-0.095,0.129-0.28,0.236-0.562c0.104-0.282,0.229-0.513,0.358-0.692
									c0.135-0.18,0.311-0.308,0.534-0.383c0.043,0.29,0.026,0.576-0.049,0.854c-0.076,0.275-0.219,0.598-0.433,0.959
									c-0.213,0.356-0.353,0.608-0.415,0.746c-0.129,0.274-0.297,0.709-0.492,1.303c-0.197,0.593-0.361,1.028-0.49,1.303
									c-0.102,0.187-0.277,0.431-0.532,0.734c-0.25,0.302-0.429,0.537-0.531,0.7c-0.065,0.114-0.122,0.277-0.165,0.489
									c-0.046,0.209-0.093,0.349-0.146,0.419c-0.239,0.397-0.691,0.96-1.36,1.688c-0.67,0.728-1.116,1.256-1.343,1.589
									c-0.346,0.115-0.682,0.293-1.006,0.534c-0.326,0.239-0.58,0.433-0.763,0.576c-0.179,0.143-0.459,0.265-0.838,0.361
									c-0.381,0.102-0.792,0.086-1.233-0.04c-0.295-0.085-0.739-0.28-1.353-0.598c-0.61-0.312-1.079-0.583-1.414-0.809
									c-0.383-0.286-0.771-0.668-1.161-1.153c-0.391-0.483-0.658-0.927-0.809-1.333c-0.064-0.16-0.114-0.475-0.154-0.948
									c-0.04-0.472-0.085-0.812-0.139-1.019c-0.022-0.167-0.098-0.415-0.223-0.749c-0.121-0.33-0.189-0.593-0.195-0.785
									c-0.088-1.009,0.171-2.138,0.771-3.387c0.599-1.25,1.314-2.182,2.14-2.793c0.32-0.262,0.856-0.595,1.604-0.99
									c0.751-0.398,1.302-0.624,1.658-0.677c0.187-0.027,0.369-0.036,0.555-0.021c0.183,0.016,0.324,0.035,0.425,0.062
									c0.1,0.026,0.268,0.078,0.502,0.148c0.231,0.074,0.396,0.122,0.485,0.152l0.361,0.072c0.22,0.053,0.379,0.099,0.479,0.135
									c0.104,0.04,0.234,0.104,0.398,0.198c0.162,0.094,0.283,0.195,0.363,0.312c0.164,0.381,0.308,0.887,0.435,1.518
									c0.125,0.633,0.101,1.234-0.08,1.812c-0.179,0.583-0.517,0.854-1.008,0.823c-0.324-0.02-0.565-0.167-0.726-0.452
									c-0.158-0.285-0.26-0.6-0.303-0.945c-0.04-0.345-0.154-0.657-0.347-0.937c-0.19-0.281-0.479-0.424-0.863-0.432
									C392.896,69.341,392.691,70.115,392.904,71.234z"/>
								<path fill="#9EF7CD" d="M417.882,67.476c0.134,0.323,0.22,0.586,0.261,0.794c0.041,0.206,0.021,0.449-0.066,0.729
									c-0.086,0.275-0.176,0.505-0.266,0.677c-0.092,0.173-0.201,0.388-0.336,0.642c-0.134,0.252-0.229,0.46-0.291,0.617
									c-0.133,0.404-0.312,1.033-0.55,1.89c-0.233,0.854-0.437,1.494-0.606,1.924c-0.174,0.11-0.33,0.271-0.469,0.485
									c0.037,0.546-0.201,1.26-0.722,2.135s-0.774,1.602-0.774,2.175c-0.153,0.106-0.383,0.295-0.685,0.562
									c-0.301,0.27-0.551,0.439-0.753,0.513c-2.08,0.759-3.676-0.678-4.791-4.301c-0.254,0.02-0.396,0.193-0.432,0.529
									c-0.036,0.334-0.09,0.54-0.163,0.614c-0.146,0.171-0.341,0.43-0.589,0.771c-0.244,0.349-0.443,0.61-0.602,0.793
									c-0.15,0.186-0.389,0.386-0.703,0.604c-0.32,0.217-0.685,0.388-1.093,0.515c-1.174,0.385-2.183,0.106-3.015-0.845
									c-0.833-0.951-1.313-2.257-1.432-3.921c-0.004-0.168,0.014-0.431,0.043-0.789c0.031-0.355,0.043-0.627,0.035-0.821
									c-0.016-0.253-0.064-0.652-0.146-1.207c-0.082-0.551-0.116-0.943-0.112-1.18c0.005-0.256,0.043-0.613,0.114-1.072
									c0.068-0.456,0.113-0.76,0.134-0.911c0.062-0.711,0.12-1.233,0.164-1.57c0.046-0.336,0.146-0.715,0.295-1.129
									c0.149-0.418,0.354-0.699,0.608-0.843c0.914-0.562,1.962-0.474,3.137,0.268c0.172,0.44,0.336,0.933,0.491,1.474
									c0.153,0.542,0.323,1.207,0.506,2c0.184,0.793,0.315,1.34,0.403,1.647c0.021,0.125-0.026,0.271-0.143,0.438
									c-0.113,0.165-0.172,0.324-0.171,0.472c0.101,0.538,0.11,1.349,0.028,2.424c-0.086,1.075-0.019,1.918,0.199,2.522
									c0.375-0.055,0.672-0.28,0.891-0.676c0.218-0.396,0.414-0.911,0.6-1.556c0.023-0.109,0.043-0.188,0.062-0.234
									c0.097-0.333,0.262-0.831,0.493-1.493c0.23-0.664,0.382-1.126,0.445-1.393c0.053-0.222,0.094-0.744,0.116-1.566
									c0.029-0.822,0.112-1.393,0.255-1.715c0.197-0.414,0.586-0.75,1.176-1.021c0.588-0.267,1.098-0.306,1.529-0.113
									c0.163,0.081,0.348,0.298,0.559,0.648c0.213,0.354,0.348,0.619,0.395,0.807c0.316,0.972,0.475,2.487,0.472,4.542
									c-0.002,2.054,0.177,3.513,0.539,4.374c0.513-0.142,0.935-0.555,1.267-1.243s0.567-1.094,0.697-1.221
									c0.389-1.822,1.002-3.404,1.846-4.745c-0.074-1.073,0.144-2.054,0.647-2.938L417.882,67.476z"/>
								<path fill="#9EF7CD" d="M422.844,73.907c0.432-0.905,0.754-1.473,0.978-1.695c0.058-0.329,0.146-0.677,0.271-1.047
									c0.127-0.37,0.242-0.654,0.34-0.85c0.102-0.193,0.27-0.509,0.517-0.938c0.244-0.431,0.39-0.702,0.437-0.816
									c0.03-0.09,0.083-0.306,0.16-0.646c0.076-0.342,0.127-0.573,0.152-0.695c0.021-0.118,0.087-0.319,0.182-0.599
									c0.095-0.28,0.189-0.488,0.273-0.617c0.087-0.129,0.21-0.281,0.358-0.452c0.157-0.172,0.324-0.315,0.499-0.426
									c0.104,0.114,0.142,0.294,0.112,0.542c-0.025,0.25-0.05,0.418-0.068,0.506c-0.018,0.088-0.079,0.256-0.179,0.506
									c-0.103,0.25-0.167,0.419-0.197,0.509c-0.025,0.108-0.104,0.367-0.235,0.771l-0.272,0.84
									c-0.052,0.157-0.136,0.404-0.258,0.739c-0.118,0.337-0.223,0.606-0.309,0.812c-0.091,0.203-0.194,0.448-0.32,0.732
									c-0.13,0.287-0.257,0.543-0.38,0.774c-0.125,0.232-0.261,0.454-0.397,0.666c-0.072,0.354-0.186,0.726-0.329,1.118
									c-0.143,0.394-0.333,0.864-0.569,1.409l-0.478,1.093c-0.019,0.025-0.034,0.069-0.044,0.132
									c-0.395,0.935-0.818,1.509-1.277,1.727c-0.035,0.023-0.076,0.043-0.116,0.048c-0.892,0.303-1.85,0.203-2.874-0.304
									c-1.021-0.511-1.693-1.122-2.012-1.844c-0.096-0.195-0.168-0.507-0.219-0.923c-0.052-0.418-0.111-0.761-0.169-1.026
									c-0.04-0.123-0.142-0.391-0.296-0.805c-0.157-0.41-0.253-0.724-0.283-0.933c-0.062-0.286-0.082-0.689-0.052-1.204
									c0.026-0.515,0.048-0.826,0.053-0.934c-0.008-0.189-0.036-0.477-0.093-0.852c-0.059-0.374-0.098-0.713-0.122-1.017
									c-0.021-0.306-0.021-0.587,0-0.848c0.062-0.882,0.282-2.438,0.665-4.663c0.38-2.229,0.536-3.856,0.466-4.892
									c0.271-0.468,0.491-1.265,0.648-2.396c0.161-1.129,0.35-1.915,0.561-2.353c0.802-0.479,1.614-0.553,2.439-0.219
									c0.827,0.335,1.438,0.897,1.835,1.69c0.393,0.771,0.614,1.344,0.67,1.719c0.039,0.103,0.021,0.293-0.04,0.581
									c-0.063,0.285-0.097,0.494-0.098,0.621c-0.003,0.148,0.046,0.346,0.134,0.588c0.089,0.241,0.144,0.414,0.159,0.518
									c0.015,0.381-0.104,0.895-0.352,1.538c-0.243,0.644-0.378,1.092-0.398,1.354c-0.023,0.149-0.019,0.434,0.015,0.843
									c0.024,0.412,0.008,0.738-0.062,0.981c-0.061,0.183-0.19,0.439-0.396,0.777c-0.204,0.337-0.343,0.62-0.415,0.844
									c-0.033,0.069-0.062,0.217-0.095,0.444c-0.028,0.229-0.057,0.408-0.077,0.541c-0.285,0.938-0.443,1.599-0.475,1.984
									c-0.015,0.319,0.006,0.877,0.061,1.669c0.053,0.79,0.068,1.396,0.049,1.827c-0.013,0.192-0.031,0.537-0.066,1.031
									c-0.031,0.496-0.049,0.826-0.045,0.996c0.004,0.169,0.017,0.419,0.029,0.747c0.02,0.328,0.069,0.604,0.157,0.822
									c0.084,0.221,0.2,0.448,0.34,0.684C421.909,75.391,422.415,74.811,422.844,73.907z M420.693,58.534
									c-0.031,0.645-0.041,1.103-0.032,1.379c0.009,0.272,0.185,0.629,0.523,1.068c0.436-0.808,0.645-1.787,0.636-2.935
									c-0.014-1.149-0.258-2.261-0.737-3.337c-0.21,0.031-0.377,0.083-0.504,0.168c-0.122,0.083-0.21,0.17-0.263,0.264
									c-0.047,0.093-0.07,0.225-0.069,0.394c0.005,0.169,0.024,0.31,0.062,0.42c0.039,0.111,0.09,0.272,0.155,0.489
									c0.063,0.215,0.101,0.372,0.116,0.479C420.689,57.355,420.725,57.892,420.693,58.534z"/>
								<path fill="#9EF7CD" d="M432.217,64.958c-0.225-0.093-0.394-0.225-0.505-0.385c-0.108-0.166-0.252-0.312-0.431-0.436
									c-0.176-0.122-0.369-0.157-0.573-0.104c-0.122,0.036-0.227,0.124-0.313,0.255c-0.088,0.128-0.152,0.308-0.207,0.541
									c-0.052,0.23-0.091,0.462-0.118,0.688c-0.03,0.23-0.054,0.508-0.067,0.841c-0.013,0.33-0.025,0.607-0.036,0.834
									c-0.007,0.226-0.014,0.511-0.016,0.851c-0.004,0.341-0.005,0.576-0.006,0.703c-0.012,0.086-0.021,0.216-0.023,0.387
									c-0.009,0.171-0.01,0.304-0.006,0.398c0.003,0.095,0.006,0.217,0.006,0.364c0.003,0.15,0.017,0.27,0.04,0.362
									c0.022,0.093,0.059,0.185,0.106,0.288c0.047,0.1,0.113,0.174,0.21,0.225c0.093,0.048,0.191,0.086,0.302,0.113
									c0.229-0.034,0.41-0.055,0.536-0.062c0.127-0.01,0.266-0.124,0.427-0.353c0.157-0.227,0.271-0.396,0.337-0.514
									c0.069-0.116,0.163-0.309,0.285-0.569c0.119-0.262,0.195-0.428,0.229-0.496c0.118-0.208,0.275-0.472,0.473-0.79
									c0.201-0.315,0.358-0.594,0.48-0.837c0.125-0.243,0.221-0.507,0.282-0.794c0.038-0.175,0.062-0.427,0.063-0.757
									c0.003-0.333,0.016-0.571,0.034-0.728c0.065-0.264,0.3-0.937,0.688-2.02c0.328-1.09,0.62-1.708,0.872-1.852
									c0.862-0.513,1.892-0.306,3.094,0.62c0.001,0.278,0.039,0.763,0.122,1.451c0.08,0.692,0.117,1.221,0.108,1.583
									c-0.007,0.106-0.048,0.289-0.127,0.543c-0.078,0.26-0.116,0.45-0.121,0.579c-0.026,0.237-0.002,0.586,0.075,1.042
									c0.078,0.457,0.112,0.804,0.105,1.039c0.002,0.296-0.036,0.842-0.122,1.631c-0.088,0.788-0.11,1.426-0.084,1.912
									c0.029,0.761,0.075,1.286,0.139,1.576c0.018,0.103,0.095,0.257,0.23,0.461c0.134,0.202,0.212,0.356,0.229,0.461
									c0.013,0.083,0.003,0.205-0.022,0.369c-0.028,0.166-0.027,0.288,0.006,0.369c0.163,0.379,0.274,0.774,0.337,1.192
									c0.062,0.417-0.04,0.793-0.311,1.132c-0.63,0.18-1.211,0.213-1.736,0.102c-0.533-0.115-0.965-0.322-1.308-0.622
									c-0.347-0.298-0.659-0.727-0.942-1.281c-0.285-0.553-0.508-1.083-0.669-1.591c-0.162-0.508-0.325-1.109-0.493-1.811
									c-0.35,0.076-0.74,0.42-1.17,1.039c-0.431,0.614-0.712,0.978-0.844,1.083c-1.311,0.938-2.505,1.256-3.598,0.95
									c-0.415-0.107-0.985-0.486-1.696-1.138c-0.717-0.646-1.178-1.244-1.387-1.788c-0.152-0.596-0.267-1.062-0.337-1.401
									c-0.07-0.342-0.068-0.778,0.014-1.312c0.08-0.532,0.161-0.95,0.243-1.249c0.086-0.3,0.196-0.692,0.336-1.184
									c0.141-0.489,0.24-0.867,0.309-1.131c0.305-0.259,0.705-0.854,1.201-1.792c0.498-0.938,0.979-1.565,1.443-1.893
									c0.855-0.532,1.665-0.705,2.43-0.521c0.76,0.185,1.438,0.636,2.036,1.354c0.18,0.206,0.327,0.424,0.444,0.652
									c0.119,0.227,0.174,0.479,0.16,0.757c-0.009,0.279-0.143,0.5-0.394,0.665C432.699,65.056,432.444,65.051,432.217,64.958z"/>
							</g>
							<g>
								<path fill="#9EF7CD" d="M347.331,23.985c0.06,0.206,0.278,0.286,0.659,0.243c0.387-0.044,0.587,0.075,0.601,0.356
									c0.171,0.269,0.188,0.479,0.056,0.626c-0.131,0.146-0.32,0.231-0.568,0.255c-0.25,0.021-0.446,0.101-0.602,0.237
									c-0.1,0.093-0.287,0.276-0.557,0.56c-0.27,0.281-0.504,0.465-0.704,0.553c-0.555,0.281-1.788,0.63-3.7,1.053
									c-1.908,0.422-3.048,0.889-3.412,1.401c-0.043,0.521,0.276,1.444,0.963,2.774c-0.161,0.332-0.232,0.786-0.213,1.369
									c0.021,0.579,0.072,1.088,0.164,1.521c0.09,0.437,0.228,1.018,0.414,1.739c0.185,0.725,0.301,1.176,0.351,1.353
									c0.782,0.195,2.177,0.053,4.187-0.427c2.006-0.479,3.191-0.74,3.562-0.777c0.527,1.438,0.021,2.467-1.521,3.086
									c-0.396,0.173-1.293,0.383-2.698,0.631c-1.404,0.25-2.229,0.516-2.463,0.805c-0.148,0.138-0.347,0.579-0.58,1.327
									c-0.236,0.747-0.354,1.294-0.354,1.643c0.011,0.376,0.116,0.957,0.318,1.741c0.203,0.784,0.322,1.36,0.363,1.729
									c0.047,0.969-0.033,2.053-0.238,3.251c0.283,0.556,0.514,1.495,0.691,2.823c0.18,1.33,0.405,2.368,0.676,3.116
									c-0.196,0.878-0.593,1.734-1.187,2.565c-0.593,0.829-1.347,1.481-2.261,1.96c-0.912,0.476-1.898,0.401-2.961-0.225
									c-0.08-0.517-0.364-1.252-0.854-2.209c-0.487-0.959-0.8-1.799-0.938-2.52c-0.092-0.451-0.198-1.261-0.317-2.431
									c-0.118-1.172-0.24-2.09-0.362-2.755c-0.088-0.545-0.289-1.438-0.604-2.682c-0.312-1.246-0.5-2.144-0.561-2.698
									c-0.02-0.184-0.017-0.457,0.012-0.812c0.027-0.356,0.033-0.626,0.015-0.812c-0.132-0.816-0.351-1.938-0.649-3.359
									c-0.301-1.422-0.494-2.345-0.58-2.765c-0.094-0.447-0.233-1.043-0.426-1.782c-0.188-0.74-0.33-1.333-0.425-1.783
									c-0.089-0.546-0.155-1.304-0.206-2.272c-0.048-0.969-0.113-1.664-0.199-2.085c-0.061-0.331-0.194-0.821-0.41-1.476
									c-0.215-0.653-0.373-1.17-0.479-1.557c-0.105-0.382-0.085-0.79,0.062-1.229c0.146-0.437,0.459-0.77,0.933-0.996
									c1.524-0.677,3.702-0.491,6.528,0.562c3.877-0.641,6.951-1.384,9.219-2.234C346.443,23.471,346.861,23.671,347.331,23.985z"
									/>
								<path fill="#9EF7CD" d="M360.1,46.791c0.217-0.141,0.418-0.348,0.612-0.621c0.19-0.277,0.333-0.48,0.423-0.618
									c0.088-0.136,0.227-0.412,0.411-0.828c0.187-0.416,0.285-0.657,0.297-0.725c1.69-3.83,2.749-6.294,3.171-7.396
									c0.017-0.066,0.051-0.188,0.113-0.365c0.062-0.175,0.113-0.3,0.158-0.375c0.042-0.073,0.093-0.198,0.156-0.375
									c0.061-0.176,0.113-0.301,0.153-0.377l0.191-0.338c0.086-0.147,0.157-0.266,0.214-0.344c0.059-0.08,0.131-0.18,0.227-0.301
									c0.092-0.123,0.186-0.218,0.274-0.291s0.188-0.143,0.299-0.201c0.112-0.066,0.226-0.112,0.343-0.145
									c0.146,0.402,0.198,0.822,0.162,1.262c-0.035,0.438-0.109,0.798-0.222,1.084c-0.11,0.284-0.295,0.683-0.546,1.198
									c-0.256,0.514-0.418,0.858-0.494,1.041c-0.925,2.029-1.467,3.498-1.629,4.397c-0.287,0.333-0.521,0.708-0.709,1.125
									c-0.186,0.415-0.378,0.938-0.584,1.565c-0.208,0.627-0.357,1.05-0.457,1.267c-0.572,0.445-1.316,1.525-2.232,3.239
									c-0.918,1.71-1.84,2.793-2.762,3.239c-0.554,0.278-1.102,0.434-1.633,0.456c-0.903,0.061-1.93-0.493-3.076-1.664
									c-1.148-1.168-1.857-2.461-2.126-3.876c-0.033-0.117-0.026-0.357,0.017-0.719c0.041-0.359,0.049-0.646,0.021-0.86
									c-0.021-0.188-0.082-0.413-0.19-0.685c-0.104-0.271-0.166-0.484-0.179-0.641c-0.046-0.62,0.015-1.548,0.179-2.783
									c0.163-1.233,0.242-2.089,0.235-2.562c0.011-0.192,0.011-0.646,0.003-1.356c-0.007-0.712,0-1.251,0.025-1.623
									c0.021-0.372,0.092-0.795,0.215-1.271c0.119-0.479,0.294-0.826,0.517-1.049c0.793-0.791,1.769-1.046,2.923-0.766
									c1.156,0.281,1.961,0.833,2.411,1.658c0.272,0.525,0.57,1.822,0.895,3.888c0.504,2.49,0.771,4.206,0.812,5.146
									c0.013,0.153-0.017,0.479-0.086,0.975c-0.067,0.494-0.052,0.896,0.05,1.199c0.102,0.305,0.329,0.534,0.69,0.687
									C359.641,47.021,359.885,46.929,360.1,46.791z M354.561,22.709c0.638,0.061,1.324,0.337,2.062,0.828
									c0.664,0.447,1.047,0.856,1.146,1.225c0.103,0.367,0.11,1.024,0.024,1.966c-0.009,0.194,0.004,0.441,0.041,0.749
									c0.039,0.307,0.054,0.562,0.051,0.771c-0.007,0.208-0.053,0.388-0.137,0.538c-0.133,0.321-0.455,0.696-0.97,1.126
									c-0.514,0.427-0.92,0.683-1.213,0.764c-0.735,0.206-1.729,0.054-2.979-0.455c-0.68-0.285-1.383-0.676-2.108-1.172
									c-0.725-0.493-1.146-0.949-1.258-1.359c-0.146-0.4-0.082-0.976,0.188-1.716c0.27-0.74,0.577-1.286,0.923-1.635
									c0.428-0.405,1.062-0.789,1.911-1.151C353.154,22.808,353.927,22.647,354.561,22.709z"/>
								<path fill="#9EF7CD" d="M374.52,43.679c0.459-1.378,0.823-2.25,1.105-2.611c0.021-0.482,0.092-1.003,0.207-1.558
									c0.117-0.554,0.223-0.981,0.332-1.28c0.107-0.3,0.299-0.779,0.574-1.441s0.437-1.081,0.484-1.251
									c0.023-0.137,0.062-0.452,0.113-0.958c0.05-0.505,0.078-0.849,0.096-1.025c0.014-0.177,0.062-0.478,0.153-0.897
									c0.088-0.423,0.183-0.733,0.284-0.935c0.104-0.205,0.251-0.443,0.443-0.72c0.191-0.275,0.402-0.508,0.636-0.699
									c0.169,0.143,0.254,0.397,0.261,0.759c0.004,0.363,0.002,0.607-0.011,0.739c-0.013,0.129-0.067,0.383-0.168,0.761
									c-0.101,0.376-0.164,0.631-0.189,0.768c-0.018,0.163-0.085,0.546-0.202,1.149l-0.246,1.256
									c-0.045,0.234-0.121,0.605-0.236,1.112c-0.112,0.508-0.211,0.916-0.301,1.226c-0.088,0.311-0.201,0.682-0.332,1.113
									c-0.133,0.436-0.271,0.828-0.406,1.186c-0.139,0.354-0.29,0.696-0.452,1.026c-0.045,0.521-0.136,1.076-0.269,1.668
									c-0.14,0.594-0.33,1.305-0.576,2.135l-0.487,1.655c-0.021,0.038-0.034,0.106-0.038,0.202c-0.4,1.412-0.91,2.312-1.527,2.709
									c-0.053,0.045-0.105,0.075-0.164,0.093c-1.229,0.598-2.625,0.62-4.188,0.071c-1.562-0.546-2.641-1.309-3.227-2.287
									c-0.172-0.27-0.332-0.701-0.479-1.292c-0.149-0.592-0.292-1.075-0.43-1.45c-0.077-0.169-0.269-0.535-0.566-1.102
									c-0.3-0.567-0.489-0.998-0.573-1.291c-0.146-0.402-0.24-0.979-0.289-1.724c-0.051-0.748-0.08-1.199-0.094-1.354
									c-0.043-0.271-0.138-0.673-0.285-1.203c-0.146-0.53-0.267-1.012-0.355-1.446c-0.088-0.436-0.139-0.841-0.147-1.219
									c-0.071-1.279-0.03-3.555,0.119-6.832c0.151-3.273,0.083-5.646-0.202-7.123c0.309-0.719,0.478-1.907,0.508-3.562
									c0.028-1.655,0.156-2.818,0.386-3.483c1.064-0.835,2.227-1.086,3.476-0.753c1.248,0.334,2.229,1.037,2.938,2.106
									c0.701,1.041,1.125,1.827,1.274,2.354c0.068,0.141,0.086,0.421,0.046,0.842c-0.044,0.424-0.054,0.729-0.033,0.912
									c0.027,0.214,0.129,0.488,0.302,0.819c0.173,0.334,0.276,0.572,0.317,0.72c0.088,0.546,0.015,1.306-0.224,2.274
									c-0.237,0.969-0.351,1.641-0.343,2.019c0,0.224,0.057,0.626,0.174,1.212c0.115,0.584,0.143,1.062,0.086,1.426
									c-0.053,0.268-0.193,0.667-0.43,1.188c-0.234,0.525-0.383,0.955-0.45,1.291c-0.033,0.104-0.052,0.323-0.054,0.657
									c-0.002,0.332-0.01,0.596-0.021,0.79c-0.241,1.396-0.352,2.378-0.319,2.938c0.032,0.469,0.16,1.265,0.379,2.394
									c0.219,1.128,0.354,2.002,0.396,2.623c0.019,0.28,0.044,0.778,0.086,1.498c0.039,0.716,0.079,1.194,0.116,1.439
									c0.031,0.243,0.092,0.603,0.177,1.069c0.083,0.468,0.207,0.852,0.369,1.156c0.164,0.303,0.367,0.609,0.615,0.922
									C373.443,45.985,374.064,45.057,374.52,43.679z M368.684,21.94c0.07,0.934,0.133,1.596,0.199,1.988
									c0.062,0.396,0.378,0.877,0.947,1.447c0.479-1.242,0.607-2.688,0.384-4.337c-0.22-1.65-0.771-3.207-1.655-4.674
									c-0.295,0.08-0.523,0.192-0.688,0.335c-0.17,0.14-0.282,0.282-0.337,0.426c-0.056,0.141-0.064,0.334-0.027,0.578
									c0.036,0.245,0.095,0.439,0.166,0.596c0.073,0.155,0.175,0.379,0.308,0.677c0.129,0.294,0.213,0.52,0.256,0.665
									C368.463,20.241,368.613,21.008,368.684,21.94z"/>
								<path fill="#9EF7CD" d="M386.505,29.004c0.231-0.254,0.415-0.502,0.554-0.748c0.137-0.242,0.307-0.575,0.508-0.996
									c0.197-0.42,0.361-0.743,0.49-0.969c0.105-0.188,0.305-0.59,0.59-1.21c0.287-0.619,0.549-1.104,0.783-1.454
									c0.234-0.352,0.469-0.622,0.699-0.812c0.633-0.462,1.375-0.697,2.227-0.714c0.854-0.017,1.545,0.25,2.078,0.799
									c1.146,3.55,1.553,6.717,1.219,9.503c0.437,1.335,0.686,3.265,0.755,5.779c0.065,2.519,0.425,4.493,1.077,5.928
									c0.562-0.156,1.062-0.747,1.504-1.772c0.443-1.028,0.803-1.673,1.074-1.939c0.102-1.009,0.383-2.505,0.845-4.487
									s0.747-3.401,0.86-4.259c0.086-0.595,0.265-1.412,0.528-2.45c0.267-1.042,0.442-1.799,0.534-2.267
									c0.027-0.136,0.062-0.492,0.105-1.074c0.045-0.583,0.133-1.026,0.269-1.335c0.14-0.307,0.354-0.551,0.655-0.728
									c0.278-0.015,0.459,0.055,0.533,0.208c0.07,0.155,0.072,0.383,0.002,0.688c-0.074,0.308-0.117,0.493-0.129,0.561
									c-0.011,1.112-0.117,2.339-0.332,3.682c-0.214,1.342-0.398,2.354-0.561,3.03c-0.159,0.678-0.457,1.825-0.896,3.435
									l-0.58,2.018c-0.258,0.896-0.482,1.711-0.674,2.446c-0.19,0.734-0.328,1.412-0.406,2.036
									c-0.443,0.569-0.924,1.553-1.438,2.943c-0.519,1.397-1.08,2.355-1.696,2.875c-0.785,0.599-1.578,0.97-2.377,1.115
									c-0.802,0.143-1.509,0.077-2.123-0.194c-1.004-0.419-1.928-1.468-2.779-3.147c-0.848-1.684-1.342-3.471-1.491-5.36
									c-0.044-0.623-0.019-1.858,0.087-3.71c0.105-1.853,0.008-3.132-0.287-3.841c-0.732,0.425-1.383,1.51-1.945,3.249
									c-0.385,1.121-0.664,2.787-0.846,4.989c-0.122,1.271-0.13,2.382-0.021,3.334c-0.365,0.736-0.735,1.229-1.111,1.476
									c-0.375,0.246-1.143,0.39-2.307,0.427c-0.896-0.034-1.766-0.277-2.604-0.725c-0.836-0.447-1.415-1.023-1.735-1.728
									c-0.15-0.308-0.267-0.719-0.346-1.234c-0.081-0.519-0.161-1.161-0.23-1.936c-0.07-0.771-0.121-1.327-0.154-1.668
									l-1.307-11.519c-0.057-0.431-0.086-1.023-0.093-1.783c-0.004-0.759-0.015-1.279-0.026-1.562
									c-0.025-0.437-0.129-1.031-0.311-1.792c-0.18-0.759-0.283-1.308-0.314-1.646c-0.026-0.214-0.032-0.521-0.02-0.922
									c0.014-0.4,0.018-0.678,0.004-0.833c-0.074-0.393-0.23-1.093-0.467-2.104c-0.23-1.014-0.398-1.808-0.494-2.383
									c-0.312-2.258-0.355-3.56-0.138-3.907c0.491-0.61,1.165-0.958,2.016-1.035c0.851-0.078,1.604,0.028,2.257,0.322
									c0.756,0.329,1.898,1.595,3.433,3.798c0.116,0.189,0.295,0.428,0.532,0.708c0.235,0.281,0.387,0.479,0.446,0.587
									c0.146,0.404,0.229,1.023,0.257,1.854c0.025,0.833,0.062,1.401,0.115,1.702c0.073,0.485,0.268,1.153,0.581,2.002
									c0.317,0.846,0.521,1.433,0.61,1.756c0.107,0.508,0.22,1.673,0.328,3.497c0.111,1.823,0.437,3.183,0.973,4.08
									C386.034,29.453,386.275,29.26,386.505,29.004z"/>
								<path fill="#9EF7CD" d="M410.559,22.407c-0.345-0.096-0.608-0.254-0.795-0.471c-0.188-0.215-0.421-0.396-0.697-0.543
									c-0.279-0.145-0.561-0.161-0.849-0.05c-0.168,0.081-0.304,0.221-0.403,0.423c-0.104,0.203-0.172,0.477-0.2,0.816
									c-0.032,0.341-0.052,0.677-0.054,1.013c-0.002,0.333,0.018,0.74,0.057,1.219c0.035,0.482,0.07,0.887,0.101,1.21
									c0.025,0.327,0.069,0.732,0.125,1.227c0.062,0.49,0.101,0.829,0.116,1.014c0.004,0.124,0.02,0.312,0.037,0.562
									c0.021,0.248,0.044,0.438,0.062,0.574c0.024,0.139,0.049,0.312,0.075,0.526s0.067,0.384,0.119,0.512
									c0.052,0.133,0.118,0.263,0.206,0.396c0.087,0.135,0.198,0.229,0.341,0.286c0.142,0.055,0.296,0.093,0.458,0.107
									c0.324-0.091,0.576-0.15,0.758-0.188c0.183-0.034,0.363-0.229,0.549-0.579c0.189-0.354,0.32-0.621,0.396-0.801
									c0.077-0.183,0.18-0.472,0.305-0.868c0.127-0.4,0.207-0.652,0.24-0.757c0.135-0.323,0.314-0.729,0.539-1.222
									c0.229-0.489,0.411-0.923,0.544-1.292c0.136-0.371,0.224-0.768,0.265-1.189c0.022-0.26,0.008-0.628-0.045-1.104
									c-0.056-0.477-0.082-0.827-0.08-1.05c0.049-0.394,0.261-1.403,0.633-3.027c0.271-1.63,0.582-2.57,0.926-2.824
									c1.146-0.891,2.668-0.773,4.562,0.347c0.047,0.398,0.189,1.087,0.43,2.065c0.244,0.979,0.392,1.729,0.44,2.257
									c0.013,0.153-0.018,0.424-0.084,0.807c-0.069,0.384-0.091,0.667-0.073,0.854c0.002,0.349,0.102,0.845,0.297,1.485
									c0.197,0.645,0.31,1.136,0.343,1.477c0.054,0.428,0.092,1.216,0.11,2.367c0.021,1.149,0.094,2.072,0.225,2.768
									c0.178,1.092,0.336,1.84,0.48,2.243c0.041,0.146,0.179,0.354,0.409,0.623c0.233,0.267,0.371,0.474,0.412,0.623
									c0.033,0.114,0.043,0.295,0.03,0.535c-0.016,0.24,0.013,0.416,0.074,0.524c0.304,0.518,0.534,1.073,0.697,1.661
									c0.165,0.588,0.084,1.146-0.243,1.684c-0.879,0.37-1.708,0.522-2.485,0.456c-0.781-0.067-1.444-0.289-1.99-0.659
									c-0.548-0.368-1.076-0.929-1.584-1.675s-0.926-1.471-1.246-2.172c-0.322-0.702-0.669-1.542-1.031-2.519
									c-0.494,0.17-0.994,0.733-1.502,1.702c-0.507,0.963-0.851,1.534-1.02,1.709c-1.715,1.587-3.383,2.258-5.004,2.012
									c-0.625-0.08-1.51-0.523-2.652-1.331c-1.146-0.805-1.913-1.583-2.312-2.328c-0.323-0.829-0.568-1.48-0.733-1.959
									c-0.163-0.476-0.236-1.105-0.214-1.888c0.017-0.783,0.062-1.396,0.126-1.844c0.065-0.444,0.155-1.031,0.271-1.764
									c0.113-0.729,0.195-1.291,0.244-1.685c0.389-0.426,0.858-1.356,1.409-2.791c0.55-1.438,1.129-2.432,1.737-2.98
									c1.139-0.92,2.272-1.312,3.404-1.185c1.129,0.128,2.186,0.659,3.172,1.589c0.299,0.265,0.554,0.551,0.764,0.854
									c0.211,0.307,0.336,0.661,0.363,1.063c0.035,0.402-0.115,0.747-0.446,1.028C411.271,22.461,410.9,22.5,410.559,22.407z"/>
								<path fill="#9EF7CD" d="M433.594,26.332c0.104,0.306,0.104,0.916,0.012,1.828c-0.567,3.77-2.066,5.611-4.497,5.529
									c-0.355-0.025-0.812-0.171-1.356-0.432c-0.546-0.258-0.951-0.511-1.209-0.756c-0.679-0.73-1.159-1.802-1.439-3.212
									c-0.283-1.411-0.243-2.5,0.112-3.268c0.864-1.793,3.356-2.169,7.483-1.132C433.194,25.549,433.49,26.031,433.594,26.332z
									 M430.469,18.693c-0.212,0.773-0.488,1.353-0.825,1.729c-0.337,0.381-0.857,0.557-1.562,0.53
									c-1.099-0.074-1.914-0.956-2.449-2.647c-0.32-0.923-0.852-3.738-1.593-8.445c-0.749-5.084-0.62-8.606,0.391-10.565
									c0.706-0.419,1.837-0.48,3.394-0.187c1.557,0.296,2.495,0.732,2.812,1.311c0.257,0.468,0.362,1.274,0.318,2.431
									c-0.043,1.153-0.062,1.791-0.062,1.918c0.033,0.34,0.115,0.89,0.245,1.646c0.131,0.755,0.206,1.336,0.227,1.741
									c0.011,0.728-0.057,2.164-0.201,4.312c-0.146,2.146-0.199,3.709-0.149,4.677C430.863,17.404,430.685,17.921,430.469,18.693z
									"/>
							</g>
							<g>
								<path fill="#9EF7CD" d="M391.525,106.182c-0.254-0.114-0.438-0.268-0.553-0.455c-0.117-0.19-0.273-0.354-0.475-0.505
									c-0.189-0.146-0.405-0.188-0.643-0.142c-0.137,0.039-0.256,0.131-0.36,0.272c-0.103,0.143-0.187,0.341-0.256,0.602
									c-0.064,0.258-0.121,0.518-0.163,0.77c-0.042,0.256-0.08,0.574-0.106,0.946c-0.028,0.375-0.058,0.688-0.073,0.939
									c-0.021,0.25-0.041,0.571-0.056,0.957c-0.016,0.383-0.026,0.647-0.032,0.792c-0.018,0.098-0.029,0.24-0.043,0.437
									c-0.016,0.189-0.021,0.34-0.021,0.45c0.001,0.104,0,0.241-0.01,0.408c-0.004,0.167,0.007,0.305,0.029,0.41
									s0.062,0.213,0.106,0.329c0.048,0.114,0.124,0.2,0.228,0.259c0.104,0.062,0.217,0.105,0.34,0.143
									c0.258-0.028,0.461-0.045,0.602-0.047c0.145-0.004,0.311-0.132,0.497-0.379c0.188-0.251,0.321-0.438,0.401-0.566
									s0.194-0.338,0.342-0.631c0.146-0.291,0.238-0.473,0.274-0.551c0.146-0.231,0.332-0.521,0.566-0.869
									c0.235-0.353,0.426-0.658,0.578-0.928c0.147-0.269,0.264-0.562,0.349-0.882c0.053-0.195,0.083-0.479,0.102-0.852
									c0.019-0.374,0.041-0.643,0.067-0.816c0.086-0.296,0.375-1.045,0.857-2.248c0.411-1.216,0.765-1.896,1.061-2.052
									c0.986-0.538,2.144-0.266,3.461,0.829c-0.016,0.312,0.013,0.854,0.074,1.637c0.065,0.783,0.085,1.38,0.062,1.785
									c-0.011,0.122-0.064,0.325-0.164,0.609c-0.099,0.289-0.152,0.503-0.16,0.646c-0.043,0.271-0.027,0.661,0.044,1.18
									c0.069,0.517,0.093,0.906,0.075,1.173c-0.01,0.336-0.075,0.948-0.204,1.834c-0.128,0.886-0.186,1.602-0.171,2.146
									c0,0.863,0.031,1.454,0.095,1.784c0.015,0.116,0.09,0.291,0.237,0.527c0.146,0.234,0.228,0.41,0.238,0.532
									c0.012,0.092-0.003,0.229-0.041,0.41c-0.039,0.188-0.041,0.323-0.011,0.414c0.171,0.438,0.281,0.891,0.332,1.359
									c0.056,0.476-0.074,0.896-0.394,1.264c-0.721,0.179-1.377,0.194-1.967,0.042c-0.59-0.147-1.072-0.396-1.443-0.748
									c-0.374-0.352-0.715-0.848-1.012-1.48c-0.299-0.636-0.528-1.242-0.688-1.822c-0.162-0.577-0.321-1.267-0.482-2.061
									c-0.396,0.069-0.852,0.442-1.361,1.124c-0.508,0.677-0.84,1.072-0.994,1.185c-1.51,1.008-2.873,1.316-4.085,0.927
									c-0.474-0.138-1.097-0.587-1.874-1.348c-0.779-0.758-1.273-1.449-1.488-2.071c-0.146-0.675-0.256-1.209-0.32-1.594
									c-0.068-0.387-0.047-0.88,0.065-1.479c0.11-0.599,0.22-1.062,0.325-1.396c0.107-0.334,0.247-0.774,0.426-1.32
									c0.178-0.546,0.307-0.966,0.396-1.262c0.35-0.276,0.824-0.936,1.422-1.972c0.604-1.032,1.169-1.729,1.705-2.073
									c0.985-0.562,1.906-0.729,2.759-0.487c0.849,0.237,1.599,0.773,2.241,1.609c0.191,0.239,0.354,0.493,0.479,0.752
									c0.125,0.26,0.174,0.546,0.148,0.861c-0.023,0.312-0.182,0.559-0.473,0.729
									C392.062,106.311,391.777,106.295,391.525,106.182z"/>
								<path fill="#9EF7CD" d="M415.721,100.424c0.659-0.396,1.154-0.624,1.48-0.688c1.145-0.224,2.023-0.167,2.637,0.172
									c0.434,0.235,0.78,0.581,1.047,1.026c0.266,0.449,0.525,1.009,0.781,1.688c0.257,0.676,0.487,1.193,0.693,1.552
									c0.719,0.015,1.622-0.339,2.713-1.056c1.091-0.724,1.939-1.097,2.56-1.116c0.103,0.253,0.035,0.512-0.199,0.776
									c-0.229,0.265-0.521,0.45-0.866,0.562c-0.391,0.545-1.174,1.092-2.344,1.642c-1.167,0.554-1.935,1.099-2.305,1.643
									c-0.181,0.283-0.332,0.747-0.449,1.394c-0.118,0.646-0.262,1.087-0.426,1.318c-0.411,0.598-0.988,1.176-1.738,1.739
									c-0.479,0.409-1.391,0.799-2.733,1.168c-0.492,0.102-0.99,0.335-1.5,0.705c-0.509,0.365-0.812,0.735-0.914,1.104
									c-0.027,0.148-0.024,0.381,0.011,0.698c0.034,0.317,0.046,0.523,0.034,0.622c-0.072,1.062-0.263,2.266-0.562,3.608
									c-0.304,1.352-0.673,2.323-1.108,2.923c-0.121,0.154-0.386,0.42-0.785,0.786c-0.399,0.365-0.681,0.599-0.837,0.687
									c-0.809,0.474-1.6,0.527-2.383,0.161c-0.067-0.187-0.209-0.473-0.422-0.867c-0.209-0.396-0.342-0.707-0.393-0.939
									c-0.066-0.377-0.05-1.032,0.046-1.977c0.101-0.941,0.14-1.567,0.128-1.877c-0.018-0.164-0.059-0.471-0.119-0.918
									c-0.062-0.449-0.096-0.776-0.094-0.992c-0.016-0.333,0.021-0.854,0.111-1.554c0.087-0.701,0.145-1.15,0.168-1.347
									c0.016-0.097-0.004-0.269-0.059-0.514c-0.049-0.243-0.07-0.428-0.062-0.549c0-0.217,0.062-0.536,0.18-0.969
									c0.118-0.436,0.176-0.756,0.176-0.972c0.01-0.145,0.004-0.363-0.021-0.66c-0.021-0.298-0.018-0.52,0.02-0.665
									c0.006-0.146,0.057-0.369,0.153-0.682c0.097-0.308,0.149-0.521,0.161-0.645c0.023-0.193,0.02-0.477-0.023-0.838
									c-0.039-0.368-0.062-0.646-0.061-0.837c0.029-0.17,0.089-0.396,0.176-0.684c0.085-0.285,0.146-0.51,0.171-0.682
									c0.036-0.554,0.036-1.289,0.007-2.204c-0.033-0.918-0.037-1.691-0.016-2.326c0.021-0.636,0.112-1.131,0.268-1.48
									c0.271-0.561,0.785-0.912,1.543-1.069c0.762-0.158,1.42-0.055,1.983,0.312c0.103,0.23,0.363,0.706,0.793,1.438
									c0.429,0.728,0.688,1.385,0.777,1.974C414.527,101.023,415.062,100.823,415.721,100.424z M414.902,111.446
									c0.102,0.05,0.197,0.074,0.293,0.076c0.097,0.003,0.175-0.002,0.234-0.009c0.057-0.008,0.133-0.037,0.223-0.098l0.197-0.13
									c0.045-0.025,0.125-0.095,0.228-0.201c0.108-0.11,0.185-0.189,0.225-0.243c1.037-0.976,1.429-1.736,1.179-2.281
									c-0.648,0.168-1.164,0.333-1.539,0.496c-0.373,0.16-0.711,0.428-1.004,0.796c-0.291,0.366-0.422,0.835-0.377,1.401
									C414.686,111.333,414.801,111.399,414.902,111.446z M417.561,102.925c-1.311-0.164-2.19,0.353-2.655,1.554
									c-0.464,1.197-0.455,2.416,0.02,3.653c0.532-0.184,0.916-0.314,1.154-0.402c0.239-0.084,0.584-0.231,1.024-0.437
									c0.443-0.206,0.78-0.432,1.017-0.671c0.237-0.24,0.396-0.523,0.479-0.84C418.848,104.796,418.502,103.847,417.561,102.925z"
									/>
								<path fill="#9EF7CD" d="M432.808,101.531c-0.25-0.113-0.435-0.271-0.552-0.454c-0.116-0.192-0.271-0.36-0.47-0.509
									c-0.194-0.146-0.409-0.19-0.645-0.144c-0.137,0.04-0.257,0.135-0.358,0.277c-0.104,0.14-0.19,0.34-0.256,0.6
									c-0.068,0.259-0.123,0.517-0.164,0.77c-0.042,0.26-0.08,0.573-0.107,0.948c-0.03,0.373-0.058,0.687-0.076,0.939
									c-0.019,0.251-0.037,0.569-0.056,0.957c-0.015,0.382-0.026,0.646-0.031,0.791c-0.015,0.098-0.025,0.237-0.041,0.436
									c-0.017,0.193-0.022,0.342-0.022,0.45c0.003,0.104,0,0.244-0.006,0.412c-0.004,0.166,0.006,0.302,0.028,0.408
									c0.021,0.104,0.062,0.214,0.106,0.325c0.05,0.114,0.126,0.203,0.227,0.262c0.104,0.062,0.216,0.106,0.338,0.14
									c0.263-0.026,0.461-0.046,0.604-0.049c0.145-0.002,0.309-0.13,0.498-0.379c0.188-0.246,0.321-0.435,0.397-0.562
									c0.082-0.13,0.198-0.339,0.342-0.633c0.146-0.289,0.239-0.473,0.277-0.548c0.146-0.23,0.331-0.521,0.565-0.872
									c0.233-0.349,0.427-0.656,0.577-0.927c0.146-0.267,0.265-0.561,0.351-0.879c0.048-0.198,0.079-0.481,0.1-0.854
									c0.02-0.374,0.04-0.645,0.067-0.812c0.087-0.299,0.375-1.046,0.859-2.247c0.413-1.216,0.764-1.901,1.06-2.058
									c0.987-0.537,2.142-0.263,3.46,0.829c-0.011,0.312,0.016,0.859,0.077,1.643c0.065,0.779,0.084,1.378,0.058,1.784
									c-0.008,0.119-0.062,0.325-0.162,0.607c-0.099,0.289-0.153,0.503-0.161,0.647c-0.041,0.265-0.023,0.655,0.045,1.176
									c0.069,0.516,0.096,0.908,0.077,1.175c-0.012,0.335-0.077,0.947-0.205,1.833c-0.129,0.886-0.188,1.603-0.171,2.148
									c0.002,0.858,0.031,1.454,0.096,1.782c0.012,0.116,0.091,0.291,0.239,0.528c0.145,0.233,0.225,0.408,0.234,0.528
									c0.012,0.095-0.003,0.23-0.042,0.416c-0.038,0.186-0.039,0.322-0.008,0.413c0.17,0.435,0.282,0.889,0.334,1.357
									c0.054,0.475-0.078,0.895-0.396,1.264c-0.723,0.177-1.377,0.188-1.968,0.042c-0.592-0.146-1.071-0.397-1.444-0.747
									c-0.374-0.354-0.71-0.85-1.01-1.483c-0.298-0.635-0.528-1.241-0.688-1.821c-0.16-0.579-0.322-1.268-0.483-2.061
									c-0.397,0.07-0.853,0.444-1.36,1.122c-0.508,0.677-0.842,1.076-0.994,1.188c-1.512,1.008-2.872,1.315-4.088,0.927
									c-0.472-0.138-1.094-0.584-1.871-1.35c-0.78-0.76-1.274-1.449-1.49-2.068c-0.146-0.678-0.255-1.209-0.319-1.597
									c-0.066-0.384-0.046-0.879,0.065-1.477c0.11-0.598,0.223-1.064,0.326-1.399c0.104-0.332,0.247-0.771,0.426-1.317
									c0.178-0.55,0.306-0.971,0.395-1.264c0.352-0.278,0.827-0.936,1.427-1.97c0.601-1.033,1.168-1.727,1.703-2.074
									c0.985-0.563,1.906-0.726,2.757-0.486c0.851,0.236,1.599,0.772,2.242,1.61c0.189,0.238,0.355,0.49,0.479,0.752
									c0.123,0.257,0.172,0.546,0.149,0.858c-0.023,0.312-0.184,0.558-0.472,0.731
									C433.348,101.656,433.061,101.642,432.808,101.531z"/>
								<path fill="#9EF7CD" d="M451.461,92.026c0.768-0.098,1.442-0.125,2.034-0.083c0.59,0.037,0.965,0.276,1.134,0.71
									c-0.395,0.308-1.195,0.608-2.403,0.9c-1.21,0.289-2.014,0.601-2.403,0.933c-0.212,0.479-0.297,1.292-0.265,2.45
									c0.036,1.154,0.03,1.947-0.016,2.382c-0.025,0.221-0.09,0.538-0.198,0.956c-0.107,0.415-0.173,0.748-0.194,0.989
									c-0.032,0.742-0.024,1.46,0.027,2.147c-0.334,0.652-0.555,1.385-0.667,2.188c-0.115,0.801-0.015,1.519,0.294,2.154
									c0.73-0.516,1.253-0.892,1.562-1.127c0.305-0.238,0.692-0.609,1.164-1.118c0.469-0.505,0.813-1.011,1.048-1.514
									c0.474-0.244,1.025-0.799,1.658-1.656c0.634-0.859,1.271-1.396,1.916-1.613c0.028,0.285,0.066,0.482,0.119,0.597
									c0.049,0.114,0.003,0.307-0.135,0.57c-0.141,0.268-0.235,0.441-0.299,0.534c-0.062,0.093-0.185,0.255-0.372,0.49
									l-0.347,0.434c-0.104,0.153-0.373,0.482-0.807,0.985c-0.435,0.504-0.717,0.914-0.846,1.242
									c-0.563,0.491-1.124,1.047-1.677,1.653c-0.552,0.614-1.146,1.315-1.788,2.104c-0.641,0.789-1.148,1.396-1.532,1.819
									c-0.229,0.074-0.542,0.236-0.946,0.481c-0.401,0.251-0.726,0.4-0.954,0.45c-0.938,0.154-1.791-0.133-2.567-0.858
									c-0.775-0.726-1.239-1.565-1.396-2.527c-0.038-0.141-0.025-0.313,0.03-0.522c0.062-0.211,0.084-0.364,0.074-0.459
									c0.014-0.096-0.018-0.23-0.08-0.399c-0.067-0.171-0.108-0.307-0.117-0.399c-0.021-0.21-0.009-0.541,0.05-0.991
									c0.059-0.447,0.091-0.753,0.096-0.921c0.008-1.412,0.027-2.251,0.07-2.521c0.031-0.168,0.09-0.4,0.172-0.698
									c0.089-0.296,0.136-0.517,0.142-0.661c0.032-0.147,0.03-0.385-0.007-0.716c-0.037-0.328-0.043-0.568-0.01-0.714
									c0.005-0.169,0.106-0.78,0.311-1.849c0.202-1.06,0.251-1.855,0.141-2.396c-0.17-0.029-0.476-0.041-0.914-0.041
									c-0.443,0.002-0.782-0.014-1.026-0.046c-0.241-0.033-0.492-0.117-0.746-0.259c-0.255-0.138-0.434-0.344-0.538-0.617
									c0.145-0.422,0.717-0.723,1.71-0.893c0.996-0.172,1.612-0.366,1.855-0.583c0.115-0.826,0.276-1.836,0.479-3.03
									c0.693-0.629,1.425-0.959,2.199-1c0.771-0.041,1.489,0.229,2.146,0.796c0.666,0.572,1.049,1.307,1.146,2.2
									C450.138,92.11,450.696,92.125,451.461,92.026z M457.298,99.787c-0.061,0.093-0.188,0.136-0.379,0.134
									c-0.045-0.188-0.036-0.324,0.024-0.415c0.062-0.089,0.188-0.134,0.38-0.132C457.368,99.561,457.359,99.699,457.298,99.787z"
									/>
								<path fill="#9EF7CD" d="M462.914,98.133c-0.254-0.112-0.434-0.265-0.557-0.454c-0.112-0.188-0.271-0.356-0.467-0.504
									c-0.191-0.147-0.408-0.194-0.643-0.146c-0.139,0.041-0.261,0.136-0.363,0.277c-0.104,0.143-0.187,0.344-0.256,0.604
									c-0.064,0.258-0.121,0.515-0.162,0.77c-0.044,0.256-0.08,0.57-0.107,0.943c-0.03,0.374-0.057,0.688-0.072,0.941
									c-0.021,0.248-0.039,0.57-0.057,0.953s-0.027,0.647-0.033,0.794c-0.019,0.1-0.028,0.24-0.044,0.435
									c-0.016,0.189-0.021,0.344-0.021,0.452c0,0.104-0.001,0.242-0.008,0.41c-0.004,0.168,0.007,0.305,0.026,0.408
									c0.023,0.106,0.062,0.215,0.108,0.327c0.049,0.114,0.125,0.202,0.229,0.262c0.103,0.062,0.214,0.107,0.337,0.143
									c0.256-0.031,0.463-0.045,0.604-0.05c0.146-0.004,0.31-0.131,0.495-0.382c0.188-0.249,0.319-0.433,0.399-0.563
									c0.081-0.124,0.196-0.336,0.343-0.629c0.146-0.289,0.239-0.477,0.279-0.55c0.14-0.231,0.33-0.521,0.562-0.869
									c0.235-0.353,0.431-0.658,0.577-0.929c0.151-0.267,0.265-0.561,0.35-0.883c0.054-0.192,0.083-0.479,0.103-0.85
									c0.019-0.375,0.043-0.646,0.069-0.818c0.085-0.292,0.373-1.043,0.856-2.245c0.411-1.219,0.764-1.899,1.06-2.053
									c0.989-0.54,2.146-0.265,3.461,0.829c-0.016,0.308,0.014,0.855,0.074,1.638c0.066,0.782,0.084,1.375,0.062,1.785
									c-0.014,0.123-0.066,0.325-0.166,0.609c-0.103,0.287-0.152,0.501-0.161,0.646c-0.039,0.267-0.027,0.656,0.044,1.177
									c0.07,0.517,0.097,0.908,0.077,1.173c-0.012,0.336-0.077,0.947-0.205,1.832c-0.127,0.887-0.184,1.604-0.171,2.15
									c0.003,0.859,0.034,1.452,0.094,1.779c0.014,0.119,0.095,0.296,0.241,0.529c0.144,0.233,0.227,0.41,0.239,0.527
									c0.013,0.097-0.006,0.233-0.043,0.415c-0.04,0.188-0.043,0.322-0.011,0.418c0.171,0.435,0.279,0.887,0.331,1.356
									c0.054,0.473-0.073,0.894-0.394,1.265c-0.722,0.177-1.374,0.19-1.965,0.042c-0.593-0.148-1.073-0.397-1.447-0.748
									c-0.376-0.352-0.712-0.851-1.009-1.482c-0.298-0.638-0.526-1.242-0.688-1.821c-0.163-0.578-0.323-1.264-0.485-2.059
									c-0.396,0.066-0.853,0.44-1.358,1.119c-0.512,0.682-0.84,1.074-0.995,1.188c-1.51,1.005-2.874,1.312-4.089,0.927
									c-0.468-0.14-1.093-0.587-1.87-1.352c-0.779-0.758-1.273-1.448-1.491-2.069c-0.145-0.677-0.253-1.208-0.318-1.592
									c-0.067-0.391-0.045-0.881,0.064-1.479c0.113-0.599,0.224-1.062,0.324-1.396c0.11-0.335,0.251-0.774,0.429-1.321
									c0.178-0.546,0.307-0.967,0.396-1.263c0.349-0.279,0.825-0.936,1.423-1.97c0.599-1.034,1.169-1.729,1.702-2.072
									c0.989-0.565,1.906-0.729,2.759-0.49c0.854,0.237,1.603,0.773,2.242,1.61c0.192,0.238,0.353,0.493,0.479,0.753
									c0.126,0.259,0.177,0.549,0.149,0.856c-0.023,0.316-0.18,0.562-0.47,0.734C463.453,98.264,463.166,98.251,462.914,98.133z"
									/>
								<path fill="#9EF7CD" d="M480.107,103.99c0.039,0.244-0.032,0.714-0.22,1.399c-0.899,2.826-2.277,4.055-4.136,3.691
									c-0.27-0.065-0.598-0.231-0.987-0.496c-0.387-0.27-0.665-0.512-0.832-0.732c-0.434-0.644-0.669-1.521-0.712-2.642
									c-0.042-1.12,0.119-1.944,0.491-2.493c0.882-1.268,2.843-1.25,5.878,0.056C479.896,103.339,480.069,103.745,480.107,103.99z
									 M478.649,97.743c-0.259,0.562-0.54,0.974-0.849,1.222c-0.305,0.25-0.727,0.322-1.266,0.213
									c-0.835-0.191-1.354-0.97-1.553-2.333c-0.136-0.75-0.195-2.974-0.183-6.677c0.052-3.995,0.584-6.688,1.603-8.064
									c0.594-0.232,1.472-0.142,2.629,0.278c1.158,0.417,1.82,0.868,1.996,1.35c0.141,0.39,0.124,1.024-0.055,1.907
									c-0.176,0.877-0.27,1.367-0.281,1.461c-0.02,0.269-0.023,0.698-0.017,1.293c0.007,0.6-0.011,1.051-0.043,1.368
									c-0.081,0.558-0.31,1.65-0.687,3.285c-0.378,1.629-0.609,2.823-0.69,3.57C479.11,96.802,478.906,97.175,478.649,97.743z"/>
							</g>
							<g>
								<path fill="#9EF7CD" d="M452.751,55.813c0.59-0.466,1.041-0.754,1.356-0.854c1.084-0.362,1.946-0.42,2.585-0.167
									c0.45,0.174,0.833,0.468,1.148,0.871c0.315,0.4,0.636,0.917,0.976,1.542c0.33,0.625,0.625,1.101,0.865,1.424
									c0.702-0.078,1.54-0.533,2.508-1.372c0.971-0.838,1.756-1.312,2.354-1.409c0.131,0.233,0.1,0.492-0.099,0.781
									c-0.189,0.287-0.447,0.508-0.771,0.656c-0.311,0.582-1.004,1.213-2.072,1.895c-1.067,0.683-1.748,1.314-2.035,1.891
									c-0.143,0.3-0.229,0.771-0.266,1.414c-0.032,0.645-0.115,1.091-0.246,1.341c-0.324,0.631-0.816,1.266-1.475,1.905
									c-0.413,0.464-1.252,0.958-2.512,1.483c-0.466,0.166-0.922,0.456-1.371,0.878c-0.448,0.424-0.7,0.82-0.753,1.194
									c-0.013,0.145,0.022,0.374,0.098,0.676c0.075,0.307,0.11,0.507,0.11,0.604c0.063,1.042,0.034,2.237-0.088,3.587
									c-0.123,1.351-0.359,2.344-0.705,2.979c-0.106,0.169-0.326,0.458-0.668,0.871c-0.346,0.406-0.59,0.663-0.729,0.771
									c-0.726,0.562-1.49,0.718-2.299,0.456c-0.091-0.17-0.26-0.435-0.521-0.786c-0.256-0.36-0.422-0.647-0.498-0.867
									c-0.112-0.358-0.179-1-0.207-1.933c-0.022-0.93-0.062-1.544-0.109-1.846c-0.037-0.158-0.115-0.453-0.232-0.876
									c-0.119-0.427-0.188-0.748-0.217-0.956c-0.059-0.322-0.088-0.83-0.089-1.524c-0.004-0.694-0.006-1.141-0.003-1.332
									c-0.001-0.099-0.043-0.262-0.122-0.493s-0.125-0.408-0.128-0.526c-0.027-0.211-0.01-0.531,0.047-0.968
									c0.063-0.435,0.081-0.754,0.05-0.963c-0.008-0.144-0.043-0.357-0.101-0.642c-0.061-0.288-0.084-0.505-0.07-0.65
									c-0.01-0.142,0.012-0.368,0.065-0.683c0.06-0.312,0.08-0.531,0.073-0.646c0.002-0.194-0.043-0.462-0.129-0.814
									c-0.085-0.351-0.14-0.621-0.161-0.806c0.01-0.171,0.034-0.4,0.086-0.688c0.049-0.286,0.073-0.518,0.077-0.687
									c-0.032-0.542-0.126-1.256-0.272-2.147c-0.146-0.887-0.25-1.643-0.307-2.265c-0.057-0.621-0.033-1.111,0.069-1.474
									c0.197-0.575,0.65-0.988,1.372-1.237c0.715-0.25,1.374-0.231,1.972,0.054c0.127,0.21,0.442,0.646,0.953,1.297
									c0.505,0.654,0.842,1.266,1.004,1.822C451.663,56.546,452.158,56.283,452.751,55.813z M453.345,66.645
									c0.107,0.035,0.205,0.046,0.298,0.037c0.094-0.009,0.166-0.022,0.224-0.037c0.061-0.016,0.124-0.057,0.208-0.124l0.177-0.15
									c0.04-0.031,0.107-0.11,0.196-0.229c0.091-0.119,0.15-0.21,0.188-0.264c0.883-1.08,1.171-1.87,0.854-2.367
									c-0.61,0.244-1.088,0.47-1.435,0.677c-0.347,0.205-0.637,0.506-0.876,0.9c-0.237,0.394-0.303,0.866-0.19,1.416
									C453.121,66.564,453.241,66.611,453.345,66.645z M454.858,58.013c-1.296,0.006-2.094,0.624-2.392,1.849
									c-0.301,1.229-0.138,2.409,0.479,3.554c0.493-0.24,0.852-0.42,1.071-0.535c0.228-0.112,0.537-0.301,0.942-0.555
									c0.408-0.257,0.706-0.517,0.908-0.78c0.2-0.267,0.316-0.562,0.358-0.883C456.345,59.675,455.89,58.794,454.858,58.013z"/>
								<path fill="#9EF7CD" d="M469.525,54.727c-0.261-0.079-0.459-0.203-0.6-0.374c-0.138-0.17-0.31-0.312-0.519-0.432
									c-0.212-0.118-0.421-0.136-0.646-0.057c-0.131,0.056-0.236,0.159-0.315,0.312c-0.083,0.151-0.142,0.359-0.174,0.619
									c-0.029,0.258-0.057,0.519-0.062,0.771c-0.008,0.253-0.007,0.565,0.016,0.935c0.02,0.367,0.032,0.677,0.049,0.928
									c0.013,0.248,0.035,0.56,0.066,0.934s0.055,0.637,0.065,0.776c-0.003,0.097,0,0.237,0.015,0.428
									c0.012,0.188,0.022,0.337,0.036,0.441c0.014,0.104,0.027,0.242,0.045,0.403c0.017,0.162,0.044,0.293,0.078,0.396
									c0.038,0.097,0.087,0.198,0.147,0.304c0.062,0.105,0.147,0.183,0.258,0.228c0.104,0.046,0.222,0.078,0.344,0.093
									c0.251-0.06,0.443-0.101,0.58-0.122c0.142-0.021,0.286-0.165,0.436-0.431c0.15-0.268,0.262-0.467,0.321-0.604
									c0.063-0.131,0.146-0.353,0.252-0.653c0.107-0.304,0.175-0.493,0.202-0.571c0.105-0.241,0.257-0.549,0.441-0.918
									c0.186-0.371,0.332-0.695,0.443-0.978c0.11-0.278,0.186-0.576,0.227-0.897c0.023-0.2,0.021-0.48-0.009-0.844
									c-0.024-0.366-0.042-0.633-0.039-0.807c0.053-0.296,0.234-1.062,0.559-2.294c0.245-1.235,0.501-1.947,0.769-2.131
									c0.896-0.652,2.059-0.531,3.478,0.369c0.023,0.302,0.12,0.83,0.278,1.587c0.164,0.753,0.261,1.328,0.283,1.731
									c0.005,0.115-0.021,0.32-0.084,0.61c-0.057,0.291-0.083,0.509-0.073,0.65c-0.006,0.263,0.06,0.643,0.191,1.14
									c0.135,0.496,0.206,0.873,0.227,1.131c0.028,0.328,0.043,0.936,0.028,1.812c-0.011,0.879,0.025,1.583,0.11,2.115
									c0.107,0.836,0.21,1.408,0.312,1.722c0.029,0.115,0.127,0.275,0.303,0.482c0.173,0.216,0.271,0.373,0.301,0.486
									c0.021,0.091,0.021,0.229,0.01,0.41c-0.012,0.187,0.002,0.322,0.046,0.406c0.218,0.4,0.388,0.827,0.496,1.277
									c0.11,0.455,0.037,0.882-0.226,1.28c-0.68,0.267-1.314,0.36-1.908,0.29c-0.594-0.071-1.097-0.253-1.505-0.545
									c-0.405-0.298-0.801-0.735-1.171-1.318c-0.369-0.582-0.671-1.143-0.897-1.684c-0.229-0.544-0.476-1.19-0.732-1.943
									c-0.377,0.116-0.771,0.538-1.182,1.264c-0.41,0.725-0.681,1.149-0.819,1.28c-1.343,1.168-2.629,1.646-3.857,1.421
									c-0.479-0.076-1.145-0.437-1.996-1.076c-0.854-0.644-1.422-1.251-1.71-1.83c-0.229-0.643-0.398-1.145-0.517-1.509
									c-0.112-0.373-0.152-0.854-0.117-1.448c0.031-0.601,0.078-1.064,0.14-1.403s0.143-0.785,0.247-1.34
									c0.105-0.554,0.18-0.981,0.227-1.277c0.31-0.316,0.688-1.015,1.142-2.102c0.45-1.082,0.917-1.828,1.394-2.231
									c0.893-0.675,1.766-0.947,2.623-0.822c0.857,0.122,1.653,0.552,2.383,1.281c0.224,0.209,0.41,0.438,0.562,0.672
									c0.156,0.238,0.242,0.515,0.256,0.819c0.016,0.311-0.105,0.565-0.365,0.773C470.066,54.787,469.783,54.81,469.525,54.727z"
									/>
								<path fill="#9EF7CD" d="M484.521,50.066c0.102-0.213,0.152-0.483,0.158-0.812c0.004-0.325,0.019-0.538,0.039-0.639
									c0.594-1.896,1.499-2.925,2.734-3.083c0.377-0.023,0.849,0.104,1.411,0.391c0.56,0.28,0.927,0.63,1.1,1.042
									c0.113,0.26,0.242,0.816,0.396,1.668c0.148,0.851,0.255,1.402,0.314,1.651c0.015,0.064,0.072,0.249,0.173,0.55
									c0.097,0.302,0.159,0.547,0.182,0.749c0.022,0.192,0.021,0.374-0.015,0.521c-0.04,0.13-0.122,0.264-0.24,0.404
									c-0.122,0.133-0.288,0.295-0.495,0.481c-0.207,0.184-0.351,0.306-0.431,0.374c-0.057,0.06-0.161,0.193-0.315,0.399
									c-0.152,0.209-0.294,0.354-0.43,0.448c-0.134,0.093-0.315,0.157-0.55,0.188c-0.297,0.051-0.597,0.002-0.895-0.14
									c-0.306-0.141-0.537-0.292-0.709-0.456c-0.169-0.161-0.4-0.417-0.693-0.764c-0.285-0.352-0.495-0.58-0.619-0.692
									c-0.159,0.135-0.271,0.312-0.334,0.533c-0.068,0.219-0.118,0.47-0.157,0.757c-0.041,0.285-0.073,0.506-0.109,0.657
									c-0.045,0.201-0.148,0.592-0.304,1.175c-0.157,0.577-0.287,1.095-0.396,1.55c-0.101,0.458-0.172,0.905-0.205,1.35
									c-0.009,0.17-0.002,0.509,0.016,1.021c0.018,0.51-0.015,0.896-0.093,1.156c-0.047,0.204-0.222,0.518-0.525,0.939
									c-0.302,0.422-0.442,0.785-0.415,1.092c-0.2,0.049-0.46,0.244-0.771,0.584c-0.312,0.342-0.632,0.529-0.963,0.562
									c-0.373,0.042-0.77-0.161-1.189-0.607c-0.422-0.448-0.718-0.913-0.887-1.4c-0.115-0.377-0.156-1.05-0.115-2.005
									c0.04-0.96,0.055-1.569,0.033-1.827c-0.01-0.236-0.053-0.589-0.128-1.051c-0.077-0.458-0.133-0.806-0.165-1.037
									c-0.017-0.26-0.042-0.969-0.07-2.122c-0.033-1.155-0.086-2.078-0.155-2.754c-0.041-0.256-0.108-0.607-0.207-1.065
									c-0.1-0.458-0.172-0.857-0.21-1.212c-0.036-0.35-0.036-0.636,0-0.859c0.225-0.752,0.742-1.196,1.544-1.335
									c0.812-0.141,1.494-0.026,2.063,0.34c0.263,0.175,0.483,0.396,0.671,0.661c0.186,0.269,0.322,0.528,0.425,0.778
									c0.098,0.25,0.233,0.616,0.415,1.104c0.18,0.483,0.35,0.91,0.514,1.277C484.218,50.466,484.417,50.286,484.521,50.066z"/>
								<path fill="#9EF7CD" d="M499.221,47.421c-0.257-0.079-0.457-0.204-0.597-0.373c-0.138-0.17-0.312-0.313-0.522-0.432
									c-0.202-0.116-0.422-0.138-0.643-0.058c-0.13,0.057-0.235,0.161-0.318,0.313c-0.08,0.147-0.142,0.354-0.17,0.617
									c-0.028,0.259-0.053,0.517-0.062,0.77c-0.011,0.254-0.005,0.566,0.016,0.934c0.02,0.367,0.03,0.679,0.044,0.925
									c0.015,0.25,0.037,0.562,0.071,0.938c0.03,0.375,0.055,0.634,0.062,0.775c0.002,0.095,0.004,0.237,0.02,0.427
									c0.008,0.188,0.021,0.338,0.032,0.442c0.018,0.104,0.03,0.239,0.045,0.399c0.019,0.166,0.043,0.297,0.081,0.397
									c0.037,0.097,0.084,0.195,0.146,0.305c0.066,0.105,0.149,0.18,0.257,0.225c0.108,0.045,0.223,0.079,0.349,0.095
									c0.249-0.062,0.44-0.104,0.579-0.123c0.143-0.021,0.285-0.165,0.437-0.433c0.153-0.267,0.259-0.464,0.319-0.604
									c0.064-0.135,0.146-0.352,0.252-0.654s0.173-0.493,0.202-0.571c0.109-0.239,0.258-0.55,0.442-0.919
									c0.184-0.371,0.331-0.69,0.444-0.972c0.109-0.28,0.184-0.582,0.226-0.905c0.023-0.194,0.021-0.477-0.008-0.841
									c-0.031-0.368-0.045-0.632-0.038-0.804c0.048-0.298,0.231-1.063,0.557-2.293c0.241-1.239,0.504-1.951,0.767-2.134
									c0.898-0.65,2.057-0.529,3.479,0.366c0.024,0.306,0.122,0.832,0.279,1.591c0.163,0.751,0.259,1.326,0.283,1.729
									c0.006,0.119-0.024,0.323-0.084,0.612c-0.057,0.291-0.086,0.509-0.072,0.647c-0.01,0.268,0.059,0.646,0.19,1.144
									c0.132,0.495,0.207,0.873,0.225,1.131c0.031,0.329,0.042,0.933,0.027,1.811c-0.01,0.877,0.029,1.583,0.109,2.117
									c0.109,0.836,0.214,1.408,0.315,1.721c0.027,0.113,0.126,0.274,0.299,0.483c0.173,0.211,0.271,0.373,0.302,0.487
									c0.021,0.091,0.022,0.226,0.01,0.409c-0.014,0.186,0.002,0.319,0.046,0.402c0.22,0.403,0.388,0.83,0.498,1.281
									c0.11,0.455,0.033,0.879-0.228,1.281c-0.681,0.264-1.315,0.358-1.907,0.288c-0.598-0.07-1.099-0.253-1.505-0.545
									c-0.407-0.299-0.8-0.736-1.173-1.316c-0.368-0.58-0.67-1.144-0.898-1.686c-0.229-0.542-0.474-1.192-0.73-1.944
									c-0.377,0.117-0.771,0.539-1.181,1.264c-0.408,0.727-0.68,1.15-0.819,1.281c-1.345,1.169-2.63,1.643-3.858,1.417
									c-0.479-0.073-1.144-0.431-1.994-1.074c-0.854-0.641-1.424-1.251-1.711-1.828c-0.229-0.641-0.4-1.143-0.517-1.511
									c-0.111-0.369-0.153-0.85-0.12-1.445c0.03-0.599,0.078-1.062,0.143-1.402c0.06-0.339,0.143-0.785,0.246-1.338
									c0.103-0.554,0.18-0.981,0.226-1.278c0.308-0.315,0.688-1.014,1.14-2.099c0.453-1.084,0.921-1.83,1.396-2.236
									c0.889-0.673,1.764-0.947,2.621-0.822c0.856,0.125,1.653,0.553,2.385,1.283c0.219,0.21,0.408,0.434,0.562,0.671
									c0.157,0.24,0.24,0.513,0.258,0.821c0.015,0.307-0.108,0.562-0.369,0.771C499.761,47.48,499.48,47.5,499.221,47.421z"/>
							</g>
						</g>
					</g>
				</g>
			</g>
		</g>
	</g>
</g>
<g>
	<circle fill="none" cx="169.331" cy="123.25" r="13.25"/>
	<g enable-background="new    ">
		<path fill="#206BF8" d="M164.826,129.799v-1.48h3.899v-11.239h-0.14l-3.521,3.278l-0.979-1.06l3.699-3.46h2.62v12.479h3.601v1.48
			h-9.18V129.799z"/>
	</g>
</g>
</svg>
