<?xml version="1.0" encoding="utf-8"?>
<!-- Generator: Adobe Illustrator 16.0.0, SVG Export Plug-In . SVG Version: 6.00 Build 0)  -->
<!DOCTYPE svg PUBLIC "-//W3C//DTD SVG 1.1//EN" "http://www.w3.org/Graphics/SVG/1.1/DTD/svg11.dtd">
<svg version="1.1" id="Layer_1" xmlns="http://www.w3.org/2000/svg" xmlns:xlink="http://www.w3.org/1999/xlink" x="0px" y="0px"
	 width="608.5px" height="63.832px" viewBox="0 0 608.5 63.832" enable-background="new 0 0 608.5 63.832" xml:space="preserve">
<circle fill="#999999" cx="121.917" cy="45.455" r="9.167"/>
<circle fill="#999999" cx="304.25" cy="45.455" r="9.166"/>
<circle fill="#999999" cx="486.583" cy="45.455" r="9.167"/>
<g id="Layer_1_1_">
	<g>
		<circle fill="none" cx="595.25" cy="13.25" r="13.25"/>
		<rect x="582.221" y="5" fill="none" width="25.53" height="21.5"/>
		<g enable-background="new    ">
			<path fill="#206BF8" d="M594.207,11.719c0.945,0,1.656-0.216,2.129-0.646c0.475-0.431,0.711-0.985,0.711-1.662V9.27
				c0-0.73-0.229-1.278-0.689-1.643c-0.461-0.365-1.063-0.548-1.811-0.548c-0.721,0-1.308,0.156-1.761,0.47s-0.827,0.737-1.12,1.27
				l-1.24-0.96c0.174-0.279,0.385-0.556,0.631-0.826c0.246-0.271,0.536-0.512,0.869-0.723c0.334-0.211,0.721-0.382,1.16-0.514
				c0.44-0.131,0.94-0.197,1.5-0.197c0.587,0,1.141,0.077,1.66,0.229c0.519,0.152,0.971,0.378,1.35,0.677
				c0.381,0.299,0.682,0.667,0.9,1.104c0.221,0.438,0.33,0.936,0.33,1.493c0,0.451-0.07,0.856-0.21,1.214
				c-0.141,0.358-0.33,0.671-0.569,0.936c-0.24,0.266-0.523,0.491-0.851,0.677c-0.327,0.187-0.677,0.326-1.05,0.419v0.08
				c0.373,0.08,0.735,0.211,1.09,0.392c0.354,0.181,0.666,0.415,0.938,0.703c0.273,0.288,0.494,0.636,0.66,1.044
				c0.167,0.408,0.25,0.874,0.25,1.396c0,0.603-0.113,1.155-0.34,1.657c-0.228,0.502-0.547,0.931-0.96,1.285
				c-0.413,0.354-0.913,0.633-1.5,0.833c-0.587,0.201-1.233,0.302-1.94,0.302c-0.6,0-1.133-0.066-1.6-0.197
				c-0.467-0.132-0.88-0.31-1.24-0.533c-0.358-0.224-0.676-0.475-0.949-0.753c-0.272-0.277-0.518-0.57-0.729-0.877l1.26-0.96
				c0.174,0.28,0.363,0.533,0.57,0.76c0.207,0.228,0.437,0.42,0.688,0.58c0.255,0.16,0.541,0.283,0.861,0.37
				c0.319,0.087,0.692,0.13,1.119,0.13c0.986,0,1.733-0.225,2.24-0.675c0.506-0.45,0.76-1.091,0.76-1.925v-0.161
				c0-0.832-0.254-1.474-0.76-1.924c-0.507-0.45-1.255-0.675-2.24-0.675h-1.64v-1.48L594.207,11.719L594.207,11.719z"/>
		</g>
	</g>
</g>
<circle fill="#FFFFFF" stroke="#999999" stroke-width="0.2" stroke-miterlimit="10" cx="121.917" cy="44.455" r="9.167"/>
<circle fill="#FFFFFF" stroke="#999999" stroke-width="0.2" stroke-miterlimit="10" cx="304.25" cy="44.455" r="9.166"/>
<circle fill="#FFFFFF" stroke="#999999" stroke-width="0.2" stroke-miterlimit="10" cx="486.583" cy="44.455" r="9.167"/>
<g>
	<path d="M96.94,25.923V14.755h4.448c1.002,0,1.773,0.286,2.312,0.856c0.539,0.571,0.808,1.352,0.808,2.344
		c0,0.992-0.27,1.773-0.808,2.344c-0.539,0.571-1.31,0.856-2.312,0.856h-3.104v4.768H96.94z M98.285,19.971h3.104
		c0.533,0,0.946-0.138,1.24-0.416c0.293-0.277,0.44-0.672,0.44-1.184V17.54c0-0.512-0.147-0.907-0.44-1.184s-0.707-0.416-1.24-0.416
		h-3.104V19.971z"/>
	<path d="M110.812,26.115c-0.726,0-1.379-0.125-1.96-0.376c-0.582-0.25-1.078-0.619-1.488-1.104s-0.728-1.088-0.952-1.808
		c-0.224-0.72-0.336-1.549-0.336-2.488c0-0.938,0.112-1.765,0.336-2.48c0.224-0.714,0.541-1.317,0.952-1.808
		c0.411-0.49,0.907-0.861,1.488-1.112c0.581-0.25,1.234-0.376,1.96-0.376c0.714,0,1.365,0.125,1.952,0.376
		c0.586,0.25,1.085,0.622,1.496,1.112c0.411,0.491,0.728,1.094,0.952,1.808c0.224,0.715,0.336,1.542,0.336,2.48
		c0,0.939-0.112,1.768-0.336,2.488c-0.224,0.72-0.542,1.323-0.952,1.808s-0.909,0.854-1.496,1.104
		C112.178,25.99,111.527,26.115,110.812,26.115z M110.812,24.931c0.48,0,0.922-0.085,1.328-0.256
		c0.405-0.171,0.754-0.417,1.048-0.739c0.293-0.321,0.52-0.707,0.68-1.156c0.16-0.449,0.24-0.953,0.24-1.509v-1.862
		c0-0.557-0.08-1.06-0.24-1.509c-0.16-0.45-0.387-0.835-0.68-1.156c-0.293-0.321-0.643-0.567-1.048-0.738
		c-0.406-0.171-0.848-0.257-1.328-0.257s-0.923,0.085-1.328,0.257s-0.755,0.417-1.048,0.738c-0.293,0.321-0.52,0.707-0.68,1.156
		c-0.16,0.449-0.24,0.953-0.24,1.509v1.862c0,0.557,0.08,1.06,0.24,1.509c0.16,0.45,0.387,0.835,0.68,1.156
		c0.293,0.321,0.643,0.567,1.048,0.739C109.89,24.846,110.333,24.931,110.812,24.931z"/>
	<path d="M119.228,14.755v6.923c0,1.069,0.197,1.878,0.592,2.428c0.394,0.55,1.088,0.825,2.08,0.825c0.992,0,1.686-0.275,2.08-0.825
		c0.395-0.55,0.592-1.359,0.592-2.428v-6.923h1.344v6.592c0,0.811-0.072,1.515-0.216,2.112s-0.376,1.093-0.696,1.488
		c-0.32,0.395-0.739,0.688-1.256,0.88c-0.518,0.192-1.149,0.288-1.896,0.288s-1.374-0.096-1.88-0.288
		c-0.507-0.192-0.915-0.485-1.224-0.88c-0.31-0.395-0.531-0.891-0.664-1.488s-0.2-1.301-0.2-2.112v-6.592H119.228z"/>
	<path d="M132.748,26.115c-1.418,0-2.522-0.482-3.312-1.448s-1.184-2.387-1.184-4.264s0.394-3.32,1.184-4.328
		c0.79-1.008,1.894-1.512,3.312-1.512c0.938,0,1.726,0.21,2.36,0.632c0.634,0.421,1.128,1.021,1.48,1.8l-1.088,0.656
		c-0.224-0.576-0.565-1.037-1.024-1.384s-1.035-0.52-1.728-0.52c-0.48,0-0.909,0.091-1.288,0.273
		c-0.379,0.182-0.699,0.441-0.96,0.779c-0.261,0.337-0.461,0.738-0.6,1.204c-0.139,0.465-0.208,0.987-0.208,1.565v1.67
		c0,1.156,0.266,2.061,0.8,2.713c0.533,0.653,1.285,0.979,2.256,0.979c0.715,0,1.312-0.184,1.792-0.552s0.832-0.856,1.056-1.464
		l1.072,0.672c-0.352,0.79-0.859,1.408-1.52,1.856C134.486,25.891,133.686,26.115,132.748,26.115z"/>
	<path d="M142.715,26.115c-0.726,0-1.379-0.125-1.96-0.376c-0.582-0.25-1.078-0.619-1.488-1.104s-0.728-1.088-0.952-1.808
		c-0.224-0.72-0.336-1.549-0.336-2.488c0-0.938,0.112-1.765,0.336-2.48c0.224-0.714,0.541-1.317,0.952-1.808
		c0.411-0.49,0.907-0.861,1.488-1.112c0.581-0.25,1.234-0.376,1.96-0.376c0.714,0,1.365,0.125,1.952,0.376
		c0.586,0.25,1.085,0.622,1.496,1.112c0.411,0.491,0.728,1.094,0.952,1.808c0.224,0.715,0.336,1.542,0.336,2.48
		c0,0.939-0.112,1.768-0.336,2.488c-0.224,0.72-0.542,1.323-0.952,1.808s-0.909,0.854-1.496,1.104
		C144.081,25.99,143.43,26.115,142.715,26.115z M142.715,24.931c0.48,0,0.922-0.085,1.328-0.256
		c0.405-0.171,0.754-0.417,1.048-0.739c0.293-0.321,0.52-0.707,0.68-1.156c0.16-0.449,0.24-0.953,0.24-1.509v-1.862
		c0-0.557-0.08-1.06-0.24-1.509c-0.16-0.45-0.387-0.835-0.68-1.156c-0.293-0.321-0.643-0.567-1.048-0.738
		c-0.406-0.171-0.848-0.257-1.328-0.257s-0.923,0.085-1.328,0.257s-0.755,0.417-1.048,0.738c-0.293,0.321-0.52,0.707-0.68,1.156
		c-0.16,0.449-0.24,0.953-0.24,1.509v1.862c0,0.557,0.08,1.06,0.24,1.509c0.16,0.45,0.387,0.835,0.68,1.156
		c0.293,0.321,0.643,0.567,1.048,0.739C141.792,24.846,142.235,24.931,142.715,24.931z"/>
</g>
<g>
	<path d="M242.371,25.923h-1.344V14.755h4.448c0.981,0,1.747,0.272,2.296,0.816s0.824,1.328,0.824,2.352
		c0,0.821-0.189,1.496-0.568,2.024c-0.378,0.528-0.936,0.877-1.672,1.048l2.56,4.928h-1.52l-2.416-4.8h-2.608V25.923z
		 M245.475,19.971c0.533,0,0.946-0.138,1.24-0.416c0.293-0.277,0.44-0.672,0.44-1.184V17.54c0-0.512-0.147-0.907-0.44-1.184
		s-0.707-0.416-1.24-0.416h-3.104v4.032H245.475z"/>
	<path d="M258.259,25.923l-1.12-3.296h-4.512l-1.12,3.296h-1.36l3.904-11.168h1.712l3.904,11.168H258.259z M254.915,16.003h-0.08
		l-1.888,5.44h3.856L254.915,16.003z"/>
	<path d="M268.739,25.923h-8.128v-1.216l6.448-8.768h-6.112v-1.184h7.568v1.216l-6.464,8.768h6.688V25.923z"/>
	<path d="M274.739,26.115c-0.726,0-1.379-0.125-1.96-0.376c-0.582-0.25-1.078-0.619-1.488-1.104s-0.728-1.088-0.952-1.808
		c-0.224-0.72-0.336-1.549-0.336-2.488c0-0.938,0.112-1.765,0.336-2.48c0.224-0.714,0.541-1.317,0.952-1.808
		c0.411-0.49,0.907-0.861,1.488-1.112c0.581-0.25,1.234-0.376,1.96-0.376c0.714,0,1.365,0.125,1.952,0.376
		c0.586,0.25,1.085,0.622,1.496,1.112c0.411,0.491,0.728,1.094,0.952,1.808c0.224,0.715,0.336,1.542,0.336,2.48
		c0,0.939-0.112,1.768-0.336,2.488c-0.224,0.72-0.542,1.323-0.952,1.808s-0.909,0.854-1.496,1.104
		C276.104,25.99,275.453,26.115,274.739,26.115z M274.739,24.931c0.48,0,0.922-0.085,1.328-0.256
		c0.405-0.171,0.754-0.417,1.048-0.739c0.293-0.321,0.52-0.707,0.68-1.156c0.16-0.449,0.24-0.953,0.24-1.509v-1.862
		c0-0.557-0.08-1.06-0.24-1.509c-0.16-0.45-0.387-0.835-0.68-1.156c-0.293-0.321-0.643-0.567-1.048-0.738
		c-0.406-0.171-0.848-0.257-1.328-0.257s-0.923,0.085-1.328,0.257s-0.755,0.417-1.048,0.738c-0.293,0.321-0.52,0.707-0.68,1.156
		c-0.16,0.449-0.24,0.953-0.24,1.509v1.862c0,0.557,0.08,1.06,0.24,1.509c0.16,0.45,0.387,0.835,0.68,1.156
		c0.293,0.321,0.643,0.567,1.048,0.739C273.816,24.846,274.259,24.931,274.739,24.931z"/>
	<path d="M288.642,25.923l-1.12-3.296h-4.512l-1.12,3.296h-1.36l3.904-11.168h1.712l3.904,11.168H288.642z M285.298,16.003h-0.08
		l-1.888,5.44h3.856L285.298,16.003z"/>
	<path d="M293.794,25.923l-3.712-11.168h1.44l1.84,5.632l1.232,4.192h0.08l1.264-4.192l1.856-5.632h1.392l-3.76,11.168H293.794z"/>
	<path d="M300.994,25.923V14.755h6.816v1.184h-5.472v3.744h5.152v1.184h-5.152v3.872h5.472v1.184H300.994z"/>
	<path d="M310.322,25.923V14.755h1.344v9.984h4.752v1.184H310.322z"/>
	<path d="M327.042,16.515h-0.08l-0.944,1.872l-2.672,4.864l-2.672-4.864l-0.943-1.872h-0.08v9.408h-1.312V14.755h1.792l3.2,6.016
		h0.08l3.216-6.016h1.728v11.168h-1.312V16.515z"/>
	<path d="M331.33,25.923V14.755h6.816v1.184h-5.473v3.744h5.152v1.184h-5.152v3.872h5.473v1.184H331.33z"/>
	<path d="M343.362,19.107l-1.344-2.48h-0.048v9.296h-1.312V14.755h1.553l4.08,6.816l1.344,2.48h0.048v-9.296h1.312v11.168h-1.552
		L343.362,19.107z"/>
	<path d="M355.73,15.939v9.984h-1.345v-9.984h-3.552v-1.184h8.447v1.184H355.73z"/>
	<path d="M361.121,25.923V14.755h6.816v1.184h-5.472v3.744h5.151v1.184h-5.151v3.872h5.472v1.184H361.121z"/>
</g>
<g>
	<path d="M471.631,16.515h-0.08l-0.943,1.872l-2.672,4.864l-2.672-4.864l-0.944-1.872h-0.08v9.408h-1.312V14.755h1.791l3.201,6.016
		H468l3.215-6.016h1.729v11.168h-1.312V16.515z"/>
	<path d="M477.184,14.755v6.923c0,1.069,0.197,1.878,0.592,2.428c0.395,0.55,1.088,0.825,2.08,0.825s1.686-0.275,2.08-0.825
		c0.395-0.55,0.592-1.359,0.592-2.428v-6.923h1.344v6.592c0,0.811-0.072,1.515-0.216,2.112s-0.376,1.093-0.696,1.488
		c-0.32,0.395-0.738,0.688-1.256,0.88c-0.518,0.192-1.149,0.288-1.896,0.288c-0.746,0-1.373-0.096-1.879-0.288
		c-0.508-0.192-0.916-0.485-1.225-0.88c-0.31-0.395-0.531-0.891-0.664-1.488s-0.199-1.301-0.199-2.112v-6.592H477.184z"/>
	<path d="M486.238,25.923v-1.12h1.568v-8.928h-1.568v-1.12h4.48v1.12h-1.568v8.928h1.568v1.12H486.238z"/>
	<path d="M496.814,15.939v9.984h-1.344v-9.984h-3.552v-1.184h8.448v1.184H496.814z"/>
	<path d="M506.062,26.115c-0.725,0-1.379-0.125-1.959-0.376c-0.582-0.25-1.078-0.619-1.488-1.104
		c-0.411-0.485-0.729-1.088-0.952-1.808c-0.224-0.72-0.336-1.549-0.336-2.488c0-0.938,0.112-1.765,0.336-2.48
		c0.224-0.714,0.541-1.317,0.952-1.808c0.41-0.49,0.906-0.861,1.488-1.112c0.58-0.25,1.234-0.376,1.959-0.376
		c0.715,0,1.365,0.125,1.953,0.376c0.586,0.25,1.084,0.622,1.495,1.112c0.411,0.491,0.728,1.094,0.952,1.808
		c0.225,0.715,0.336,1.542,0.336,2.48c0,0.939-0.111,1.768-0.336,2.488c-0.225,0.72-0.541,1.323-0.952,1.808
		s-0.909,0.854-1.495,1.104C507.428,25.99,506.777,26.115,506.062,26.115z M506.062,24.931c0.48,0,0.923-0.085,1.328-0.256
		c0.406-0.171,0.755-0.417,1.049-0.739c0.293-0.321,0.52-0.707,0.68-1.156c0.16-0.449,0.24-0.953,0.24-1.509v-1.862
		c0-0.557-0.08-1.06-0.24-1.509c-0.16-0.45-0.387-0.835-0.68-1.156c-0.294-0.321-0.643-0.567-1.049-0.738
		c-0.405-0.171-0.848-0.257-1.328-0.257c-0.479,0-0.922,0.085-1.328,0.257c-0.404,0.171-0.754,0.417-1.047,0.738
		c-0.294,0.321-0.521,0.707-0.681,1.156c-0.159,0.449-0.239,0.953-0.239,1.509v1.862c0,0.557,0.08,1.06,0.239,1.509
		c0.16,0.45,0.387,0.835,0.681,1.156c0.293,0.321,0.643,0.567,1.047,0.739C505.141,24.846,505.583,24.931,506.062,24.931z"/>
</g>
</svg>
